%TF.GenerationSoftware,KiCad,Pcbnew,(6.0.5)*%
%TF.CreationDate,2022-10-08T22:42:16+08:00*%
%TF.ProjectId,LabPrecisionVoltageSource_V1.2,4c616250-7265-4636-9973-696f6e566f6c,rev?*%
%TF.SameCoordinates,Original*%
%TF.FileFunction,Soldermask,Bot*%
%TF.FilePolarity,Negative*%
%FSLAX46Y46*%
G04 Gerber Fmt 4.6, Leading zero omitted, Abs format (unit mm)*
G04 Created by KiCad (PCBNEW (6.0.5)) date 2022-10-08 22:42:16*
%MOMM*%
%LPD*%
G01*
G04 APERTURE LIST*
G04 Aperture macros list*
%AMRoundRect*
0 Rectangle with rounded corners*
0 $1 Rounding radius*
0 $2 $3 $4 $5 $6 $7 $8 $9 X,Y pos of 4 corners*
0 Add a 4 corners polygon primitive as box body*
4,1,4,$2,$3,$4,$5,$6,$7,$8,$9,$2,$3,0*
0 Add four circle primitives for the rounded corners*
1,1,$1+$1,$2,$3*
1,1,$1+$1,$4,$5*
1,1,$1+$1,$6,$7*
1,1,$1+$1,$8,$9*
0 Add four rect primitives between the rounded corners*
20,1,$1+$1,$2,$3,$4,$5,0*
20,1,$1+$1,$4,$5,$6,$7,0*
20,1,$1+$1,$6,$7,$8,$9,0*
20,1,$1+$1,$8,$9,$2,$3,0*%
G04 Aperture macros list end*
%ADD10C,2.240000*%
%ADD11C,2.740000*%
%ADD12C,2.200000*%
%ADD13R,1.700000X1.700000*%
%ADD14O,1.700000X1.700000*%
%ADD15RoundRect,0.200000X0.275000X-0.200000X0.275000X0.200000X-0.275000X0.200000X-0.275000X-0.200000X0*%
%ADD16RoundRect,0.225000X-0.250000X0.225000X-0.250000X-0.225000X0.250000X-0.225000X0.250000X0.225000X0*%
%ADD17RoundRect,0.250000X-0.450000X-0.425000X0.450000X-0.425000X0.450000X0.425000X-0.450000X0.425000X0*%
%ADD18RoundRect,0.250000X-0.425000X0.450000X-0.425000X-0.450000X0.425000X-0.450000X0.425000X0.450000X0*%
%ADD19RoundRect,0.250000X0.450000X0.425000X-0.450000X0.425000X-0.450000X-0.425000X0.450000X-0.425000X0*%
%ADD20RoundRect,0.225000X0.250000X-0.225000X0.250000X0.225000X-0.250000X0.225000X-0.250000X-0.225000X0*%
G04 APERTURE END LIST*
D10*
%TO.C,J101*%
X189400000Y-94700000D03*
D11*
X186860000Y-92160000D03*
X191940000Y-92160000D03*
X186860000Y-97240000D03*
X191940000Y-97240000D03*
%TD*%
D12*
%TO.C,H103*%
X128578396Y-84775865D03*
%TD*%
D13*
%TO.C,J102*%
X122081141Y-101069677D03*
D14*
X124621141Y-101069677D03*
X122081141Y-98529677D03*
X124621141Y-98529677D03*
X122081141Y-95989677D03*
X124621141Y-95989677D03*
X122081141Y-93449677D03*
X124621141Y-93449677D03*
X122081141Y-90909677D03*
X124621141Y-90909677D03*
X122081141Y-88369677D03*
X124621141Y-88369677D03*
%TD*%
D12*
%TO.C,H104*%
X192574195Y-84775863D03*
%TD*%
%TO.C,H102*%
X128578398Y-104725861D03*
%TD*%
%TO.C,H101*%
X192574196Y-104775862D03*
%TD*%
D15*
%TO.C,R402*%
X177211670Y-95338454D03*
X177211670Y-93688454D03*
%TD*%
D16*
%TO.C,C401*%
X173911670Y-93738456D03*
X173911670Y-95288456D03*
%TD*%
D17*
%TO.C,C503*%
X186161671Y-101813455D03*
X188861671Y-101813455D03*
%TD*%
D18*
%TO.C,C402*%
X171961671Y-93063456D03*
X171961671Y-95763456D03*
%TD*%
D16*
%TO.C,C302*%
X163421143Y-94050862D03*
X163421143Y-95600862D03*
%TD*%
D15*
%TO.C,R401*%
X175561669Y-95338456D03*
X175561669Y-93688456D03*
%TD*%
D19*
%TO.C,C506*%
X182761671Y-106063456D03*
X180061671Y-106063456D03*
%TD*%
D20*
%TO.C,C407*%
X175111671Y-105488455D03*
X175111671Y-103938455D03*
%TD*%
G36*
X193076117Y-80400321D02*
G01*
X193346779Y-80419677D01*
X193364576Y-80422236D01*
X193625795Y-80479065D01*
X193643044Y-80484130D01*
X193893522Y-80577557D01*
X193909874Y-80585025D01*
X194144505Y-80713145D01*
X194159628Y-80722864D01*
X194373637Y-80883070D01*
X194387224Y-80894843D01*
X194576259Y-81083879D01*
X194588031Y-81097464D01*
X194748238Y-81311473D01*
X194757957Y-81326597D01*
X194886078Y-81561230D01*
X194893546Y-81577583D01*
X194986970Y-81828057D01*
X194992035Y-81845305D01*
X195048864Y-82106527D01*
X195051423Y-82124320D01*
X195054334Y-82165008D01*
X195039244Y-82234383D01*
X194989043Y-82284586D01*
X194928655Y-82300000D01*
X119226000Y-82300000D01*
X119157879Y-82279998D01*
X119111386Y-82226342D01*
X119100000Y-82174000D01*
X119100000Y-82089545D01*
X119102881Y-82062755D01*
X119150196Y-81845309D01*
X119155262Y-81828061D01*
X119248700Y-81577582D01*
X119256167Y-81561231D01*
X119384296Y-81326598D01*
X119394016Y-81311475D01*
X119554230Y-81097469D01*
X119566002Y-81083884D01*
X119755040Y-80894852D01*
X119768626Y-80883080D01*
X119982640Y-80722874D01*
X119997763Y-80713155D01*
X120232401Y-80585033D01*
X120248752Y-80577566D01*
X120499230Y-80484140D01*
X120516479Y-80479075D01*
X120777695Y-80422247D01*
X120795503Y-80419687D01*
X121066659Y-80400320D01*
X121075636Y-80400000D01*
X193067129Y-80400000D01*
X193076117Y-80400321D01*
G37*
G36*
X194996795Y-107320002D02*
G01*
X195043288Y-107373658D01*
X195054354Y-107434981D01*
X195051451Y-107475606D01*
X195048892Y-107493407D01*
X194992070Y-107754630D01*
X194987005Y-107771880D01*
X194893583Y-108022360D01*
X194886115Y-108038713D01*
X194757994Y-108273352D01*
X194748274Y-108288476D01*
X194588068Y-108502486D01*
X194576295Y-108516073D01*
X194387256Y-108705109D01*
X194373669Y-108716882D01*
X194159653Y-108877090D01*
X194144529Y-108886809D01*
X193909897Y-109014923D01*
X193893543Y-109022392D01*
X193643053Y-109115814D01*
X193625803Y-109120878D01*
X193364572Y-109177699D01*
X193346794Y-109180256D01*
X193075647Y-109199677D01*
X193066620Y-109199999D01*
X121075630Y-109185788D01*
X121066656Y-109185466D01*
X120795496Y-109166050D01*
X120777714Y-109163493D01*
X120516481Y-109106670D01*
X120499231Y-109101605D01*
X120248753Y-109008186D01*
X120232400Y-109000718D01*
X119997769Y-108872604D01*
X119982645Y-108862885D01*
X119768632Y-108702679D01*
X119755045Y-108690906D01*
X119566010Y-108501874D01*
X119554237Y-108488288D01*
X119394030Y-108274279D01*
X119384311Y-108259154D01*
X119256193Y-108024524D01*
X119248724Y-108008171D01*
X119155302Y-107757694D01*
X119150237Y-107740445D01*
X119093411Y-107479217D01*
X119090853Y-107461423D01*
X119090321Y-107453985D01*
X119090000Y-107444996D01*
X119090000Y-107426000D01*
X119110002Y-107357879D01*
X119163658Y-107311386D01*
X119216000Y-107300000D01*
X194928674Y-107300000D01*
X194996795Y-107320002D01*
G37*
M02*
