%TF.GenerationSoftware,KiCad,Pcbnew,(6.0.5)*%
%TF.CreationDate,2022-10-08T22:42:16+08:00*%
%TF.ProjectId,LabPrecisionVoltageSource_V1.2,4c616250-7265-4636-9973-696f6e566f6c,rev?*%
%TF.SameCoordinates,Original*%
%TF.FileFunction,Copper,L2,Inr*%
%TF.FilePolarity,Positive*%
%FSLAX46Y46*%
G04 Gerber Fmt 4.6, Leading zero omitted, Abs format (unit mm)*
G04 Created by KiCad (PCBNEW (6.0.5)) date 2022-10-08 22:42:16*
%MOMM*%
%LPD*%
G01*
G04 APERTURE LIST*
%TA.AperFunction,ComponentPad*%
%ADD10C,2.240000*%
%TD*%
%TA.AperFunction,ComponentPad*%
%ADD11C,2.740000*%
%TD*%
%TA.AperFunction,ComponentPad*%
%ADD12R,1.700000X1.700000*%
%TD*%
%TA.AperFunction,ComponentPad*%
%ADD13O,1.700000X1.700000*%
%TD*%
%TA.AperFunction,ViaPad*%
%ADD14C,0.800000*%
%TD*%
%TA.AperFunction,ViaPad*%
%ADD15C,0.502000*%
%TD*%
%TA.AperFunction,ViaPad*%
%ADD16C,0.603000*%
%TD*%
%TA.AperFunction,ViaPad*%
%ADD17C,0.600000*%
%TD*%
G04 APERTURE END LIST*
D10*
%TO.N,/ADC/ADC_INPUT*%
%TO.C,J101*%
X189400000Y-94700000D03*
D11*
%TO.N,GND*%
X186860000Y-92160000D03*
X191940000Y-92160000D03*
X186860000Y-97240000D03*
X191940000Y-97240000D03*
%TD*%
D12*
%TO.N,VIN*%
%TO.C,J102*%
X122081141Y-101069677D03*
D13*
X124621141Y-101069677D03*
%TO.N,GND*%
X122081141Y-98529677D03*
X124621141Y-98529677D03*
%TO.N,/PMOD_SCK*%
X122081141Y-95989677D03*
%TO.N,unconnected-(J102-Pad6)*%
X124621141Y-95989677D03*
%TO.N,/PMOD_MISO*%
X122081141Y-93449677D03*
%TO.N,/ADC/ADC_CLKIN*%
X124621141Y-93449677D03*
%TO.N,/PMOD_MOSI*%
X122081141Y-90909677D03*
%TO.N,/PMOD_CS_ADC*%
X124621141Y-90909677D03*
%TO.N,/PMOD_CS_DAC*%
X122081141Y-88369677D03*
%TO.N,/ADC/ADC_IRQ*%
X124621141Y-88369677D03*
%TD*%
D14*
%TO.N,GND*%
X185800000Y-94700000D03*
X190300000Y-99300000D03*
X186600000Y-99600000D03*
X192700000Y-99400000D03*
D15*
%TO.N,VDD*%
X159074263Y-106200862D03*
X153633642Y-103091485D03*
%TO.N,GND*%
X149961670Y-87713456D03*
D14*
X145700000Y-81700000D03*
X122809000Y-107950000D03*
D15*
X169961669Y-106763455D03*
D14*
X191420000Y-81700000D03*
D15*
X146311671Y-100613456D03*
X151624261Y-97900865D03*
X133761669Y-84263455D03*
D16*
X133421141Y-93625861D03*
D15*
X171161671Y-97413457D03*
D16*
X156261671Y-106663457D03*
D14*
X148240000Y-81700000D03*
D16*
X133421139Y-92875863D03*
D14*
X140589000Y-107950000D03*
X168529000Y-107950000D03*
D16*
X134171141Y-92875864D03*
X133421141Y-94375860D03*
D14*
X163480000Y-81700000D03*
D15*
X179261671Y-96363455D03*
X151649263Y-91675864D03*
D14*
X186309000Y-107950000D03*
D16*
X133000000Y-89900000D03*
X164299264Y-96975864D03*
D15*
X168911672Y-106763455D03*
D14*
X125380000Y-81700000D03*
D15*
X178311671Y-100113456D03*
D14*
X176149000Y-107950000D03*
X138049000Y-107950000D03*
D15*
X150361671Y-104163456D03*
D14*
X127800000Y-89800000D03*
D15*
X134361671Y-85313456D03*
D16*
X134100000Y-91800000D03*
X153128512Y-93065864D03*
D14*
X181229000Y-107950000D03*
X188849000Y-107950000D03*
D15*
X151411668Y-87813455D03*
X148361669Y-91213455D03*
D14*
X145669000Y-107950000D03*
D16*
X179111671Y-103913457D03*
D15*
X168411671Y-100863455D03*
D16*
X163811670Y-100663457D03*
D15*
X188861668Y-100863457D03*
D14*
X168560000Y-81700000D03*
D15*
X171161670Y-96563457D03*
X172121142Y-85553985D03*
X146161671Y-87163455D03*
X178061670Y-89313457D03*
X169069265Y-102755863D03*
X152561671Y-86913456D03*
D14*
X143160000Y-81700000D03*
D15*
X189911670Y-101813455D03*
X168521142Y-103253985D03*
X180661669Y-96363455D03*
D14*
X188880000Y-81700000D03*
D16*
X142221143Y-92675865D03*
X157353139Y-106846861D03*
X140421142Y-92675860D03*
X132300000Y-97400000D03*
D15*
X176261670Y-89313457D03*
D16*
X144721141Y-86350864D03*
D14*
X120269000Y-107950000D03*
D16*
X134171141Y-93625862D03*
D15*
X176261670Y-92213457D03*
D14*
X127400000Y-95800000D03*
X160940000Y-81700000D03*
D15*
X172661672Y-99313455D03*
X177061671Y-92213456D03*
D14*
X140500000Y-100000000D03*
D16*
X142221143Y-94675862D03*
D14*
X127920000Y-81700000D03*
X120300000Y-81700000D03*
D16*
X146326642Y-85595363D03*
D14*
X186340000Y-81700000D03*
D15*
X148061671Y-88763455D03*
D14*
X135509000Y-107950000D03*
D15*
X158511672Y-98713456D03*
D16*
X162549263Y-96975865D03*
X132300000Y-96600000D03*
D15*
X182111672Y-98113457D03*
D16*
X132600000Y-91800000D03*
D15*
X172986669Y-94588455D03*
D16*
X169321142Y-94603984D03*
X176114263Y-103910861D03*
D15*
X152749263Y-91675864D03*
X152611670Y-88013456D03*
D16*
X149018511Y-93075864D03*
D15*
X181761669Y-106063456D03*
D14*
X153289000Y-107950000D03*
X183769000Y-107950000D03*
D15*
X138961670Y-84313456D03*
D14*
X178689000Y-107950000D03*
D16*
X134171141Y-94375862D03*
X144461671Y-104263456D03*
D15*
X147111671Y-100963457D03*
X174861668Y-99313455D03*
D14*
X158369000Y-107950000D03*
D15*
X148711669Y-97063457D03*
D14*
X176180000Y-81700000D03*
D15*
X177161670Y-89313457D03*
D14*
X181260000Y-81700000D03*
D15*
X147361670Y-97113457D03*
D16*
X149006513Y-93887863D03*
D14*
X122840000Y-81700000D03*
D15*
X188221141Y-86553986D03*
D14*
X153320000Y-81700000D03*
X132969000Y-107950000D03*
D15*
X145811670Y-97413457D03*
D14*
X148209000Y-107950000D03*
D15*
X178311670Y-99313454D03*
X152724265Y-97900863D03*
X178311671Y-96713456D03*
X182061671Y-96363455D03*
D14*
X143129000Y-107950000D03*
X166020000Y-81700000D03*
X171100000Y-81700000D03*
D15*
X188221141Y-84603985D03*
D14*
X160909000Y-107950000D03*
D15*
X138261671Y-85313455D03*
D14*
X150749000Y-107950000D03*
D16*
X139471142Y-94675862D03*
D14*
X191389000Y-107950000D03*
D15*
X157686670Y-98538456D03*
D14*
X173609000Y-107950000D03*
D15*
X183761671Y-106063456D03*
D14*
X171069000Y-107950000D03*
X129100000Y-90800000D03*
D15*
X174661670Y-92663456D03*
D14*
X163449000Y-107950000D03*
X193929000Y-107950000D03*
D15*
X172121140Y-84853984D03*
X183161671Y-97063457D03*
D14*
X130460000Y-81700000D03*
D15*
X137561670Y-84263456D03*
X135611671Y-85313455D03*
X145461670Y-100963457D03*
D16*
X139471141Y-92675865D03*
D15*
X177561669Y-99763455D03*
D14*
X155829000Y-107950000D03*
D15*
X151271141Y-92453984D03*
X150911671Y-88563455D03*
X171161670Y-98413456D03*
D14*
X183800000Y-81700000D03*
D16*
X141321141Y-92675862D03*
D15*
X148411670Y-87713456D03*
X142511670Y-98313457D03*
D14*
X158400000Y-81700000D03*
D15*
X149211670Y-88463456D03*
D16*
X133100000Y-96600000D03*
X132100000Y-89900000D03*
X146249265Y-104075861D03*
X132550000Y-90650000D03*
D15*
X146111670Y-95013456D03*
X146461670Y-96063454D03*
X187599265Y-83575861D03*
X144861670Y-98163457D03*
D14*
X125349000Y-107950000D03*
D16*
X169321142Y-92972930D03*
D15*
X188221141Y-83903986D03*
D14*
X165989000Y-107950000D03*
D16*
X140421140Y-94675864D03*
X132600000Y-95300000D03*
D14*
X139600000Y-100000000D03*
X127889000Y-107950000D03*
D15*
X176461671Y-99313455D03*
D16*
X143874141Y-97872863D03*
D15*
X148661671Y-95263455D03*
X136261669Y-84263456D03*
D14*
X150780000Y-81700000D03*
X178720000Y-81700000D03*
D15*
X153711671Y-88413455D03*
D16*
X141321140Y-94675862D03*
D15*
X135011671Y-84263456D03*
X132611670Y-84263456D03*
X171611668Y-99313455D03*
D16*
X173600000Y-92700000D03*
D14*
X129300000Y-98500000D03*
D15*
X136961671Y-85313457D03*
D16*
X134100000Y-95300000D03*
X149006511Y-92287862D03*
D15*
X147361670Y-95263457D03*
X175661670Y-99313455D03*
X142861670Y-97413457D03*
X172749265Y-85875863D03*
D14*
X193900000Y-81700000D03*
X127800000Y-92000000D03*
D16*
X148106514Y-92287862D03*
X143874141Y-89428861D03*
D14*
X133000000Y-81700000D03*
D16*
X148106513Y-93037862D03*
X152549077Y-104376051D03*
D14*
X127400000Y-98500000D03*
D15*
X133161671Y-85313456D03*
D16*
X148106513Y-93887865D03*
D15*
X151185770Y-98739355D03*
D14*
X135540000Y-81700000D03*
D16*
X153143143Y-99278862D03*
D14*
X155860000Y-81700000D03*
X127800000Y-93800000D03*
D15*
X188861670Y-102763456D03*
X176061672Y-100063455D03*
D14*
X140620000Y-81700000D03*
D15*
X167361669Y-100863456D03*
D16*
X175700000Y-92700000D03*
X176311669Y-86163456D03*
D14*
X130429000Y-107950000D03*
X138080000Y-81700000D03*
X173640000Y-81700000D03*
X127800000Y-88000000D03*
D15*
X187224076Y-85575863D03*
D16*
%TO.N,+15V*%
X184461670Y-100663457D03*
X155061669Y-90763457D03*
X184461670Y-102763456D03*
X184461671Y-85963455D03*
X184461670Y-85063456D03*
X184461671Y-101763455D03*
X155061671Y-89863456D03*
X172861671Y-102963456D03*
X184461670Y-99663456D03*
X184461671Y-84063455D03*
%TO.N,-15V*%
X176961669Y-106263455D03*
X175161670Y-84963457D03*
X175461670Y-87463458D03*
X178061670Y-106263457D03*
X175161670Y-86663457D03*
X155061671Y-96063454D03*
X176361670Y-87463457D03*
X155061669Y-96963457D03*
D15*
%TO.N,Net-(C215-Pad1)*%
X144171140Y-95275864D03*
X136271140Y-94475864D03*
%TO.N,VDDA*%
X171611671Y-89713456D03*
X165211670Y-106713457D03*
X153561670Y-84513457D03*
X171611668Y-90463455D03*
D16*
X161271143Y-94203985D03*
D15*
X164311670Y-106713457D03*
X166111670Y-106713457D03*
X171611671Y-91213457D03*
X167011669Y-106713457D03*
D16*
X161271143Y-92853985D03*
%TO.N,VIN*%
X143296143Y-94675862D03*
D15*
X137321142Y-94475864D03*
X137321142Y-92825865D03*
D16*
X146411672Y-84563455D03*
X142376141Y-91245863D03*
X142300144Y-96071864D03*
X146401641Y-102945364D03*
X143276141Y-91245863D03*
X147451641Y-102470363D03*
X148461668Y-84563455D03*
D15*
X137271141Y-93675863D03*
X138121142Y-94475864D03*
D16*
X143150142Y-96071862D03*
X136621140Y-93675862D03*
X143296144Y-92650863D03*
X148451640Y-102920365D03*
D15*
X138121142Y-92825865D03*
D16*
X144536671Y-84563455D03*
%TO.N,/Power/VPOS*%
X146211669Y-92863456D03*
X150004510Y-94581297D03*
D15*
%TO.N,Net-(C210-Pad1)*%
X144121141Y-92075863D03*
X136271142Y-92825865D03*
%TO.N,/ADC/ADC_CLKIN*%
X155161670Y-103713457D03*
%TO.N,/ADC/ADC_IRQ*%
X155711670Y-103113456D03*
%TO.N,Net-(R401-Pad1)*%
X175561671Y-96263456D03*
%TO.N,Net-(R402-Pad1)*%
X177211670Y-96263457D03*
%TO.N,/PMOD_CS_DAC*%
X175407439Y-89367688D03*
%TO.N,/PMOD_MOSI*%
X174411670Y-88613454D03*
X157761670Y-103363455D03*
X119461669Y-87650000D03*
%TO.N,/PMOD_MISO*%
X157761670Y-104063457D03*
X172811671Y-88613456D03*
X120311670Y-88413457D03*
%TO.N,/PMOD_SCK*%
X120085336Y-90314663D03*
X173611670Y-88613456D03*
X157761670Y-102663456D03*
%TO.N,/PMOD_CS_ADC*%
X157761670Y-101963455D03*
D17*
X123400000Y-95100000D03*
%TD*%
%TA.AperFunction,Conductor*%
%TO.N,GND*%
G36*
X193051213Y-80602431D02*
G01*
X193056948Y-80602441D01*
X193070776Y-80605621D01*
X193084618Y-80602489D01*
X193098475Y-80602513D01*
X193106485Y-80602783D01*
X193206762Y-80609357D01*
X193297773Y-80615324D01*
X193314112Y-80617475D01*
X193528777Y-80660178D01*
X193544696Y-80664444D01*
X193751955Y-80734801D01*
X193767180Y-80741108D01*
X193963469Y-80837909D01*
X193977741Y-80846149D01*
X194159728Y-80967750D01*
X194172795Y-80977776D01*
X194337370Y-81122106D01*
X194348996Y-81133732D01*
X194493326Y-81298307D01*
X194503352Y-81311374D01*
X194624952Y-81493361D01*
X194633191Y-81507631D01*
X194687745Y-81618252D01*
X194729993Y-81703921D01*
X194736300Y-81719147D01*
X194806659Y-81926412D01*
X194810923Y-81942324D01*
X194853625Y-82156992D01*
X194855776Y-82173331D01*
X194868415Y-82366108D01*
X194868685Y-82374567D01*
X194868666Y-82385778D01*
X194865486Y-82399609D01*
X194868618Y-82413450D01*
X194868610Y-82418283D01*
X194870642Y-82436471D01*
X194870642Y-82474000D01*
X194850640Y-82542121D01*
X194796984Y-82588614D01*
X194744642Y-82600000D01*
X190400000Y-82600000D01*
X190400000Y-93546131D01*
X190379998Y-93614252D01*
X190326342Y-93660745D01*
X190256068Y-93670849D01*
X190201729Y-93649344D01*
X190188713Y-93640230D01*
X190062772Y-93552045D01*
X190057790Y-93549722D01*
X190057785Y-93549719D01*
X189858345Y-93456719D01*
X189858344Y-93456718D01*
X189853363Y-93454396D01*
X189848055Y-93452974D01*
X189848053Y-93452973D01*
X189635493Y-93396018D01*
X189635491Y-93396018D01*
X189630178Y-93394594D01*
X189400000Y-93374456D01*
X189169822Y-93394594D01*
X189164509Y-93396018D01*
X189164507Y-93396018D01*
X188951947Y-93452973D01*
X188951945Y-93452974D01*
X188946637Y-93454396D01*
X188941656Y-93456718D01*
X188941655Y-93456719D01*
X188742215Y-93549719D01*
X188742210Y-93549722D01*
X188737228Y-93552045D01*
X188732721Y-93555201D01*
X188732719Y-93555202D01*
X188552468Y-93681415D01*
X188552465Y-93681417D01*
X188547957Y-93684574D01*
X188384574Y-93847957D01*
X188381417Y-93852465D01*
X188381415Y-93852468D01*
X188255202Y-94032719D01*
X188252045Y-94037228D01*
X188249722Y-94042210D01*
X188249719Y-94042215D01*
X188162104Y-94230107D01*
X188154396Y-94246637D01*
X188152974Y-94251945D01*
X188152973Y-94251947D01*
X188108244Y-94418878D01*
X188094594Y-94469822D01*
X188074456Y-94700000D01*
X188094594Y-94930178D01*
X188096018Y-94935491D01*
X188096018Y-94935493D01*
X188151486Y-95142501D01*
X188154396Y-95153363D01*
X188156718Y-95158344D01*
X188156719Y-95158345D01*
X188249719Y-95357785D01*
X188249722Y-95357790D01*
X188252045Y-95362772D01*
X188255201Y-95367279D01*
X188255202Y-95367281D01*
X188369795Y-95530936D01*
X188384574Y-95552043D01*
X188547957Y-95715426D01*
X188552465Y-95718583D01*
X188552468Y-95718585D01*
X188732445Y-95844606D01*
X188737228Y-95847955D01*
X188742210Y-95850278D01*
X188742215Y-95850281D01*
X188941655Y-95943281D01*
X188946637Y-95945604D01*
X188951945Y-95947026D01*
X188951947Y-95947027D01*
X189164507Y-96003982D01*
X189164509Y-96003982D01*
X189169822Y-96005406D01*
X189400000Y-96025544D01*
X189630178Y-96005406D01*
X189635491Y-96003982D01*
X189635493Y-96003982D01*
X189848053Y-95947027D01*
X189848055Y-95947026D01*
X189853363Y-95945604D01*
X189858345Y-95943281D01*
X190057785Y-95850281D01*
X190057790Y-95850278D01*
X190062772Y-95847955D01*
X190201730Y-95750656D01*
X190269003Y-95727968D01*
X190337864Y-95745253D01*
X190386448Y-95797023D01*
X190400000Y-95853869D01*
X190400000Y-107000000D01*
X194744642Y-107000000D01*
X194812763Y-107020002D01*
X194859256Y-107073658D01*
X194870642Y-107126000D01*
X194870642Y-107162883D01*
X194868675Y-107180210D01*
X194868666Y-107185779D01*
X194865486Y-107199607D01*
X194868619Y-107213447D01*
X194868595Y-107227315D01*
X194868325Y-107235339D01*
X194855791Y-107426606D01*
X194853640Y-107442946D01*
X194810944Y-107657611D01*
X194806678Y-107673533D01*
X194736327Y-107880785D01*
X194730021Y-107896010D01*
X194636554Y-108085546D01*
X194633218Y-108092310D01*
X194624977Y-108106584D01*
X194503379Y-108288568D01*
X194493353Y-108301635D01*
X194349022Y-108466211D01*
X194337397Y-108477836D01*
X194172823Y-108622162D01*
X194159753Y-108632190D01*
X193977767Y-108753786D01*
X193963493Y-108762027D01*
X193767192Y-108858828D01*
X193751964Y-108865135D01*
X193648339Y-108900309D01*
X193544709Y-108935484D01*
X193528799Y-108939747D01*
X193420719Y-108961243D01*
X193314120Y-108982444D01*
X193297779Y-108984594D01*
X193104812Y-108997236D01*
X193096351Y-108997506D01*
X193085333Y-108997486D01*
X193071504Y-108994306D01*
X193057664Y-108997437D01*
X193052973Y-108997429D01*
X193034475Y-108999493D01*
X182659904Y-108997445D01*
X158025973Y-108992582D01*
X157957858Y-108972567D01*
X157911376Y-108918903D01*
X157900000Y-108866583D01*
X157900000Y-107200000D01*
X157894681Y-107200000D01*
X157886800Y-107173160D01*
X157881696Y-107137662D01*
X157881697Y-106731269D01*
X157881697Y-106707884D01*
X163855561Y-106707884D01*
X163856725Y-106716786D01*
X163856725Y-106716789D01*
X163863256Y-106766730D01*
X163872330Y-106836123D01*
X163875944Y-106844336D01*
X163875945Y-106844340D01*
X163910494Y-106922856D01*
X163924418Y-106954500D01*
X164007636Y-107053501D01*
X164115295Y-107125165D01*
X164238741Y-107163732D01*
X164368050Y-107166102D01*
X164456011Y-107142121D01*
X164484167Y-107134445D01*
X164484169Y-107134444D01*
X164492826Y-107132084D01*
X164603039Y-107064413D01*
X164668801Y-106991762D01*
X164729344Y-106954681D01*
X164800324Y-106956219D01*
X164858664Y-106995241D01*
X164907636Y-107053501D01*
X165015295Y-107125165D01*
X165138741Y-107163732D01*
X165268050Y-107166102D01*
X165356011Y-107142121D01*
X165384167Y-107134445D01*
X165384169Y-107134444D01*
X165392826Y-107132084D01*
X165503039Y-107064413D01*
X165568801Y-106991762D01*
X165629344Y-106954681D01*
X165700324Y-106956219D01*
X165758664Y-106995241D01*
X165807636Y-107053501D01*
X165915295Y-107125165D01*
X166038741Y-107163732D01*
X166168050Y-107166102D01*
X166256011Y-107142121D01*
X166284167Y-107134445D01*
X166284169Y-107134444D01*
X166292826Y-107132084D01*
X166403039Y-107064413D01*
X166468800Y-106991763D01*
X166529343Y-106954682D01*
X166600323Y-106956220D01*
X166658665Y-106995244D01*
X166707635Y-107053501D01*
X166815294Y-107125165D01*
X166938740Y-107163732D01*
X167068049Y-107166102D01*
X167156010Y-107142121D01*
X167184166Y-107134445D01*
X167184168Y-107134444D01*
X167192825Y-107132084D01*
X167303038Y-107064413D01*
X167389829Y-106968529D01*
X167446219Y-106852140D01*
X167467676Y-106724602D01*
X167467812Y-106713457D01*
X167449477Y-106585433D01*
X167435054Y-106553709D01*
X167399665Y-106475875D01*
X167399665Y-106475874D01*
X167395948Y-106467700D01*
X167390087Y-106460898D01*
X167317384Y-106376522D01*
X167317382Y-106376520D01*
X167311526Y-106369724D01*
X167202999Y-106299381D01*
X167194404Y-106296811D01*
X167194403Y-106296810D01*
X167087692Y-106264896D01*
X167087690Y-106264896D01*
X167079091Y-106262324D01*
X167070116Y-106262269D01*
X167070115Y-106262269D01*
X167015409Y-106261935D01*
X166949763Y-106261534D01*
X166825412Y-106297074D01*
X166716034Y-106366087D01*
X166710091Y-106372816D01*
X166655928Y-106434143D01*
X166595841Y-106471961D01*
X166524848Y-106471290D01*
X166466035Y-106432983D01*
X166411527Y-106369724D01*
X166303000Y-106299381D01*
X166294405Y-106296811D01*
X166294404Y-106296810D01*
X166187693Y-106264896D01*
X166187691Y-106264896D01*
X166179092Y-106262324D01*
X166170117Y-106262269D01*
X166170116Y-106262269D01*
X166115410Y-106261935D01*
X166049764Y-106261534D01*
X165925413Y-106297074D01*
X165816035Y-106366087D01*
X165810092Y-106372816D01*
X165755929Y-106434143D01*
X165695842Y-106471961D01*
X165624849Y-106471290D01*
X165566035Y-106432983D01*
X165517385Y-106376522D01*
X165517383Y-106376520D01*
X165511527Y-106369724D01*
X165403000Y-106299381D01*
X165394405Y-106296811D01*
X165394404Y-106296810D01*
X165287693Y-106264896D01*
X165287691Y-106264896D01*
X165279092Y-106262324D01*
X165270117Y-106262269D01*
X165270116Y-106262269D01*
X165215410Y-106261935D01*
X165149764Y-106261534D01*
X165025413Y-106297074D01*
X164916035Y-106366087D01*
X164910092Y-106372816D01*
X164855929Y-106434143D01*
X164795842Y-106471961D01*
X164724849Y-106471290D01*
X164666035Y-106432983D01*
X164617385Y-106376522D01*
X164617383Y-106376520D01*
X164611527Y-106369724D01*
X164503000Y-106299381D01*
X164494405Y-106296811D01*
X164494404Y-106296810D01*
X164387693Y-106264896D01*
X164387691Y-106264896D01*
X164379092Y-106262324D01*
X164370117Y-106262269D01*
X164370116Y-106262269D01*
X164315410Y-106261935D01*
X164249764Y-106261534D01*
X164125413Y-106297074D01*
X164016035Y-106366087D01*
X164010092Y-106372816D01*
X163956955Y-106432982D01*
X163930422Y-106463024D01*
X163905726Y-106515624D01*
X163891858Y-106545164D01*
X163875458Y-106580094D01*
X163874077Y-106588962D01*
X163874077Y-106588963D01*
X163856942Y-106699011D01*
X163856942Y-106699015D01*
X163855561Y-106707884D01*
X157881697Y-106707884D01*
X157881697Y-106195289D01*
X158618154Y-106195289D01*
X158619318Y-106204191D01*
X158619318Y-106204194D01*
X158626920Y-106262324D01*
X158634923Y-106323528D01*
X158638537Y-106331741D01*
X158638538Y-106331745D01*
X158658241Y-106376521D01*
X158687011Y-106441905D01*
X158770229Y-106540906D01*
X158877888Y-106612570D01*
X158948588Y-106634658D01*
X158988131Y-106647012D01*
X159001334Y-106651137D01*
X159130643Y-106653507D01*
X159199780Y-106634658D01*
X159246760Y-106621850D01*
X159246762Y-106621849D01*
X159255419Y-106619489D01*
X159365632Y-106551818D01*
X159452423Y-106455934D01*
X159492693Y-106372816D01*
X159504899Y-106347624D01*
X159504899Y-106347623D01*
X159508813Y-106339545D01*
X159522657Y-106257259D01*
X176454545Y-106257259D01*
X176455709Y-106266161D01*
X176455709Y-106266164D01*
X176472026Y-106390942D01*
X176473190Y-106399841D01*
X176531103Y-106531459D01*
X176536880Y-106538332D01*
X176536881Y-106538333D01*
X176617849Y-106634656D01*
X176623629Y-106641532D01*
X176743330Y-106721212D01*
X176880583Y-106764093D01*
X177024355Y-106766728D01*
X177067176Y-106755054D01*
X177154425Y-106731267D01*
X177154428Y-106731266D01*
X177163087Y-106728905D01*
X177170737Y-106724208D01*
X177170739Y-106724207D01*
X177224358Y-106691285D01*
X177285628Y-106653665D01*
X177292104Y-106646511D01*
X177376103Y-106553709D01*
X177382125Y-106547056D01*
X177397304Y-106515727D01*
X177445005Y-106463144D01*
X177513564Y-106444698D01*
X177581212Y-106466245D01*
X177622545Y-106515749D01*
X177622746Y-106515624D01*
X177623641Y-106517062D01*
X177626024Y-106519916D01*
X177631104Y-106531461D01*
X177636881Y-106538333D01*
X177636882Y-106538335D01*
X177648216Y-106551818D01*
X177723630Y-106641534D01*
X177843331Y-106721214D01*
X177980584Y-106764095D01*
X178124356Y-106766730D01*
X178167177Y-106755056D01*
X178254426Y-106731269D01*
X178254429Y-106731268D01*
X178263088Y-106728907D01*
X178270738Y-106724210D01*
X178270740Y-106724209D01*
X178324359Y-106691287D01*
X178385629Y-106653667D01*
X178482126Y-106547058D01*
X178526276Y-106455934D01*
X178540911Y-106425728D01*
X178540912Y-106425726D01*
X178544824Y-106417651D01*
X178554305Y-106361296D01*
X178567875Y-106280641D01*
X178567875Y-106280636D01*
X178568681Y-106275848D01*
X178568832Y-106263457D01*
X178548447Y-106121114D01*
X178543815Y-106110925D01*
X178520375Y-106059373D01*
X178488930Y-105990213D01*
X178413110Y-105902219D01*
X178400924Y-105888076D01*
X178400922Y-105888074D01*
X178395066Y-105881278D01*
X178274400Y-105803067D01*
X178136633Y-105761866D01*
X178127657Y-105761811D01*
X178127656Y-105761811D01*
X178067691Y-105761445D01*
X177992840Y-105760987D01*
X177854580Y-105800502D01*
X177779042Y-105848164D01*
X177770597Y-105853492D01*
X177732968Y-105877234D01*
X177727027Y-105883961D01*
X177727025Y-105883963D01*
X177723393Y-105888076D01*
X177637780Y-105985013D01*
X177626047Y-106010005D01*
X177578993Y-106063164D01*
X177510665Y-106082447D01*
X177442759Y-106061728D01*
X177397292Y-106008604D01*
X177392647Y-105998387D01*
X177392645Y-105998384D01*
X177388929Y-105990211D01*
X177352819Y-105948303D01*
X177300923Y-105888074D01*
X177300921Y-105888072D01*
X177295065Y-105881276D01*
X177174399Y-105803065D01*
X177036632Y-105761864D01*
X177027656Y-105761809D01*
X177027655Y-105761809D01*
X176967690Y-105761443D01*
X176892839Y-105760985D01*
X176754579Y-105800500D01*
X176632967Y-105877232D01*
X176627024Y-105883961D01*
X176623392Y-105888074D01*
X176537779Y-105985011D01*
X176533966Y-105993133D01*
X176533964Y-105993136D01*
X176480483Y-106107049D01*
X176476668Y-106115175D01*
X176475287Y-106124044D01*
X176462348Y-106207146D01*
X176454545Y-106257259D01*
X159522657Y-106257259D01*
X159530270Y-106212007D01*
X159530406Y-106200862D01*
X159512071Y-106072838D01*
X159506655Y-106060924D01*
X159462259Y-105963280D01*
X159462259Y-105963279D01*
X159458542Y-105955105D01*
X159452681Y-105948303D01*
X159379978Y-105863927D01*
X159379976Y-105863925D01*
X159374120Y-105857129D01*
X159265593Y-105786786D01*
X159256998Y-105784216D01*
X159256997Y-105784215D01*
X159150286Y-105752301D01*
X159150284Y-105752301D01*
X159141685Y-105749729D01*
X159132710Y-105749674D01*
X159132709Y-105749674D01*
X159078003Y-105749340D01*
X159012357Y-105748939D01*
X158888006Y-105784479D01*
X158778628Y-105853492D01*
X158772685Y-105860221D01*
X158751717Y-105883963D01*
X158693015Y-105950429D01*
X158638051Y-106067499D01*
X158636670Y-106076367D01*
X158636670Y-106076368D01*
X158619535Y-106186416D01*
X158619535Y-106186420D01*
X158618154Y-106195289D01*
X157881697Y-106195289D01*
X157881697Y-104589917D01*
X157901699Y-104521796D01*
X157944757Y-104485228D01*
X157942826Y-104482084D01*
X157962197Y-104470190D01*
X158053039Y-104414413D01*
X158139830Y-104318529D01*
X158196220Y-104202140D01*
X158217677Y-104074602D01*
X158217813Y-104063457D01*
X158199478Y-103935433D01*
X158164714Y-103858971D01*
X158149666Y-103825875D01*
X158149666Y-103825874D01*
X158145949Y-103817700D01*
X158136123Y-103806296D01*
X158127682Y-103796499D01*
X158098368Y-103731837D01*
X158108667Y-103661591D01*
X158129721Y-103629695D01*
X158133805Y-103625183D01*
X158139830Y-103618527D01*
X158176944Y-103541924D01*
X158192306Y-103510217D01*
X158192306Y-103510216D01*
X158196220Y-103502138D01*
X158217677Y-103374600D01*
X158217813Y-103363455D01*
X158199478Y-103235431D01*
X158194376Y-103224208D01*
X158149666Y-103125873D01*
X158149666Y-103125872D01*
X158145949Y-103117698D01*
X158137097Y-103107425D01*
X158127682Y-103096498D01*
X158098369Y-103031836D01*
X158108668Y-102961590D01*
X158111526Y-102957260D01*
X172354547Y-102957260D01*
X172355711Y-102966162D01*
X172355711Y-102966165D01*
X172372028Y-103090943D01*
X172373192Y-103099842D01*
X172393726Y-103146510D01*
X172426928Y-103221966D01*
X172431105Y-103231460D01*
X172436882Y-103238333D01*
X172436883Y-103238334D01*
X172517851Y-103334657D01*
X172523631Y-103341533D01*
X172643332Y-103421213D01*
X172780585Y-103464094D01*
X172924357Y-103466729D01*
X172978536Y-103451958D01*
X173054427Y-103431268D01*
X173054430Y-103431267D01*
X173063089Y-103428906D01*
X173070739Y-103424209D01*
X173070741Y-103424208D01*
X173159452Y-103369739D01*
X173185630Y-103353666D01*
X173220382Y-103315273D01*
X173276105Y-103253710D01*
X173282127Y-103247057D01*
X173344825Y-103117650D01*
X173348435Y-103096194D01*
X173353943Y-103063456D01*
X176661671Y-103063456D01*
X179935671Y-103063456D01*
X180003792Y-103083458D01*
X180050285Y-103137114D01*
X180061671Y-103189455D01*
X180061669Y-104263457D01*
X185261670Y-104263457D01*
X185261670Y-103563457D01*
X184824788Y-103563457D01*
X180887670Y-103563456D01*
X180819549Y-103543454D01*
X180773056Y-103489798D01*
X180761670Y-103437456D01*
X180761670Y-102757260D01*
X183954546Y-102757260D01*
X183955710Y-102766162D01*
X183955710Y-102766165D01*
X183971131Y-102884088D01*
X183973191Y-102899842D01*
X183998673Y-102957755D01*
X184022842Y-103012682D01*
X184031104Y-103031460D01*
X184036881Y-103038333D01*
X184036882Y-103038334D01*
X184107181Y-103121965D01*
X184123630Y-103141533D01*
X184141857Y-103153666D01*
X184231546Y-103213368D01*
X184243331Y-103221213D01*
X184380584Y-103264094D01*
X184524356Y-103266729D01*
X184577871Y-103252139D01*
X184654426Y-103231268D01*
X184654429Y-103231267D01*
X184663088Y-103228906D01*
X184670738Y-103224209D01*
X184670740Y-103224208D01*
X184742497Y-103180149D01*
X184785629Y-103153666D01*
X184818186Y-103117698D01*
X184876104Y-103053710D01*
X184882126Y-103047057D01*
X184921318Y-102966165D01*
X184940911Y-102925727D01*
X184940912Y-102925725D01*
X184944824Y-102917650D01*
X184949317Y-102890943D01*
X184967875Y-102780640D01*
X184967875Y-102780635D01*
X184968681Y-102775847D01*
X184968832Y-102763456D01*
X184959325Y-102697073D01*
X184949720Y-102629999D01*
X184949719Y-102629996D01*
X184948447Y-102621113D01*
X184931556Y-102583962D01*
X184923600Y-102566465D01*
X184888930Y-102490212D01*
X184833493Y-102425874D01*
X184800924Y-102388075D01*
X184800922Y-102388073D01*
X184795066Y-102381277D01*
X184787538Y-102376398D01*
X184787535Y-102376395D01*
X184777715Y-102370030D01*
X184731433Y-102316193D01*
X184721604Y-102245880D01*
X184751349Y-102181415D01*
X184771390Y-102164474D01*
X184771075Y-102164094D01*
X184777978Y-102158363D01*
X184785630Y-102153665D01*
X184800303Y-102137455D01*
X184876105Y-102053709D01*
X184882127Y-102047056D01*
X184920056Y-101968772D01*
X184940912Y-101925726D01*
X184940913Y-101925724D01*
X184944825Y-101917649D01*
X184958244Y-101837890D01*
X184967876Y-101780639D01*
X184967876Y-101780634D01*
X184968682Y-101775846D01*
X184968833Y-101763455D01*
X184962280Y-101717698D01*
X184949721Y-101629998D01*
X184949720Y-101629995D01*
X184948448Y-101621112D01*
X184888931Y-101490211D01*
X184795067Y-101381276D01*
X184781436Y-101372441D01*
X184698491Y-101318679D01*
X184652207Y-101264843D01*
X184642376Y-101194530D01*
X184672120Y-101130064D01*
X184701092Y-101105572D01*
X184785629Y-101053667D01*
X184882126Y-100947058D01*
X184944824Y-100817651D01*
X184968681Y-100675848D01*
X184968832Y-100663457D01*
X184959505Y-100598329D01*
X184949720Y-100530000D01*
X184949719Y-100529997D01*
X184948447Y-100521114D01*
X184888930Y-100390213D01*
X184833495Y-100325877D01*
X184800924Y-100288076D01*
X184800922Y-100288074D01*
X184795066Y-100281278D01*
X184777717Y-100270033D01*
X184731433Y-100216197D01*
X184721602Y-100145884D01*
X184751346Y-100081418D01*
X184771389Y-100064475D01*
X184771074Y-100064095D01*
X184777977Y-100058364D01*
X184785629Y-100053666D01*
X184792105Y-100046512D01*
X184876104Y-99953710D01*
X184882126Y-99947057D01*
X184944824Y-99817650D01*
X184949317Y-99790943D01*
X184967875Y-99680640D01*
X184967875Y-99680635D01*
X184968681Y-99675847D01*
X184968832Y-99663456D01*
X184961421Y-99611710D01*
X184949720Y-99529999D01*
X184949719Y-99529996D01*
X184948447Y-99521113D01*
X184888930Y-99390212D01*
X184795066Y-99281277D01*
X184674400Y-99203066D01*
X184536633Y-99161865D01*
X184527657Y-99161810D01*
X184527656Y-99161810D01*
X184467691Y-99161444D01*
X184392840Y-99160986D01*
X184254580Y-99200501D01*
X184229954Y-99216039D01*
X184142378Y-99271296D01*
X184132968Y-99277233D01*
X184127025Y-99283962D01*
X184123393Y-99288075D01*
X184037780Y-99385012D01*
X184033966Y-99393135D01*
X184033965Y-99393137D01*
X183980484Y-99507050D01*
X183976669Y-99515176D01*
X183975288Y-99524045D01*
X183962700Y-99604893D01*
X183954546Y-99657260D01*
X183955710Y-99666162D01*
X183955710Y-99666165D01*
X183972027Y-99790943D01*
X183973191Y-99799842D01*
X184031104Y-99931460D01*
X184036881Y-99938333D01*
X184036882Y-99938334D01*
X184117743Y-100034530D01*
X184123630Y-100041533D01*
X184131107Y-100046510D01*
X184131109Y-100046512D01*
X184148137Y-100057847D01*
X184193759Y-100112245D01*
X184202729Y-100182672D01*
X184172199Y-100246769D01*
X184145554Y-100269293D01*
X184132968Y-100277234D01*
X184127025Y-100283963D01*
X184090008Y-100325877D01*
X184037780Y-100385013D01*
X184033966Y-100393136D01*
X184033965Y-100393138D01*
X183993790Y-100478710D01*
X183976669Y-100515177D01*
X183975288Y-100524046D01*
X183963462Y-100600000D01*
X183954546Y-100657261D01*
X183955710Y-100666163D01*
X183955710Y-100666166D01*
X183957603Y-100680641D01*
X183973191Y-100799843D01*
X184031104Y-100931461D01*
X184036881Y-100938334D01*
X184036882Y-100938335D01*
X184049807Y-100953711D01*
X184123630Y-101041534D01*
X184225259Y-101109184D01*
X184270881Y-101163580D01*
X184279852Y-101234007D01*
X184249323Y-101298105D01*
X184222675Y-101320631D01*
X184140562Y-101372441D01*
X184132969Y-101377232D01*
X184127026Y-101383961D01*
X184123394Y-101388074D01*
X184037781Y-101485011D01*
X184033967Y-101493134D01*
X184033966Y-101493136D01*
X183980485Y-101607049D01*
X183976670Y-101615175D01*
X183975289Y-101624044D01*
X183959779Y-101723659D01*
X183954547Y-101757259D01*
X183955711Y-101766161D01*
X183955711Y-101766164D01*
X183972028Y-101890942D01*
X183973192Y-101899841D01*
X184031105Y-102031459D01*
X184036882Y-102038332D01*
X184036883Y-102038333D01*
X184090517Y-102102138D01*
X184123631Y-102141532D01*
X184141858Y-102153665D01*
X184148136Y-102157844D01*
X184193759Y-102212241D01*
X184202730Y-102282669D01*
X184172200Y-102346766D01*
X184145555Y-102369291D01*
X184132968Y-102377233D01*
X184127025Y-102383962D01*
X184085125Y-102431405D01*
X184037780Y-102485012D01*
X184033966Y-102493135D01*
X184033965Y-102493137D01*
X183989393Y-102588075D01*
X183976669Y-102615176D01*
X183975288Y-102624045D01*
X183956593Y-102744115D01*
X183954546Y-102757260D01*
X180761670Y-102757260D01*
X180761670Y-100163456D01*
X180752603Y-97744526D01*
X180750068Y-97068114D01*
X180750000Y-97050000D01*
X179061671Y-97050000D01*
X179061671Y-97063548D01*
X179061670Y-102137455D01*
X179041668Y-102205576D01*
X178988012Y-102252069D01*
X178935670Y-102263455D01*
X176963347Y-102263456D01*
X176661671Y-102263456D01*
X176661671Y-103063456D01*
X173353943Y-103063456D01*
X173367876Y-102980640D01*
X173367876Y-102980635D01*
X173368682Y-102975847D01*
X173368833Y-102963456D01*
X173359213Y-102896283D01*
X173349721Y-102829999D01*
X173349720Y-102829996D01*
X173348448Y-102821113D01*
X173343495Y-102810218D01*
X173325658Y-102770988D01*
X173288931Y-102690212D01*
X173245288Y-102639562D01*
X173200925Y-102588075D01*
X173200923Y-102588073D01*
X173195067Y-102581277D01*
X173074401Y-102503066D01*
X172936634Y-102461865D01*
X172927658Y-102461810D01*
X172927657Y-102461810D01*
X172867692Y-102461444D01*
X172792841Y-102460986D01*
X172654581Y-102500501D01*
X172592710Y-102539539D01*
X172555234Y-102563185D01*
X172532969Y-102577233D01*
X172527026Y-102583962D01*
X172446584Y-102675045D01*
X172437781Y-102685012D01*
X172433967Y-102693135D01*
X172433966Y-102693137D01*
X172388979Y-102788958D01*
X172376670Y-102815176D01*
X172375289Y-102824045D01*
X172356396Y-102945388D01*
X172354547Y-102957260D01*
X158111526Y-102957260D01*
X158129718Y-102929699D01*
X158139830Y-102918528D01*
X158171141Y-102853903D01*
X158192306Y-102810218D01*
X158192306Y-102810217D01*
X158196220Y-102802139D01*
X158217677Y-102674601D01*
X158217813Y-102663456D01*
X158199478Y-102535432D01*
X158191994Y-102518970D01*
X158149666Y-102425874D01*
X158149666Y-102425873D01*
X158145949Y-102417699D01*
X158127684Y-102396501D01*
X158098369Y-102331840D01*
X158108666Y-102261594D01*
X158129721Y-102229695D01*
X158133805Y-102225183D01*
X158139830Y-102218527D01*
X158174480Y-102147010D01*
X158192306Y-102110217D01*
X158192306Y-102110216D01*
X158196220Y-102102138D01*
X158217677Y-101974600D01*
X158217813Y-101963455D01*
X158199478Y-101835431D01*
X158182513Y-101798116D01*
X158149666Y-101725873D01*
X158149666Y-101725872D01*
X158145949Y-101717698D01*
X158111871Y-101678149D01*
X158067385Y-101626520D01*
X158067383Y-101626518D01*
X158061527Y-101619722D01*
X157953000Y-101549379D01*
X157948784Y-101548118D01*
X157897069Y-101502904D01*
X157882471Y-101470751D01*
X157881697Y-101468115D01*
X157881697Y-101450000D01*
X152276455Y-101450000D01*
X144781698Y-101450001D01*
X144781698Y-101463549D01*
X144781697Y-103324002D01*
X144761695Y-103392123D01*
X144708039Y-103438616D01*
X144655697Y-103450002D01*
X133131071Y-103450002D01*
X133062950Y-103430000D01*
X133045466Y-103416456D01*
X133033956Y-103405798D01*
X130003695Y-100600000D01*
X139000000Y-100600000D01*
X141100000Y-100600000D01*
X141100000Y-99400000D01*
X139000000Y-99400000D01*
X139000000Y-100600000D01*
X130003695Y-100600000D01*
X127683479Y-98451651D01*
X127679989Y-98448293D01*
X127594504Y-98362809D01*
X127581696Y-98350001D01*
X126934153Y-98350001D01*
X119397642Y-98350000D01*
X119329521Y-98329998D01*
X119283028Y-98276342D01*
X119271642Y-98224000D01*
X119271642Y-97850000D01*
X131800000Y-97850000D01*
X133550000Y-97850000D01*
X133550000Y-96957261D01*
X154554545Y-96957261D01*
X154555709Y-96966163D01*
X154555709Y-96966166D01*
X154569041Y-97068114D01*
X154573190Y-97099843D01*
X154631103Y-97231461D01*
X154636880Y-97238334D01*
X154636881Y-97238335D01*
X154689479Y-97300908D01*
X154723629Y-97341534D01*
X154843330Y-97421214D01*
X154980583Y-97464095D01*
X155124355Y-97466730D01*
X155186332Y-97449833D01*
X155254425Y-97431269D01*
X155254428Y-97431268D01*
X155263087Y-97428907D01*
X155270737Y-97424210D01*
X155270739Y-97424209D01*
X155373771Y-97360947D01*
X155385628Y-97353667D01*
X155482125Y-97247058D01*
X155505099Y-97199641D01*
X158393486Y-97199641D01*
X158394887Y-97205833D01*
X158396483Y-97220239D01*
X158409159Y-97334658D01*
X158411342Y-97354367D01*
X158413603Y-97360945D01*
X158413603Y-97360947D01*
X158449106Y-97464259D01*
X158461817Y-97501248D01*
X158465467Y-97507179D01*
X158529882Y-97611851D01*
X158543216Y-97633519D01*
X158548067Y-97638498D01*
X158548069Y-97638501D01*
X158640640Y-97733522D01*
X158651594Y-97744766D01*
X158781693Y-97829594D01*
X158788212Y-97832026D01*
X158788213Y-97832027D01*
X158839431Y-97851138D01*
X158927205Y-97883889D01*
X158934101Y-97884836D01*
X158934105Y-97884837D01*
X158952815Y-97887407D01*
X159017581Y-97916492D01*
X159056341Y-97975974D01*
X159061671Y-98012235D01*
X159061671Y-98963457D01*
X159980441Y-98963457D01*
X160048562Y-98983459D01*
X160095055Y-99037115D01*
X160105647Y-99075333D01*
X160111919Y-99130931D01*
X160114261Y-99137615D01*
X160114261Y-99137616D01*
X160161825Y-99273380D01*
X160161827Y-99273384D01*
X160164169Y-99280069D01*
X160167943Y-99286066D01*
X160167944Y-99286069D01*
X160236710Y-99395353D01*
X160248330Y-99413820D01*
X160360172Y-99525461D01*
X160367413Y-99529999D01*
X160488074Y-99605621D01*
X160488076Y-99605622D01*
X160494074Y-99609381D01*
X160563427Y-99633539D01*
X160636617Y-99659033D01*
X160636620Y-99659034D01*
X160643307Y-99661363D01*
X160789300Y-99677566D01*
X160792886Y-99677964D01*
X160792881Y-99678012D01*
X160793026Y-99677996D01*
X160799652Y-99679519D01*
X160800370Y-99679519D01*
X160807681Y-99677837D01*
X160808849Y-99677569D01*
X160837092Y-99674363D01*
X163174000Y-99674363D01*
X163242121Y-99694365D01*
X163288614Y-99748021D01*
X163300000Y-99800363D01*
X163300000Y-101200000D01*
X164300000Y-101200000D01*
X164300000Y-99800363D01*
X164320002Y-99732242D01*
X164373658Y-99685749D01*
X164426000Y-99674363D01*
X165862926Y-99674363D01*
X165891157Y-99677566D01*
X165892708Y-99677923D01*
X165892712Y-99677923D01*
X165899652Y-99679519D01*
X165900370Y-99679519D01*
X165906000Y-99678224D01*
X165970633Y-99670832D01*
X166050012Y-99661754D01*
X166050014Y-99661753D01*
X166057031Y-99660951D01*
X166205791Y-99608661D01*
X166339208Y-99524615D01*
X166450606Y-99413016D01*
X166456969Y-99402876D01*
X166530655Y-99285436D01*
X166530655Y-99285435D01*
X166534412Y-99279448D01*
X166536861Y-99272442D01*
X166575505Y-99161865D01*
X166586434Y-99130594D01*
X166587224Y-99123575D01*
X166587226Y-99123566D01*
X166592651Y-99075365D01*
X166620146Y-99009908D01*
X166678665Y-98969708D01*
X166717860Y-98963457D01*
X167561670Y-98963457D01*
X167561670Y-98121755D01*
X167581672Y-98053634D01*
X167635328Y-98007141D01*
X167673562Y-97996547D01*
X167748977Y-97988050D01*
X167748979Y-97988050D01*
X167756004Y-97987258D01*
X167905001Y-97935122D01*
X168038660Y-97851138D01*
X168150280Y-97739518D01*
X168234264Y-97605859D01*
X168286400Y-97456862D01*
X168303233Y-97307466D01*
X168303272Y-97307470D01*
X168303260Y-97307348D01*
X168304797Y-97300718D01*
X168304798Y-97300000D01*
X168302796Y-97291225D01*
X168299642Y-97263210D01*
X168299643Y-96257883D01*
X175105562Y-96257883D01*
X175106726Y-96266785D01*
X175106726Y-96266788D01*
X175107748Y-96274601D01*
X175122331Y-96386122D01*
X175125945Y-96394335D01*
X175125946Y-96394339D01*
X175150601Y-96450370D01*
X175174419Y-96504499D01*
X175257637Y-96603500D01*
X175365296Y-96675164D01*
X175488742Y-96713731D01*
X175618051Y-96716101D01*
X175713007Y-96690213D01*
X175734168Y-96684444D01*
X175734170Y-96684443D01*
X175742827Y-96682083D01*
X175853040Y-96614412D01*
X175939831Y-96518528D01*
X175983663Y-96428059D01*
X175992307Y-96410218D01*
X175992307Y-96410217D01*
X175996221Y-96402139D01*
X176017678Y-96274601D01*
X176017814Y-96263456D01*
X176017016Y-96257884D01*
X176755561Y-96257884D01*
X176756725Y-96266786D01*
X176756725Y-96266789D01*
X176766900Y-96344599D01*
X176772330Y-96386123D01*
X176775944Y-96394336D01*
X176775945Y-96394340D01*
X176805749Y-96462072D01*
X176824418Y-96504500D01*
X176907636Y-96603501D01*
X176915114Y-96608478D01*
X176915113Y-96608478D01*
X177007820Y-96670189D01*
X177015295Y-96675165D01*
X177138741Y-96713732D01*
X177268050Y-96716102D01*
X177352281Y-96693138D01*
X177384167Y-96684445D01*
X177384169Y-96684444D01*
X177392826Y-96682084D01*
X177503039Y-96614413D01*
X177589830Y-96518529D01*
X177620408Y-96455417D01*
X177642306Y-96410219D01*
X177642306Y-96410218D01*
X177646220Y-96402140D01*
X177667677Y-96274602D01*
X177667813Y-96263457D01*
X177649478Y-96135433D01*
X177645762Y-96127258D01*
X177599666Y-96025875D01*
X177599666Y-96025874D01*
X177595949Y-96017700D01*
X177590087Y-96010897D01*
X177517385Y-95926522D01*
X177517383Y-95926520D01*
X177511527Y-95919724D01*
X177403000Y-95849381D01*
X177394405Y-95846811D01*
X177394404Y-95846810D01*
X177287693Y-95814896D01*
X177287691Y-95814896D01*
X177279092Y-95812324D01*
X177270117Y-95812269D01*
X177270116Y-95812269D01*
X177215410Y-95811935D01*
X177149764Y-95811534D01*
X177138001Y-95814896D01*
X177034052Y-95844605D01*
X177025413Y-95847074D01*
X176916035Y-95916087D01*
X176830422Y-96013024D01*
X176813820Y-96048386D01*
X176779274Y-96121967D01*
X176775458Y-96130094D01*
X176774077Y-96138962D01*
X176774077Y-96138963D01*
X176756942Y-96249011D01*
X176756942Y-96249015D01*
X176755561Y-96257884D01*
X176017016Y-96257884D01*
X175999479Y-96135432D01*
X175993358Y-96121968D01*
X175949667Y-96025874D01*
X175949667Y-96025873D01*
X175945950Y-96017699D01*
X175936125Y-96006297D01*
X175867386Y-95926521D01*
X175867384Y-95926519D01*
X175861528Y-95919723D01*
X175753001Y-95849380D01*
X175744406Y-95846810D01*
X175744405Y-95846809D01*
X175637694Y-95814895D01*
X175637692Y-95814895D01*
X175629093Y-95812323D01*
X175620118Y-95812268D01*
X175620117Y-95812268D01*
X175565411Y-95811934D01*
X175499765Y-95811533D01*
X175375414Y-95847073D01*
X175266036Y-95916086D01*
X175260093Y-95922815D01*
X175219468Y-95968814D01*
X175180423Y-96013023D01*
X175125459Y-96130093D01*
X175124078Y-96138961D01*
X175124078Y-96138962D01*
X175106943Y-96249010D01*
X175106943Y-96249011D01*
X175105562Y-96257883D01*
X168299643Y-96257883D01*
X168299643Y-96013024D01*
X168299644Y-92237356D01*
X168302895Y-92208920D01*
X168304799Y-92200704D01*
X168304800Y-92199986D01*
X168303365Y-92193697D01*
X168286402Y-92043227D01*
X168234292Y-91894331D01*
X168150357Y-91760763D01*
X168138730Y-91749136D01*
X168067479Y-91677890D01*
X168038806Y-91649219D01*
X167992604Y-91620190D01*
X167911223Y-91569058D01*
X167911222Y-91569057D01*
X167905232Y-91565294D01*
X167898557Y-91562958D01*
X167898554Y-91562957D01*
X167789061Y-91524646D01*
X167756332Y-91513194D01*
X167749303Y-91512402D01*
X167673562Y-91503868D01*
X167608109Y-91476364D01*
X167567916Y-91417840D01*
X167561670Y-91378660D01*
X167561670Y-90463455D01*
X166915493Y-90463455D01*
X166896513Y-90457882D01*
X171155559Y-90457882D01*
X171156723Y-90466784D01*
X171156723Y-90466787D01*
X171162809Y-90513326D01*
X171172328Y-90586121D01*
X171175942Y-90594334D01*
X171175943Y-90594338D01*
X171209375Y-90670315D01*
X171224416Y-90704498D01*
X171230191Y-90711368D01*
X171230192Y-90711370D01*
X171268828Y-90757333D01*
X171297349Y-90822349D01*
X171286193Y-90892463D01*
X171266819Y-90921814D01*
X171230423Y-90963024D01*
X171175459Y-91080094D01*
X171174078Y-91088962D01*
X171174078Y-91088963D01*
X171156943Y-91199011D01*
X171156943Y-91199015D01*
X171155562Y-91207884D01*
X171156726Y-91216786D01*
X171156726Y-91216789D01*
X171162562Y-91261418D01*
X171172331Y-91336123D01*
X171175945Y-91344336D01*
X171175946Y-91344340D01*
X171191048Y-91378660D01*
X171224419Y-91454500D01*
X171307637Y-91553501D01*
X171415296Y-91625165D01*
X171538742Y-91663732D01*
X171668051Y-91666102D01*
X171738329Y-91646942D01*
X171784168Y-91634445D01*
X171784170Y-91634444D01*
X171792827Y-91632084D01*
X171903040Y-91564413D01*
X171989831Y-91468529D01*
X172046221Y-91352140D01*
X172067678Y-91224602D01*
X172067814Y-91213457D01*
X172049479Y-91085433D01*
X172032032Y-91047058D01*
X171999667Y-90975875D01*
X171999667Y-90975874D01*
X171995950Y-90967700D01*
X171989911Y-90960692D01*
X171955610Y-90920883D01*
X171926296Y-90856220D01*
X171936595Y-90785975D01*
X171957648Y-90754080D01*
X171983800Y-90725187D01*
X171983801Y-90725185D01*
X171989828Y-90718527D01*
X172046218Y-90602138D01*
X172067675Y-90474600D01*
X172067811Y-90463455D01*
X172049476Y-90335431D01*
X172044313Y-90324074D01*
X171999664Y-90225873D01*
X171999664Y-90225872D01*
X171995947Y-90217698D01*
X171990086Y-90210896D01*
X171955611Y-90170886D01*
X171926297Y-90106224D01*
X171936596Y-90035978D01*
X171957649Y-90004083D01*
X171983803Y-89975188D01*
X171983804Y-89975186D01*
X171989831Y-89968528D01*
X172025062Y-89895812D01*
X172042307Y-89860218D01*
X172042307Y-89860217D01*
X172046221Y-89852139D01*
X172067678Y-89724601D01*
X172067814Y-89713456D01*
X172049479Y-89585432D01*
X172009987Y-89498571D01*
X171999667Y-89475874D01*
X171999667Y-89475873D01*
X171995950Y-89467699D01*
X171990089Y-89460897D01*
X171917386Y-89376521D01*
X171917384Y-89376519D01*
X171911528Y-89369723D01*
X171899790Y-89362115D01*
X174951330Y-89362115D01*
X174952494Y-89371017D01*
X174952494Y-89371020D01*
X174956349Y-89400501D01*
X174968099Y-89490354D01*
X174971713Y-89498567D01*
X174971714Y-89498571D01*
X175004010Y-89571967D01*
X175020187Y-89608731D01*
X175103405Y-89707732D01*
X175110883Y-89712709D01*
X175110882Y-89712709D01*
X175196632Y-89769789D01*
X175211064Y-89779396D01*
X175334510Y-89817963D01*
X175463819Y-89820333D01*
X175515608Y-89806213D01*
X175579936Y-89788676D01*
X175579938Y-89788675D01*
X175588595Y-89786315D01*
X175698808Y-89718644D01*
X175708549Y-89707883D01*
X175779574Y-89629416D01*
X175785599Y-89622760D01*
X175841989Y-89506371D01*
X175863446Y-89378833D01*
X175863514Y-89373231D01*
X175863523Y-89372547D01*
X175863523Y-89372543D01*
X175863582Y-89367688D01*
X175845247Y-89239664D01*
X175791718Y-89121931D01*
X175785857Y-89115129D01*
X175713154Y-89030753D01*
X175713152Y-89030751D01*
X175707296Y-89023955D01*
X175598769Y-88953612D01*
X175590174Y-88951042D01*
X175590173Y-88951041D01*
X175483462Y-88919127D01*
X175483460Y-88919127D01*
X175474861Y-88916555D01*
X175465886Y-88916500D01*
X175465885Y-88916500D01*
X175411179Y-88916166D01*
X175345533Y-88915765D01*
X175333770Y-88919127D01*
X175238614Y-88946323D01*
X175221182Y-88951305D01*
X175111804Y-89020318D01*
X175105861Y-89027047D01*
X175038828Y-89102947D01*
X175026191Y-89117255D01*
X174971227Y-89234325D01*
X174969846Y-89243193D01*
X174969846Y-89243194D01*
X174952711Y-89353242D01*
X174952711Y-89353246D01*
X174951330Y-89362115D01*
X171899790Y-89362115D01*
X171803001Y-89299380D01*
X171794406Y-89296810D01*
X171794405Y-89296809D01*
X171687694Y-89264895D01*
X171687692Y-89264895D01*
X171679093Y-89262323D01*
X171670118Y-89262268D01*
X171670117Y-89262268D01*
X171615411Y-89261934D01*
X171549765Y-89261533D01*
X171425414Y-89297073D01*
X171316036Y-89366086D01*
X171310093Y-89372815D01*
X171239385Y-89452876D01*
X171230423Y-89463023D01*
X171175459Y-89580093D01*
X171174078Y-89588961D01*
X171174078Y-89588962D01*
X171156943Y-89699010D01*
X171156943Y-89699014D01*
X171155562Y-89707883D01*
X171156726Y-89716785D01*
X171156726Y-89716788D01*
X171163712Y-89770212D01*
X171172331Y-89836122D01*
X171175945Y-89844335D01*
X171175946Y-89844339D01*
X171202844Y-89905467D01*
X171224419Y-89954499D01*
X171230194Y-89961369D01*
X171230195Y-89961371D01*
X171268827Y-90007330D01*
X171297348Y-90072346D01*
X171286190Y-90142460D01*
X171266816Y-90171812D01*
X171251608Y-90189032D01*
X171230420Y-90213022D01*
X171223360Y-90228060D01*
X171179750Y-90320947D01*
X171175456Y-90330092D01*
X171174075Y-90338960D01*
X171174075Y-90338961D01*
X171156940Y-90449009D01*
X171156940Y-90449013D01*
X171155559Y-90457882D01*
X166896513Y-90457882D01*
X166847372Y-90443453D01*
X166800879Y-90389797D01*
X166790285Y-90351563D01*
X166787187Y-90324065D01*
X166787186Y-90324062D01*
X166786395Y-90317038D01*
X166783880Y-90309848D01*
X166766422Y-90259955D01*
X166734262Y-90168041D01*
X166729348Y-90160220D01*
X166654048Y-90040372D01*
X166654045Y-90040369D01*
X166650282Y-90034379D01*
X166645280Y-90029377D01*
X166645278Y-90029374D01*
X166583201Y-89967293D01*
X166538667Y-89922755D01*
X166405012Y-89838764D01*
X166398333Y-89836426D01*
X166398330Y-89836425D01*
X166262700Y-89788956D01*
X166256020Y-89786618D01*
X166248995Y-89785826D01*
X166248991Y-89785825D01*
X166106617Y-89769773D01*
X166106621Y-89769734D01*
X166106500Y-89769746D01*
X166099877Y-89768210D01*
X166099159Y-89768209D01*
X166090836Y-89770107D01*
X166090375Y-89770212D01*
X166062362Y-89773365D01*
X163470510Y-89773364D01*
X160837370Y-89773362D01*
X160808917Y-89770107D01*
X160807676Y-89769819D01*
X160807669Y-89769818D01*
X160800718Y-89768207D01*
X160800000Y-89768206D01*
X160793064Y-89769788D01*
X160786139Y-89770563D01*
X160786039Y-89770580D01*
X160650174Y-89785888D01*
X160650172Y-89785889D01*
X160643147Y-89786680D01*
X160494158Y-89838813D01*
X160488166Y-89842578D01*
X160388079Y-89905467D01*
X160360506Y-89922792D01*
X160248892Y-90034406D01*
X160245125Y-90040400D01*
X160245125Y-90040401D01*
X160214997Y-90088350D01*
X160164913Y-90168058D01*
X160112780Y-90317047D01*
X160111989Y-90324072D01*
X160111988Y-90324074D01*
X160108891Y-90351563D01*
X160081387Y-90417016D01*
X160022863Y-90457209D01*
X159983683Y-90463455D01*
X159061671Y-90463455D01*
X159061671Y-91386726D01*
X159041669Y-91454847D01*
X158988013Y-91501340D01*
X158956160Y-91510166D01*
X158956216Y-91510411D01*
X158950888Y-91511627D01*
X158949781Y-91511934D01*
X158942287Y-91512778D01*
X158935613Y-91515113D01*
X158935614Y-91515113D01*
X158799972Y-91562574D01*
X158799969Y-91562575D01*
X158793297Y-91564910D01*
X158787311Y-91568671D01*
X158787307Y-91568673D01*
X158730345Y-91604463D01*
X158659642Y-91648886D01*
X158654640Y-91653888D01*
X158654637Y-91653890D01*
X158610170Y-91698354D01*
X158548023Y-91760496D01*
X158464037Y-91894145D01*
X158461702Y-91900817D01*
X158461700Y-91900821D01*
X158447113Y-91942500D01*
X158411894Y-92043131D01*
X158395052Y-92192518D01*
X158395013Y-92192514D01*
X158395025Y-92192636D01*
X158393487Y-92199266D01*
X158393486Y-92199984D01*
X158395067Y-92206916D01*
X158395489Y-92208768D01*
X158398642Y-92236781D01*
X158398642Y-97162920D01*
X158396676Y-97180243D01*
X158396666Y-97185811D01*
X158393486Y-97199641D01*
X155505099Y-97199641D01*
X155544823Y-97117651D01*
X155568680Y-96975848D01*
X155568831Y-96963457D01*
X155563269Y-96924617D01*
X155549719Y-96830000D01*
X155549718Y-96829997D01*
X155548446Y-96821114D01*
X155488929Y-96690213D01*
X155418501Y-96608477D01*
X155406769Y-96594861D01*
X155377456Y-96530199D01*
X155387755Y-96459953D01*
X155408807Y-96428059D01*
X155476105Y-96353709D01*
X155476108Y-96353705D01*
X155482127Y-96347055D01*
X155521017Y-96266788D01*
X155540912Y-96225725D01*
X155540913Y-96225723D01*
X155544825Y-96217648D01*
X155549318Y-96190941D01*
X155567876Y-96080638D01*
X155567876Y-96080633D01*
X155568682Y-96075845D01*
X155568833Y-96063454D01*
X155558772Y-95993199D01*
X155549721Y-95929997D01*
X155549720Y-95929994D01*
X155548448Y-95921111D01*
X155543986Y-95911296D01*
X155516964Y-95851866D01*
X155488931Y-95790210D01*
X155443540Y-95737531D01*
X155400925Y-95688073D01*
X155400923Y-95688071D01*
X155395067Y-95681275D01*
X155274401Y-95603064D01*
X155136634Y-95561863D01*
X155127658Y-95561808D01*
X155127657Y-95561808D01*
X155067692Y-95561442D01*
X154992841Y-95560984D01*
X154919353Y-95581987D01*
X154868696Y-95596465D01*
X154854581Y-95600499D01*
X154732969Y-95677231D01*
X154727026Y-95683960D01*
X154687363Y-95728870D01*
X154637781Y-95785010D01*
X154633967Y-95793133D01*
X154633966Y-95793135D01*
X154605268Y-95854261D01*
X154576670Y-95915174D01*
X154575289Y-95924043D01*
X154559434Y-96025874D01*
X154554547Y-96057258D01*
X154555711Y-96066160D01*
X154555711Y-96066163D01*
X154571402Y-96186155D01*
X154573192Y-96199840D01*
X154631105Y-96331458D01*
X154636882Y-96338331D01*
X154636883Y-96338332D01*
X154716769Y-96433368D01*
X154745290Y-96498384D01*
X154734134Y-96568498D01*
X154714760Y-96597849D01*
X154695985Y-96619108D01*
X154646477Y-96675165D01*
X154637779Y-96685013D01*
X154633965Y-96693136D01*
X154633964Y-96693138D01*
X154603564Y-96757890D01*
X154576668Y-96815177D01*
X154575287Y-96824046D01*
X154569771Y-96859475D01*
X154554545Y-96957261D01*
X133550000Y-96957261D01*
X133550000Y-96150000D01*
X131800000Y-96150000D01*
X131800000Y-97850000D01*
X119271642Y-97850000D01*
X119271642Y-95974939D01*
X121025661Y-95974939D01*
X121029668Y-96022655D01*
X121041883Y-96168115D01*
X121042900Y-96180230D01*
X121044599Y-96186155D01*
X121093148Y-96355465D01*
X121099685Y-96378263D01*
X121102500Y-96383740D01*
X121102501Y-96383743D01*
X121191038Y-96556018D01*
X121193853Y-96561495D01*
X121321818Y-96722947D01*
X121326511Y-96726941D01*
X121326512Y-96726942D01*
X121427566Y-96812945D01*
X121478705Y-96856468D01*
X121658539Y-96956974D01*
X121753379Y-96987790D01*
X121848612Y-97018733D01*
X121848616Y-97018734D01*
X121854470Y-97020636D01*
X122059035Y-97045028D01*
X122065170Y-97044556D01*
X122065172Y-97044556D01*
X122121180Y-97040246D01*
X122264441Y-97029223D01*
X122270371Y-97027567D01*
X122270373Y-97027567D01*
X122438443Y-96980641D01*
X122462866Y-96973822D01*
X122468355Y-96971049D01*
X122468361Y-96971047D01*
X122641257Y-96883710D01*
X122646751Y-96880935D01*
X122809092Y-96754101D01*
X122841893Y-96716101D01*
X122939681Y-96602811D01*
X122939681Y-96602810D01*
X122943705Y-96598149D01*
X122955587Y-96577234D01*
X122985462Y-96524644D01*
X123045464Y-96419021D01*
X123110492Y-96223540D01*
X123136312Y-96019151D01*
X123136724Y-95989677D01*
X123116621Y-95784647D01*
X123102395Y-95737529D01*
X123101854Y-95666537D01*
X123139781Y-95606520D01*
X123204135Y-95576535D01*
X123260586Y-95580844D01*
X123319157Y-95599142D01*
X123328129Y-95599306D01*
X123328132Y-95599307D01*
X123388397Y-95600411D01*
X123462499Y-95601770D01*
X123462482Y-95602719D01*
X123524804Y-95612885D01*
X123577572Y-95660383D01*
X123596284Y-95728870D01*
X123591453Y-95758243D01*
X123591769Y-95758310D01*
X123590488Y-95764336D01*
X123588625Y-95770209D01*
X123587939Y-95776326D01*
X123587938Y-95776330D01*
X123569759Y-95938405D01*
X123565661Y-95974939D01*
X123569668Y-96022655D01*
X123581883Y-96168115D01*
X123582900Y-96180230D01*
X123584599Y-96186155D01*
X123633148Y-96355465D01*
X123639685Y-96378263D01*
X123642500Y-96383740D01*
X123642501Y-96383743D01*
X123731038Y-96556018D01*
X123733853Y-96561495D01*
X123861818Y-96722947D01*
X123866511Y-96726941D01*
X123866512Y-96726942D01*
X123967566Y-96812945D01*
X124018705Y-96856468D01*
X124198539Y-96956974D01*
X124293379Y-96987790D01*
X124388612Y-97018733D01*
X124388616Y-97018734D01*
X124394470Y-97020636D01*
X124599035Y-97045028D01*
X124605170Y-97044556D01*
X124605172Y-97044556D01*
X124661180Y-97040246D01*
X124804441Y-97029223D01*
X124810371Y-97027567D01*
X124810373Y-97027567D01*
X124978443Y-96980641D01*
X125002866Y-96973822D01*
X125008355Y-96971049D01*
X125008361Y-96971047D01*
X125181257Y-96883710D01*
X125186751Y-96880935D01*
X125349092Y-96754101D01*
X125381893Y-96716101D01*
X125479681Y-96602811D01*
X125479681Y-96602810D01*
X125483705Y-96598149D01*
X125495587Y-96577234D01*
X125525462Y-96524644D01*
X125585464Y-96419021D01*
X125650492Y-96223540D01*
X125670436Y-96065668D01*
X141793020Y-96065668D01*
X141794184Y-96074570D01*
X141794184Y-96074573D01*
X141810501Y-96199351D01*
X141811665Y-96208250D01*
X141842970Y-96279396D01*
X141865878Y-96331458D01*
X141869578Y-96339868D01*
X141875355Y-96346741D01*
X141875356Y-96346742D01*
X141936113Y-96419021D01*
X141962104Y-96449941D01*
X141977145Y-96459953D01*
X142054389Y-96511371D01*
X142081805Y-96529621D01*
X142219058Y-96572502D01*
X142362830Y-96575137D01*
X142412868Y-96561495D01*
X142492900Y-96539676D01*
X142492903Y-96539675D01*
X142501562Y-96537314D01*
X142509212Y-96532617D01*
X142509214Y-96532616D01*
X142568388Y-96496283D01*
X142624103Y-96462074D01*
X142630129Y-96455417D01*
X142630131Y-96455415D01*
X142631080Y-96454367D01*
X142632277Y-96453634D01*
X142637036Y-96449683D01*
X142637606Y-96450370D01*
X142691623Y-96417286D01*
X142762603Y-96418823D01*
X142807451Y-96444406D01*
X142812102Y-96449939D01*
X142931803Y-96529619D01*
X143069056Y-96572500D01*
X143212828Y-96575135D01*
X143282948Y-96556018D01*
X143342898Y-96539674D01*
X143342901Y-96539673D01*
X143351560Y-96537312D01*
X143359210Y-96532615D01*
X143359212Y-96532614D01*
X143466446Y-96466772D01*
X143474101Y-96462072D01*
X143480577Y-96454918D01*
X143564576Y-96362116D01*
X143570598Y-96355463D01*
X143612821Y-96268316D01*
X143629383Y-96234133D01*
X143629384Y-96234131D01*
X143633296Y-96226056D01*
X143634910Y-96216465D01*
X143656347Y-96089046D01*
X143656347Y-96089041D01*
X143657153Y-96084253D01*
X143657304Y-96071862D01*
X143649755Y-96019151D01*
X143638192Y-95938405D01*
X143638191Y-95938402D01*
X143636919Y-95929519D01*
X143632466Y-95919724D01*
X143601612Y-95851866D01*
X143577402Y-95798618D01*
X143542613Y-95758243D01*
X143489396Y-95696481D01*
X143489394Y-95696479D01*
X143483538Y-95689683D01*
X143362872Y-95611472D01*
X143225105Y-95570271D01*
X143216129Y-95570216D01*
X143216128Y-95570216D01*
X143156163Y-95569850D01*
X143081312Y-95569392D01*
X142997569Y-95593326D01*
X142955701Y-95605292D01*
X142943052Y-95608907D01*
X142821440Y-95685639D01*
X142815497Y-95692368D01*
X142808662Y-95698185D01*
X142806647Y-95695817D01*
X142759634Y-95725412D01*
X142688641Y-95724747D01*
X142642440Y-95699138D01*
X142639400Y-95696486D01*
X142633540Y-95689685D01*
X142626008Y-95684803D01*
X142626007Y-95684802D01*
X142520406Y-95616356D01*
X142512874Y-95611474D01*
X142375107Y-95570273D01*
X142366131Y-95570218D01*
X142366130Y-95570218D01*
X142306165Y-95569852D01*
X142231314Y-95569394D01*
X142105710Y-95605292D01*
X142093054Y-95608909D01*
X141971442Y-95685641D01*
X141965499Y-95692370D01*
X141883682Y-95785010D01*
X141876254Y-95793420D01*
X141872440Y-95801543D01*
X141872439Y-95801545D01*
X141820912Y-95911296D01*
X141815143Y-95923584D01*
X141813762Y-95932453D01*
X141795711Y-96048386D01*
X141793020Y-96065668D01*
X125670436Y-96065668D01*
X125676312Y-96019151D01*
X125676724Y-95989677D01*
X125656621Y-95784647D01*
X125597076Y-95587426D01*
X125500359Y-95405526D01*
X125398572Y-95280723D01*
X125374047Y-95250652D01*
X125374044Y-95250649D01*
X125370152Y-95245877D01*
X125363314Y-95240220D01*
X125216166Y-95118488D01*
X125216162Y-95118486D01*
X125211416Y-95114559D01*
X125030196Y-95016574D01*
X124833395Y-94955654D01*
X124827270Y-94955010D01*
X124827269Y-94955010D01*
X124634639Y-94934764D01*
X124634637Y-94934764D01*
X124628510Y-94934120D01*
X124541670Y-94942023D01*
X124429483Y-94952232D01*
X124429480Y-94952233D01*
X124423344Y-94952791D01*
X124225713Y-95010957D01*
X124084906Y-95084570D01*
X124073928Y-95090309D01*
X124004293Y-95104143D01*
X123938232Y-95078133D01*
X123896720Y-95020537D01*
X123890828Y-94996520D01*
X123885323Y-94958082D01*
X123878860Y-94943866D01*
X123866179Y-94915977D01*
X123825984Y-94827572D01*
X123780143Y-94774371D01*
X123738260Y-94725763D01*
X123738257Y-94725760D01*
X123732400Y-94718963D01*
X123612095Y-94640985D01*
X123474739Y-94599907D01*
X123465763Y-94599852D01*
X123465762Y-94599852D01*
X123405555Y-94599484D01*
X123331376Y-94599031D01*
X123193529Y-94638428D01*
X123072280Y-94714930D01*
X122977377Y-94822388D01*
X122916447Y-94952163D01*
X122905962Y-95019504D01*
X122900176Y-95056667D01*
X122869932Y-95120900D01*
X122809763Y-95158585D01*
X122738771Y-95157757D01*
X122695361Y-95134368D01*
X122676166Y-95118488D01*
X122676162Y-95118486D01*
X122671416Y-95114559D01*
X122490196Y-95016574D01*
X122293395Y-94955654D01*
X122287270Y-94955010D01*
X122287269Y-94955010D01*
X122094639Y-94934764D01*
X122094637Y-94934764D01*
X122088510Y-94934120D01*
X122001670Y-94942023D01*
X121889483Y-94952232D01*
X121889480Y-94952233D01*
X121883344Y-94952791D01*
X121685713Y-95010957D01*
X121503143Y-95106403D01*
X121498342Y-95110263D01*
X121498339Y-95110265D01*
X121415620Y-95176773D01*
X121342588Y-95235492D01*
X121210165Y-95393307D01*
X121207197Y-95398705D01*
X121207194Y-95398710D01*
X121134503Y-95530936D01*
X121110917Y-95573839D01*
X121048625Y-95770209D01*
X121047939Y-95776326D01*
X121047938Y-95776330D01*
X121029759Y-95938405D01*
X121025661Y-95974939D01*
X119271642Y-95974939D01*
X119271643Y-93434939D01*
X121025661Y-93434939D01*
X121026177Y-93441083D01*
X121040719Y-93614252D01*
X121042900Y-93640230D01*
X121044599Y-93646155D01*
X121089674Y-93803349D01*
X121099685Y-93838263D01*
X121102500Y-93843740D01*
X121102501Y-93843743D01*
X121150734Y-93937595D01*
X121193853Y-94021495D01*
X121321818Y-94182947D01*
X121326511Y-94186941D01*
X121326512Y-94186942D01*
X121455088Y-94296368D01*
X121478705Y-94316468D01*
X121484083Y-94319474D01*
X121484085Y-94319475D01*
X121515704Y-94337146D01*
X121658539Y-94416974D01*
X121735210Y-94441886D01*
X121848612Y-94478733D01*
X121848616Y-94478734D01*
X121854470Y-94480636D01*
X122059035Y-94505028D01*
X122065170Y-94504556D01*
X122065172Y-94504556D01*
X122121180Y-94500246D01*
X122264441Y-94489223D01*
X122270371Y-94487567D01*
X122270373Y-94487567D01*
X122456938Y-94435477D01*
X122456937Y-94435477D01*
X122462866Y-94433822D01*
X122468355Y-94431049D01*
X122468361Y-94431047D01*
X122641257Y-94343710D01*
X122646751Y-94340935D01*
X122655148Y-94334375D01*
X122760651Y-94251947D01*
X122809092Y-94214101D01*
X122819708Y-94201803D01*
X122939681Y-94062811D01*
X122939681Y-94062810D01*
X122943705Y-94058149D01*
X122961737Y-94026408D01*
X123012189Y-93937595D01*
X123045464Y-93879021D01*
X123110492Y-93683540D01*
X123136312Y-93479151D01*
X123136724Y-93449677D01*
X123135279Y-93434939D01*
X123565661Y-93434939D01*
X123566177Y-93441083D01*
X123580719Y-93614252D01*
X123582900Y-93640230D01*
X123584599Y-93646155D01*
X123629674Y-93803349D01*
X123639685Y-93838263D01*
X123642500Y-93843740D01*
X123642501Y-93843743D01*
X123690734Y-93937595D01*
X123733853Y-94021495D01*
X123861818Y-94182947D01*
X123866511Y-94186941D01*
X123866512Y-94186942D01*
X123995088Y-94296368D01*
X124018705Y-94316468D01*
X124024083Y-94319474D01*
X124024085Y-94319475D01*
X124055704Y-94337146D01*
X124198539Y-94416974D01*
X124275210Y-94441886D01*
X124388612Y-94478733D01*
X124388616Y-94478734D01*
X124394470Y-94480636D01*
X124599035Y-94505028D01*
X124605170Y-94504556D01*
X124605172Y-94504556D01*
X124661180Y-94500246D01*
X124804441Y-94489223D01*
X124810371Y-94487567D01*
X124810373Y-94487567D01*
X124872249Y-94470291D01*
X135815031Y-94470291D01*
X135816195Y-94479193D01*
X135816195Y-94479196D01*
X135823299Y-94533519D01*
X135831800Y-94598530D01*
X135835414Y-94606743D01*
X135835415Y-94606747D01*
X135850481Y-94640985D01*
X135883888Y-94716907D01*
X135967106Y-94815908D01*
X136074765Y-94887572D01*
X136198211Y-94926139D01*
X136327520Y-94928509D01*
X136379309Y-94914389D01*
X136443637Y-94896852D01*
X136443639Y-94896851D01*
X136452296Y-94894491D01*
X136562509Y-94826820D01*
X136649300Y-94730936D01*
X136682780Y-94661833D01*
X136730483Y-94609250D01*
X136799041Y-94590805D01*
X136866689Y-94612353D01*
X136911501Y-94666025D01*
X136933890Y-94716907D01*
X137017108Y-94815908D01*
X137124767Y-94887572D01*
X137248213Y-94926139D01*
X137377522Y-94928509D01*
X137429311Y-94914389D01*
X137493639Y-94896852D01*
X137493641Y-94896851D01*
X137502298Y-94894491D01*
X137612511Y-94826820D01*
X137618534Y-94820166D01*
X137618539Y-94820162D01*
X137626424Y-94811451D01*
X137686968Y-94774371D01*
X137757948Y-94775910D01*
X137802358Y-94805607D01*
X137804641Y-94803053D01*
X137811328Y-94809032D01*
X137817108Y-94815908D01*
X137924767Y-94887572D01*
X138048213Y-94926139D01*
X138177522Y-94928509D01*
X138229311Y-94914389D01*
X138293639Y-94896852D01*
X138293641Y-94896851D01*
X138302298Y-94894491D01*
X138412511Y-94826820D01*
X138499302Y-94730936D01*
X138528987Y-94669666D01*
X142789019Y-94669666D01*
X142790183Y-94678568D01*
X142790183Y-94678571D01*
X142806500Y-94803349D01*
X142807664Y-94812248D01*
X142831609Y-94866668D01*
X142860414Y-94932131D01*
X142865577Y-94943866D01*
X142871354Y-94950739D01*
X142871355Y-94950740D01*
X142938070Y-95030107D01*
X142958103Y-95053939D01*
X142965580Y-95058916D01*
X143065636Y-95125519D01*
X143077804Y-95133619D01*
X143215057Y-95176500D01*
X143358829Y-95179135D01*
X143401650Y-95167461D01*
X143488899Y-95143674D01*
X143488902Y-95143673D01*
X143497561Y-95141312D01*
X143505212Y-95136614D01*
X143505215Y-95136613D01*
X143527846Y-95122718D01*
X143596363Y-95104121D01*
X143664058Y-95125519D01*
X143709438Y-95180120D01*
X143718271Y-95249482D01*
X143716412Y-95261416D01*
X143716412Y-95261422D01*
X143715031Y-95270291D01*
X143731800Y-95398530D01*
X143735414Y-95406743D01*
X143735415Y-95406747D01*
X143766305Y-95476948D01*
X143783888Y-95516907D01*
X143867106Y-95615908D01*
X143874584Y-95620885D01*
X143874583Y-95620885D01*
X143952033Y-95672440D01*
X143974765Y-95687572D01*
X144098211Y-95726139D01*
X144227520Y-95728509D01*
X144289802Y-95711529D01*
X144343637Y-95696852D01*
X144343639Y-95696851D01*
X144352296Y-95694491D01*
X144462509Y-95626820D01*
X144549300Y-95530936D01*
X144605690Y-95414547D01*
X144627147Y-95287009D01*
X144627283Y-95275864D01*
X144608948Y-95147840D01*
X144603844Y-95136613D01*
X144559136Y-95038282D01*
X144559136Y-95038281D01*
X144555419Y-95030107D01*
X144501009Y-94966961D01*
X144476855Y-94938929D01*
X144476853Y-94938927D01*
X144470997Y-94932131D01*
X144362470Y-94861788D01*
X144353875Y-94859218D01*
X144353874Y-94859217D01*
X144247163Y-94827303D01*
X144247161Y-94827303D01*
X144238562Y-94824731D01*
X144229587Y-94824676D01*
X144229586Y-94824676D01*
X144174880Y-94824342D01*
X144109234Y-94823941D01*
X143984883Y-94859481D01*
X143977288Y-94864273D01*
X143971693Y-94866776D01*
X143901343Y-94876335D01*
X143836993Y-94846342D01*
X143799073Y-94786320D01*
X143795987Y-94730857D01*
X143802347Y-94693051D01*
X143802347Y-94693048D01*
X143803154Y-94688253D01*
X143803305Y-94675862D01*
X143794210Y-94612353D01*
X143788875Y-94575101D01*
X149497386Y-94575101D01*
X149498550Y-94584003D01*
X149498550Y-94584006D01*
X149514855Y-94708691D01*
X149516031Y-94717683D01*
X149523867Y-94735491D01*
X149565678Y-94830514D01*
X149573944Y-94849301D01*
X149579721Y-94856174D01*
X149579722Y-94856175D01*
X149660690Y-94952498D01*
X149666470Y-94959374D01*
X149677868Y-94966961D01*
X149765706Y-95025431D01*
X149786171Y-95039054D01*
X149923424Y-95081935D01*
X150067196Y-95084570D01*
X150110017Y-95072896D01*
X150197266Y-95049109D01*
X150197269Y-95049108D01*
X150205928Y-95046747D01*
X150213578Y-95042050D01*
X150213580Y-95042049D01*
X150287749Y-94996509D01*
X150328469Y-94971507D01*
X150342819Y-94955654D01*
X150418944Y-94871551D01*
X150424966Y-94864898D01*
X150487664Y-94735491D01*
X150489301Y-94725763D01*
X150510715Y-94598481D01*
X150510715Y-94598476D01*
X150511521Y-94593688D01*
X150511672Y-94581297D01*
X150504830Y-94533519D01*
X150492560Y-94447840D01*
X150492559Y-94447837D01*
X150491287Y-94438954D01*
X150431770Y-94308053D01*
X150371652Y-94238282D01*
X150343764Y-94205916D01*
X150343762Y-94205914D01*
X150337906Y-94199118D01*
X150217240Y-94120907D01*
X150079473Y-94079706D01*
X150070497Y-94079651D01*
X150070496Y-94079651D01*
X150010531Y-94079285D01*
X149935680Y-94078827D01*
X149797420Y-94118342D01*
X149755438Y-94144831D01*
X149701070Y-94179135D01*
X149675808Y-94195074D01*
X149669865Y-94201803D01*
X149596522Y-94284848D01*
X149580620Y-94302853D01*
X149576806Y-94310976D01*
X149576805Y-94310978D01*
X149539381Y-94390691D01*
X149519509Y-94433017D01*
X149518128Y-94441886D01*
X149508297Y-94505028D01*
X149497386Y-94575101D01*
X143788875Y-94575101D01*
X143784193Y-94542405D01*
X143784192Y-94542402D01*
X143782920Y-94533519D01*
X143769635Y-94504299D01*
X143738343Y-94435477D01*
X143723403Y-94402618D01*
X143679245Y-94351370D01*
X143635397Y-94300481D01*
X143635395Y-94300479D01*
X143629539Y-94293683D01*
X143508873Y-94215472D01*
X143371106Y-94174271D01*
X143362130Y-94174216D01*
X143362129Y-94174216D01*
X143302164Y-94173850D01*
X143227313Y-94173392D01*
X143089053Y-94212907D01*
X142967441Y-94289639D01*
X142961498Y-94296368D01*
X142908189Y-94356729D01*
X142872253Y-94397418D01*
X142868439Y-94405541D01*
X142868438Y-94405543D01*
X142821731Y-94505028D01*
X142811142Y-94527582D01*
X142809761Y-94536451D01*
X142793485Y-94640985D01*
X142789019Y-94669666D01*
X138528987Y-94669666D01*
X138555692Y-94614547D01*
X138577149Y-94487009D01*
X138577285Y-94475864D01*
X138558950Y-94347840D01*
X138546054Y-94319475D01*
X138509138Y-94238282D01*
X138509138Y-94238281D01*
X138505421Y-94230107D01*
X138497017Y-94220354D01*
X138426857Y-94138929D01*
X138426855Y-94138927D01*
X138420999Y-94132131D01*
X138312472Y-94061788D01*
X138303877Y-94059218D01*
X138303876Y-94059217D01*
X138197165Y-94027303D01*
X138197163Y-94027303D01*
X138188564Y-94024731D01*
X138179589Y-94024676D01*
X138179588Y-94024676D01*
X138124882Y-94024342D01*
X138059236Y-94023941D01*
X137934885Y-94059481D01*
X137885199Y-94090831D01*
X137837532Y-94120907D01*
X137825507Y-94128494D01*
X137819567Y-94135219D01*
X137819563Y-94135223D01*
X137816017Y-94139239D01*
X137755931Y-94177056D01*
X137684938Y-94176385D01*
X137634660Y-94143640D01*
X137633621Y-94144831D01*
X137630902Y-94142459D01*
X137629520Y-94140293D01*
X137626130Y-94138085D01*
X137621005Y-94132138D01*
X137623143Y-94130296D01*
X137592719Y-94082605D01*
X137592956Y-94011608D01*
X137620318Y-93962956D01*
X137643273Y-93937595D01*
X137643274Y-93937593D01*
X137649301Y-93930935D01*
X137694200Y-93838263D01*
X137701777Y-93822625D01*
X137701777Y-93822624D01*
X137705691Y-93814546D01*
X137727148Y-93687008D01*
X137727284Y-93675863D01*
X137708949Y-93547839D01*
X137703772Y-93536451D01*
X137659137Y-93438281D01*
X137659137Y-93438280D01*
X137655420Y-93430106D01*
X137593234Y-93357936D01*
X137563920Y-93293276D01*
X137574219Y-93223030D01*
X137607155Y-93180110D01*
X137612511Y-93176821D01*
X137618534Y-93170167D01*
X137618539Y-93170163D01*
X137626424Y-93161452D01*
X137686968Y-93124372D01*
X137757948Y-93125911D01*
X137802358Y-93155608D01*
X137804641Y-93153054D01*
X137811328Y-93159033D01*
X137817108Y-93165909D01*
X137924767Y-93237573D01*
X138048213Y-93276140D01*
X138177522Y-93278510D01*
X138251211Y-93258420D01*
X138293639Y-93246853D01*
X138293641Y-93246852D01*
X138302298Y-93244492D01*
X138412511Y-93176821D01*
X138499302Y-93080937D01*
X138555692Y-92964548D01*
X138577149Y-92837010D01*
X138577285Y-92825865D01*
X138558950Y-92697841D01*
X138538823Y-92653572D01*
X138509138Y-92588283D01*
X138509138Y-92588282D01*
X138505421Y-92580108D01*
X138496940Y-92570265D01*
X138426857Y-92488930D01*
X138426855Y-92488928D01*
X138420999Y-92482132D01*
X138312472Y-92411789D01*
X138303877Y-92409219D01*
X138303876Y-92409218D01*
X138197165Y-92377304D01*
X138197163Y-92377304D01*
X138188564Y-92374732D01*
X138179589Y-92374677D01*
X138179588Y-92374677D01*
X138124882Y-92374343D01*
X138059236Y-92373942D01*
X137934885Y-92409482D01*
X137866500Y-92452630D01*
X137840212Y-92469217D01*
X137825507Y-92478495D01*
X137819567Y-92485220D01*
X137819563Y-92485224D01*
X137816017Y-92489240D01*
X137755931Y-92527057D01*
X137684938Y-92526386D01*
X137634660Y-92493642D01*
X137633622Y-92494832D01*
X137626857Y-92488930D01*
X137620999Y-92482132D01*
X137512472Y-92411789D01*
X137503877Y-92409219D01*
X137503876Y-92409218D01*
X137397165Y-92377304D01*
X137397163Y-92377304D01*
X137388564Y-92374732D01*
X137379589Y-92374677D01*
X137379588Y-92374677D01*
X137324882Y-92374343D01*
X137259236Y-92373942D01*
X137134885Y-92409482D01*
X137066500Y-92452630D01*
X137040212Y-92469217D01*
X137025507Y-92478495D01*
X137019564Y-92485224D01*
X136983211Y-92526386D01*
X136939894Y-92575432D01*
X136921301Y-92615034D01*
X136910185Y-92638711D01*
X136863128Y-92691873D01*
X136794800Y-92711155D01*
X136726895Y-92690435D01*
X136681430Y-92637314D01*
X136655421Y-92580108D01*
X136646940Y-92570265D01*
X136576857Y-92488930D01*
X136576855Y-92488928D01*
X136570999Y-92482132D01*
X136462472Y-92411789D01*
X136453877Y-92409219D01*
X136453876Y-92409218D01*
X136347165Y-92377304D01*
X136347163Y-92377304D01*
X136338564Y-92374732D01*
X136329589Y-92374677D01*
X136329588Y-92374677D01*
X136274882Y-92374343D01*
X136209236Y-92373942D01*
X136084885Y-92409482D01*
X136016500Y-92452630D01*
X135990212Y-92469217D01*
X135975507Y-92478495D01*
X135969564Y-92485224D01*
X135933211Y-92526386D01*
X135889894Y-92575432D01*
X135882955Y-92590212D01*
X135853208Y-92653572D01*
X135834930Y-92692502D01*
X135833549Y-92701370D01*
X135833549Y-92701371D01*
X135816414Y-92811419D01*
X135816414Y-92811423D01*
X135815033Y-92820292D01*
X135816197Y-92829194D01*
X135816197Y-92829197D01*
X135822924Y-92880640D01*
X135831802Y-92948531D01*
X135835416Y-92956744D01*
X135835417Y-92956748D01*
X135864158Y-93022064D01*
X135883890Y-93066908D01*
X135967108Y-93165909D01*
X136074767Y-93237573D01*
X136083334Y-93240249D01*
X136083335Y-93240250D01*
X136109166Y-93248320D01*
X136168222Y-93287727D01*
X136196599Y-93352806D01*
X136185646Y-93422134D01*
X136136139Y-93527582D01*
X136134758Y-93536451D01*
X136117677Y-93646155D01*
X136114016Y-93669666D01*
X136115180Y-93678568D01*
X136115180Y-93678571D01*
X136124521Y-93750000D01*
X136132661Y-93812248D01*
X136136276Y-93820463D01*
X136165785Y-93887529D01*
X136174912Y-93957937D01*
X136144525Y-94022102D01*
X136100205Y-94049988D01*
X136101709Y-94053349D01*
X136093519Y-94057013D01*
X136084883Y-94059481D01*
X136035197Y-94090831D01*
X135987530Y-94120907D01*
X135975505Y-94128494D01*
X135969562Y-94135223D01*
X135898688Y-94215472D01*
X135889892Y-94225431D01*
X135882275Y-94241655D01*
X135847264Y-94316227D01*
X135834928Y-94342501D01*
X135833547Y-94351369D01*
X135833547Y-94351370D01*
X135816412Y-94461418D01*
X135816412Y-94461422D01*
X135815031Y-94470291D01*
X124872249Y-94470291D01*
X124996938Y-94435477D01*
X124996937Y-94435477D01*
X125002866Y-94433822D01*
X125008355Y-94431049D01*
X125008361Y-94431047D01*
X125181257Y-94343710D01*
X125186751Y-94340935D01*
X125195148Y-94334375D01*
X125300651Y-94251947D01*
X125349092Y-94214101D01*
X125359708Y-94201803D01*
X125479681Y-94062811D01*
X125479681Y-94062810D01*
X125483705Y-94058149D01*
X125501737Y-94026408D01*
X125552189Y-93937595D01*
X125585464Y-93879021D01*
X125650492Y-93683540D01*
X125676312Y-93479151D01*
X125676724Y-93449677D01*
X125656621Y-93244647D01*
X125597076Y-93047426D01*
X125500359Y-92865526D01*
X125427000Y-92775579D01*
X125374047Y-92710652D01*
X125374044Y-92710649D01*
X125370152Y-92705877D01*
X125365403Y-92701948D01*
X125216166Y-92578488D01*
X125216162Y-92578486D01*
X125211416Y-92574559D01*
X125030196Y-92476574D01*
X124833395Y-92415654D01*
X124827270Y-92415010D01*
X124827269Y-92415010D01*
X124634639Y-92394764D01*
X124634637Y-92394764D01*
X124628510Y-92394120D01*
X124541670Y-92402023D01*
X124429483Y-92412232D01*
X124429480Y-92412233D01*
X124423344Y-92412791D01*
X124225713Y-92470957D01*
X124220248Y-92473814D01*
X124191334Y-92488930D01*
X124043143Y-92566403D01*
X124038342Y-92570263D01*
X124038339Y-92570265D01*
X123889833Y-92689667D01*
X123882588Y-92695492D01*
X123750165Y-92853307D01*
X123747197Y-92858705D01*
X123747194Y-92858710D01*
X123697815Y-92948531D01*
X123650917Y-93033839D01*
X123588625Y-93230209D01*
X123587939Y-93236326D01*
X123587938Y-93236330D01*
X123574298Y-93357938D01*
X123565661Y-93434939D01*
X123135279Y-93434939D01*
X123116621Y-93244647D01*
X123057076Y-93047426D01*
X122960359Y-92865526D01*
X122887000Y-92775579D01*
X122834047Y-92710652D01*
X122834044Y-92710649D01*
X122830152Y-92705877D01*
X122825403Y-92701948D01*
X122676166Y-92578488D01*
X122676162Y-92578486D01*
X122671416Y-92574559D01*
X122490196Y-92476574D01*
X122293395Y-92415654D01*
X122287270Y-92415010D01*
X122287269Y-92415010D01*
X122094639Y-92394764D01*
X122094637Y-92394764D01*
X122088510Y-92394120D01*
X122001670Y-92402023D01*
X121889483Y-92412232D01*
X121889480Y-92412233D01*
X121883344Y-92412791D01*
X121685713Y-92470957D01*
X121680248Y-92473814D01*
X121651334Y-92488930D01*
X121503143Y-92566403D01*
X121498342Y-92570263D01*
X121498339Y-92570265D01*
X121349833Y-92689667D01*
X121342588Y-92695492D01*
X121210165Y-92853307D01*
X121207197Y-92858705D01*
X121207194Y-92858710D01*
X121157815Y-92948531D01*
X121110917Y-93033839D01*
X121048625Y-93230209D01*
X121047939Y-93236326D01*
X121047938Y-93236330D01*
X121034298Y-93357938D01*
X121025661Y-93434939D01*
X119271643Y-93434939D01*
X119271643Y-90894939D01*
X121025661Y-90894939D01*
X121026177Y-90901083D01*
X121041360Y-91081885D01*
X121042900Y-91100230D01*
X121044599Y-91106155D01*
X121090596Y-91266565D01*
X121099685Y-91298263D01*
X121102500Y-91303740D01*
X121102501Y-91303743D01*
X121180158Y-91454847D01*
X121193853Y-91481495D01*
X121321818Y-91642947D01*
X121326511Y-91646941D01*
X121326512Y-91646942D01*
X121460252Y-91760763D01*
X121478705Y-91776468D01*
X121484083Y-91779474D01*
X121484085Y-91779475D01*
X121515704Y-91797146D01*
X121658539Y-91876974D01*
X121732514Y-91901010D01*
X121848612Y-91938733D01*
X121848616Y-91938734D01*
X121854470Y-91940636D01*
X122059035Y-91965028D01*
X122065170Y-91964556D01*
X122065172Y-91964556D01*
X122124965Y-91959955D01*
X122264441Y-91949223D01*
X122270371Y-91947567D01*
X122270373Y-91947567D01*
X122415793Y-91906965D01*
X122462866Y-91893822D01*
X122468355Y-91891049D01*
X122468361Y-91891047D01*
X122641257Y-91803710D01*
X122646751Y-91800935D01*
X122809092Y-91674101D01*
X122815997Y-91666102D01*
X122939681Y-91522811D01*
X122939681Y-91522810D01*
X122943705Y-91518149D01*
X122964528Y-91481495D01*
X122984530Y-91446284D01*
X123045464Y-91339021D01*
X123110492Y-91143540D01*
X123136312Y-90939151D01*
X123136724Y-90909677D01*
X123135279Y-90894939D01*
X123565661Y-90894939D01*
X123566177Y-90901083D01*
X123581360Y-91081885D01*
X123582900Y-91100230D01*
X123584599Y-91106155D01*
X123630596Y-91266565D01*
X123639685Y-91298263D01*
X123642500Y-91303740D01*
X123642501Y-91303743D01*
X123720158Y-91454847D01*
X123733853Y-91481495D01*
X123861818Y-91642947D01*
X123866511Y-91646941D01*
X123866512Y-91646942D01*
X124000252Y-91760763D01*
X124018705Y-91776468D01*
X124024083Y-91779474D01*
X124024085Y-91779475D01*
X124055704Y-91797146D01*
X124198539Y-91876974D01*
X124272514Y-91901010D01*
X124388612Y-91938733D01*
X124388616Y-91938734D01*
X124394470Y-91940636D01*
X124599035Y-91965028D01*
X124605170Y-91964556D01*
X124605172Y-91964556D01*
X124664965Y-91959955D01*
X124804441Y-91949223D01*
X124810371Y-91947567D01*
X124810373Y-91947567D01*
X124955793Y-91906965D01*
X125002866Y-91893822D01*
X125008355Y-91891049D01*
X125008361Y-91891047D01*
X125181257Y-91803710D01*
X125186751Y-91800935D01*
X125349092Y-91674101D01*
X125355997Y-91666102D01*
X125479681Y-91522811D01*
X125479681Y-91522810D01*
X125483705Y-91518149D01*
X125504528Y-91481495D01*
X125524530Y-91446284D01*
X125585464Y-91339021D01*
X125618515Y-91239667D01*
X141869017Y-91239667D01*
X141870181Y-91248569D01*
X141870181Y-91248572D01*
X141884781Y-91360219D01*
X141887662Y-91382249D01*
X141945575Y-91513867D01*
X141951352Y-91520740D01*
X141951353Y-91520741D01*
X142021729Y-91604463D01*
X142038101Y-91623940D01*
X142056328Y-91636073D01*
X142119149Y-91677890D01*
X142157802Y-91703620D01*
X142295055Y-91746501D01*
X142438827Y-91749136D01*
X142501204Y-91732130D01*
X142568897Y-91713675D01*
X142568900Y-91713674D01*
X142577559Y-91711313D01*
X142585209Y-91706616D01*
X142585211Y-91706615D01*
X142645751Y-91669443D01*
X142700100Y-91636073D01*
X142706126Y-91629416D01*
X142706128Y-91629414D01*
X142731863Y-91600983D01*
X142792406Y-91563901D01*
X142863386Y-91565439D01*
X142921729Y-91604463D01*
X142938101Y-91623940D01*
X142956328Y-91636073D01*
X143019149Y-91677890D01*
X143057802Y-91703620D01*
X143195055Y-91746501D01*
X143338827Y-91749136D01*
X143401204Y-91732130D01*
X143468897Y-91713675D01*
X143468900Y-91713674D01*
X143477559Y-91711313D01*
X143485209Y-91706616D01*
X143485211Y-91706615D01*
X143545751Y-91669443D01*
X143564046Y-91658210D01*
X143632563Y-91639612D01*
X143700258Y-91661009D01*
X143745639Y-91715609D01*
X143754297Y-91786075D01*
X143739079Y-91825048D01*
X143739893Y-91825430D01*
X143701613Y-91906965D01*
X143684929Y-91942500D01*
X143683548Y-91951369D01*
X143680923Y-91959955D01*
X143677488Y-91958905D01*
X143654528Y-92007639D01*
X143594350Y-92045310D01*
X143560291Y-92050000D01*
X143200000Y-92050000D01*
X143200000Y-92063547D01*
X143197121Y-92076783D01*
X143195517Y-92076434D01*
X143179998Y-92129286D01*
X143126342Y-92175779D01*
X143108628Y-92182313D01*
X143097692Y-92185439D01*
X143097691Y-92185440D01*
X143089054Y-92187908D01*
X142967442Y-92264640D01*
X142961499Y-92271369D01*
X142880173Y-92363453D01*
X142872254Y-92372419D01*
X142868440Y-92380542D01*
X142868439Y-92380544D01*
X142819885Y-92483962D01*
X142811143Y-92502583D01*
X142809762Y-92511452D01*
X142798309Y-92585012D01*
X142789020Y-92644667D01*
X142790184Y-92653569D01*
X142790184Y-92653572D01*
X142806501Y-92778350D01*
X142807665Y-92787249D01*
X142865578Y-92918867D01*
X142871355Y-92925740D01*
X142871356Y-92925741D01*
X142948614Y-93017650D01*
X142958104Y-93028940D01*
X142977704Y-93041987D01*
X143070332Y-93103646D01*
X143070334Y-93103647D01*
X143077805Y-93108620D01*
X143108656Y-93118259D01*
X143111576Y-93119171D01*
X143170632Y-93158578D01*
X143199008Y-93223658D01*
X143200000Y-93239438D01*
X143200000Y-93750000D01*
X144500000Y-93750000D01*
X144500000Y-92857260D01*
X145704545Y-92857260D01*
X145705709Y-92866162D01*
X145705709Y-92866165D01*
X145719631Y-92972627D01*
X145723190Y-92999842D01*
X145781103Y-93131460D01*
X145786880Y-93138333D01*
X145786881Y-93138334D01*
X145858603Y-93223658D01*
X145873629Y-93241533D01*
X145993330Y-93321213D01*
X146130583Y-93364094D01*
X146274355Y-93366729D01*
X146325424Y-93352806D01*
X146404425Y-93331268D01*
X146404428Y-93331267D01*
X146413087Y-93328906D01*
X146420737Y-93324209D01*
X146420739Y-93324208D01*
X146503385Y-93273463D01*
X146535628Y-93253666D01*
X146547772Y-93240250D01*
X146626103Y-93153710D01*
X146632125Y-93147057D01*
X146677538Y-93053326D01*
X146690910Y-93025727D01*
X146690911Y-93025725D01*
X146694823Y-93017650D01*
X146706452Y-92948531D01*
X146717874Y-92880640D01*
X146717874Y-92880635D01*
X146718680Y-92875847D01*
X146718831Y-92863456D01*
X146709094Y-92795464D01*
X146699719Y-92729999D01*
X146699718Y-92729996D01*
X146698446Y-92721113D01*
X146693919Y-92711155D01*
X146660980Y-92638711D01*
X146638929Y-92590212D01*
X146610649Y-92557391D01*
X146550923Y-92488075D01*
X146550921Y-92488073D01*
X146545065Y-92481277D01*
X146424399Y-92403066D01*
X146286632Y-92361865D01*
X146277656Y-92361810D01*
X146277655Y-92361810D01*
X146217690Y-92361444D01*
X146142839Y-92360986D01*
X146094743Y-92374732D01*
X146026906Y-92394120D01*
X146004579Y-92400501D01*
X145929041Y-92448163D01*
X145895672Y-92469217D01*
X145882967Y-92477233D01*
X145877024Y-92483962D01*
X145838964Y-92527057D01*
X145787779Y-92585012D01*
X145783965Y-92593135D01*
X145783964Y-92593137D01*
X145737313Y-92692502D01*
X145726668Y-92715176D01*
X145725287Y-92724045D01*
X145708677Y-92830724D01*
X145704545Y-92857260D01*
X144500000Y-92857260D01*
X144500000Y-92358407D01*
X144512608Y-92303469D01*
X144551777Y-92222625D01*
X144551777Y-92222623D01*
X144555691Y-92214546D01*
X144577148Y-92087008D01*
X144577284Y-92075863D01*
X144558949Y-91947839D01*
X144544291Y-91915598D01*
X144509137Y-91838281D01*
X144509137Y-91838280D01*
X144505420Y-91830106D01*
X144467480Y-91786075D01*
X144426856Y-91738928D01*
X144426854Y-91738926D01*
X144420998Y-91732130D01*
X144312471Y-91661787D01*
X144303876Y-91659217D01*
X144303875Y-91659216D01*
X144197164Y-91627302D01*
X144197162Y-91627302D01*
X144188563Y-91624730D01*
X144179588Y-91624675D01*
X144179587Y-91624675D01*
X144124881Y-91624341D01*
X144059235Y-91623940D01*
X143934884Y-91659480D01*
X143880054Y-91694075D01*
X143871474Y-91699489D01*
X143803189Y-91718923D01*
X143735238Y-91698354D01*
X143689193Y-91644313D01*
X143679675Y-91573957D01*
X143696978Y-91529648D01*
X143696597Y-91529464D01*
X143698931Y-91524646D01*
X143700511Y-91521386D01*
X143755382Y-91408134D01*
X143755383Y-91408132D01*
X143759295Y-91400057D01*
X143763788Y-91373350D01*
X143782346Y-91263047D01*
X143782346Y-91263042D01*
X143783152Y-91258254D01*
X143783303Y-91245863D01*
X143776593Y-91199011D01*
X143764191Y-91112406D01*
X143764190Y-91112403D01*
X143762918Y-91103520D01*
X143756300Y-91088963D01*
X143707117Y-90980793D01*
X143703401Y-90972619D01*
X143662997Y-90925728D01*
X143615395Y-90870482D01*
X143615393Y-90870480D01*
X143609537Y-90863684D01*
X143488871Y-90785473D01*
X143394536Y-90757261D01*
X154554545Y-90757261D01*
X154555709Y-90766163D01*
X154555709Y-90766166D01*
X154571867Y-90889725D01*
X154573190Y-90899843D01*
X154631103Y-91031461D01*
X154636880Y-91038334D01*
X154636881Y-91038335D01*
X154699144Y-91112406D01*
X154723629Y-91141534D01*
X154843330Y-91221214D01*
X154980583Y-91264095D01*
X155124355Y-91266730D01*
X155183068Y-91250723D01*
X155254425Y-91231269D01*
X155254428Y-91231268D01*
X155263087Y-91228907D01*
X155270737Y-91224210D01*
X155270739Y-91224209D01*
X155324358Y-91191287D01*
X155385628Y-91153667D01*
X155394795Y-91143540D01*
X155476103Y-91053711D01*
X155482125Y-91047058D01*
X155544823Y-90917651D01*
X155553498Y-90866087D01*
X155567874Y-90780641D01*
X155567874Y-90780636D01*
X155568680Y-90775848D01*
X155568831Y-90763457D01*
X155560409Y-90704647D01*
X155549719Y-90630000D01*
X155549718Y-90629997D01*
X155548446Y-90621114D01*
X155543492Y-90610217D01*
X155514971Y-90547490D01*
X155488929Y-90490213D01*
X155406769Y-90394862D01*
X155377456Y-90330200D01*
X155387755Y-90259955D01*
X155408808Y-90228060D01*
X155476102Y-90153715D01*
X155476106Y-90153709D01*
X155482127Y-90147057D01*
X155544825Y-90017650D01*
X155549318Y-89990943D01*
X155567876Y-89880640D01*
X155567876Y-89880635D01*
X155568682Y-89875847D01*
X155568833Y-89863456D01*
X155557786Y-89786315D01*
X155549721Y-89729999D01*
X155549720Y-89729996D01*
X155548448Y-89721113D01*
X155542778Y-89708641D01*
X155506756Y-89629416D01*
X155488931Y-89590212D01*
X155423651Y-89514450D01*
X155400925Y-89488075D01*
X155400923Y-89488073D01*
X155395067Y-89481277D01*
X155274401Y-89403066D01*
X155136634Y-89361865D01*
X155127658Y-89361810D01*
X155127657Y-89361810D01*
X155067692Y-89361444D01*
X154992841Y-89360986D01*
X154854581Y-89400501D01*
X154732969Y-89477233D01*
X154727026Y-89483962D01*
X154723394Y-89488075D01*
X154637781Y-89585012D01*
X154633967Y-89593135D01*
X154633966Y-89593137D01*
X154584260Y-89699010D01*
X154576670Y-89715176D01*
X154575289Y-89724045D01*
X154556559Y-89844339D01*
X154554547Y-89857260D01*
X154555711Y-89866162D01*
X154555711Y-89866165D01*
X154569968Y-89975188D01*
X154573192Y-89999842D01*
X154631105Y-90131460D01*
X154636882Y-90138333D01*
X154636883Y-90138334D01*
X154716768Y-90233369D01*
X154745289Y-90298385D01*
X154734133Y-90368499D01*
X154714759Y-90397850D01*
X154672635Y-90445546D01*
X154646976Y-90474600D01*
X154637779Y-90485013D01*
X154633965Y-90493136D01*
X154633964Y-90493138D01*
X154586946Y-90593286D01*
X154576668Y-90615177D01*
X154575287Y-90624046D01*
X154556167Y-90746845D01*
X154554545Y-90757261D01*
X143394536Y-90757261D01*
X143351104Y-90744272D01*
X143342128Y-90744217D01*
X143342127Y-90744217D01*
X143282162Y-90743851D01*
X143207311Y-90743393D01*
X143069051Y-90782908D01*
X142947439Y-90859640D01*
X142941496Y-90866369D01*
X142941495Y-90866370D01*
X142920868Y-90889725D01*
X142860782Y-90927542D01*
X142789788Y-90926871D01*
X142730975Y-90888564D01*
X142715395Y-90870482D01*
X142715393Y-90870480D01*
X142709537Y-90863684D01*
X142588871Y-90785473D01*
X142451104Y-90744272D01*
X142442128Y-90744217D01*
X142442127Y-90744217D01*
X142382162Y-90743851D01*
X142307311Y-90743393D01*
X142169051Y-90782908D01*
X142047439Y-90859640D01*
X142041496Y-90866369D01*
X141989072Y-90925728D01*
X141952251Y-90967419D01*
X141948437Y-90975542D01*
X141948436Y-90975544D01*
X141903166Y-91071968D01*
X141891140Y-91097583D01*
X141889759Y-91106452D01*
X141871363Y-91224602D01*
X141869017Y-91239667D01*
X125618515Y-91239667D01*
X125650492Y-91143540D01*
X125655992Y-91100000D01*
X131550000Y-91100000D01*
X133550000Y-91100000D01*
X133550000Y-89450000D01*
X131550000Y-89450000D01*
X131550000Y-91100000D01*
X125655992Y-91100000D01*
X125676312Y-90939151D01*
X125676724Y-90909677D01*
X125656621Y-90704647D01*
X125597076Y-90507426D01*
X125500359Y-90325526D01*
X125394335Y-90195528D01*
X125374047Y-90170652D01*
X125374044Y-90170649D01*
X125370152Y-90165877D01*
X125341846Y-90142460D01*
X125216166Y-90038488D01*
X125216162Y-90038486D01*
X125211416Y-90034559D01*
X125063348Y-89954499D01*
X125035615Y-89939504D01*
X125030196Y-89936574D01*
X124833395Y-89875654D01*
X124827270Y-89875010D01*
X124827269Y-89875010D01*
X124634639Y-89854764D01*
X124634637Y-89854764D01*
X124628510Y-89854120D01*
X124541670Y-89862023D01*
X124429483Y-89872232D01*
X124429480Y-89872233D01*
X124423344Y-89872791D01*
X124225713Y-89930957D01*
X124043143Y-90026403D01*
X124038342Y-90030263D01*
X124038339Y-90030265D01*
X123893079Y-90147057D01*
X123882588Y-90155492D01*
X123750165Y-90313307D01*
X123747197Y-90318705D01*
X123747194Y-90318710D01*
X123664949Y-90468314D01*
X123650917Y-90493839D01*
X123588625Y-90690209D01*
X123587939Y-90696326D01*
X123587938Y-90696330D01*
X123568489Y-90869724D01*
X123565661Y-90894939D01*
X123135279Y-90894939D01*
X123116621Y-90704647D01*
X123057076Y-90507426D01*
X122960359Y-90325526D01*
X122854335Y-90195528D01*
X122834047Y-90170652D01*
X122834044Y-90170649D01*
X122830152Y-90165877D01*
X122801846Y-90142460D01*
X122676166Y-90038488D01*
X122676162Y-90038486D01*
X122671416Y-90034559D01*
X122523348Y-89954499D01*
X122495615Y-89939504D01*
X122490196Y-89936574D01*
X122293395Y-89875654D01*
X122287270Y-89875010D01*
X122287269Y-89875010D01*
X122094639Y-89854764D01*
X122094637Y-89854764D01*
X122088510Y-89854120D01*
X122001670Y-89862023D01*
X121889483Y-89872232D01*
X121889480Y-89872233D01*
X121883344Y-89872791D01*
X121685713Y-89930957D01*
X121503143Y-90026403D01*
X121498342Y-90030263D01*
X121498339Y-90030265D01*
X121353079Y-90147057D01*
X121342588Y-90155492D01*
X121210165Y-90313307D01*
X121207197Y-90318705D01*
X121207194Y-90318710D01*
X121124949Y-90468314D01*
X121110917Y-90493839D01*
X121048625Y-90690209D01*
X121047939Y-90696326D01*
X121047938Y-90696330D01*
X121028489Y-90869724D01*
X121025661Y-90894939D01*
X119271643Y-90894939D01*
X119271643Y-90309090D01*
X119629227Y-90309090D01*
X119630391Y-90317992D01*
X119630391Y-90317995D01*
X119638675Y-90381343D01*
X119645996Y-90437329D01*
X119649610Y-90445542D01*
X119649611Y-90445546D01*
X119674447Y-90501987D01*
X119698084Y-90555706D01*
X119781302Y-90654707D01*
X119888961Y-90726371D01*
X120012407Y-90764938D01*
X120141716Y-90767308D01*
X120226211Y-90744272D01*
X120257833Y-90735651D01*
X120257835Y-90735650D01*
X120266492Y-90733290D01*
X120376705Y-90665619D01*
X120463496Y-90569735D01*
X120502882Y-90488442D01*
X120515972Y-90461425D01*
X120515972Y-90461424D01*
X120519886Y-90453346D01*
X120541343Y-90325808D01*
X120541479Y-90314663D01*
X120523144Y-90186639D01*
X120518555Y-90176544D01*
X120473332Y-90077081D01*
X120473332Y-90077080D01*
X120469615Y-90068906D01*
X120463754Y-90062104D01*
X120391051Y-89977728D01*
X120391049Y-89977726D01*
X120385193Y-89970930D01*
X120276666Y-89900587D01*
X120268071Y-89898017D01*
X120268070Y-89898016D01*
X120161359Y-89866102D01*
X120161357Y-89866102D01*
X120152758Y-89863530D01*
X120143783Y-89863475D01*
X120143782Y-89863475D01*
X120089076Y-89863141D01*
X120023430Y-89862740D01*
X119899079Y-89898280D01*
X119860289Y-89922755D01*
X119823000Y-89946283D01*
X119789701Y-89967293D01*
X119783758Y-89974022D01*
X119713565Y-90053500D01*
X119704088Y-90064230D01*
X119692764Y-90088350D01*
X119653579Y-90171812D01*
X119649124Y-90181300D01*
X119647743Y-90190168D01*
X119647743Y-90190169D01*
X119630608Y-90300217D01*
X119630608Y-90300221D01*
X119629227Y-90309090D01*
X119271643Y-90309090D01*
X119271643Y-88407884D01*
X119855561Y-88407884D01*
X119872330Y-88536123D01*
X119875944Y-88544336D01*
X119875945Y-88544340D01*
X119899302Y-88597421D01*
X119924418Y-88654500D01*
X120007636Y-88753501D01*
X120015114Y-88758478D01*
X120015113Y-88758478D01*
X120076020Y-88799021D01*
X120115295Y-88825165D01*
X120238741Y-88863732D01*
X120368050Y-88866102D01*
X120440745Y-88846283D01*
X120484167Y-88834445D01*
X120484169Y-88834444D01*
X120492826Y-88832084D01*
X120603039Y-88764413D01*
X120689830Y-88668529D01*
X120739430Y-88566155D01*
X120742306Y-88560219D01*
X120742306Y-88560218D01*
X120746220Y-88552140D01*
X120767677Y-88424602D01*
X120767813Y-88413457D01*
X120759432Y-88354939D01*
X121025661Y-88354939D01*
X121026177Y-88361083D01*
X121042221Y-88552140D01*
X121042900Y-88560230D01*
X121044599Y-88566155D01*
X121067576Y-88646284D01*
X121099685Y-88758263D01*
X121102500Y-88763740D01*
X121102501Y-88763743D01*
X121181897Y-88918232D01*
X121193853Y-88941495D01*
X121321818Y-89102947D01*
X121478705Y-89236468D01*
X121484083Y-89239474D01*
X121484085Y-89239475D01*
X121529569Y-89264895D01*
X121658539Y-89336974D01*
X121735915Y-89362115D01*
X121848612Y-89398733D01*
X121848616Y-89398734D01*
X121854470Y-89400636D01*
X122059035Y-89425028D01*
X122065170Y-89424556D01*
X122065172Y-89424556D01*
X122121180Y-89420246D01*
X122264441Y-89409223D01*
X122270371Y-89407567D01*
X122270373Y-89407567D01*
X122423393Y-89364843D01*
X122462866Y-89353822D01*
X122468355Y-89351049D01*
X122468361Y-89351047D01*
X122601093Y-89283999D01*
X122646751Y-89260935D01*
X122662600Y-89248553D01*
X122804242Y-89137890D01*
X122809092Y-89134101D01*
X122829440Y-89110528D01*
X122939681Y-88982811D01*
X122939681Y-88982810D01*
X122943705Y-88978149D01*
X122954882Y-88958475D01*
X123005978Y-88868528D01*
X123045464Y-88799021D01*
X123110492Y-88603540D01*
X123136312Y-88399151D01*
X123136531Y-88383483D01*
X123136675Y-88373199D01*
X123136675Y-88373195D01*
X123136724Y-88369677D01*
X123135279Y-88354939D01*
X123565661Y-88354939D01*
X123566177Y-88361083D01*
X123582221Y-88552140D01*
X123582900Y-88560230D01*
X123584599Y-88566155D01*
X123607576Y-88646284D01*
X123639685Y-88758263D01*
X123642500Y-88763740D01*
X123642501Y-88763743D01*
X123721897Y-88918232D01*
X123733853Y-88941495D01*
X123861818Y-89102947D01*
X124018705Y-89236468D01*
X124024083Y-89239474D01*
X124024085Y-89239475D01*
X124069569Y-89264895D01*
X124198539Y-89336974D01*
X124275915Y-89362115D01*
X124388612Y-89398733D01*
X124388616Y-89398734D01*
X124394470Y-89400636D01*
X124599035Y-89425028D01*
X124605170Y-89424556D01*
X124605172Y-89424556D01*
X124661180Y-89420246D01*
X124804441Y-89409223D01*
X124810371Y-89407567D01*
X124810373Y-89407567D01*
X124963393Y-89364843D01*
X125002866Y-89353822D01*
X125008355Y-89351049D01*
X125008361Y-89351047D01*
X125141093Y-89283999D01*
X125186751Y-89260935D01*
X125202600Y-89248553D01*
X125344242Y-89137890D01*
X125349092Y-89134101D01*
X125369440Y-89110528D01*
X125479681Y-88982811D01*
X125479681Y-88982810D01*
X125483705Y-88978149D01*
X125494882Y-88958475D01*
X125545978Y-88868528D01*
X125585464Y-88799021D01*
X125649047Y-88607883D01*
X172355562Y-88607883D01*
X172356726Y-88616785D01*
X172356726Y-88616788D01*
X172362556Y-88661372D01*
X172372331Y-88736122D01*
X172375945Y-88744335D01*
X172375946Y-88744339D01*
X172409322Y-88820190D01*
X172424419Y-88854499D01*
X172507637Y-88953500D01*
X172531085Y-88969108D01*
X172606149Y-89019075D01*
X172615296Y-89025164D01*
X172738742Y-89063731D01*
X172868051Y-89066101D01*
X172919840Y-89051981D01*
X172984168Y-89034444D01*
X172984170Y-89034443D01*
X172992827Y-89032083D01*
X173103040Y-88964412D01*
X173109064Y-88957757D01*
X173109068Y-88957754D01*
X173116953Y-88949043D01*
X173177497Y-88911963D01*
X173248477Y-88913502D01*
X173292875Y-88943210D01*
X173295169Y-88940645D01*
X173301856Y-88946624D01*
X173307636Y-88953500D01*
X173331084Y-88969108D01*
X173406148Y-89019075D01*
X173415295Y-89025164D01*
X173538741Y-89063731D01*
X173668050Y-89066101D01*
X173719839Y-89051981D01*
X173784167Y-89034444D01*
X173784169Y-89034443D01*
X173792826Y-89032083D01*
X173903039Y-88964412D01*
X173912815Y-88953612D01*
X173916953Y-88949041D01*
X173977497Y-88911962D01*
X174048477Y-88913501D01*
X174092884Y-88943199D01*
X174095169Y-88940643D01*
X174101856Y-88946622D01*
X174107636Y-88953498D01*
X174124029Y-88964410D01*
X174206151Y-89019075D01*
X174215295Y-89025162D01*
X174338741Y-89063729D01*
X174468050Y-89066099D01*
X174519839Y-89051979D01*
X174584167Y-89034442D01*
X174584169Y-89034441D01*
X174592826Y-89032081D01*
X174703039Y-88964410D01*
X174789830Y-88868526D01*
X174837997Y-88769109D01*
X174842306Y-88760216D01*
X174842306Y-88760215D01*
X174846220Y-88752137D01*
X174867677Y-88624599D01*
X174867813Y-88613454D01*
X174849478Y-88485430D01*
X174818270Y-88416789D01*
X174799666Y-88375872D01*
X174799666Y-88375871D01*
X174795949Y-88367697D01*
X174728107Y-88288963D01*
X174717385Y-88276519D01*
X174717383Y-88276517D01*
X174711527Y-88269721D01*
X174603000Y-88199378D01*
X174594405Y-88196808D01*
X174594404Y-88196807D01*
X174487693Y-88164893D01*
X174487691Y-88164893D01*
X174479092Y-88162321D01*
X174470117Y-88162266D01*
X174470116Y-88162266D01*
X174415410Y-88161932D01*
X174349764Y-88161531D01*
X174225413Y-88197071D01*
X174116035Y-88266084D01*
X174110092Y-88272813D01*
X174110091Y-88272814D01*
X174106544Y-88276830D01*
X174046457Y-88314647D01*
X173975464Y-88313976D01*
X173925189Y-88281232D01*
X173924150Y-88282423D01*
X173917385Y-88276521D01*
X173911527Y-88269723D01*
X173803000Y-88199380D01*
X173794405Y-88196810D01*
X173794404Y-88196809D01*
X173687693Y-88164895D01*
X173687691Y-88164895D01*
X173679092Y-88162323D01*
X173670117Y-88162268D01*
X173670116Y-88162268D01*
X173615410Y-88161934D01*
X173549764Y-88161533D01*
X173425413Y-88197073D01*
X173316035Y-88266086D01*
X173310095Y-88272811D01*
X173310091Y-88272815D01*
X173306545Y-88276831D01*
X173246459Y-88314648D01*
X173175466Y-88313977D01*
X173125191Y-88281230D01*
X173124151Y-88282423D01*
X173117386Y-88276521D01*
X173111528Y-88269723D01*
X173003001Y-88199380D01*
X172994406Y-88196810D01*
X172994405Y-88196809D01*
X172887694Y-88164895D01*
X172887692Y-88164895D01*
X172879093Y-88162323D01*
X172870118Y-88162268D01*
X172870117Y-88162268D01*
X172815411Y-88161934D01*
X172749765Y-88161533D01*
X172625414Y-88197073D01*
X172516036Y-88266086D01*
X172510094Y-88272814D01*
X172510093Y-88272815D01*
X172437563Y-88354939D01*
X172430423Y-88363023D01*
X172375459Y-88480093D01*
X172374078Y-88488961D01*
X172374078Y-88488962D01*
X172356943Y-88599010D01*
X172356943Y-88599014D01*
X172355562Y-88607883D01*
X125649047Y-88607883D01*
X125650492Y-88603540D01*
X125676312Y-88399151D01*
X125676531Y-88383483D01*
X125676675Y-88373199D01*
X125676675Y-88373195D01*
X125676724Y-88369677D01*
X125656621Y-88164647D01*
X125597076Y-87967426D01*
X125500359Y-87785526D01*
X125398916Y-87661145D01*
X125374047Y-87630652D01*
X125374044Y-87630649D01*
X125370152Y-87625877D01*
X125363314Y-87620220D01*
X125216166Y-87498488D01*
X125216162Y-87498486D01*
X125211416Y-87494559D01*
X125030196Y-87396574D01*
X124833395Y-87335654D01*
X124827270Y-87335010D01*
X124827269Y-87335010D01*
X124634639Y-87314764D01*
X124634637Y-87314764D01*
X124628510Y-87314120D01*
X124551657Y-87321114D01*
X124429483Y-87332232D01*
X124429480Y-87332233D01*
X124423344Y-87332791D01*
X124225713Y-87390957D01*
X124043143Y-87486403D01*
X124038342Y-87490263D01*
X124038339Y-87490265D01*
X123987843Y-87530865D01*
X123882588Y-87615492D01*
X123750165Y-87773307D01*
X123747197Y-87778705D01*
X123747194Y-87778710D01*
X123680319Y-87900356D01*
X123650917Y-87953839D01*
X123588625Y-88150209D01*
X123587939Y-88156326D01*
X123587938Y-88156330D01*
X123570180Y-88314647D01*
X123565661Y-88354939D01*
X123135279Y-88354939D01*
X123116621Y-88164647D01*
X123057076Y-87967426D01*
X122960359Y-87785526D01*
X122858916Y-87661145D01*
X122834047Y-87630652D01*
X122834044Y-87630649D01*
X122830152Y-87625877D01*
X122823314Y-87620220D01*
X122676166Y-87498488D01*
X122676162Y-87498486D01*
X122671416Y-87494559D01*
X122490196Y-87396574D01*
X122293395Y-87335654D01*
X122287270Y-87335010D01*
X122287269Y-87335010D01*
X122094639Y-87314764D01*
X122094637Y-87314764D01*
X122088510Y-87314120D01*
X122011657Y-87321114D01*
X121889483Y-87332232D01*
X121889480Y-87332233D01*
X121883344Y-87332791D01*
X121685713Y-87390957D01*
X121503143Y-87486403D01*
X121498342Y-87490263D01*
X121498339Y-87490265D01*
X121447843Y-87530865D01*
X121342588Y-87615492D01*
X121210165Y-87773307D01*
X121207197Y-87778705D01*
X121207194Y-87778710D01*
X121140319Y-87900356D01*
X121110917Y-87953839D01*
X121048625Y-88150209D01*
X121047939Y-88156326D01*
X121047938Y-88156330D01*
X121030180Y-88314647D01*
X121025661Y-88354939D01*
X120759432Y-88354939D01*
X120749478Y-88285433D01*
X120745426Y-88276519D01*
X120699666Y-88175875D01*
X120699666Y-88175874D01*
X120695949Y-88167700D01*
X120675817Y-88144336D01*
X120617385Y-88076522D01*
X120617383Y-88076520D01*
X120611527Y-88069724D01*
X120503000Y-87999381D01*
X120494405Y-87996811D01*
X120494404Y-87996810D01*
X120387693Y-87964896D01*
X120387691Y-87964896D01*
X120379092Y-87962324D01*
X120370117Y-87962269D01*
X120370116Y-87962269D01*
X120315410Y-87961935D01*
X120249764Y-87961534D01*
X120125413Y-87997074D01*
X120022740Y-88061857D01*
X119954457Y-88081290D01*
X119933556Y-88074963D01*
X119940392Y-88130600D01*
X119930124Y-88163658D01*
X119885371Y-88258980D01*
X119875458Y-88280094D01*
X119874077Y-88288962D01*
X119874077Y-88288963D01*
X119856942Y-88399011D01*
X119856942Y-88399015D01*
X119855561Y-88407884D01*
X119271643Y-88407884D01*
X119271643Y-88226459D01*
X119291645Y-88158338D01*
X119345301Y-88111845D01*
X119399950Y-88100480D01*
X119518049Y-88102645D01*
X119613867Y-88076522D01*
X119634166Y-88070988D01*
X119634168Y-88070987D01*
X119642825Y-88068627D01*
X119750141Y-88002735D01*
X119818657Y-87984137D01*
X119838248Y-87990329D01*
X119830942Y-87936324D01*
X119842114Y-87900356D01*
X119892305Y-87796762D01*
X119892305Y-87796761D01*
X119896219Y-87788683D01*
X119917676Y-87661145D01*
X119917812Y-87650000D01*
X119899477Y-87521976D01*
X119887012Y-87494559D01*
X119849665Y-87412418D01*
X119849665Y-87412417D01*
X119845948Y-87404243D01*
X119781976Y-87330000D01*
X119767384Y-87313065D01*
X119767382Y-87313063D01*
X119761526Y-87306267D01*
X119652999Y-87235924D01*
X119644404Y-87233354D01*
X119644403Y-87233353D01*
X119537692Y-87201439D01*
X119537690Y-87201439D01*
X119529091Y-87198867D01*
X119520116Y-87198812D01*
X119520115Y-87198812D01*
X119399763Y-87198077D01*
X119399781Y-87195056D01*
X119344543Y-87186739D01*
X119291196Y-87139892D01*
X119271643Y-87072475D01*
X119271643Y-86657261D01*
X174654546Y-86657261D01*
X174655710Y-86666163D01*
X174655710Y-86666166D01*
X174672027Y-86790944D01*
X174673191Y-86799843D01*
X174731104Y-86931461D01*
X174736881Y-86938334D01*
X174736882Y-86938335D01*
X174747407Y-86950856D01*
X174823630Y-87041534D01*
X174831107Y-87046511D01*
X174943331Y-87121214D01*
X174942023Y-87123178D01*
X174985358Y-87162015D01*
X175004219Y-87230460D01*
X174992292Y-87281903D01*
X174976669Y-87315178D01*
X174954546Y-87457262D01*
X174955710Y-87466164D01*
X174955710Y-87466167D01*
X174972027Y-87590945D01*
X174973191Y-87599844D01*
X175031104Y-87731462D01*
X175036881Y-87738335D01*
X175036882Y-87738336D01*
X175107257Y-87822057D01*
X175123630Y-87841535D01*
X175131107Y-87846512D01*
X175235856Y-87916239D01*
X175243331Y-87921215D01*
X175380584Y-87964096D01*
X175524356Y-87966731D01*
X175591439Y-87948442D01*
X175654426Y-87931270D01*
X175654429Y-87931269D01*
X175663088Y-87928908D01*
X175670738Y-87924211D01*
X175670740Y-87924210D01*
X175724358Y-87891288D01*
X175785629Y-87853668D01*
X175791654Y-87847012D01*
X175791656Y-87847010D01*
X175817391Y-87818578D01*
X175877934Y-87781496D01*
X175948914Y-87783033D01*
X176007258Y-87822057D01*
X176023630Y-87841534D01*
X176143331Y-87921214D01*
X176280584Y-87964095D01*
X176424356Y-87966730D01*
X176471639Y-87953839D01*
X176554426Y-87931269D01*
X176554429Y-87931268D01*
X176563088Y-87928907D01*
X176570738Y-87924210D01*
X176570740Y-87924209D01*
X176624359Y-87891287D01*
X176685629Y-87853667D01*
X176692106Y-87846512D01*
X176776104Y-87753711D01*
X176782126Y-87747058D01*
X176838525Y-87630652D01*
X176840911Y-87625728D01*
X176840912Y-87625726D01*
X176844824Y-87617651D01*
X176859425Y-87530865D01*
X176867875Y-87480641D01*
X176867875Y-87480636D01*
X176868681Y-87475848D01*
X176868832Y-87463457D01*
X176858993Y-87394752D01*
X176849720Y-87330000D01*
X176849719Y-87329997D01*
X176848447Y-87321114D01*
X176842054Y-87307052D01*
X176809746Y-87235995D01*
X176788930Y-87190213D01*
X176729477Y-87121214D01*
X176700924Y-87088076D01*
X176700922Y-87088074D01*
X176695066Y-87081278D01*
X176574400Y-87003067D01*
X176436633Y-86961866D01*
X176427657Y-86961811D01*
X176427656Y-86961811D01*
X176367691Y-86961445D01*
X176292840Y-86960987D01*
X176154580Y-87000502D01*
X176032968Y-87077234D01*
X176006398Y-87107319D01*
X175946313Y-87145137D01*
X175875319Y-87144467D01*
X175816504Y-87106159D01*
X175800924Y-87088077D01*
X175800922Y-87088075D01*
X175795066Y-87081279D01*
X175787535Y-87076398D01*
X175787532Y-87076395D01*
X175676908Y-87004692D01*
X175630624Y-86950856D01*
X175620793Y-86880544D01*
X175632047Y-86844022D01*
X175640912Y-86825725D01*
X175644824Y-86817651D01*
X175668681Y-86675848D01*
X175668832Y-86663457D01*
X175653671Y-86557590D01*
X175649720Y-86530000D01*
X175649719Y-86529997D01*
X175648447Y-86521114D01*
X175588930Y-86390213D01*
X175495066Y-86281278D01*
X175374400Y-86203067D01*
X175236633Y-86161866D01*
X175227657Y-86161811D01*
X175227656Y-86161811D01*
X175167691Y-86161445D01*
X175092840Y-86160987D01*
X174954580Y-86200502D01*
X174832968Y-86277234D01*
X174827025Y-86283963D01*
X174823393Y-86288076D01*
X174737780Y-86385013D01*
X174733966Y-86393136D01*
X174733965Y-86393138D01*
X174700524Y-86464366D01*
X174676669Y-86515177D01*
X174654546Y-86657261D01*
X119271643Y-86657261D01*
X119271643Y-84775865D01*
X127222737Y-84775865D01*
X127243333Y-85011273D01*
X127244757Y-85016587D01*
X127244757Y-85016588D01*
X127296260Y-85208800D01*
X127304493Y-85239528D01*
X127306815Y-85244508D01*
X127306816Y-85244510D01*
X127394883Y-85433368D01*
X127404361Y-85453694D01*
X127539901Y-85647266D01*
X127706995Y-85814360D01*
X127900567Y-85949900D01*
X127905545Y-85952221D01*
X127905548Y-85952223D01*
X128109751Y-86047445D01*
X128114733Y-86049768D01*
X128120041Y-86051190D01*
X128120043Y-86051191D01*
X128268398Y-86090942D01*
X128342988Y-86110928D01*
X128446078Y-86119947D01*
X128516706Y-86126127D01*
X128516713Y-86126127D01*
X128519430Y-86126365D01*
X128637362Y-86126365D01*
X128640079Y-86126127D01*
X128640086Y-86126127D01*
X128710714Y-86119947D01*
X128813804Y-86110928D01*
X128888394Y-86090942D01*
X129036749Y-86051191D01*
X129036751Y-86051190D01*
X129042059Y-86049768D01*
X129047041Y-86047445D01*
X129251244Y-85952223D01*
X129251247Y-85952221D01*
X129256225Y-85949900D01*
X129449797Y-85814360D01*
X129616891Y-85647266D01*
X129620051Y-85642754D01*
X129749274Y-85458204D01*
X129749277Y-85458199D01*
X129752431Y-85453695D01*
X129754754Y-85448713D01*
X129754757Y-85448708D01*
X129849976Y-85244510D01*
X129849977Y-85244509D01*
X129852299Y-85239528D01*
X129860533Y-85208800D01*
X129912035Y-85016588D01*
X129912035Y-85016587D01*
X129913459Y-85011273D01*
X129934055Y-84775865D01*
X129914929Y-84557259D01*
X144029547Y-84557259D01*
X144030711Y-84566161D01*
X144030711Y-84566164D01*
X144046253Y-84685013D01*
X144048192Y-84699841D01*
X144106105Y-84831459D01*
X144111882Y-84838332D01*
X144111883Y-84838333D01*
X144190689Y-84932084D01*
X144198631Y-84941532D01*
X144318332Y-85021212D01*
X144455585Y-85064093D01*
X144599357Y-85066728D01*
X144666627Y-85048388D01*
X144729427Y-85031267D01*
X144729430Y-85031266D01*
X144738089Y-85028905D01*
X144745739Y-85024208D01*
X144745741Y-85024207D01*
X144832415Y-84970989D01*
X144860630Y-84953665D01*
X144890095Y-84921113D01*
X144951105Y-84853709D01*
X144957127Y-84847056D01*
X145019825Y-84717649D01*
X145025493Y-84683962D01*
X145042876Y-84580639D01*
X145042876Y-84580634D01*
X145043682Y-84575846D01*
X145043833Y-84563455D01*
X145042946Y-84557259D01*
X145904548Y-84557259D01*
X145905712Y-84566161D01*
X145905712Y-84566164D01*
X145921254Y-84685013D01*
X145923193Y-84699841D01*
X145981106Y-84831459D01*
X145986883Y-84838332D01*
X145986884Y-84838333D01*
X146065690Y-84932084D01*
X146073632Y-84941532D01*
X146193333Y-85021212D01*
X146330586Y-85064093D01*
X146474358Y-85066728D01*
X146541628Y-85048388D01*
X146604428Y-85031267D01*
X146604431Y-85031266D01*
X146613090Y-85028905D01*
X146620740Y-85024208D01*
X146620742Y-85024207D01*
X146707416Y-84970989D01*
X146735631Y-84953665D01*
X146765096Y-84921113D01*
X146826106Y-84853709D01*
X146832128Y-84847056D01*
X146894826Y-84717649D01*
X146900494Y-84683962D01*
X146917877Y-84580639D01*
X146917877Y-84580634D01*
X146918683Y-84575846D01*
X146918834Y-84563455D01*
X146917947Y-84557259D01*
X147954544Y-84557259D01*
X147955708Y-84566161D01*
X147955708Y-84566164D01*
X147971250Y-84685013D01*
X147973189Y-84699841D01*
X148031102Y-84831459D01*
X148036879Y-84838332D01*
X148036880Y-84838333D01*
X148115686Y-84932084D01*
X148123628Y-84941532D01*
X148243329Y-85021212D01*
X148380582Y-85064093D01*
X148524354Y-85066728D01*
X148591624Y-85048388D01*
X148654424Y-85031267D01*
X148654427Y-85031266D01*
X148663086Y-85028905D01*
X148670736Y-85024208D01*
X148670738Y-85024207D01*
X148757412Y-84970989D01*
X148785627Y-84953665D01*
X148815092Y-84921113D01*
X148876102Y-84853709D01*
X148882124Y-84847056D01*
X148944822Y-84717649D01*
X148950490Y-84683962D01*
X148967873Y-84580639D01*
X148967873Y-84580634D01*
X148968679Y-84575846D01*
X148968830Y-84563455D01*
X148960872Y-84507884D01*
X153105561Y-84507884D01*
X153106725Y-84516786D01*
X153106725Y-84516789D01*
X153114003Y-84572443D01*
X153122330Y-84636123D01*
X153125944Y-84644336D01*
X153125945Y-84644340D01*
X153149727Y-84698387D01*
X153174418Y-84754500D01*
X153257636Y-84853501D01*
X153365295Y-84925165D01*
X153488741Y-84963732D01*
X153618050Y-84966102D01*
X153650478Y-84957261D01*
X174654546Y-84957261D01*
X174655710Y-84966163D01*
X174655710Y-84966166D01*
X174670053Y-85075847D01*
X174673191Y-85099843D01*
X174731104Y-85231461D01*
X174736881Y-85238334D01*
X174736882Y-85238335D01*
X174749807Y-85253711D01*
X174823630Y-85341534D01*
X174943331Y-85421214D01*
X175080584Y-85464095D01*
X175224356Y-85466730D01*
X175267177Y-85455056D01*
X175354426Y-85431269D01*
X175354429Y-85431268D01*
X175363088Y-85428907D01*
X175370738Y-85424210D01*
X175370740Y-85424209D01*
X175427344Y-85389454D01*
X175485629Y-85353667D01*
X175567285Y-85263454D01*
X176661670Y-85263454D01*
X178835672Y-85263454D01*
X178903793Y-85283456D01*
X178950286Y-85337112D01*
X178961672Y-85389454D01*
X178961671Y-88263455D01*
X180361669Y-88263455D01*
X180361669Y-87900356D01*
X180361671Y-86689455D01*
X180381673Y-86621334D01*
X180435329Y-86574841D01*
X180487671Y-86563455D01*
X183661672Y-86563455D01*
X183661672Y-86385013D01*
X183661671Y-86049766D01*
X183661670Y-85863456D01*
X179487670Y-85863456D01*
X179419549Y-85843454D01*
X179373056Y-85789798D01*
X179361670Y-85737456D01*
X179361670Y-85057260D01*
X183954546Y-85057260D01*
X183955710Y-85066162D01*
X183955710Y-85066165D01*
X183962443Y-85117651D01*
X183973191Y-85199842D01*
X184031104Y-85331460D01*
X184116770Y-85433371D01*
X184145289Y-85498384D01*
X184134133Y-85568499D01*
X184114758Y-85597851D01*
X184037781Y-85685011D01*
X183976670Y-85815175D01*
X183975289Y-85824044D01*
X183968705Y-85866332D01*
X183954547Y-85957259D01*
X183955711Y-85966161D01*
X183955711Y-85966164D01*
X183966644Y-86049768D01*
X183973192Y-86099841D01*
X184031105Y-86231459D01*
X184036882Y-86238332D01*
X184036883Y-86238333D01*
X184117851Y-86334656D01*
X184123631Y-86341532D01*
X184243332Y-86421212D01*
X184380585Y-86464093D01*
X184524357Y-86466728D01*
X184567178Y-86455054D01*
X184654427Y-86431267D01*
X184654430Y-86431266D01*
X184663089Y-86428905D01*
X184670739Y-86424208D01*
X184670741Y-86424207D01*
X184726105Y-86390213D01*
X184785630Y-86353665D01*
X184882127Y-86247056D01*
X184923402Y-86161866D01*
X184940912Y-86125726D01*
X184940913Y-86125724D01*
X184944825Y-86117649D01*
X184956006Y-86051191D01*
X184967876Y-85980639D01*
X184967876Y-85980634D01*
X184968682Y-85975846D01*
X184968833Y-85963455D01*
X184963271Y-85924615D01*
X184949721Y-85829998D01*
X184949720Y-85829995D01*
X184948448Y-85821112D01*
X184888931Y-85690211D01*
X184851926Y-85647264D01*
X184806771Y-85594859D01*
X184777458Y-85530197D01*
X184787757Y-85459951D01*
X184808809Y-85428057D01*
X184876104Y-85353710D01*
X184882126Y-85347057D01*
X184922632Y-85263454D01*
X184940911Y-85225727D01*
X184940912Y-85225725D01*
X184944824Y-85217650D01*
X184968681Y-85075847D01*
X184968832Y-85063456D01*
X184954890Y-84966102D01*
X184949720Y-84929999D01*
X184949719Y-84929996D01*
X184948447Y-84921113D01*
X184888930Y-84790212D01*
X184826406Y-84717649D01*
X184800924Y-84688075D01*
X184800922Y-84688073D01*
X184795066Y-84681277D01*
X184787538Y-84676398D01*
X184787535Y-84676395D01*
X184777715Y-84670030D01*
X184731433Y-84616193D01*
X184721604Y-84545880D01*
X184751349Y-84481415D01*
X184771390Y-84464474D01*
X184771075Y-84464094D01*
X184777978Y-84458363D01*
X184785630Y-84453665D01*
X184812442Y-84424044D01*
X184876105Y-84353709D01*
X184882127Y-84347056D01*
X184944825Y-84217649D01*
X184950493Y-84183961D01*
X184967876Y-84080639D01*
X184967876Y-84080634D01*
X184968682Y-84075846D01*
X184968833Y-84063455D01*
X184948448Y-83921112D01*
X184888931Y-83790211D01*
X184846757Y-83741265D01*
X184800925Y-83688074D01*
X184800923Y-83688072D01*
X184795067Y-83681276D01*
X184674401Y-83603065D01*
X184536634Y-83561864D01*
X184527658Y-83561809D01*
X184527657Y-83561809D01*
X184467692Y-83561443D01*
X184392841Y-83560985D01*
X184254581Y-83600500D01*
X184132969Y-83677232D01*
X184127026Y-83683961D01*
X184123394Y-83688074D01*
X184037781Y-83785011D01*
X183976670Y-83915175D01*
X183954547Y-84057259D01*
X183955711Y-84066161D01*
X183955711Y-84066164D01*
X183970235Y-84177232D01*
X183973192Y-84199841D01*
X184031105Y-84331459D01*
X184036882Y-84338332D01*
X184036883Y-84338333D01*
X184106466Y-84421112D01*
X184123631Y-84441532D01*
X184141858Y-84453665D01*
X184148136Y-84457844D01*
X184193759Y-84512241D01*
X184202730Y-84582669D01*
X184172200Y-84646766D01*
X184145555Y-84669291D01*
X184132968Y-84677233D01*
X184127025Y-84683962D01*
X184064728Y-84754500D01*
X184037780Y-84785012D01*
X184033966Y-84793135D01*
X184033965Y-84793137D01*
X184019454Y-84824046D01*
X183976669Y-84915176D01*
X183975288Y-84924045D01*
X183960159Y-85021212D01*
X183954546Y-85057260D01*
X179361670Y-85057260D01*
X179361670Y-84563455D01*
X176661672Y-84563455D01*
X176661672Y-84577003D01*
X176661671Y-85080640D01*
X176661670Y-85263454D01*
X175567285Y-85263454D01*
X175582126Y-85247058D01*
X175644824Y-85117651D01*
X175656477Y-85048388D01*
X175667875Y-84980641D01*
X175667875Y-84980636D01*
X175668681Y-84975848D01*
X175668832Y-84963457D01*
X175660754Y-84907050D01*
X175649720Y-84830000D01*
X175649719Y-84829997D01*
X175648447Y-84821114D01*
X175588930Y-84690213D01*
X175551494Y-84646766D01*
X175500924Y-84588076D01*
X175500922Y-84588074D01*
X175495066Y-84581278D01*
X175374400Y-84503067D01*
X175236633Y-84461866D01*
X175227657Y-84461811D01*
X175227656Y-84461811D01*
X175167691Y-84461445D01*
X175092840Y-84460987D01*
X174954580Y-84500502D01*
X174921757Y-84521212D01*
X174847104Y-84568315D01*
X174832968Y-84577234D01*
X174827025Y-84583963D01*
X174759678Y-84660219D01*
X174737780Y-84685013D01*
X174733966Y-84693136D01*
X174733965Y-84693138D01*
X174684552Y-84798386D01*
X174676669Y-84815177D01*
X174675288Y-84824046D01*
X174658066Y-84934656D01*
X174654546Y-84957261D01*
X153650478Y-84957261D01*
X153683020Y-84948389D01*
X153734167Y-84934445D01*
X153734169Y-84934444D01*
X153742826Y-84932084D01*
X153853039Y-84864413D01*
X153939830Y-84768529D01*
X153980293Y-84685013D01*
X153992306Y-84660219D01*
X153992306Y-84660218D01*
X153996220Y-84652140D01*
X154017677Y-84524602D01*
X154017813Y-84513457D01*
X153999478Y-84385433D01*
X153985055Y-84353709D01*
X153949666Y-84275875D01*
X153949666Y-84275874D01*
X153945949Y-84267700D01*
X153940088Y-84260898D01*
X153867385Y-84176522D01*
X153867383Y-84176520D01*
X153861527Y-84169724D01*
X153753000Y-84099381D01*
X153744405Y-84096811D01*
X153744404Y-84096810D01*
X153637693Y-84064896D01*
X153637691Y-84064896D01*
X153629092Y-84062324D01*
X153620117Y-84062269D01*
X153620116Y-84062269D01*
X153565410Y-84061935D01*
X153499764Y-84061534D01*
X153412852Y-84086374D01*
X153387810Y-84093531D01*
X153375413Y-84097074D01*
X153266035Y-84166087D01*
X153260092Y-84172816D01*
X153228313Y-84208799D01*
X153180422Y-84263024D01*
X153125458Y-84380094D01*
X153124077Y-84388962D01*
X153124077Y-84388963D01*
X153106942Y-84499011D01*
X153106942Y-84499015D01*
X153105561Y-84507884D01*
X148960872Y-84507884D01*
X148960182Y-84503067D01*
X148949718Y-84429998D01*
X148949717Y-84429995D01*
X148948445Y-84421112D01*
X148888928Y-84290211D01*
X148859706Y-84256297D01*
X148800922Y-84188074D01*
X148800920Y-84188072D01*
X148795064Y-84181276D01*
X148674398Y-84103065D01*
X148536631Y-84061864D01*
X148527655Y-84061809D01*
X148527654Y-84061809D01*
X148467689Y-84061443D01*
X148392838Y-84060985D01*
X148324070Y-84080639D01*
X148275201Y-84094606D01*
X148254578Y-84100500D01*
X148179040Y-84148162D01*
X148150630Y-84166087D01*
X148132966Y-84177232D01*
X148127023Y-84183961D01*
X148063138Y-84256297D01*
X148037778Y-84285011D01*
X148033964Y-84293134D01*
X148033963Y-84293136D01*
X147988973Y-84388963D01*
X147976667Y-84415175D01*
X147975286Y-84424044D01*
X147956307Y-84545937D01*
X147954544Y-84557259D01*
X146917947Y-84557259D01*
X146910186Y-84503067D01*
X146899722Y-84429998D01*
X146899721Y-84429995D01*
X146898449Y-84421112D01*
X146838932Y-84290211D01*
X146809710Y-84256297D01*
X146750926Y-84188074D01*
X146750924Y-84188072D01*
X146745068Y-84181276D01*
X146624402Y-84103065D01*
X146486635Y-84061864D01*
X146477659Y-84061809D01*
X146477658Y-84061809D01*
X146417693Y-84061443D01*
X146342842Y-84060985D01*
X146274074Y-84080639D01*
X146225205Y-84094606D01*
X146204582Y-84100500D01*
X146129044Y-84148162D01*
X146100634Y-84166087D01*
X146082970Y-84177232D01*
X146077027Y-84183961D01*
X146013142Y-84256297D01*
X145987782Y-84285011D01*
X145983968Y-84293134D01*
X145983967Y-84293136D01*
X145938977Y-84388963D01*
X145926671Y-84415175D01*
X145925290Y-84424044D01*
X145906311Y-84545937D01*
X145904548Y-84557259D01*
X145042946Y-84557259D01*
X145035185Y-84503067D01*
X145024721Y-84429998D01*
X145024720Y-84429995D01*
X145023448Y-84421112D01*
X144963931Y-84290211D01*
X144934709Y-84256297D01*
X144875925Y-84188074D01*
X144875923Y-84188072D01*
X144870067Y-84181276D01*
X144749401Y-84103065D01*
X144611634Y-84061864D01*
X144602658Y-84061809D01*
X144602657Y-84061809D01*
X144542692Y-84061443D01*
X144467841Y-84060985D01*
X144399073Y-84080639D01*
X144350204Y-84094606D01*
X144329581Y-84100500D01*
X144254043Y-84148162D01*
X144225633Y-84166087D01*
X144207969Y-84177232D01*
X144202026Y-84183961D01*
X144138141Y-84256297D01*
X144112781Y-84285011D01*
X144108967Y-84293134D01*
X144108966Y-84293136D01*
X144063976Y-84388963D01*
X144051670Y-84415175D01*
X144050289Y-84424044D01*
X144031310Y-84545937D01*
X144029547Y-84557259D01*
X129914929Y-84557259D01*
X129913459Y-84540457D01*
X129909211Y-84524602D01*
X129853722Y-84317512D01*
X129853721Y-84317510D01*
X129852299Y-84312202D01*
X129843408Y-84293136D01*
X129754754Y-84103017D01*
X129754752Y-84103014D01*
X129752431Y-84098036D01*
X129616891Y-83904464D01*
X129449797Y-83737370D01*
X129256225Y-83601830D01*
X129251247Y-83599509D01*
X129251244Y-83599507D01*
X129047041Y-83504285D01*
X129047039Y-83504284D01*
X129042059Y-83501962D01*
X129036751Y-83500540D01*
X129036749Y-83500539D01*
X128819119Y-83442226D01*
X128819118Y-83442226D01*
X128813804Y-83440802D01*
X128710714Y-83431783D01*
X128640086Y-83425603D01*
X128640079Y-83425603D01*
X128637362Y-83425365D01*
X128519430Y-83425365D01*
X128516713Y-83425603D01*
X128516706Y-83425603D01*
X128446078Y-83431783D01*
X128342988Y-83440802D01*
X128337674Y-83442226D01*
X128337673Y-83442226D01*
X128120043Y-83500539D01*
X128120041Y-83500540D01*
X128114733Y-83501962D01*
X128109753Y-83504284D01*
X128109751Y-83504285D01*
X127905548Y-83599507D01*
X127905545Y-83599509D01*
X127900567Y-83601830D01*
X127706995Y-83737370D01*
X127539901Y-83904464D01*
X127536744Y-83908972D01*
X127536742Y-83908975D01*
X127427565Y-84064896D01*
X127404361Y-84098035D01*
X127402038Y-84103017D01*
X127402035Y-84103022D01*
X127310936Y-84298385D01*
X127304493Y-84312202D01*
X127303071Y-84317510D01*
X127303070Y-84317512D01*
X127247581Y-84524602D01*
X127243333Y-84540457D01*
X127222737Y-84775865D01*
X119271643Y-84775865D01*
X119271643Y-82437055D01*
X119273608Y-82419752D01*
X119273618Y-82414166D01*
X119276799Y-82400337D01*
X119273668Y-82386496D01*
X119273693Y-82372633D01*
X119273963Y-82364612D01*
X119286512Y-82173344D01*
X119288664Y-82157005D01*
X119293195Y-82134235D01*
X119331375Y-81942341D01*
X119335641Y-81926427D01*
X119406000Y-81719191D01*
X119412307Y-81703965D01*
X119509118Y-81507670D01*
X119517359Y-81493398D01*
X119638956Y-81311428D01*
X119648989Y-81298353D01*
X119781113Y-81147701D01*
X119793304Y-81133801D01*
X119804956Y-81122150D01*
X119969504Y-80977851D01*
X119982579Y-80967818D01*
X120164560Y-80846224D01*
X120178832Y-80837984D01*
X120375125Y-80741182D01*
X120390351Y-80734875D01*
X120390569Y-80734801D01*
X120597603Y-80664521D01*
X120613513Y-80660258D01*
X120828175Y-80617555D01*
X120844508Y-80615404D01*
X121017037Y-80604091D01*
X121038341Y-80602694D01*
X121046801Y-80602424D01*
X121056958Y-80602441D01*
X121070787Y-80605621D01*
X121084629Y-80602488D01*
X121089622Y-80602497D01*
X121107494Y-80600500D01*
X193034206Y-80600500D01*
X193051213Y-80602431D01*
G37*
%TD.AperFunction*%
%TA.AperFunction,Conductor*%
G36*
X125168459Y-98550001D02*
G01*
X127432268Y-98550001D01*
X127500389Y-98570003D01*
X127517940Y-98583609D01*
X132981697Y-103650000D01*
X137628586Y-103650001D01*
X144963581Y-103650002D01*
X144981696Y-103650002D01*
X144981696Y-102939168D01*
X145894517Y-102939168D01*
X145895681Y-102948070D01*
X145895681Y-102948073D01*
X145911998Y-103072851D01*
X145913162Y-103081750D01*
X145934127Y-103129396D01*
X145960587Y-103189531D01*
X145971075Y-103213368D01*
X145976852Y-103220241D01*
X145976853Y-103220242D01*
X146028081Y-103281185D01*
X146063601Y-103323441D01*
X146081828Y-103335574D01*
X146164790Y-103390798D01*
X146183302Y-103403121D01*
X146320555Y-103446002D01*
X146464327Y-103448637D01*
X146527078Y-103431529D01*
X146594397Y-103413176D01*
X146594400Y-103413175D01*
X146603059Y-103410814D01*
X146610709Y-103406117D01*
X146610711Y-103406116D01*
X146664945Y-103372816D01*
X146725600Y-103335574D01*
X146736075Y-103324002D01*
X146816075Y-103235618D01*
X146822097Y-103228965D01*
X146866599Y-103137114D01*
X146880882Y-103107635D01*
X146880883Y-103107633D01*
X146884795Y-103099558D01*
X146891997Y-103056751D01*
X146907846Y-102962548D01*
X146907846Y-102962543D01*
X146908652Y-102957755D01*
X146908803Y-102945364D01*
X146910737Y-102945388D01*
X146924490Y-102884088D01*
X146975018Y-102834213D01*
X147044489Y-102819573D01*
X147110418Y-102844653D01*
X147113601Y-102848440D01*
X147233302Y-102928120D01*
X147370555Y-102971001D01*
X147514327Y-102973636D01*
X147571231Y-102958122D01*
X147644397Y-102938175D01*
X147644400Y-102938174D01*
X147653059Y-102935813D01*
X147660709Y-102931116D01*
X147660711Y-102931115D01*
X147759815Y-102870265D01*
X147828332Y-102851667D01*
X147896027Y-102873064D01*
X147941408Y-102927664D01*
X147950679Y-102961302D01*
X147960837Y-103038980D01*
X147963161Y-103056751D01*
X148021074Y-103188369D01*
X148026851Y-103195242D01*
X148026852Y-103195243D01*
X148082622Y-103261589D01*
X148113600Y-103298442D01*
X148233301Y-103378122D01*
X148370554Y-103421003D01*
X148514326Y-103423638D01*
X148557147Y-103411964D01*
X148644396Y-103388177D01*
X148644399Y-103388176D01*
X148653058Y-103385815D01*
X148660708Y-103381118D01*
X148660710Y-103381117D01*
X148727232Y-103340272D01*
X148775599Y-103310575D01*
X148787820Y-103297074D01*
X148866074Y-103210619D01*
X148872096Y-103203966D01*
X148913916Y-103117650D01*
X148929294Y-103085912D01*
X153177533Y-103085912D01*
X153178697Y-103094814D01*
X153178697Y-103094817D01*
X153186393Y-103153666D01*
X153194302Y-103214151D01*
X153197916Y-103222364D01*
X153197917Y-103222368D01*
X153217437Y-103266729D01*
X153246390Y-103332528D01*
X153329608Y-103431529D01*
X153437267Y-103503193D01*
X153560713Y-103541760D01*
X153690022Y-103544130D01*
X153751434Y-103527387D01*
X153806139Y-103512473D01*
X153806141Y-103512472D01*
X153814798Y-103510112D01*
X153925011Y-103442441D01*
X154011802Y-103346557D01*
X154038445Y-103291566D01*
X154064278Y-103238247D01*
X154064278Y-103238246D01*
X154068192Y-103230168D01*
X154089649Y-103102630D01*
X154089785Y-103091485D01*
X154071450Y-102963461D01*
X154066647Y-102952896D01*
X154021638Y-102853903D01*
X154021638Y-102853902D01*
X154017921Y-102845728D01*
X154012060Y-102838926D01*
X153939357Y-102754550D01*
X153939355Y-102754548D01*
X153933499Y-102747752D01*
X153824972Y-102677409D01*
X153816377Y-102674839D01*
X153816376Y-102674838D01*
X153709665Y-102642924D01*
X153709663Y-102642924D01*
X153701064Y-102640352D01*
X153692089Y-102640297D01*
X153692088Y-102640297D01*
X153637382Y-102639963D01*
X153571736Y-102639562D01*
X153488133Y-102663456D01*
X153457819Y-102672120D01*
X153447385Y-102675102D01*
X153338007Y-102744115D01*
X153332064Y-102750844D01*
X153326398Y-102757260D01*
X153252394Y-102841052D01*
X153236045Y-102875874D01*
X153203409Y-102945388D01*
X153197430Y-102958122D01*
X153196049Y-102966990D01*
X153196049Y-102966991D01*
X153178914Y-103077039D01*
X153178914Y-103077043D01*
X153177533Y-103085912D01*
X148929294Y-103085912D01*
X148930881Y-103082636D01*
X148930882Y-103082634D01*
X148934794Y-103074559D01*
X148946749Y-103003500D01*
X148957845Y-102937549D01*
X148957845Y-102937544D01*
X148958651Y-102932756D01*
X148958802Y-102920365D01*
X148943738Y-102815176D01*
X148939690Y-102786908D01*
X148939689Y-102786905D01*
X148938417Y-102778022D01*
X148878900Y-102647121D01*
X148824479Y-102583962D01*
X148790894Y-102544984D01*
X148790892Y-102544982D01*
X148785036Y-102538186D01*
X148664370Y-102459975D01*
X148526603Y-102418774D01*
X148517627Y-102418719D01*
X148517626Y-102418719D01*
X148457661Y-102418353D01*
X148382810Y-102417895D01*
X148244550Y-102457410D01*
X148172190Y-102503066D01*
X148145187Y-102520104D01*
X148076902Y-102539539D01*
X148008950Y-102518970D01*
X147962906Y-102464929D01*
X147953224Y-102431405D01*
X147939691Y-102336906D01*
X147939690Y-102336903D01*
X147938418Y-102328020D01*
X147878901Y-102197119D01*
X147835293Y-102146509D01*
X147790895Y-102094982D01*
X147790893Y-102094980D01*
X147785037Y-102088184D01*
X147664371Y-102009973D01*
X147526604Y-101968772D01*
X147517628Y-101968717D01*
X147517627Y-101968717D01*
X147457662Y-101968351D01*
X147382811Y-101967893D01*
X147244551Y-102007408D01*
X147194514Y-102038979D01*
X147133910Y-102077218D01*
X147122939Y-102084140D01*
X147116996Y-102090869D01*
X147107044Y-102102138D01*
X147027751Y-102191919D01*
X147023937Y-102200042D01*
X147023936Y-102200044D01*
X146975568Y-102303066D01*
X146966640Y-102322083D01*
X146944517Y-102464167D01*
X146945680Y-102473059D01*
X146924850Y-102540924D01*
X146870632Y-102586759D01*
X146800240Y-102596006D01*
X146738535Y-102567245D01*
X146735037Y-102563185D01*
X146614371Y-102484974D01*
X146476604Y-102443773D01*
X146467628Y-102443718D01*
X146467627Y-102443718D01*
X146407662Y-102443352D01*
X146332811Y-102442894D01*
X146257430Y-102464438D01*
X146208981Y-102478285D01*
X146194551Y-102482409D01*
X146131856Y-102521967D01*
X146104921Y-102538962D01*
X146072939Y-102559141D01*
X146066996Y-102565870D01*
X145999830Y-102641921D01*
X145977751Y-102666920D01*
X145973937Y-102675043D01*
X145973936Y-102675045D01*
X145920455Y-102788958D01*
X145916640Y-102797084D01*
X145915259Y-102805953D01*
X145896610Y-102925727D01*
X145894517Y-102939168D01*
X144981696Y-102939168D01*
X144981695Y-101776001D01*
X145001697Y-101707880D01*
X145055353Y-101661387D01*
X145107695Y-101650001D01*
X157211658Y-101650001D01*
X157279779Y-101670003D01*
X157326272Y-101723659D01*
X157336376Y-101793933D01*
X157330665Y-101813007D01*
X157331897Y-101813384D01*
X157329273Y-101821966D01*
X157325458Y-101830092D01*
X157324077Y-101838960D01*
X157324077Y-101838961D01*
X157306942Y-101949009D01*
X157306942Y-101949013D01*
X157305561Y-101957882D01*
X157306725Y-101966784D01*
X157306725Y-101966787D01*
X157312664Y-102012201D01*
X157322330Y-102086121D01*
X157325944Y-102094334D01*
X157325945Y-102094338D01*
X157356807Y-102164474D01*
X157374418Y-102204498D01*
X157394934Y-102228905D01*
X157397293Y-102231711D01*
X157425815Y-102296727D01*
X157414659Y-102366841D01*
X157395284Y-102396195D01*
X157380422Y-102413023D01*
X157371792Y-102431405D01*
X157347684Y-102482754D01*
X157325458Y-102530093D01*
X157324077Y-102538961D01*
X157324077Y-102538962D01*
X157306942Y-102649010D01*
X157306942Y-102649014D01*
X157305561Y-102657883D01*
X157306725Y-102666785D01*
X157306725Y-102666788D01*
X157316674Y-102742872D01*
X157322330Y-102786122D01*
X157325944Y-102794335D01*
X157325945Y-102794339D01*
X157351171Y-102851667D01*
X157374418Y-102904499D01*
X157397294Y-102931714D01*
X157425814Y-102996727D01*
X157414658Y-103066842D01*
X157395284Y-103096194D01*
X157380422Y-103113022D01*
X157364464Y-103147011D01*
X157330083Y-103220242D01*
X157325458Y-103230092D01*
X157324077Y-103238960D01*
X157324077Y-103238961D01*
X157306942Y-103349009D01*
X157306942Y-103349013D01*
X157305561Y-103357882D01*
X157306725Y-103366784D01*
X157306725Y-103366787D01*
X157314138Y-103423473D01*
X157322330Y-103486121D01*
X157325944Y-103494334D01*
X157325945Y-103494338D01*
X157356359Y-103563456D01*
X157374418Y-103604498D01*
X157380193Y-103611368D01*
X157380194Y-103611370D01*
X157397295Y-103631714D01*
X157425816Y-103696730D01*
X157414658Y-103766844D01*
X157395284Y-103796196D01*
X157386364Y-103806296D01*
X157380422Y-103813024D01*
X157325458Y-103930094D01*
X157324077Y-103938962D01*
X157324077Y-103938963D01*
X157306942Y-104049011D01*
X157306942Y-104049015D01*
X157305561Y-104057884D01*
X157306725Y-104066786D01*
X157306725Y-104066789D01*
X157314709Y-104127842D01*
X157322330Y-104186123D01*
X157325944Y-104194336D01*
X157325945Y-104194340D01*
X157348387Y-104245342D01*
X157374418Y-104304500D01*
X157457636Y-104403501D01*
X157565295Y-104475165D01*
X157591266Y-104483279D01*
X157593270Y-104483905D01*
X157652327Y-104523311D01*
X157680704Y-104588390D01*
X157681696Y-104604172D01*
X157681697Y-106731269D01*
X157681697Y-107074000D01*
X157661695Y-107142121D01*
X157608039Y-107188614D01*
X157555697Y-107200000D01*
X119397641Y-107200000D01*
X119329520Y-107179998D01*
X119283027Y-107126342D01*
X119271641Y-107074000D01*
X119271641Y-104725861D01*
X127222739Y-104725861D01*
X127243335Y-104961269D01*
X127244759Y-104966583D01*
X127244759Y-104966584D01*
X127256733Y-105011270D01*
X127304495Y-105189524D01*
X127404363Y-105403690D01*
X127539903Y-105597262D01*
X127706997Y-105764356D01*
X127900569Y-105899896D01*
X127905547Y-105902217D01*
X127905550Y-105902219D01*
X128094253Y-105990213D01*
X128114735Y-105999764D01*
X128120043Y-106001186D01*
X128120045Y-106001187D01*
X128337675Y-106059500D01*
X128342990Y-106060924D01*
X128446080Y-106069943D01*
X128516708Y-106076123D01*
X128516715Y-106076123D01*
X128519432Y-106076361D01*
X128637364Y-106076361D01*
X128640081Y-106076123D01*
X128640088Y-106076123D01*
X128710716Y-106069943D01*
X128813806Y-106060924D01*
X128819121Y-106059500D01*
X129036751Y-106001187D01*
X129036753Y-106001186D01*
X129042061Y-105999764D01*
X129062543Y-105990213D01*
X129251246Y-105902219D01*
X129251249Y-105902217D01*
X129256227Y-105899896D01*
X129449799Y-105764356D01*
X129616893Y-105597262D01*
X129620053Y-105592750D01*
X129749276Y-105408200D01*
X129749279Y-105408195D01*
X129752433Y-105403691D01*
X129754756Y-105398709D01*
X129754759Y-105398704D01*
X129849978Y-105194506D01*
X129849979Y-105194505D01*
X129852301Y-105189524D01*
X129900064Y-105011270D01*
X129912037Y-104966584D01*
X129912037Y-104966583D01*
X129913461Y-104961269D01*
X129934057Y-104725861D01*
X129913461Y-104490453D01*
X129912037Y-104485138D01*
X129853724Y-104267508D01*
X129853723Y-104267506D01*
X129852301Y-104262198D01*
X129820658Y-104194340D01*
X129754756Y-104053013D01*
X129754754Y-104053010D01*
X129752433Y-104048032D01*
X129616893Y-103854460D01*
X129470317Y-103707884D01*
X154705561Y-103707884D01*
X154722330Y-103836123D01*
X154725944Y-103844336D01*
X154725945Y-103844340D01*
X154752400Y-103904461D01*
X154774418Y-103954500D01*
X154857636Y-104053501D01*
X154965295Y-104125165D01*
X155088741Y-104163732D01*
X155218050Y-104166102D01*
X155269839Y-104151982D01*
X155334167Y-104134445D01*
X155334169Y-104134444D01*
X155342826Y-104132084D01*
X155453039Y-104064413D01*
X155539830Y-103968529D01*
X155596220Y-103852140D01*
X155617677Y-103724602D01*
X155617813Y-103713457D01*
X155617124Y-103708643D01*
X155616807Y-103703786D01*
X155618087Y-103703703D01*
X155627385Y-103639247D01*
X155673904Y-103585614D01*
X155744284Y-103565665D01*
X155768050Y-103566101D01*
X155820410Y-103551826D01*
X155884167Y-103534444D01*
X155884169Y-103534443D01*
X155892826Y-103532083D01*
X156003039Y-103464412D01*
X156089830Y-103368528D01*
X156140296Y-103264367D01*
X156142306Y-103260218D01*
X156142306Y-103260217D01*
X156146220Y-103252139D01*
X156167677Y-103124601D01*
X156167813Y-103113456D01*
X156149478Y-102985432D01*
X156142992Y-102971165D01*
X156099666Y-102875874D01*
X156099666Y-102875873D01*
X156095949Y-102867699D01*
X156089809Y-102860573D01*
X156017385Y-102776521D01*
X156017383Y-102776519D01*
X156011527Y-102769723D01*
X155903000Y-102699380D01*
X155894405Y-102696810D01*
X155894404Y-102696809D01*
X155787693Y-102664895D01*
X155787691Y-102664895D01*
X155779092Y-102662323D01*
X155770117Y-102662268D01*
X155770116Y-102662268D01*
X155715410Y-102661934D01*
X155649764Y-102661533D01*
X155587263Y-102679396D01*
X155539185Y-102693137D01*
X155525413Y-102697073D01*
X155459967Y-102738367D01*
X155427838Y-102758639D01*
X155416035Y-102766086D01*
X155410092Y-102772815D01*
X155338477Y-102853903D01*
X155330422Y-102863023D01*
X155320532Y-102884088D01*
X155280984Y-102968324D01*
X155275458Y-102980093D01*
X155274077Y-102988961D01*
X155274077Y-102988962D01*
X155256942Y-103099010D01*
X155256942Y-103099014D01*
X155255561Y-103107883D01*
X155256725Y-103116785D01*
X155256725Y-103116787D01*
X155257066Y-103119391D01*
X155256662Y-103121965D01*
X155256616Y-103125758D01*
X155256069Y-103125751D01*
X155246066Y-103189531D01*
X155198892Y-103242588D01*
X155131360Y-103261727D01*
X155130840Y-103261724D01*
X155099764Y-103261534D01*
X154975413Y-103297074D01*
X154946570Y-103315273D01*
X154877838Y-103358640D01*
X154866035Y-103366087D01*
X154860092Y-103372816D01*
X154788144Y-103454281D01*
X154780422Y-103463024D01*
X154776607Y-103471150D01*
X154744713Y-103539083D01*
X154725458Y-103580094D01*
X154724077Y-103588962D01*
X154724077Y-103588963D01*
X154706942Y-103699011D01*
X154706942Y-103699015D01*
X154705561Y-103707884D01*
X129470317Y-103707884D01*
X129449799Y-103687366D01*
X129256227Y-103551826D01*
X129251249Y-103549505D01*
X129251246Y-103549503D01*
X129047043Y-103454281D01*
X129047041Y-103454280D01*
X129042061Y-103451958D01*
X129036753Y-103450536D01*
X129036751Y-103450535D01*
X128819121Y-103392222D01*
X128819120Y-103392222D01*
X128813806Y-103390798D01*
X128703154Y-103381117D01*
X128640088Y-103375599D01*
X128640081Y-103375599D01*
X128637364Y-103375361D01*
X128519432Y-103375361D01*
X128516715Y-103375599D01*
X128516708Y-103375599D01*
X128453642Y-103381117D01*
X128342990Y-103390798D01*
X128337676Y-103392222D01*
X128337675Y-103392222D01*
X128120045Y-103450535D01*
X128120043Y-103450536D01*
X128114735Y-103451958D01*
X128109755Y-103454280D01*
X128109753Y-103454281D01*
X127905550Y-103549503D01*
X127905547Y-103549505D01*
X127900569Y-103551826D01*
X127706997Y-103687366D01*
X127539903Y-103854460D01*
X127536746Y-103858968D01*
X127536744Y-103858971D01*
X127486943Y-103930094D01*
X127404363Y-104048031D01*
X127402040Y-104053013D01*
X127402037Y-104053018D01*
X127328733Y-104210219D01*
X127304495Y-104262198D01*
X127303073Y-104267506D01*
X127303072Y-104267508D01*
X127244759Y-104485138D01*
X127243335Y-104490453D01*
X127222739Y-104725861D01*
X119271641Y-104725861D01*
X119271642Y-101939425D01*
X121030641Y-101939425D01*
X121031848Y-101945493D01*
X121038592Y-101979395D01*
X121042274Y-101997908D01*
X121086589Y-102064229D01*
X121152910Y-102108544D01*
X121165079Y-102110965D01*
X121165080Y-102110965D01*
X121205325Y-102118970D01*
X121211393Y-102120177D01*
X122950889Y-102120177D01*
X122956957Y-102118970D01*
X122997202Y-102110965D01*
X122997203Y-102110965D01*
X123009372Y-102108544D01*
X123075693Y-102064229D01*
X123120008Y-101997908D01*
X123123691Y-101979395D01*
X123130434Y-101945493D01*
X123131641Y-101939425D01*
X123131641Y-101054939D01*
X123565661Y-101054939D01*
X123566177Y-101061083D01*
X123576705Y-101186452D01*
X123582900Y-101260230D01*
X123584599Y-101266155D01*
X123637795Y-101451671D01*
X123639685Y-101458263D01*
X123642500Y-101463740D01*
X123642501Y-101463743D01*
X123724884Y-101624044D01*
X123733853Y-101641495D01*
X123861818Y-101802947D01*
X123866511Y-101806941D01*
X123866512Y-101806942D01*
X123996593Y-101917649D01*
X124018705Y-101936468D01*
X124024083Y-101939474D01*
X124024085Y-101939475D01*
X124076408Y-101968717D01*
X124198539Y-102036974D01*
X124282421Y-102064229D01*
X124388612Y-102098733D01*
X124388616Y-102098734D01*
X124394470Y-102100636D01*
X124599035Y-102125028D01*
X124605170Y-102124556D01*
X124605172Y-102124556D01*
X124677766Y-102118970D01*
X124804441Y-102109223D01*
X124810371Y-102107567D01*
X124810373Y-102107567D01*
X124996938Y-102055477D01*
X124996937Y-102055477D01*
X125002866Y-102053822D01*
X125008355Y-102051049D01*
X125008361Y-102051047D01*
X125159699Y-101974600D01*
X125186751Y-101960935D01*
X125349092Y-101834101D01*
X125366975Y-101813384D01*
X125479681Y-101682811D01*
X125479681Y-101682810D01*
X125483705Y-101678149D01*
X125504528Y-101641495D01*
X125556712Y-101549634D01*
X125585464Y-101499021D01*
X125650492Y-101303540D01*
X125676312Y-101099151D01*
X125676724Y-101069677D01*
X125656621Y-100864647D01*
X125597076Y-100667426D01*
X125500359Y-100485526D01*
X125412896Y-100378286D01*
X125374047Y-100330652D01*
X125374044Y-100330649D01*
X125370152Y-100325877D01*
X125352927Y-100311627D01*
X125216166Y-100198488D01*
X125216162Y-100198486D01*
X125211416Y-100194559D01*
X125030196Y-100096574D01*
X124833395Y-100035654D01*
X124827270Y-100035010D01*
X124827269Y-100035010D01*
X124634639Y-100014764D01*
X124634637Y-100014764D01*
X124628510Y-100014120D01*
X124541670Y-100022023D01*
X124429483Y-100032232D01*
X124429480Y-100032233D01*
X124423344Y-100032791D01*
X124225713Y-100090957D01*
X124043143Y-100186403D01*
X124038342Y-100190263D01*
X124038339Y-100190265D01*
X123925142Y-100281278D01*
X123882588Y-100315492D01*
X123750165Y-100473307D01*
X123747197Y-100478705D01*
X123747194Y-100478710D01*
X123690474Y-100581885D01*
X123650917Y-100653839D01*
X123588625Y-100850209D01*
X123587939Y-100856326D01*
X123587938Y-100856330D01*
X123577015Y-100953711D01*
X123565661Y-101054939D01*
X123131641Y-101054939D01*
X123131641Y-100199929D01*
X123120008Y-100141446D01*
X123075693Y-100075125D01*
X123009372Y-100030810D01*
X122997203Y-100028389D01*
X122997202Y-100028389D01*
X122956957Y-100020384D01*
X122950889Y-100019177D01*
X121211393Y-100019177D01*
X121205325Y-100020384D01*
X121165080Y-100028389D01*
X121165079Y-100028389D01*
X121152910Y-100030810D01*
X121086589Y-100075125D01*
X121042274Y-100141446D01*
X121030641Y-100199929D01*
X121030641Y-101939425D01*
X119271642Y-101939425D01*
X119271642Y-98676000D01*
X119291644Y-98607879D01*
X119345300Y-98561386D01*
X119397642Y-98550000D01*
X125168459Y-98550001D01*
G37*
%TD.AperFunction*%
%TD*%
M02*
