M48
; DRILL file {KiCad (6.0.5)} date Sat Oct  8 22:42:18 2022
; FORMAT={-:-/ absolute / inch / decimal}
; #@! TF.CreationDate,2022-10-08T22:42:18+08:00
; #@! TF.GenerationSoftware,Kicad,Pcbnew,(6.0.5)
; #@! TF.FileFunction,Plated,1,4,PTH
FMAT,2
INCH
; #@! TA.AperFunction,Plated,PTH,ViaDrill
T1C0.0099
; #@! TA.AperFunction,Plated,PTH,ViaDrill
T2C0.0118
; #@! TA.AperFunction,Plated,PTH,ViaDrill
T3C0.0119
; #@! TA.AperFunction,Plated,PTH,ViaDrill
T4C0.0157
; #@! TA.AperFunction,Plated,PTH,ComponentDrill
T5C0.0394
; #@! TA.AperFunction,Plated,PTH,ComponentDrill
T6C0.0472
; #@! TA.AperFunction,Plated,PTH,ComponentDrill
T7C0.0669
%
G90
G05
T1
X4.7032Y-3.4508
X4.7278Y-3.5557
X4.7367Y-3.4808
X5.2209Y-3.3175
X5.2426Y-3.3588
X5.2662Y-3.3175
X5.2898Y-3.3588
X5.3154Y-3.3175
X5.339Y-3.3588
X5.3646Y-3.3175
X5.365Y-3.7195
X5.365Y-3.6546
X5.3922Y-3.3588
X5.4044Y-3.688
X5.4063Y-3.6546
X5.4063Y-3.7195
X5.4158Y-3.3175
X5.4378Y-3.6546
X5.4378Y-3.7195
X5.4434Y-3.3588
X5.4709Y-3.3194
X5.6107Y-3.8706
X5.6245Y-3.8352
X5.6741Y-3.625
X5.676Y-3.751
X5.7032Y-3.8647
X5.7268Y-3.9749
X5.7406Y-3.8352
X5.7524Y-3.7407
X5.7544Y-3.4316
X5.7603Y-3.9612
X5.7662Y-3.782
X5.7918Y-3.9749
X5.8016Y-3.7505
X5.8016Y-3.8234
X5.8292Y-3.4946
X5.841Y-3.5911
X5.843Y-3.4533
X5.8528Y-3.7505
X5.8548Y-3.8214
X5.8745Y-3.4828
X5.904Y-3.4533
X5.9198Y-4.1009
X5.9414Y-3.4868
X5.9522Y-3.8874
X5.9556Y-3.6399
X5.9611Y-3.4572
X5.9695Y-3.8544
X5.9704Y-3.6093
X6.0064Y-3.4218
X6.0083Y-3.4651
X6.0128Y-3.8544
X6.0138Y-3.6093
X6.0457Y-3.3273
X6.0486Y-4.0587
X6.0516Y-3.4808
X6.1087Y-4.0832
X6.1304Y-4.0596
X6.2081Y-3.8795
X6.2111Y-4.0143
X6.2111Y-4.0419
X6.2111Y-4.0694
X6.2111Y-4.097
X6.2406Y-3.8864
X6.2628Y-4.1811
X6.469Y-4.2013
X6.5044Y-4.2013
X6.5398Y-4.2013
X6.5753Y-4.2013
X6.589Y-3.971
X6.6304Y-3.971
X6.6347Y-4.0651
X6.6501Y-4.2033
X6.6563Y-4.0455
X6.6914Y-4.2033
X6.7386Y-3.8017
X6.7386Y-3.8745
X6.7386Y-3.8352
X6.7564Y-3.5616
X6.7564Y-3.91
X6.7564Y-3.532
X6.7564Y-3.5911
X6.7764Y-3.3407
X6.7764Y-3.3683
X6.7977Y-3.91
X6.8012Y-3.3809
X6.8036Y-3.4887
X6.8105Y-3.724
X6.8351Y-3.4887
X6.8666Y-3.4887
X6.8764Y-3.6482
X6.8843Y-3.91
X6.9058Y-3.5184
X6.9119Y-3.7899
X6.9158Y-3.91
X6.9316Y-3.9395
X6.9394Y-3.5163
X6.9394Y-3.6305
X6.9473Y-3.91
X6.9709Y-3.6305
X6.9749Y-3.5163
X6.9768Y-3.7899
X6.9906Y-3.9277
X7.0103Y-3.5163
X7.0201Y-3.91
X7.0201Y-3.8076
X7.0201Y-3.9415
X7.0575Y-3.7938
X7.1127Y-3.7938
X7.156Y-4.1757
X7.1678Y-3.7938
X7.1698Y-3.8627
X7.2111Y-3.8214
X7.2347Y-4.1757
X7.371Y-3.3691
X7.3858Y-3.2904
X7.4103Y-3.3033
X7.4103Y-3.3309
X7.4103Y-3.4076
X7.4355Y-3.971
X7.4355Y-4.0458
X7.4768Y-4.0084
T2
X4.8583Y-3.7441
T3
X5.2008Y-3.5394
X5.2087Y-3.8031
X5.2087Y-3.8346
X5.2185Y-3.5689
X5.2205Y-3.6142
X5.2205Y-3.752
X5.2362Y-3.5394
X5.2402Y-3.8031
X5.2528Y-3.6565
X5.2528Y-3.6861
X5.2528Y-3.7156
X5.2795Y-3.6142
X5.2795Y-3.752
X5.2823Y-3.6565
X5.2823Y-3.6861
X5.2823Y-3.7156
X5.3788Y-3.688
X5.491Y-3.6487
X5.491Y-3.7274
X5.5284Y-3.7274
X5.5284Y-3.6487
X5.5638Y-3.7274
X5.5638Y-3.6487
X5.5993Y-3.6487
X5.5993Y-3.7274
X5.6024Y-3.7824
X5.6054Y-3.5924
X5.6358Y-3.7824
X5.6408Y-3.5924
X5.6416Y-3.7274
X5.6416Y-3.6477
X5.6643Y-3.5208
X5.6643Y-3.8533
X5.6875Y-4.1049
X5.6904Y-3.3293
X5.6977Y-3.3996
X5.7564Y-3.656
X5.7578Y-4.0975
X5.7609Y-3.3699
X5.7638Y-4.053
X5.7642Y-3.3293
X5.8052Y-4.0343
X5.831Y-3.6629
X5.831Y-3.6964
X5.831Y-3.6334
X5.8446Y-4.052
X5.8449Y-3.3293
X5.8664Y-3.6334
X5.8664Y-3.6964
X5.8669Y-3.6644
X5.9057Y-3.7237
X6.0059Y-4.1093
X6.0287Y-3.664
X6.0293Y-3.9086
X6.1048Y-3.5734
X6.1048Y-3.8175
X6.1048Y-3.5379
X6.1048Y-3.782
X6.152Y-4.1993
X6.195Y-4.2066
X6.3493Y-3.6557
X6.3493Y-3.7088
X6.3996Y-3.8179
X6.4493Y-3.9631
X6.4685Y-3.8179
X6.6662Y-3.6604
X6.6662Y-3.7246
X6.8056Y-4.0537
X6.8346Y-3.6496
X6.8961Y-3.345
X6.8961Y-3.4119
X6.9079Y-3.4434
X6.9173Y-3.6496
X6.9336Y-4.091
X6.9414Y-3.3923
X6.9434Y-3.4434
X6.967Y-4.1836
X7.0103Y-4.1836
X7.0516Y-4.0911
X7.2623Y-3.349
X7.2623Y-3.9238
X7.2623Y-3.9631
X7.2623Y-4.0458
X7.2623Y-3.3096
X7.2623Y-3.3844
X7.2623Y-4.0064
T4
X4.735Y-4.25
X4.7362Y-3.2165
X4.835Y-4.25
X4.8362Y-3.2165
X4.935Y-4.25
X4.9362Y-3.2165
X5.0157Y-3.7717
X5.0157Y-3.878
X5.0315Y-3.4646
X5.0315Y-3.5354
X5.0315Y-3.622
X5.0315Y-3.6929
X5.035Y-4.25
X5.0362Y-3.2165
X5.0827Y-3.5748
X5.0906Y-3.878
X5.135Y-4.25
X5.1362Y-3.2165
X5.235Y-4.25
X5.2362Y-3.2165
X5.335Y-4.25
X5.3362Y-3.2165
X5.435Y-4.25
X5.4362Y-3.2165
X5.4961Y-3.937
X5.5315Y-3.937
X5.535Y-4.25
X5.5362Y-3.2165
X5.635Y-4.25
X5.6362Y-3.2165
X5.735Y-4.25
X5.7362Y-3.2165
X5.835Y-4.25
X5.8362Y-3.2165
X5.935Y-4.25
X5.9362Y-3.2165
X6.035Y-4.25
X6.0362Y-3.2165
X6.135Y-4.25
X6.1362Y-3.2165
X6.235Y-4.25
X6.2362Y-3.2165
X6.335Y-4.25
X6.3362Y-3.2165
X6.435Y-4.25
X6.4362Y-3.2165
X6.535Y-4.25
X6.5362Y-3.2165
X6.635Y-4.25
X6.6362Y-3.2165
X6.735Y-4.25
X6.7362Y-3.2165
X6.835Y-4.25
X6.8362Y-3.2165
X6.935Y-4.25
X6.9362Y-3.2165
X7.035Y-4.25
X7.0362Y-3.2165
X7.135Y-4.25
X7.1362Y-3.2165
X7.235Y-4.25
X7.2362Y-3.2165
X7.315Y-3.7283
X7.335Y-4.25
X7.3362Y-3.2165
X7.3465Y-3.9213
X7.435Y-4.25
X7.4362Y-3.2165
X7.4921Y-3.9094
X7.535Y-4.25
X7.5362Y-3.2165
X7.5866Y-3.9134
X7.6339Y-3.2165
X7.635Y-4.25
T5
X4.8063Y-3.4791
X4.8063Y-3.5791
X4.8063Y-3.6791
X4.8063Y-3.7791
X4.8063Y-3.8791
X4.8063Y-3.9791
X4.9063Y-3.4791
X4.9063Y-3.5791
X4.9063Y-3.6791
X4.9063Y-3.7791
X4.9063Y-3.8791
X4.9063Y-3.9791
T6
X7.4567Y-3.7283
T7
X7.3567Y-3.6283
X7.3567Y-3.8283
X7.5567Y-3.6283
X7.5567Y-3.8283
T0
M30
