%TF.GenerationSoftware,KiCad,Pcbnew,(6.0.5)*%
%TF.CreationDate,2022-10-08T22:42:16+08:00*%
%TF.ProjectId,LabPrecisionVoltageSource_V1.2,4c616250-7265-4636-9973-696f6e566f6c,rev?*%
%TF.SameCoordinates,Original*%
%TF.FileFunction,Legend,Bot*%
%TF.FilePolarity,Positive*%
%FSLAX46Y46*%
G04 Gerber Fmt 4.6, Leading zero omitted, Abs format (unit mm)*
G04 Created by KiCad (PCBNEW (6.0.5)) date 2022-10-08 22:42:16*
%MOMM*%
%LPD*%
G01*
G04 APERTURE LIST*
%ADD10C,0.120000*%
G04 APERTURE END LIST*
%TO.C,kibuzzard-6341896C*%
G36*
X172425044Y-85684188D02*
G01*
X172272644Y-85684188D01*
X171763056Y-84461812D01*
X171915456Y-84461812D01*
X172425044Y-85684188D01*
G37*
G36*
X171631294Y-85684188D02*
G01*
X171478894Y-85684188D01*
X170969306Y-84461812D01*
X171121706Y-84461812D01*
X171631294Y-85684188D01*
G37*
G36*
X161312544Y-85684188D02*
G01*
X161160144Y-85684188D01*
X160650556Y-84461812D01*
X160802956Y-84461812D01*
X161312544Y-85684188D01*
G37*
G36*
X135912544Y-85684188D02*
G01*
X135760144Y-85684188D01*
X135250556Y-84461812D01*
X135402956Y-84461812D01*
X135912544Y-85684188D01*
G37*
G36*
X162557144Y-85398438D02*
G01*
X162560319Y-85398438D01*
X162736531Y-84795187D01*
X162909569Y-84795187D01*
X162634931Y-85604813D01*
X162765106Y-85969938D01*
X162590481Y-85969938D01*
X162211069Y-84795187D01*
X162392044Y-84795187D01*
X162557144Y-85398438D01*
G37*
G36*
X140319444Y-85636562D02*
G01*
X140221019Y-85630918D01*
X140131060Y-85613985D01*
X140049569Y-85585763D01*
X140049569Y-85492100D01*
X140224194Y-85492100D01*
X140327381Y-85512737D01*
X140400803Y-85495672D01*
X140452794Y-85444475D01*
X140483750Y-85351209D01*
X140494069Y-85207937D01*
X140485536Y-85068436D01*
X140459938Y-84976956D01*
X140416877Y-84926355D01*
X140355956Y-84909487D01*
X140281741Y-84922981D01*
X140224194Y-84963462D01*
X140224194Y-85492100D01*
X140049569Y-85492100D01*
X140049569Y-84430062D01*
X140224194Y-84430062D01*
X140224194Y-84814237D01*
X140297616Y-84788044D01*
X140375006Y-84779312D01*
X140465935Y-84790425D01*
X140539753Y-84823762D01*
X140596462Y-84879325D01*
X140636591Y-84960287D01*
X140660668Y-85069825D01*
X140668694Y-85207937D01*
X140659345Y-85348431D01*
X140631299Y-85458762D01*
X140584556Y-85538931D01*
X140517705Y-85593171D01*
X140429334Y-85625715D01*
X140327381Y-85635779D01*
X140319444Y-85636562D01*
G37*
G36*
X148153756Y-85557187D02*
G01*
X148153756Y-85581000D01*
X148175783Y-85695300D01*
X148241862Y-85781025D01*
X148309155Y-85820713D01*
X148393557Y-85844525D01*
X148495069Y-85852463D01*
X148495069Y-85985812D01*
X148379628Y-85978669D01*
X148277780Y-85957238D01*
X148189525Y-85921519D01*
X148114863Y-85871513D01*
X148039456Y-85785788D01*
X147994212Y-85681012D01*
X147979131Y-85557187D01*
X147979131Y-85423838D01*
X148153756Y-85423838D01*
X148272819Y-85460350D01*
X148338799Y-85443086D01*
X148385928Y-85391294D01*
X148414205Y-85304973D01*
X148423631Y-85184125D01*
X148412717Y-85055537D01*
X148379975Y-84971400D01*
X148323420Y-84924966D01*
X148241069Y-84909487D01*
X148153756Y-84919012D01*
X148153756Y-85423838D01*
X147979131Y-85423838D01*
X147979131Y-84814237D01*
X148099781Y-84788044D01*
X148233131Y-84779312D01*
X148350253Y-84789719D01*
X148443387Y-84820940D01*
X148512531Y-84872975D01*
X148560156Y-84949175D01*
X148588731Y-85052892D01*
X148598256Y-85184125D01*
X148589790Y-85307818D01*
X148564390Y-85409021D01*
X148522056Y-85487734D01*
X148462790Y-85543958D01*
X148386590Y-85577693D01*
X148293456Y-85588937D01*
X148272819Y-85586670D01*
X148221225Y-85581000D01*
X148153756Y-85557187D01*
G37*
G36*
X137041256Y-85557187D02*
G01*
X137041256Y-85581000D01*
X137063283Y-85695300D01*
X137129363Y-85781025D01*
X137196655Y-85820713D01*
X137281057Y-85844525D01*
X137382569Y-85852463D01*
X137382569Y-85985812D01*
X137267128Y-85978669D01*
X137165280Y-85957238D01*
X137077025Y-85921519D01*
X137002362Y-85871513D01*
X136926956Y-85785788D01*
X136881712Y-85681012D01*
X136866631Y-85557187D01*
X136866631Y-85423838D01*
X137041256Y-85423838D01*
X137160319Y-85460350D01*
X137226299Y-85443086D01*
X137273428Y-85391294D01*
X137301705Y-85304973D01*
X137311131Y-85184125D01*
X137300217Y-85055537D01*
X137267475Y-84971400D01*
X137210920Y-84924966D01*
X137128569Y-84909487D01*
X137041256Y-84919012D01*
X137041256Y-85423838D01*
X136866631Y-85423838D01*
X136866631Y-84814237D01*
X136987281Y-84788044D01*
X137120631Y-84779312D01*
X137237753Y-84789719D01*
X137330887Y-84820940D01*
X137400031Y-84872975D01*
X137447656Y-84949175D01*
X137476231Y-85052892D01*
X137485756Y-85184125D01*
X137477290Y-85307818D01*
X137451890Y-85409021D01*
X137409556Y-85487734D01*
X137350290Y-85543958D01*
X137274090Y-85577693D01*
X137180956Y-85588937D01*
X137160319Y-85586670D01*
X137108725Y-85581000D01*
X137041256Y-85557187D01*
G37*
G36*
X160171131Y-85636562D02*
G01*
X160077998Y-85624656D01*
X160001798Y-85588937D01*
X159942531Y-85529406D01*
X159900198Y-85446062D01*
X159874798Y-85338906D01*
X159866331Y-85207937D01*
X160040956Y-85207937D01*
X160050382Y-85339204D01*
X160078659Y-85432966D01*
X160125788Y-85489223D01*
X160191769Y-85507975D01*
X160310831Y-85471462D01*
X160310831Y-84926950D01*
X160207644Y-84909487D01*
X160133230Y-84926355D01*
X160081438Y-84976956D01*
X160051077Y-85068436D01*
X160040956Y-85207937D01*
X159866331Y-85207937D01*
X159875592Y-85069031D01*
X159903373Y-84959229D01*
X159949675Y-84878531D01*
X160016262Y-84823410D01*
X160104897Y-84790337D01*
X160215581Y-84779312D01*
X160310478Y-84784957D01*
X160400437Y-84801890D01*
X160485456Y-84830112D01*
X160485456Y-85969938D01*
X160310831Y-85969938D01*
X160310831Y-85604813D01*
X160243362Y-85628625D01*
X160191769Y-85634295D01*
X160171131Y-85636562D01*
G37*
G36*
X174458631Y-85636562D02*
G01*
X174365498Y-85624656D01*
X174289298Y-85588937D01*
X174230031Y-85529406D01*
X174187698Y-85446062D01*
X174162298Y-85338906D01*
X174153831Y-85207937D01*
X174328456Y-85207937D01*
X174337882Y-85339204D01*
X174366159Y-85432966D01*
X174413288Y-85489223D01*
X174479269Y-85507975D01*
X174598331Y-85471462D01*
X174598331Y-84926950D01*
X174495144Y-84909487D01*
X174420730Y-84926355D01*
X174368938Y-84976956D01*
X174338577Y-85068436D01*
X174328456Y-85207937D01*
X174153831Y-85207937D01*
X174163092Y-85069031D01*
X174190873Y-84959229D01*
X174237175Y-84878531D01*
X174303762Y-84823410D01*
X174392397Y-84790337D01*
X174503081Y-84779312D01*
X174597978Y-84784957D01*
X174687937Y-84801890D01*
X174772956Y-84830112D01*
X174772956Y-85969938D01*
X174598331Y-85969938D01*
X174598331Y-85604813D01*
X174530863Y-85628625D01*
X174479269Y-85634295D01*
X174458631Y-85636562D01*
G37*
G36*
X177149444Y-85620688D02*
G01*
X176974819Y-85620688D01*
X176974819Y-84972987D01*
X176910128Y-84925362D01*
X176836706Y-84909487D01*
X176739869Y-84949175D01*
X176720819Y-85009897D01*
X176714469Y-85112687D01*
X176716056Y-85620688D01*
X176546194Y-85620688D01*
X176546194Y-85068237D01*
X176560878Y-84935880D01*
X176604931Y-84846781D01*
X176681131Y-84796180D01*
X176792256Y-84779312D01*
X176885522Y-84791219D01*
X176974819Y-84826937D01*
X176974819Y-84430062D01*
X177149444Y-84430062D01*
X177149444Y-85620688D01*
G37*
G36*
X150971569Y-84590400D02*
G01*
X150758844Y-84590400D01*
X150758844Y-85620688D01*
X150368319Y-85620688D01*
X150368319Y-85492100D01*
X150581044Y-85492100D01*
X150581044Y-84461812D01*
X150971569Y-84461812D01*
X150971569Y-84590400D01*
G37*
G36*
X176208056Y-84826937D02*
G01*
X176371569Y-84826937D01*
X176371569Y-84955525D01*
X176208056Y-84955525D01*
X176208056Y-85382562D01*
X176193967Y-85505594D01*
X176151700Y-85582587D01*
X176073317Y-85623069D01*
X175950881Y-85636562D01*
X175863172Y-85631800D01*
X175784194Y-85617513D01*
X175784194Y-85473050D01*
X175852059Y-85490909D01*
X175919131Y-85496863D01*
X176014381Y-85470669D01*
X176035019Y-85350813D01*
X176035019Y-84955525D01*
X175768319Y-84955525D01*
X175768319Y-84826937D01*
X176035019Y-84826937D01*
X176035019Y-84525312D01*
X176208056Y-84525312D01*
X176208056Y-84826937D01*
G37*
G36*
X175414306Y-84826937D02*
G01*
X175577819Y-84826937D01*
X175577819Y-84955525D01*
X175414306Y-84955525D01*
X175414306Y-85382562D01*
X175400217Y-85505594D01*
X175357950Y-85582587D01*
X175279567Y-85623069D01*
X175157131Y-85636562D01*
X175069422Y-85631800D01*
X174990444Y-85617513D01*
X174990444Y-85473050D01*
X175058309Y-85490909D01*
X175125381Y-85496863D01*
X175220631Y-85470669D01*
X175241269Y-85350813D01*
X175241269Y-84955525D01*
X174974569Y-84955525D01*
X174974569Y-84826937D01*
X175241269Y-84826937D01*
X175241269Y-84525312D01*
X175414306Y-84525312D01*
X175414306Y-84826937D01*
G37*
G36*
X150014306Y-84826937D02*
G01*
X150177819Y-84826937D01*
X150177819Y-84955525D01*
X150014306Y-84955525D01*
X150014306Y-85382562D01*
X150000217Y-85505594D01*
X149957950Y-85582587D01*
X149879567Y-85623069D01*
X149757131Y-85636562D01*
X149669422Y-85631800D01*
X149590444Y-85617513D01*
X149590444Y-85473050D01*
X149658309Y-85490909D01*
X149725381Y-85496863D01*
X149820631Y-85470669D01*
X149841269Y-85350813D01*
X149841269Y-84955525D01*
X149574569Y-84955525D01*
X149574569Y-84826937D01*
X149841269Y-84826937D01*
X149841269Y-84525312D01*
X150014306Y-84525312D01*
X150014306Y-84826937D01*
G37*
G36*
X166796959Y-84794394D02*
G01*
X166902131Y-84839637D01*
X166902131Y-85620688D01*
X166735444Y-85620688D01*
X166735444Y-84931712D01*
X166671944Y-84909487D01*
X166625906Y-84926156D01*
X166613206Y-84985687D01*
X166613206Y-85620688D01*
X166454456Y-85620688D01*
X166454456Y-84931712D01*
X166389369Y-84909487D01*
X166344919Y-84925362D01*
X166332219Y-84985687D01*
X166332219Y-85620688D01*
X166171881Y-85620688D01*
X166171881Y-85001562D01*
X166182795Y-84891430D01*
X166215538Y-84824556D01*
X166278442Y-84790623D01*
X166379844Y-84779312D01*
X166462791Y-84789234D01*
X166537006Y-84819000D01*
X166597728Y-84789234D01*
X166678294Y-84779312D01*
X166796959Y-84794394D01*
G37*
G36*
X169540556Y-85477812D02*
G01*
X169545319Y-85477812D01*
X169635806Y-84795187D01*
X169770744Y-84795187D01*
X169867581Y-85422250D01*
X169870756Y-85422250D01*
X169921556Y-84795187D01*
X170085069Y-84795187D01*
X169981881Y-85620688D01*
X169818369Y-85620688D01*
X169723119Y-84971400D01*
X169719944Y-84971400D01*
X169635806Y-85620688D01*
X169442131Y-85620688D01*
X169338944Y-84795187D01*
X169483406Y-84795187D01*
X169540556Y-85477812D01*
G37*
G36*
X170334306Y-85477812D02*
G01*
X170339069Y-85477812D01*
X170429556Y-84795187D01*
X170564494Y-84795187D01*
X170661331Y-85422250D01*
X170664506Y-85422250D01*
X170715306Y-84795187D01*
X170878819Y-84795187D01*
X170775631Y-85620688D01*
X170612119Y-85620688D01*
X170516869Y-84971400D01*
X170513694Y-84971400D01*
X170429556Y-85620688D01*
X170235881Y-85620688D01*
X170132694Y-84795187D01*
X170277156Y-84795187D01*
X170334306Y-85477812D01*
G37*
G36*
X168746806Y-85477812D02*
G01*
X168751569Y-85477812D01*
X168842056Y-84795187D01*
X168976994Y-84795187D01*
X169073831Y-85422250D01*
X169077006Y-85422250D01*
X169127806Y-84795187D01*
X169291319Y-84795187D01*
X169188131Y-85620688D01*
X169024619Y-85620688D01*
X168929369Y-84971400D01*
X168926194Y-84971400D01*
X168842056Y-85620688D01*
X168648381Y-85620688D01*
X168545194Y-84795187D01*
X168689656Y-84795187D01*
X168746806Y-85477812D01*
G37*
G36*
X151269490Y-85591407D02*
G01*
X151204931Y-85534963D01*
X151159070Y-85453471D01*
X151131553Y-85344462D01*
X151122381Y-85207937D01*
X151300181Y-85207937D01*
X151309111Y-85353392D01*
X151335900Y-85443681D01*
X151383723Y-85490711D01*
X151455756Y-85506387D01*
X151527789Y-85490711D01*
X151575613Y-85443681D01*
X151602402Y-85353392D01*
X151611331Y-85207937D01*
X151602402Y-85062483D01*
X151575613Y-84972194D01*
X151527789Y-84925164D01*
X151455756Y-84909487D01*
X151383723Y-84925164D01*
X151335900Y-84972194D01*
X151309111Y-85062483D01*
X151300181Y-85207937D01*
X151122381Y-85207937D01*
X151131553Y-85071412D01*
X151159070Y-84962404D01*
X151204931Y-84880912D01*
X151269490Y-84824468D01*
X151353098Y-84790601D01*
X151455756Y-84779312D01*
X151558415Y-84790601D01*
X151642023Y-84824468D01*
X151706581Y-84880912D01*
X151752442Y-84962404D01*
X151779959Y-85071412D01*
X151789131Y-85207937D01*
X151779959Y-85344462D01*
X151752442Y-85453471D01*
X151706581Y-85534963D01*
X151642023Y-85591407D01*
X151558415Y-85625274D01*
X151455756Y-85636562D01*
X151353098Y-85625274D01*
X151269490Y-85591407D01*
G37*
G36*
X154444490Y-85591407D02*
G01*
X154379931Y-85534963D01*
X154334070Y-85453471D01*
X154306553Y-85344462D01*
X154297381Y-85207937D01*
X154475181Y-85207937D01*
X154484111Y-85353392D01*
X154510900Y-85443681D01*
X154558723Y-85490711D01*
X154630756Y-85506387D01*
X154702789Y-85490711D01*
X154750613Y-85443681D01*
X154777402Y-85353392D01*
X154786331Y-85207937D01*
X154777402Y-85062483D01*
X154750613Y-84972194D01*
X154702789Y-84925164D01*
X154630756Y-84909487D01*
X154558723Y-84925164D01*
X154510900Y-84972194D01*
X154484111Y-85062483D01*
X154475181Y-85207937D01*
X154297381Y-85207937D01*
X154306553Y-85071412D01*
X154334070Y-84962404D01*
X154379931Y-84880912D01*
X154444490Y-84824468D01*
X154528098Y-84790601D01*
X154630756Y-84779312D01*
X154733415Y-84790601D01*
X154817023Y-84824468D01*
X154881581Y-84880912D01*
X154927442Y-84962404D01*
X154954959Y-85071412D01*
X154964131Y-85207937D01*
X154954959Y-85344462D01*
X154927442Y-85453471D01*
X154881581Y-85534963D01*
X154817023Y-85591407D01*
X154733415Y-85625274D01*
X154630756Y-85636562D01*
X154528098Y-85625274D01*
X154444490Y-85591407D01*
G37*
G36*
X144919490Y-85591407D02*
G01*
X144854931Y-85534963D01*
X144809070Y-85453471D01*
X144781553Y-85344462D01*
X144772381Y-85207937D01*
X144950181Y-85207937D01*
X144959111Y-85353392D01*
X144985900Y-85443681D01*
X145033723Y-85490711D01*
X145105756Y-85506387D01*
X145177789Y-85490711D01*
X145225613Y-85443681D01*
X145252402Y-85353392D01*
X145261331Y-85207937D01*
X145252402Y-85062483D01*
X145225613Y-84972194D01*
X145177789Y-84925164D01*
X145105756Y-84909487D01*
X145033723Y-84925164D01*
X144985900Y-84972194D01*
X144959111Y-85062483D01*
X144950181Y-85207937D01*
X144772381Y-85207937D01*
X144781553Y-85071412D01*
X144809070Y-84962404D01*
X144854931Y-84880912D01*
X144919490Y-84824468D01*
X145003098Y-84790601D01*
X145105756Y-84779312D01*
X145208415Y-84790601D01*
X145292023Y-84824468D01*
X145356581Y-84880912D01*
X145402442Y-84962404D01*
X145429959Y-85071412D01*
X145439131Y-85207937D01*
X145429959Y-85344462D01*
X145402442Y-85453471D01*
X145356581Y-85534963D01*
X145292023Y-85591407D01*
X145208415Y-85625274D01*
X145105756Y-85636562D01*
X145003098Y-85625274D01*
X144919490Y-85591407D01*
G37*
G36*
X165556990Y-85591407D02*
G01*
X165492431Y-85534963D01*
X165446570Y-85453471D01*
X165419053Y-85344462D01*
X165409881Y-85207937D01*
X165587681Y-85207937D01*
X165596611Y-85353392D01*
X165623400Y-85443681D01*
X165671223Y-85490711D01*
X165743256Y-85506387D01*
X165815289Y-85490711D01*
X165863113Y-85443681D01*
X165889902Y-85353392D01*
X165898831Y-85207937D01*
X165889902Y-85062483D01*
X165863113Y-84972194D01*
X165815289Y-84925164D01*
X165743256Y-84909487D01*
X165671223Y-84925164D01*
X165623400Y-84972194D01*
X165596611Y-85062483D01*
X165587681Y-85207937D01*
X165409881Y-85207937D01*
X165419053Y-85071412D01*
X165446570Y-84962404D01*
X165492431Y-84880912D01*
X165556990Y-84824468D01*
X165640598Y-84790601D01*
X165743256Y-84779312D01*
X165845915Y-84790601D01*
X165929523Y-84824468D01*
X165994081Y-84880912D01*
X166039942Y-84962404D01*
X166067459Y-85071412D01*
X166076631Y-85207937D01*
X166067459Y-85344462D01*
X166039942Y-85453471D01*
X165994081Y-85534963D01*
X165929523Y-85591407D01*
X165845915Y-85625274D01*
X165743256Y-85636562D01*
X165640598Y-85625274D01*
X165556990Y-85591407D01*
G37*
G36*
X167018019Y-85204762D02*
G01*
X167021708Y-85144438D01*
X167189469Y-85144438D01*
X167472044Y-85144438D01*
X167458550Y-85030138D01*
X167430769Y-84957112D01*
X167386716Y-84917822D01*
X167324406Y-84904725D01*
X167224394Y-84959494D01*
X167198994Y-85033114D01*
X167189469Y-85144438D01*
X167021708Y-85144438D01*
X167026309Y-85069208D01*
X167051180Y-84960993D01*
X167092631Y-84880119D01*
X167151016Y-84824115D01*
X167226687Y-84790513D01*
X167319644Y-84779312D01*
X167421508Y-84791219D01*
X167504852Y-84826937D01*
X167569675Y-84886469D01*
X167615977Y-84969812D01*
X167643758Y-85076969D01*
X167653019Y-85207937D01*
X167645567Y-85321654D01*
X167623213Y-85417876D01*
X167585955Y-85496603D01*
X167533794Y-85557835D01*
X167466730Y-85601573D01*
X167384764Y-85627815D01*
X167287894Y-85636562D01*
X167177166Y-85626641D01*
X167060881Y-85596875D01*
X167060881Y-85465113D01*
X167169625Y-85497259D01*
X167267256Y-85507975D01*
X167352386Y-85494283D01*
X167414100Y-85453206D01*
X167453589Y-85379586D01*
X167472044Y-85268263D01*
X167021194Y-85268263D01*
X167018019Y-85204762D01*
G37*
G36*
X164636769Y-85204762D02*
G01*
X164640458Y-85144438D01*
X164808219Y-85144438D01*
X165090794Y-85144438D01*
X165077300Y-85030138D01*
X165049519Y-84957112D01*
X165005466Y-84917822D01*
X164943156Y-84904725D01*
X164843144Y-84959494D01*
X164817744Y-85033114D01*
X164808219Y-85144438D01*
X164640458Y-85144438D01*
X164645059Y-85069208D01*
X164669930Y-84960993D01*
X164711381Y-84880119D01*
X164769766Y-84824115D01*
X164845437Y-84790513D01*
X164938394Y-84779312D01*
X165040258Y-84791219D01*
X165123602Y-84826937D01*
X165188425Y-84886469D01*
X165234727Y-84969812D01*
X165262508Y-85076969D01*
X165271769Y-85207937D01*
X165264317Y-85321654D01*
X165241963Y-85417876D01*
X165204705Y-85496603D01*
X165152544Y-85557835D01*
X165085480Y-85601573D01*
X165003514Y-85627815D01*
X164906644Y-85636562D01*
X164795916Y-85626641D01*
X164679631Y-85596875D01*
X164679631Y-85465113D01*
X164788375Y-85497259D01*
X164886006Y-85507975D01*
X164971136Y-85494283D01*
X165032850Y-85453206D01*
X165072339Y-85379586D01*
X165090794Y-85268263D01*
X164639944Y-85268263D01*
X164636769Y-85204762D01*
G37*
G36*
X158286769Y-85204762D02*
G01*
X158290458Y-85144438D01*
X158458219Y-85144438D01*
X158740794Y-85144438D01*
X158727300Y-85030138D01*
X158699519Y-84957112D01*
X158655466Y-84917822D01*
X158593156Y-84904725D01*
X158493144Y-84959494D01*
X158467744Y-85033114D01*
X158458219Y-85144438D01*
X158290458Y-85144438D01*
X158295059Y-85069208D01*
X158319930Y-84960993D01*
X158361381Y-84880119D01*
X158419766Y-84824115D01*
X158495437Y-84790513D01*
X158588394Y-84779312D01*
X158690258Y-84791219D01*
X158773602Y-84826937D01*
X158838425Y-84886469D01*
X158884727Y-84969812D01*
X158912508Y-85076969D01*
X158921769Y-85207937D01*
X158914317Y-85321654D01*
X158891963Y-85417876D01*
X158854705Y-85496603D01*
X158802544Y-85557835D01*
X158735480Y-85601573D01*
X158653514Y-85627815D01*
X158556644Y-85636562D01*
X158445916Y-85626641D01*
X158329631Y-85596875D01*
X158329631Y-85465113D01*
X158438375Y-85497259D01*
X158536006Y-85507975D01*
X158621136Y-85494283D01*
X158682850Y-85453206D01*
X158722339Y-85379586D01*
X158740794Y-85268263D01*
X158289944Y-85268263D01*
X158286769Y-85204762D01*
G37*
G36*
X147174269Y-85204762D02*
G01*
X147177958Y-85144438D01*
X147345719Y-85144438D01*
X147628294Y-85144438D01*
X147614800Y-85030138D01*
X147587019Y-84957112D01*
X147542966Y-84917822D01*
X147480656Y-84904725D01*
X147380644Y-84959494D01*
X147355244Y-85033114D01*
X147345719Y-85144438D01*
X147177958Y-85144438D01*
X147182559Y-85069208D01*
X147207430Y-84960993D01*
X147248881Y-84880119D01*
X147307266Y-84824115D01*
X147382937Y-84790513D01*
X147475894Y-84779312D01*
X147577758Y-84791219D01*
X147661102Y-84826937D01*
X147725925Y-84886469D01*
X147772227Y-84969812D01*
X147800008Y-85076969D01*
X147809269Y-85207937D01*
X147801817Y-85321654D01*
X147779463Y-85417876D01*
X147742205Y-85496603D01*
X147690044Y-85557835D01*
X147622980Y-85601573D01*
X147541014Y-85627815D01*
X147444144Y-85636562D01*
X147333416Y-85626641D01*
X147217131Y-85596875D01*
X147217131Y-85465113D01*
X147325875Y-85497259D01*
X147423506Y-85507975D01*
X147508636Y-85494283D01*
X147570350Y-85453206D01*
X147609839Y-85379586D01*
X147628294Y-85268263D01*
X147177444Y-85268263D01*
X147174269Y-85204762D01*
G37*
G36*
X141618019Y-85204762D02*
G01*
X141621708Y-85144438D01*
X141789469Y-85144438D01*
X142072044Y-85144438D01*
X142058550Y-85030138D01*
X142030769Y-84957112D01*
X141986716Y-84917822D01*
X141924406Y-84904725D01*
X141824394Y-84959494D01*
X141798994Y-85033114D01*
X141789469Y-85144438D01*
X141621708Y-85144438D01*
X141626309Y-85069208D01*
X141651180Y-84960993D01*
X141692631Y-84880119D01*
X141751016Y-84824115D01*
X141826687Y-84790513D01*
X141919644Y-84779312D01*
X142021508Y-84791219D01*
X142104852Y-84826937D01*
X142169675Y-84886469D01*
X142215977Y-84969812D01*
X142243758Y-85076969D01*
X142253019Y-85207937D01*
X142242876Y-85338906D01*
X142212449Y-85446062D01*
X142161737Y-85529406D01*
X142090741Y-85588937D01*
X141999460Y-85624656D01*
X141887894Y-85636562D01*
X141777166Y-85626641D01*
X141660881Y-85596875D01*
X141660881Y-85465113D01*
X141769625Y-85497259D01*
X141867256Y-85507975D01*
X141952386Y-85494283D01*
X142014100Y-85453206D01*
X142053589Y-85379586D01*
X142072044Y-85268263D01*
X141621194Y-85268263D01*
X141618019Y-85204762D01*
G37*
G36*
X139236769Y-85204762D02*
G01*
X139240458Y-85144438D01*
X139408219Y-85144438D01*
X139690794Y-85144438D01*
X139677300Y-85030138D01*
X139649519Y-84957112D01*
X139605466Y-84917822D01*
X139543156Y-84904725D01*
X139443144Y-84959494D01*
X139417744Y-85033114D01*
X139408219Y-85144438D01*
X139240458Y-85144438D01*
X139245059Y-85069208D01*
X139269930Y-84960993D01*
X139311381Y-84880119D01*
X139369766Y-84824115D01*
X139445437Y-84790513D01*
X139538394Y-84779312D01*
X139640258Y-84791219D01*
X139723602Y-84826937D01*
X139788425Y-84886469D01*
X139834727Y-84969812D01*
X139862508Y-85076969D01*
X139871769Y-85207937D01*
X139861626Y-85338906D01*
X139831199Y-85446062D01*
X139780487Y-85529406D01*
X139709491Y-85588937D01*
X139618210Y-85624656D01*
X139506644Y-85636562D01*
X139395916Y-85626641D01*
X139279631Y-85596875D01*
X139279631Y-85465113D01*
X139388375Y-85497259D01*
X139486006Y-85507975D01*
X139571136Y-85494283D01*
X139632850Y-85453206D01*
X139672339Y-85379586D01*
X139690794Y-85268263D01*
X139239944Y-85268263D01*
X139236769Y-85204762D01*
G37*
G36*
X152244744Y-85493687D02*
G01*
X152247919Y-85493687D01*
X152401906Y-84795187D01*
X152582881Y-84795187D01*
X152360631Y-85620688D01*
X152138381Y-85620688D01*
X151916131Y-84795187D01*
X152090756Y-84795187D01*
X152244744Y-85493687D01*
G37*
G36*
X163357244Y-85109512D02*
G01*
X163360419Y-85109512D01*
X163501706Y-84795187D01*
X163687444Y-84795187D01*
X163473131Y-85207937D01*
X163687444Y-85620688D01*
X163501706Y-85620688D01*
X163366769Y-85311125D01*
X163363594Y-85311125D01*
X163228656Y-85620688D01*
X163036569Y-85620688D01*
X163250881Y-85207937D01*
X163036569Y-84795187D01*
X163215956Y-84795187D01*
X163357244Y-85109512D01*
G37*
G36*
X148869542Y-85613985D02*
G01*
X148780819Y-85585763D01*
X148780819Y-85492100D01*
X148953856Y-85492100D01*
X149058631Y-85512737D01*
X149174519Y-85475431D01*
X149215794Y-85369862D01*
X149202895Y-85298028D01*
X149164200Y-85247625D01*
X149096930Y-85217859D01*
X148998306Y-85207937D01*
X148953856Y-85207937D01*
X148953856Y-85492100D01*
X148780819Y-85492100D01*
X148780819Y-85093637D01*
X148787610Y-84982512D01*
X148807983Y-84898904D01*
X148841937Y-84842812D01*
X148931433Y-84795187D01*
X149077681Y-84779312D01*
X149163053Y-84784957D01*
X149251953Y-84801890D01*
X149344381Y-84830112D01*
X149344381Y-84966637D01*
X149252306Y-84934887D01*
X149166581Y-84915837D01*
X149087206Y-84909487D01*
X148978463Y-84938856D01*
X148953856Y-85061887D01*
X148953856Y-85088875D01*
X148998306Y-85088875D01*
X149116575Y-85096901D01*
X149213148Y-85120978D01*
X149288025Y-85161106D01*
X149360058Y-85249411D01*
X149384069Y-85369862D01*
X149362836Y-85482575D01*
X149299138Y-85566713D01*
X149234667Y-85605518D01*
X149154499Y-85628801D01*
X149058631Y-85636562D01*
X148962147Y-85630918D01*
X148869542Y-85613985D01*
G37*
G36*
X138878788Y-84794195D02*
G01*
X138971656Y-84838844D01*
X139027616Y-84911273D01*
X139046269Y-85009500D01*
X139030394Y-85100980D01*
X138982769Y-85172219D01*
X138897441Y-85227583D01*
X138768456Y-85271437D01*
X138663681Y-85319062D01*
X138635106Y-85398438D01*
X138671619Y-85481781D01*
X138792269Y-85507975D01*
X138911728Y-85492497D01*
X139038331Y-85446062D01*
X139038331Y-85585763D01*
X138953665Y-85613985D01*
X138862648Y-85630918D01*
X138765281Y-85636562D01*
X138635702Y-85621084D01*
X138539063Y-85574650D01*
X138478936Y-85499641D01*
X138458894Y-85398438D01*
X138474173Y-85296837D01*
X138520013Y-85223812D01*
X138607920Y-85169838D01*
X138749406Y-85125387D01*
X138843862Y-85080937D01*
X138871644Y-85009500D01*
X138837116Y-84932109D01*
X138733531Y-84906312D01*
X138612881Y-84916234D01*
X138485881Y-84946000D01*
X138485881Y-84814237D01*
X138568784Y-84794835D01*
X138656626Y-84783193D01*
X138749406Y-84779312D01*
X138878788Y-84794195D01*
G37*
G36*
X173803788Y-84794195D02*
G01*
X173896656Y-84838844D01*
X173952616Y-84911273D01*
X173971269Y-85009500D01*
X173955394Y-85100980D01*
X173907769Y-85172219D01*
X173822441Y-85227583D01*
X173693456Y-85271437D01*
X173588681Y-85319062D01*
X173560106Y-85398438D01*
X173596619Y-85481781D01*
X173717269Y-85507975D01*
X173836728Y-85492497D01*
X173963331Y-85446062D01*
X173963331Y-85585763D01*
X173878665Y-85613985D01*
X173787648Y-85630918D01*
X173690281Y-85636562D01*
X173560702Y-85621084D01*
X173464063Y-85574650D01*
X173403936Y-85499641D01*
X173383894Y-85398438D01*
X173399173Y-85296837D01*
X173445012Y-85223812D01*
X173532920Y-85169838D01*
X173674406Y-85125387D01*
X173768863Y-85080937D01*
X173796644Y-85009500D01*
X173762116Y-84932109D01*
X173658531Y-84906312D01*
X173537881Y-84916234D01*
X173410881Y-84946000D01*
X173410881Y-84814237D01*
X173493784Y-84794835D01*
X173581626Y-84783193D01*
X173674406Y-84779312D01*
X173803788Y-84794195D01*
G37*
G36*
X156341288Y-84794195D02*
G01*
X156434156Y-84838844D01*
X156490116Y-84911273D01*
X156508769Y-85009500D01*
X156492894Y-85100980D01*
X156445269Y-85172219D01*
X156359941Y-85227583D01*
X156230956Y-85271437D01*
X156126181Y-85319062D01*
X156097606Y-85398438D01*
X156134119Y-85481781D01*
X156254769Y-85507975D01*
X156374228Y-85492497D01*
X156500831Y-85446062D01*
X156500831Y-85585763D01*
X156416165Y-85613985D01*
X156325148Y-85630918D01*
X156227781Y-85636562D01*
X156098202Y-85621084D01*
X156001562Y-85574650D01*
X155941436Y-85499641D01*
X155921394Y-85398438D01*
X155936673Y-85296837D01*
X155982512Y-85223812D01*
X156070420Y-85169838D01*
X156211906Y-85125387D01*
X156306363Y-85080937D01*
X156334144Y-85009500D01*
X156299616Y-84932109D01*
X156196031Y-84906312D01*
X156075381Y-84916234D01*
X155948381Y-84946000D01*
X155948381Y-84814237D01*
X156031284Y-84794835D01*
X156119126Y-84783193D01*
X156211906Y-84779312D01*
X156341288Y-84794195D01*
G37*
G36*
X146022538Y-84794195D02*
G01*
X146115406Y-84838844D01*
X146171366Y-84911273D01*
X146190019Y-85009500D01*
X146174144Y-85100980D01*
X146126519Y-85172219D01*
X146041191Y-85227583D01*
X145912206Y-85271437D01*
X145807431Y-85319062D01*
X145778856Y-85398438D01*
X145815369Y-85481781D01*
X145936019Y-85507975D01*
X146055478Y-85492497D01*
X146182081Y-85446062D01*
X146182081Y-85585763D01*
X146097415Y-85613985D01*
X146006398Y-85630918D01*
X145909031Y-85636562D01*
X145779452Y-85621084D01*
X145682812Y-85574650D01*
X145622686Y-85499641D01*
X145602644Y-85398438D01*
X145617923Y-85296837D01*
X145663762Y-85223812D01*
X145751670Y-85169838D01*
X145893156Y-85125387D01*
X145987612Y-85080937D01*
X146015394Y-85009500D01*
X145980866Y-84932109D01*
X145877281Y-84906312D01*
X145756631Y-84916234D01*
X145629631Y-84946000D01*
X145629631Y-84814237D01*
X145712534Y-84794835D01*
X145800376Y-84783193D01*
X145893156Y-84779312D01*
X146022538Y-84794195D01*
G37*
G36*
X153962948Y-84786721D02*
G01*
X154055552Y-84808946D01*
X154138631Y-84845987D01*
X154138631Y-85620688D01*
X153964006Y-85620688D01*
X153964006Y-84944412D01*
X153856056Y-84909487D01*
X153738581Y-84941237D01*
X153706831Y-85057125D01*
X153706831Y-85620688D01*
X153535381Y-85620688D01*
X153535381Y-85065062D01*
X153551852Y-84924172D01*
X153601262Y-84838050D01*
X153659383Y-84805418D01*
X153745901Y-84785839D01*
X153860819Y-84779312D01*
X153962948Y-84786721D01*
G37*
G36*
X136500448Y-84786721D02*
G01*
X136593052Y-84808946D01*
X136676131Y-84845987D01*
X136676131Y-85620688D01*
X136501506Y-85620688D01*
X136501506Y-84944412D01*
X136393556Y-84909487D01*
X136276081Y-84941237D01*
X136244331Y-85057125D01*
X136244331Y-85620688D01*
X136072881Y-85620688D01*
X136072881Y-85065062D01*
X136089352Y-84924172D01*
X136138763Y-84838050D01*
X136196883Y-84805418D01*
X136283401Y-84785839D01*
X136398319Y-84779312D01*
X136500448Y-84786721D01*
G37*
G36*
X142756807Y-84788060D02*
G01*
X142840556Y-84814302D01*
X142909077Y-84858040D01*
X142962372Y-84919272D01*
X143000440Y-84997999D01*
X143023280Y-85094221D01*
X143030894Y-85207937D01*
X143019958Y-85338112D01*
X142987149Y-85445004D01*
X142932469Y-85528613D01*
X142857856Y-85588585D01*
X142765252Y-85624568D01*
X142654656Y-85636562D01*
X142555041Y-85626641D01*
X142459394Y-85596875D01*
X142459394Y-85466700D01*
X142548294Y-85501228D01*
X142634019Y-85512737D01*
X142724903Y-85493687D01*
X142794356Y-85436538D01*
X142838409Y-85341287D01*
X142853094Y-85207937D01*
X142840394Y-85078358D01*
X142802294Y-84984894D01*
X142741572Y-84928339D01*
X142661006Y-84909487D01*
X142618144Y-84914250D01*
X142618144Y-85096812D01*
X142451456Y-85096812D01*
X142451456Y-84811062D01*
X142549087Y-84787250D01*
X142657831Y-84779312D01*
X142756807Y-84788060D01*
G37*
G36*
X157838057Y-84788060D02*
G01*
X157921806Y-84814302D01*
X157990327Y-84858040D01*
X158043622Y-84919272D01*
X158081690Y-84997999D01*
X158104530Y-85094221D01*
X158112144Y-85207937D01*
X158101208Y-85338112D01*
X158068399Y-85445004D01*
X158013719Y-85528613D01*
X157939106Y-85588585D01*
X157846502Y-85624568D01*
X157735906Y-85636562D01*
X157636291Y-85626641D01*
X157540644Y-85596875D01*
X157540644Y-85466700D01*
X157629544Y-85501228D01*
X157715269Y-85512737D01*
X157806153Y-85493687D01*
X157875606Y-85436538D01*
X157919659Y-85341287D01*
X157934344Y-85207937D01*
X157921644Y-85078358D01*
X157883544Y-84984894D01*
X157822822Y-84928339D01*
X157742256Y-84909487D01*
X157699394Y-84914250D01*
X157699394Y-85096812D01*
X157532706Y-85096812D01*
X157532706Y-84811062D01*
X157630338Y-84787250D01*
X157739081Y-84779312D01*
X157838057Y-84788060D01*
G37*
G36*
X144191356Y-85474638D02*
G01*
X144299306Y-85506387D01*
X144406462Y-85475431D01*
X144435831Y-85358750D01*
X144435831Y-84795187D01*
X144605694Y-84795187D01*
X144605694Y-85358750D01*
X144589422Y-85493687D01*
X144540606Y-85577825D01*
X144484515Y-85610457D01*
X144403023Y-85630036D01*
X144296131Y-85636562D01*
X144194002Y-85629154D01*
X144101398Y-85606929D01*
X144018319Y-85569887D01*
X144018319Y-84795187D01*
X144192944Y-84795187D01*
X144191356Y-85474638D01*
G37*
G36*
X162057081Y-84923775D02*
G01*
X161693544Y-84923775D01*
X161693544Y-84926950D01*
X162057081Y-85492100D01*
X162057081Y-85620688D01*
X161493519Y-85620688D01*
X161493519Y-85492100D01*
X161857056Y-85492100D01*
X161857056Y-85488925D01*
X161493519Y-84923775D01*
X161493519Y-84795187D01*
X162057081Y-84795187D01*
X162057081Y-84923775D01*
G37*
G36*
X143345600Y-84782614D02*
G01*
X143452153Y-84792520D01*
X143556928Y-84809030D01*
X143659925Y-84832144D01*
X143761144Y-84861862D01*
X143761144Y-85620688D01*
X143586519Y-85620688D01*
X143588106Y-84957112D01*
X143475747Y-84931536D01*
X143358801Y-84916190D01*
X143237269Y-84911075D01*
X143237269Y-84779312D01*
X143345600Y-84782614D01*
G37*
G36*
X159220600Y-84782614D02*
G01*
X159327153Y-84792520D01*
X159431928Y-84809030D01*
X159534925Y-84832144D01*
X159636144Y-84861862D01*
X159636144Y-85620688D01*
X159461519Y-85620688D01*
X159463106Y-84957112D01*
X159350747Y-84931536D01*
X159233801Y-84916190D01*
X159112269Y-84911075D01*
X159112269Y-84779312D01*
X159220600Y-84782614D01*
G37*
G36*
X157258069Y-84923775D02*
G01*
X157046931Y-84923775D01*
X157046931Y-85620688D01*
X156869131Y-85620688D01*
X156869131Y-84795187D01*
X157258069Y-84795187D01*
X157258069Y-84923775D01*
G37*
G36*
X155670569Y-84923775D02*
G01*
X155459431Y-84923775D01*
X155459431Y-85620688D01*
X155281631Y-85620688D01*
X155281631Y-84795187D01*
X155670569Y-84795187D01*
X155670569Y-84923775D01*
G37*
G36*
X138208069Y-84923775D02*
G01*
X137996931Y-84923775D01*
X137996931Y-85620688D01*
X137819131Y-85620688D01*
X137819131Y-84795187D01*
X138208069Y-84795187D01*
X138208069Y-84923775D01*
G37*
G36*
X153281381Y-85217462D02*
G01*
X152805131Y-85217462D01*
X152805131Y-85085700D01*
X153281381Y-85085700D01*
X153281381Y-85217462D01*
G37*
G36*
X146931381Y-85217462D02*
G01*
X146455131Y-85217462D01*
X146455131Y-85085700D01*
X146931381Y-85085700D01*
X146931381Y-85217462D01*
G37*
G36*
X141375131Y-85217462D02*
G01*
X140898881Y-85217462D01*
X140898881Y-85085700D01*
X141375131Y-85085700D01*
X141375131Y-85217462D01*
G37*
G36*
X168248331Y-85620688D02*
G01*
X167994331Y-85620688D01*
X167994331Y-85350813D01*
X168248331Y-85350813D01*
X168248331Y-85620688D01*
G37*
G36*
X164279581Y-85620688D02*
G01*
X164025581Y-85620688D01*
X164025581Y-85350813D01*
X164279581Y-85350813D01*
X164279581Y-85620688D01*
G37*
G36*
X173006069Y-85001562D02*
G01*
X172767944Y-85001562D01*
X172767944Y-84731687D01*
X173006069Y-84731687D01*
X173006069Y-85001562D01*
G37*
G36*
X173006069Y-85620688D02*
G01*
X172767944Y-85620688D01*
X172767944Y-85350813D01*
X173006069Y-85350813D01*
X173006069Y-85620688D01*
G37*
G36*
X157078681Y-84612625D02*
G01*
X156869131Y-84612625D01*
X156869131Y-84414187D01*
X157078681Y-84414187D01*
X157078681Y-84612625D01*
G37*
G36*
X155491181Y-84612625D02*
G01*
X155281631Y-84612625D01*
X155281631Y-84414187D01*
X155491181Y-84414187D01*
X155491181Y-84612625D01*
G37*
G36*
X138028681Y-84612625D02*
G01*
X137819131Y-84612625D01*
X137819131Y-84414187D01*
X138028681Y-84414187D01*
X138028681Y-84612625D01*
G37*
%TO.C,kibuzzard-634188FD*%
G36*
X147223960Y-83704976D02*
G01*
X147150406Y-83647650D01*
X147150406Y-83584150D01*
X147315506Y-83584150D01*
X147382181Y-83622250D01*
X147447269Y-83580181D01*
X147461556Y-83516483D01*
X147466319Y-83409525D01*
X147461953Y-83302567D01*
X147448856Y-83238869D01*
X147385356Y-83196800D01*
X147315506Y-83246012D01*
X147315506Y-83584150D01*
X147150406Y-83584150D01*
X147150406Y-83130125D01*
X147162662Y-83015825D01*
X147199428Y-82926925D01*
X147260706Y-82863425D01*
X147346494Y-82825325D01*
X147456794Y-82812625D01*
X147576209Y-82828412D01*
X147674105Y-82875772D01*
X147750481Y-82954706D01*
X147793542Y-83036314D01*
X147824300Y-83139055D01*
X147842755Y-83262929D01*
X147848906Y-83407937D01*
X147842606Y-83554236D01*
X147823705Y-83678805D01*
X147792203Y-83781645D01*
X147748100Y-83862756D01*
X147670401Y-83940808D01*
X147571711Y-83987640D01*
X147452031Y-84003250D01*
X147336938Y-83992534D01*
X147229781Y-83960388D01*
X147229781Y-83815925D01*
X147331778Y-83856406D01*
X147431394Y-83869900D01*
X147547678Y-83844103D01*
X147629831Y-83766713D01*
X147665991Y-83680988D01*
X147687687Y-83561396D01*
X147694919Y-83407937D01*
X147688128Y-83254479D01*
X147667755Y-83134887D01*
X147633800Y-83049162D01*
X147555814Y-82971772D01*
X147444094Y-82945975D01*
X147340113Y-82984075D01*
X147302806Y-83090437D01*
X147302806Y-83107900D01*
X147305981Y-83107900D01*
X147415519Y-83068212D01*
X147505808Y-83088255D01*
X147570300Y-83148381D01*
X147598963Y-83213028D01*
X147616161Y-83300076D01*
X147621894Y-83409525D01*
X147615897Y-83522149D01*
X147597905Y-83610256D01*
X147567919Y-83673844D01*
X147498863Y-83731589D01*
X147399644Y-83750837D01*
X147382181Y-83748675D01*
X147307040Y-83739372D01*
X147223960Y-83704976D01*
G37*
G36*
X144305606Y-83598438D02*
G01*
X144308781Y-83598438D01*
X144484994Y-82995187D01*
X144658031Y-82995187D01*
X144383394Y-83804813D01*
X144513569Y-84169938D01*
X144338944Y-84169938D01*
X143959531Y-82995187D01*
X144140506Y-82995187D01*
X144305606Y-83598438D01*
G37*
G36*
X165744794Y-83661938D02*
G01*
X165746381Y-83661938D01*
X165927356Y-82661812D01*
X166109919Y-82661812D01*
X165852744Y-83820688D01*
X165646369Y-83820688D01*
X165387606Y-82661812D01*
X165563819Y-82661812D01*
X165744794Y-83661938D01*
G37*
G36*
X152251044Y-83661938D02*
G01*
X152252631Y-83661938D01*
X152433606Y-82661812D01*
X152616169Y-82661812D01*
X152358994Y-83820688D01*
X152152619Y-83820688D01*
X151893856Y-82661812D01*
X152070069Y-82661812D01*
X152251044Y-83661938D01*
G37*
G36*
X143499156Y-83836562D02*
G01*
X143400731Y-83830918D01*
X143310773Y-83813985D01*
X143229281Y-83785763D01*
X143229281Y-83692100D01*
X143403906Y-83692100D01*
X143507094Y-83712737D01*
X143580516Y-83695672D01*
X143632506Y-83644475D01*
X143663462Y-83551209D01*
X143673781Y-83407937D01*
X143665248Y-83268436D01*
X143639650Y-83176956D01*
X143596589Y-83126355D01*
X143535669Y-83109487D01*
X143461453Y-83122981D01*
X143403906Y-83163462D01*
X143403906Y-83692100D01*
X143229281Y-83692100D01*
X143229281Y-82630062D01*
X143403906Y-82630062D01*
X143403906Y-83014237D01*
X143477328Y-82988044D01*
X143554719Y-82979312D01*
X143645647Y-82990425D01*
X143719466Y-83023762D01*
X143776175Y-83079325D01*
X143816303Y-83160287D01*
X143840381Y-83269825D01*
X143848406Y-83407937D01*
X143839058Y-83548431D01*
X143811012Y-83658762D01*
X143764269Y-83738931D01*
X143697417Y-83793171D01*
X143609047Y-83825715D01*
X143507094Y-83835779D01*
X143499156Y-83836562D01*
G37*
G36*
X161652219Y-83757187D02*
G01*
X161652219Y-83781000D01*
X161674245Y-83895300D01*
X161740325Y-83981025D01*
X161807617Y-84020713D01*
X161892019Y-84044525D01*
X161993531Y-84052463D01*
X161993531Y-84185812D01*
X161878090Y-84178669D01*
X161776242Y-84157238D01*
X161687987Y-84121519D01*
X161613325Y-84071513D01*
X161537919Y-83985788D01*
X161492675Y-83881012D01*
X161477594Y-83757187D01*
X161477594Y-83623838D01*
X161652219Y-83623838D01*
X161771281Y-83660350D01*
X161837262Y-83643086D01*
X161884391Y-83591294D01*
X161912668Y-83504973D01*
X161922094Y-83384125D01*
X161911180Y-83255537D01*
X161878438Y-83171400D01*
X161821883Y-83124966D01*
X161739531Y-83109487D01*
X161652219Y-83119012D01*
X161652219Y-83623838D01*
X161477594Y-83623838D01*
X161477594Y-83014237D01*
X161598244Y-82988044D01*
X161731594Y-82979312D01*
X161848716Y-82989719D01*
X161941849Y-83020940D01*
X162010994Y-83072975D01*
X162058619Y-83149175D01*
X162087194Y-83252892D01*
X162096719Y-83384125D01*
X162088252Y-83507818D01*
X162062852Y-83609021D01*
X162020519Y-83687734D01*
X161961252Y-83743958D01*
X161885052Y-83777693D01*
X161791919Y-83788937D01*
X161771281Y-83786670D01*
X161719688Y-83781000D01*
X161652219Y-83757187D01*
G37*
G36*
X175098520Y-83793171D02*
G01*
X175031669Y-83738931D01*
X174984926Y-83658762D01*
X174956880Y-83548431D01*
X174947531Y-83407937D01*
X175122156Y-83407937D01*
X175132475Y-83551209D01*
X175163431Y-83644475D01*
X175215422Y-83695672D01*
X175288844Y-83712737D01*
X175392031Y-83692100D01*
X175392031Y-83163462D01*
X175334484Y-83122981D01*
X175260269Y-83109487D01*
X175199348Y-83126355D01*
X175156288Y-83176956D01*
X175130689Y-83268436D01*
X175122156Y-83407937D01*
X174947531Y-83407937D01*
X174955557Y-83269825D01*
X174979634Y-83160287D01*
X175019762Y-83079325D01*
X175076472Y-83023762D01*
X175150290Y-82990425D01*
X175241219Y-82979312D01*
X175318609Y-82988044D01*
X175392031Y-83014237D01*
X175392031Y-82630062D01*
X175566656Y-82630062D01*
X175566656Y-83785763D01*
X175485165Y-83813985D01*
X175395206Y-83830918D01*
X175296781Y-83836562D01*
X175288844Y-83835779D01*
X175186891Y-83825715D01*
X175098520Y-83793171D01*
G37*
G36*
X153969601Y-82649465D02*
G01*
X154059559Y-82660049D01*
X154148106Y-82677687D01*
X154148106Y-83820688D01*
X153970306Y-83820688D01*
X153970306Y-83339675D01*
X153908394Y-83339675D01*
X153812350Y-83370631D01*
X153781989Y-83415280D01*
X153755994Y-83487313D01*
X153663919Y-83820688D01*
X153481356Y-83820688D01*
X153579781Y-83496837D01*
X153630581Y-83372219D01*
X153690906Y-83293637D01*
X153690906Y-83290462D01*
X153613119Y-83245020D01*
X153557556Y-83180131D01*
X153524219Y-83095795D01*
X153513106Y-82992012D01*
X153686144Y-82992012D01*
X153698844Y-83089644D01*
X153736944Y-83153937D01*
X153805206Y-83189656D01*
X153908394Y-83201562D01*
X153970306Y-83201562D01*
X153970306Y-82796750D01*
X153878231Y-82784050D01*
X153793697Y-82796552D01*
X153733769Y-82834056D01*
X153698050Y-82898548D01*
X153686144Y-82992012D01*
X153513106Y-82992012D01*
X153522896Y-82883092D01*
X153552265Y-82795515D01*
X153601212Y-82729281D01*
X153671151Y-82682979D01*
X153763490Y-82655198D01*
X153878231Y-82645937D01*
X153969601Y-82649465D01*
G37*
G36*
X137790506Y-83784969D02*
G01*
X137731173Y-83713134D01*
X137686525Y-83600819D01*
X137665799Y-83501953D01*
X137653364Y-83382097D01*
X137649219Y-83241250D01*
X137814319Y-83241250D01*
X137816435Y-83354139D01*
X137822785Y-83449389D01*
X137833369Y-83527000D01*
X137855395Y-83613519D01*
X137883375Y-83666700D01*
X137966719Y-83703213D01*
X138046094Y-83670669D01*
X138095306Y-83558750D01*
X137819081Y-83080912D01*
X137815509Y-83155128D01*
X137814319Y-83241250D01*
X137649219Y-83241250D01*
X137653364Y-83100403D01*
X137665799Y-82980547D01*
X137682365Y-82901525D01*
X137844481Y-82901525D01*
X138115944Y-83373012D01*
X138119119Y-83241250D01*
X138117002Y-83128361D01*
X138110652Y-83033111D01*
X138100069Y-82955500D01*
X138078042Y-82868981D01*
X138050062Y-82815800D01*
X137966719Y-82779287D01*
X137892106Y-82807069D01*
X137844481Y-82901525D01*
X137682365Y-82901525D01*
X137686525Y-82881681D01*
X137731173Y-82769366D01*
X137790506Y-82697531D01*
X137867897Y-82658836D01*
X137966719Y-82645937D01*
X138065541Y-82658836D01*
X138142931Y-82697531D01*
X138202264Y-82769366D01*
X138246912Y-82881681D01*
X138267638Y-82980547D01*
X138280074Y-83100403D01*
X138284219Y-83241250D01*
X138280074Y-83382097D01*
X138267638Y-83501953D01*
X138246912Y-83600819D01*
X138202264Y-83713134D01*
X138142931Y-83784969D01*
X138115944Y-83798462D01*
X138065541Y-83823664D01*
X137966719Y-83836562D01*
X137867897Y-83823664D01*
X137790506Y-83784969D01*
G37*
G36*
X159473728Y-82654757D02*
G01*
X159552838Y-82681215D01*
X159616250Y-82725312D01*
X159678758Y-82820562D01*
X159699594Y-82947562D01*
X159683123Y-83060275D01*
X159633713Y-83153937D01*
X159579120Y-83208971D01*
X159503185Y-83261888D01*
X159405906Y-83312687D01*
X159337842Y-83353566D01*
X159292400Y-83400000D01*
X159266802Y-83456356D01*
X159258269Y-83527000D01*
X159269381Y-83601017D01*
X159302719Y-83654794D01*
X159355900Y-83687536D01*
X159426544Y-83698450D01*
X159519501Y-83686985D01*
X159607872Y-83652589D01*
X159691656Y-83595262D01*
X159691656Y-83760363D01*
X159610165Y-83802696D01*
X159520206Y-83828096D01*
X159421781Y-83836562D01*
X159298909Y-83823862D01*
X159203341Y-83785762D01*
X159135079Y-83722263D01*
X159094121Y-83633362D01*
X159080469Y-83519062D01*
X159097534Y-83396428D01*
X159148731Y-83298400D01*
X159206763Y-83241779D01*
X159289842Y-83186217D01*
X159397969Y-83131712D01*
X159468524Y-83084264D01*
X159510858Y-83020235D01*
X159524969Y-82939625D01*
X159513856Y-82874537D01*
X159480519Y-82825325D01*
X159427734Y-82794369D01*
X159358281Y-82784050D01*
X159234853Y-82801116D01*
X159112219Y-82852312D01*
X159112219Y-82693563D01*
X159197591Y-82667104D01*
X159286491Y-82651229D01*
X159378919Y-82645937D01*
X159473728Y-82654757D01*
G37*
G36*
X173509080Y-83389417D02*
G01*
X173438613Y-83336500D01*
X173388783Y-83260476D01*
X173358885Y-83159406D01*
X173348919Y-83033287D01*
X173521956Y-83033287D01*
X173533664Y-83155327D01*
X173568788Y-83235694D01*
X173628517Y-83280342D01*
X173714044Y-83295225D01*
X173806119Y-83284112D01*
X173806119Y-82796750D01*
X173714044Y-82784050D01*
X173628517Y-82798734D01*
X173568788Y-82842787D01*
X173533664Y-82919781D01*
X173521956Y-83033287D01*
X173348919Y-83033287D01*
X173358620Y-82909374D01*
X173387724Y-82810685D01*
X173436231Y-82737219D01*
X173505905Y-82686507D01*
X173598509Y-82656080D01*
X173714044Y-82645937D01*
X173805413Y-82649465D01*
X173895372Y-82660049D01*
X173983919Y-82677687D01*
X173983919Y-83820688D01*
X173806119Y-83820688D01*
X173806119Y-83423812D01*
X173714044Y-83431750D01*
X173600890Y-83421167D01*
X173509080Y-83389417D01*
G37*
G36*
X140641656Y-83820688D02*
G01*
X140467031Y-83820688D01*
X140467031Y-83172987D01*
X140402341Y-83125362D01*
X140328919Y-83109487D01*
X140232081Y-83149175D01*
X140213031Y-83209897D01*
X140206681Y-83312687D01*
X140208269Y-83820688D01*
X140038406Y-83820688D01*
X140038406Y-83268237D01*
X140053091Y-83135880D01*
X140097144Y-83046781D01*
X140173344Y-82996180D01*
X140284469Y-82979312D01*
X140377734Y-82991219D01*
X140467031Y-83026937D01*
X140467031Y-82630062D01*
X140641656Y-82630062D01*
X140641656Y-83820688D01*
G37*
G36*
X164470031Y-82790400D02*
G01*
X164257306Y-82790400D01*
X164257306Y-83820688D01*
X163866781Y-83820688D01*
X163866781Y-83692100D01*
X164079506Y-83692100D01*
X164079506Y-82661812D01*
X164470031Y-82661812D01*
X164470031Y-82790400D01*
G37*
G36*
X146213781Y-82790400D02*
G01*
X146001056Y-82790400D01*
X146001056Y-83820688D01*
X145610531Y-83820688D01*
X145610531Y-83692100D01*
X145823256Y-83692100D01*
X145823256Y-82661812D01*
X146213781Y-82661812D01*
X146213781Y-82790400D01*
G37*
G36*
X138864185Y-82655110D02*
G01*
X138958377Y-82682626D01*
X139046219Y-82728487D01*
X139046219Y-82877712D01*
X138956790Y-82825678D01*
X138874769Y-82794457D01*
X138800156Y-82784050D01*
X138696175Y-82826912D01*
X138670577Y-82882475D01*
X138662044Y-82963437D01*
X138669884Y-83050426D01*
X138693405Y-83142663D01*
X138732607Y-83240148D01*
X138787489Y-83342882D01*
X138858051Y-83450865D01*
X138944295Y-83564096D01*
X139046219Y-83682575D01*
X139046219Y-83820688D01*
X138474719Y-83820688D01*
X138474719Y-83682575D01*
X138862069Y-83682575D01*
X138862069Y-83679400D01*
X138768952Y-83568473D01*
X138689627Y-83464294D01*
X138624093Y-83366861D01*
X138572350Y-83276175D01*
X138522520Y-83162933D01*
X138492622Y-83056042D01*
X138482656Y-82955500D01*
X138500714Y-82821555D01*
X138554888Y-82724519D01*
X138643192Y-82665583D01*
X138763644Y-82645937D01*
X138864185Y-82655110D01*
G37*
G36*
X137276685Y-82655110D02*
G01*
X137370877Y-82682626D01*
X137458719Y-82728487D01*
X137458719Y-82877712D01*
X137369290Y-82825678D01*
X137287269Y-82794457D01*
X137212656Y-82784050D01*
X137108675Y-82826912D01*
X137083077Y-82882475D01*
X137074544Y-82963437D01*
X137082384Y-83050426D01*
X137105905Y-83142663D01*
X137145107Y-83240148D01*
X137199989Y-83342882D01*
X137270551Y-83450865D01*
X137356795Y-83564096D01*
X137458719Y-83682575D01*
X137458719Y-83820688D01*
X136887219Y-83820688D01*
X136887219Y-83682575D01*
X137274569Y-83682575D01*
X137274569Y-83679400D01*
X137181452Y-83568473D01*
X137102127Y-83464294D01*
X137036593Y-83366861D01*
X136984850Y-83276175D01*
X136935020Y-83162933D01*
X136905122Y-83056042D01*
X136895156Y-82955500D01*
X136913214Y-82821555D01*
X136967388Y-82724519D01*
X137055692Y-82665583D01*
X137176144Y-82645937D01*
X137276685Y-82655110D01*
G37*
G36*
X136482935Y-82655110D02*
G01*
X136577127Y-82682626D01*
X136664969Y-82728487D01*
X136664969Y-82877712D01*
X136575540Y-82825678D01*
X136493519Y-82794457D01*
X136418906Y-82784050D01*
X136314925Y-82826912D01*
X136289327Y-82882475D01*
X136280794Y-82963437D01*
X136288634Y-83050426D01*
X136312155Y-83142663D01*
X136351357Y-83240148D01*
X136406239Y-83342882D01*
X136476801Y-83450865D01*
X136563045Y-83564096D01*
X136664969Y-83682575D01*
X136664969Y-83820688D01*
X136093469Y-83820688D01*
X136093469Y-83682575D01*
X136480819Y-83682575D01*
X136480819Y-83679400D01*
X136387702Y-83568473D01*
X136308377Y-83464294D01*
X136242843Y-83366861D01*
X136191100Y-83276175D01*
X136141270Y-83162933D01*
X136111372Y-83056042D01*
X136101406Y-82955500D01*
X136119464Y-82821555D01*
X136173638Y-82724519D01*
X136261942Y-82665583D01*
X136382394Y-82645937D01*
X136482935Y-82655110D01*
G37*
G36*
X149182935Y-82655110D02*
G01*
X149277127Y-82682626D01*
X149364969Y-82728487D01*
X149364969Y-82877712D01*
X149275540Y-82825678D01*
X149193519Y-82794457D01*
X149118906Y-82784050D01*
X149014925Y-82826912D01*
X148989327Y-82882475D01*
X148980794Y-82963437D01*
X148988634Y-83050426D01*
X149012155Y-83142663D01*
X149051357Y-83240148D01*
X149106239Y-83342882D01*
X149176801Y-83450865D01*
X149263045Y-83564096D01*
X149364969Y-83682575D01*
X149364969Y-83820688D01*
X148793469Y-83820688D01*
X148793469Y-83682575D01*
X149180819Y-83682575D01*
X149180819Y-83679400D01*
X149087702Y-83568473D01*
X149008377Y-83464294D01*
X148942843Y-83366861D01*
X148891100Y-83276175D01*
X148841270Y-83162933D01*
X148811372Y-83056042D01*
X148801406Y-82955500D01*
X148819464Y-82821555D01*
X148873637Y-82724519D01*
X148961942Y-82665583D01*
X149082394Y-82645937D01*
X149182935Y-82655110D01*
G37*
G36*
X153322606Y-83820688D02*
G01*
X152766981Y-83820688D01*
X152766981Y-83682575D01*
X153144806Y-83682575D01*
X153144806Y-83265062D01*
X152782856Y-83265062D01*
X152782856Y-83130125D01*
X153144806Y-83130125D01*
X153144806Y-82799925D01*
X152766981Y-82799925D01*
X152766981Y-82661812D01*
X153322606Y-82661812D01*
X153322606Y-83820688D01*
G37*
G36*
X177106531Y-83820688D02*
G01*
X176558844Y-83820688D01*
X176558844Y-83682575D01*
X176928731Y-83682575D01*
X176928731Y-82661812D01*
X177106531Y-82661812D01*
X177106531Y-83820688D01*
G37*
G36*
X142987981Y-83820688D02*
G01*
X142810181Y-83820688D01*
X142810181Y-83265062D01*
X142464106Y-83265062D01*
X142464106Y-83130125D01*
X142810181Y-83130125D01*
X142810181Y-82799925D01*
X142448231Y-82799925D01*
X142448231Y-82661812D01*
X142987981Y-82661812D01*
X142987981Y-83820688D01*
G37*
G36*
X146956731Y-83820688D02*
G01*
X146778931Y-83820688D01*
X146778931Y-83265062D01*
X146432856Y-83265062D01*
X146432856Y-83130125D01*
X146778931Y-83130125D01*
X146778931Y-82799925D01*
X146416981Y-82799925D01*
X146416981Y-82661812D01*
X146956731Y-82661812D01*
X146956731Y-83820688D01*
G37*
G36*
X163512769Y-83026937D02*
G01*
X163676281Y-83026937D01*
X163676281Y-83155525D01*
X163512769Y-83155525D01*
X163512769Y-83582562D01*
X163498680Y-83705594D01*
X163456413Y-83782587D01*
X163378030Y-83823069D01*
X163255594Y-83836562D01*
X163167884Y-83831800D01*
X163088906Y-83817513D01*
X163088906Y-83673050D01*
X163156772Y-83690909D01*
X163223844Y-83696863D01*
X163319094Y-83670669D01*
X163339731Y-83550813D01*
X163339731Y-83155525D01*
X163073031Y-83155525D01*
X163073031Y-83026937D01*
X163339731Y-83026937D01*
X163339731Y-82725312D01*
X163512769Y-82725312D01*
X163512769Y-83026937D01*
G37*
G36*
X150947706Y-82823737D02*
G01*
X150947706Y-82979312D01*
X150674656Y-82826912D01*
X150671481Y-82828500D01*
X150671481Y-83820688D01*
X150493681Y-83820688D01*
X150493681Y-82661812D01*
X150669894Y-82661812D01*
X150947706Y-82823737D01*
G37*
G36*
X158417952Y-83791407D02*
G01*
X158353394Y-83734963D01*
X158307533Y-83653471D01*
X158280016Y-83544462D01*
X158270844Y-83407937D01*
X158448644Y-83407937D01*
X158457573Y-83553392D01*
X158484363Y-83643681D01*
X158532186Y-83690711D01*
X158604219Y-83706387D01*
X158676252Y-83690711D01*
X158724075Y-83643681D01*
X158750864Y-83553392D01*
X158759794Y-83407937D01*
X158750864Y-83262483D01*
X158724075Y-83172194D01*
X158676252Y-83125164D01*
X158604219Y-83109487D01*
X158532186Y-83125164D01*
X158484363Y-83172194D01*
X158457573Y-83262483D01*
X158448644Y-83407937D01*
X158270844Y-83407937D01*
X158280016Y-83271412D01*
X158307533Y-83162404D01*
X158353394Y-83080912D01*
X158417952Y-83024468D01*
X158501560Y-82990601D01*
X158604219Y-82979312D01*
X158706877Y-82990601D01*
X158790485Y-83024468D01*
X158855044Y-83080912D01*
X158900905Y-83162404D01*
X158928422Y-83271412D01*
X158937594Y-83407937D01*
X158928422Y-83544462D01*
X158900905Y-83653471D01*
X158855044Y-83734963D01*
X158790485Y-83791407D01*
X158706877Y-83825274D01*
X158604219Y-83836562D01*
X158501560Y-83825274D01*
X158417952Y-83791407D01*
G37*
G36*
X144924202Y-83791407D02*
G01*
X144859644Y-83734963D01*
X144813783Y-83653471D01*
X144786266Y-83544462D01*
X144777094Y-83407937D01*
X144954894Y-83407937D01*
X144963823Y-83553392D01*
X144990612Y-83643681D01*
X145038436Y-83690711D01*
X145110469Y-83706387D01*
X145182502Y-83690711D01*
X145230325Y-83643681D01*
X145257114Y-83553392D01*
X145266044Y-83407937D01*
X145257114Y-83262483D01*
X145230325Y-83172194D01*
X145182502Y-83125164D01*
X145110469Y-83109487D01*
X145038436Y-83125164D01*
X144990612Y-83172194D01*
X144963823Y-83262483D01*
X144954894Y-83407937D01*
X144777094Y-83407937D01*
X144786266Y-83271412D01*
X144813783Y-83162404D01*
X144859644Y-83080912D01*
X144924202Y-83024468D01*
X145007810Y-82990601D01*
X145110469Y-82979312D01*
X145213127Y-82990601D01*
X145296735Y-83024468D01*
X145361294Y-83080912D01*
X145407155Y-83162404D01*
X145434672Y-83271412D01*
X145443844Y-83407937D01*
X145434672Y-83544462D01*
X145407155Y-83653471D01*
X145361294Y-83734963D01*
X145296735Y-83791407D01*
X145213127Y-83825274D01*
X145110469Y-83836562D01*
X145007810Y-83825274D01*
X144924202Y-83791407D01*
G37*
G36*
X167942952Y-83791407D02*
G01*
X167878394Y-83734963D01*
X167832533Y-83653471D01*
X167805016Y-83544462D01*
X167795844Y-83407937D01*
X167973644Y-83407937D01*
X167982573Y-83553392D01*
X168009363Y-83643681D01*
X168057186Y-83690711D01*
X168129219Y-83706387D01*
X168201252Y-83690711D01*
X168249075Y-83643681D01*
X168275864Y-83553392D01*
X168284794Y-83407937D01*
X168275864Y-83262483D01*
X168249075Y-83172194D01*
X168201252Y-83125164D01*
X168129219Y-83109487D01*
X168057186Y-83125164D01*
X168009363Y-83172194D01*
X167982573Y-83262483D01*
X167973644Y-83407937D01*
X167795844Y-83407937D01*
X167805016Y-83271412D01*
X167832533Y-83162404D01*
X167878394Y-83080912D01*
X167942952Y-83024468D01*
X168026560Y-82990601D01*
X168129219Y-82979312D01*
X168231877Y-82990601D01*
X168315485Y-83024468D01*
X168380044Y-83080912D01*
X168425905Y-83162404D01*
X168453422Y-83271412D01*
X168462594Y-83407937D01*
X168453422Y-83544462D01*
X168425905Y-83653471D01*
X168380044Y-83734963D01*
X168315485Y-83791407D01*
X168231877Y-83825274D01*
X168129219Y-83836562D01*
X168026560Y-83825274D01*
X167942952Y-83791407D01*
G37*
G36*
X164767952Y-83791407D02*
G01*
X164703394Y-83734963D01*
X164657533Y-83653471D01*
X164630016Y-83544462D01*
X164620844Y-83407937D01*
X164798644Y-83407937D01*
X164807573Y-83553392D01*
X164834363Y-83643681D01*
X164882186Y-83690711D01*
X164954219Y-83706387D01*
X165026252Y-83690711D01*
X165074075Y-83643681D01*
X165100864Y-83553392D01*
X165109794Y-83407937D01*
X165100864Y-83262483D01*
X165074075Y-83172194D01*
X165026252Y-83125164D01*
X164954219Y-83109487D01*
X164882186Y-83125164D01*
X164834363Y-83172194D01*
X164807573Y-83262483D01*
X164798644Y-83407937D01*
X164620844Y-83407937D01*
X164630016Y-83271412D01*
X164657533Y-83162404D01*
X164703394Y-83080912D01*
X164767952Y-83024468D01*
X164851560Y-82990601D01*
X164954219Y-82979312D01*
X165056877Y-82990601D01*
X165140485Y-83024468D01*
X165205044Y-83080912D01*
X165250905Y-83162404D01*
X165278422Y-83271412D01*
X165287594Y-83407937D01*
X165278422Y-83544462D01*
X165250905Y-83653471D01*
X165205044Y-83734963D01*
X165140485Y-83791407D01*
X165056877Y-83825274D01*
X164954219Y-83836562D01*
X164851560Y-83825274D01*
X164767952Y-83791407D01*
G37*
G36*
X171785231Y-83404762D02*
G01*
X171788921Y-83344438D01*
X171956681Y-83344438D01*
X172239256Y-83344438D01*
X172225763Y-83230138D01*
X172197981Y-83157112D01*
X172153928Y-83117822D01*
X172091619Y-83104725D01*
X171991606Y-83159494D01*
X171966206Y-83233114D01*
X171956681Y-83344438D01*
X171788921Y-83344438D01*
X171793522Y-83269208D01*
X171818392Y-83160993D01*
X171859844Y-83080119D01*
X171918228Y-83024115D01*
X171993899Y-82990513D01*
X172086856Y-82979312D01*
X172188721Y-82991219D01*
X172272065Y-83026937D01*
X172336888Y-83086469D01*
X172383190Y-83169812D01*
X172410971Y-83276969D01*
X172420231Y-83407937D01*
X172410089Y-83538906D01*
X172379662Y-83646062D01*
X172328950Y-83729406D01*
X172257953Y-83788937D01*
X172166672Y-83824656D01*
X172055106Y-83836562D01*
X171944378Y-83826641D01*
X171828094Y-83796875D01*
X171828094Y-83665113D01*
X171936838Y-83697259D01*
X172034469Y-83707975D01*
X172119598Y-83694283D01*
X172181313Y-83653206D01*
X172220802Y-83579586D01*
X172239256Y-83468263D01*
X171788406Y-83468263D01*
X171785231Y-83404762D01*
G37*
G36*
X160672731Y-83404762D02*
G01*
X160676421Y-83344438D01*
X160844181Y-83344438D01*
X161126756Y-83344438D01*
X161113263Y-83230138D01*
X161085481Y-83157112D01*
X161041428Y-83117822D01*
X160979119Y-83104725D01*
X160879106Y-83159494D01*
X160853706Y-83233114D01*
X160844181Y-83344438D01*
X160676421Y-83344438D01*
X160681022Y-83269208D01*
X160705892Y-83160993D01*
X160747344Y-83080119D01*
X160805728Y-83024115D01*
X160881399Y-82990513D01*
X160974356Y-82979312D01*
X161076221Y-82991219D01*
X161159565Y-83026937D01*
X161224388Y-83086469D01*
X161270690Y-83169812D01*
X161298471Y-83276969D01*
X161307731Y-83407937D01*
X161300280Y-83521654D01*
X161277925Y-83617876D01*
X161240667Y-83696603D01*
X161188507Y-83757835D01*
X161121443Y-83801573D01*
X161039476Y-83827815D01*
X160942606Y-83836562D01*
X160831878Y-83826641D01*
X160715594Y-83796875D01*
X160715594Y-83665113D01*
X160824338Y-83697259D01*
X160921969Y-83707975D01*
X161007098Y-83694283D01*
X161068813Y-83653206D01*
X161108302Y-83579586D01*
X161126756Y-83468263D01*
X160675906Y-83468263D01*
X160672731Y-83404762D01*
G37*
G36*
X155116481Y-83404762D02*
G01*
X155120171Y-83344438D01*
X155287931Y-83344438D01*
X155570506Y-83344438D01*
X155557013Y-83230138D01*
X155529231Y-83157112D01*
X155485178Y-83117822D01*
X155422869Y-83104725D01*
X155322856Y-83159494D01*
X155297456Y-83233114D01*
X155287931Y-83344438D01*
X155120171Y-83344438D01*
X155124772Y-83269208D01*
X155149642Y-83160993D01*
X155191094Y-83080119D01*
X155249478Y-83024115D01*
X155325149Y-82990513D01*
X155418106Y-82979312D01*
X155519971Y-82991219D01*
X155603315Y-83026937D01*
X155668137Y-83086469D01*
X155714440Y-83169812D01*
X155742221Y-83276969D01*
X155751481Y-83407937D01*
X155744030Y-83521654D01*
X155721675Y-83617876D01*
X155684417Y-83696603D01*
X155632257Y-83757835D01*
X155565193Y-83801573D01*
X155483226Y-83827815D01*
X155386356Y-83836562D01*
X155275628Y-83826641D01*
X155159344Y-83796875D01*
X155159344Y-83665113D01*
X155268088Y-83697259D01*
X155365719Y-83707975D01*
X155450848Y-83694283D01*
X155512563Y-83653206D01*
X155552052Y-83579586D01*
X155570506Y-83468263D01*
X155119656Y-83468263D01*
X155116481Y-83404762D01*
G37*
G36*
X162368005Y-83813985D02*
G01*
X162279281Y-83785763D01*
X162279281Y-83692100D01*
X162452319Y-83692100D01*
X162557094Y-83712737D01*
X162672981Y-83675431D01*
X162714256Y-83569862D01*
X162701358Y-83498028D01*
X162662663Y-83447625D01*
X162595392Y-83417859D01*
X162496769Y-83407937D01*
X162452319Y-83407937D01*
X162452319Y-83692100D01*
X162279281Y-83692100D01*
X162279281Y-83293637D01*
X162286072Y-83182512D01*
X162306445Y-83098904D01*
X162340400Y-83042812D01*
X162429895Y-82995187D01*
X162576144Y-82979312D01*
X162661516Y-82984957D01*
X162750416Y-83001890D01*
X162842844Y-83030112D01*
X162842844Y-83166637D01*
X162750769Y-83134887D01*
X162665044Y-83115837D01*
X162585669Y-83109487D01*
X162476925Y-83138856D01*
X162452319Y-83261887D01*
X162452319Y-83288875D01*
X162496769Y-83288875D01*
X162615038Y-83296901D01*
X162711610Y-83320978D01*
X162786488Y-83361106D01*
X162858520Y-83449411D01*
X162882531Y-83569862D01*
X162861298Y-83682575D01*
X162797600Y-83766713D01*
X162733130Y-83805518D01*
X162652961Y-83828801D01*
X162557094Y-83836562D01*
X162460609Y-83830918D01*
X162368005Y-83813985D01*
G37*
G36*
X175861755Y-83813985D02*
G01*
X175773031Y-83785763D01*
X175773031Y-83692100D01*
X175946069Y-83692100D01*
X176050844Y-83712737D01*
X176166731Y-83675431D01*
X176208006Y-83569862D01*
X176195108Y-83498028D01*
X176156413Y-83447625D01*
X176089142Y-83417859D01*
X175990519Y-83407937D01*
X175946069Y-83407937D01*
X175946069Y-83692100D01*
X175773031Y-83692100D01*
X175773031Y-83293637D01*
X175779822Y-83182512D01*
X175800195Y-83098904D01*
X175834150Y-83042812D01*
X175923645Y-82995187D01*
X176069894Y-82979312D01*
X176155266Y-82984957D01*
X176244166Y-83001890D01*
X176336594Y-83030112D01*
X176336594Y-83166637D01*
X176244519Y-83134887D01*
X176158794Y-83115837D01*
X176079419Y-83109487D01*
X175970675Y-83138856D01*
X175946069Y-83261887D01*
X175946069Y-83288875D01*
X175990519Y-83288875D01*
X176108788Y-83296901D01*
X176205360Y-83320978D01*
X176280238Y-83361106D01*
X176352270Y-83449411D01*
X176376281Y-83569862D01*
X176355048Y-83682575D01*
X176291350Y-83766713D01*
X176226880Y-83805518D01*
X176146711Y-83828801D01*
X176050844Y-83836562D01*
X175954359Y-83830918D01*
X175861755Y-83813985D01*
G37*
G36*
X141264750Y-82994195D02*
G01*
X141357619Y-83038844D01*
X141413578Y-83111273D01*
X141432231Y-83209500D01*
X141416356Y-83300980D01*
X141368731Y-83372219D01*
X141283403Y-83427583D01*
X141154419Y-83471437D01*
X141049644Y-83519062D01*
X141021069Y-83598438D01*
X141057581Y-83681781D01*
X141178231Y-83707975D01*
X141297691Y-83692497D01*
X141424294Y-83646062D01*
X141424294Y-83785763D01*
X141339627Y-83813985D01*
X141248610Y-83830918D01*
X141151244Y-83836562D01*
X141021664Y-83821084D01*
X140925025Y-83774650D01*
X140864898Y-83699641D01*
X140844856Y-83598438D01*
X140860136Y-83496837D01*
X140905975Y-83423812D01*
X140993883Y-83369838D01*
X141135369Y-83325387D01*
X141229825Y-83280937D01*
X141257606Y-83209500D01*
X141223078Y-83132109D01*
X141119494Y-83106312D01*
X140998844Y-83116234D01*
X140871844Y-83146000D01*
X140871844Y-83014237D01*
X140954747Y-82994835D01*
X141042588Y-82983193D01*
X141135369Y-82979312D01*
X141264750Y-82994195D01*
G37*
G36*
X169839750Y-82994195D02*
G01*
X169932619Y-83038844D01*
X169988578Y-83111273D01*
X170007231Y-83209500D01*
X169991356Y-83300980D01*
X169943731Y-83372219D01*
X169858403Y-83427583D01*
X169729419Y-83471437D01*
X169624644Y-83519062D01*
X169596069Y-83598438D01*
X169632581Y-83681781D01*
X169753231Y-83707975D01*
X169872691Y-83692497D01*
X169999294Y-83646062D01*
X169999294Y-83785763D01*
X169914627Y-83813985D01*
X169823610Y-83830918D01*
X169726244Y-83836562D01*
X169596664Y-83821084D01*
X169500025Y-83774650D01*
X169439898Y-83699641D01*
X169419856Y-83598438D01*
X169435136Y-83496837D01*
X169480975Y-83423812D01*
X169568883Y-83369838D01*
X169710369Y-83325387D01*
X169804825Y-83280937D01*
X169832606Y-83209500D01*
X169798078Y-83132109D01*
X169694494Y-83106312D01*
X169573844Y-83116234D01*
X169446844Y-83146000D01*
X169446844Y-83014237D01*
X169529747Y-82994835D01*
X169617588Y-82983193D01*
X169710369Y-82979312D01*
X169839750Y-82994195D01*
G37*
G36*
X167461410Y-82986721D02*
G01*
X167554015Y-83008946D01*
X167637094Y-83045987D01*
X167637094Y-83820688D01*
X167462469Y-83820688D01*
X167462469Y-83144412D01*
X167354519Y-83109487D01*
X167237044Y-83141237D01*
X167205294Y-83257125D01*
X167205294Y-83820688D01*
X167033844Y-83820688D01*
X167033844Y-83265062D01*
X167050314Y-83124172D01*
X167099725Y-83038050D01*
X167157845Y-83005418D01*
X167244364Y-82985839D01*
X167359281Y-82979312D01*
X167461410Y-82986721D01*
G37*
G36*
X171336520Y-82988060D02*
G01*
X171420268Y-83014302D01*
X171488790Y-83058040D01*
X171542085Y-83119272D01*
X171580152Y-83197999D01*
X171602993Y-83294221D01*
X171610606Y-83407937D01*
X171599670Y-83538112D01*
X171566862Y-83645004D01*
X171512181Y-83728613D01*
X171437569Y-83788585D01*
X171344965Y-83824568D01*
X171234369Y-83836562D01*
X171134753Y-83826641D01*
X171039106Y-83796875D01*
X171039106Y-83666700D01*
X171128006Y-83701228D01*
X171213731Y-83712737D01*
X171304616Y-83693687D01*
X171374069Y-83636538D01*
X171418122Y-83541287D01*
X171432806Y-83407937D01*
X171420106Y-83278358D01*
X171382006Y-83184894D01*
X171321284Y-83128339D01*
X171240719Y-83109487D01*
X171197856Y-83114250D01*
X171197856Y-83296812D01*
X171031169Y-83296812D01*
X171031169Y-83011062D01*
X171128800Y-82987250D01*
X171237544Y-82979312D01*
X171336520Y-82988060D01*
G37*
G36*
X156255270Y-82988060D02*
G01*
X156339018Y-83014302D01*
X156407540Y-83058040D01*
X156460835Y-83119272D01*
X156498902Y-83197999D01*
X156521743Y-83294221D01*
X156529356Y-83407937D01*
X156518420Y-83538112D01*
X156485612Y-83645004D01*
X156430931Y-83728613D01*
X156356319Y-83788585D01*
X156263715Y-83824568D01*
X156153119Y-83836562D01*
X156053503Y-83826641D01*
X155957856Y-83796875D01*
X155957856Y-83666700D01*
X156046756Y-83701228D01*
X156132481Y-83712737D01*
X156223366Y-83693687D01*
X156292819Y-83636538D01*
X156336872Y-83541287D01*
X156351556Y-83407937D01*
X156338856Y-83278358D01*
X156300756Y-83184894D01*
X156240034Y-83128339D01*
X156159469Y-83109487D01*
X156116606Y-83114250D01*
X156116606Y-83296812D01*
X155949919Y-83296812D01*
X155949919Y-83011062D01*
X156047550Y-82987250D01*
X156156294Y-82979312D01*
X156255270Y-82988060D01*
G37*
G36*
X157689819Y-83674638D02*
G01*
X157797769Y-83706387D01*
X157904925Y-83675431D01*
X157934294Y-83558750D01*
X157934294Y-82995187D01*
X158104156Y-82995187D01*
X158104156Y-83558750D01*
X158087884Y-83693687D01*
X158039069Y-83777825D01*
X157982977Y-83810457D01*
X157901485Y-83830036D01*
X157794594Y-83836562D01*
X157692465Y-83829154D01*
X157599860Y-83806929D01*
X157516781Y-83769887D01*
X157516781Y-82995187D01*
X157691406Y-82995187D01*
X157689819Y-83674638D01*
G37*
G36*
X156844062Y-82982614D02*
G01*
X156950615Y-82992520D01*
X157055390Y-83009030D01*
X157158387Y-83032144D01*
X157259606Y-83061862D01*
X157259606Y-83820688D01*
X157084981Y-83820688D01*
X157086569Y-83157112D01*
X156974209Y-83131536D01*
X156857263Y-83116190D01*
X156735731Y-83111075D01*
X156735731Y-82979312D01*
X156844062Y-82982614D01*
G37*
G36*
X172719062Y-82982614D02*
G01*
X172825615Y-82992520D01*
X172930390Y-83009030D01*
X173033387Y-83032144D01*
X173134606Y-83061862D01*
X173134606Y-83820688D01*
X172959981Y-83820688D01*
X172961569Y-83157112D01*
X172849209Y-83131536D01*
X172732263Y-83116190D01*
X172610731Y-83111075D01*
X172610731Y-82979312D01*
X172719062Y-82982614D01*
G37*
G36*
X142181531Y-83123775D02*
G01*
X141970394Y-83123775D01*
X141970394Y-83820688D01*
X141792594Y-83820688D01*
X141792594Y-82995187D01*
X142181531Y-82995187D01*
X142181531Y-83123775D01*
G37*
G36*
X170756531Y-83123775D02*
G01*
X170545394Y-83123775D01*
X170545394Y-83820688D01*
X170367594Y-83820688D01*
X170367594Y-82995187D01*
X170756531Y-82995187D01*
X170756531Y-83123775D01*
G37*
G36*
X169169031Y-83123775D02*
G01*
X168957894Y-83123775D01*
X168957894Y-83820688D01*
X168780094Y-83820688D01*
X168780094Y-82995187D01*
X169169031Y-82995187D01*
X169169031Y-83123775D01*
G37*
G36*
X151785906Y-84066750D02*
G01*
X151135031Y-84066750D01*
X151135031Y-83952450D01*
X151785906Y-83952450D01*
X151785906Y-84066750D01*
G37*
G36*
X174717344Y-83417462D02*
G01*
X174241094Y-83417462D01*
X174241094Y-83285700D01*
X174717344Y-83285700D01*
X174717344Y-83417462D01*
G37*
G36*
X149996794Y-83820688D02*
G01*
X149742794Y-83820688D01*
X149742794Y-83550813D01*
X149996794Y-83550813D01*
X149996794Y-83820688D01*
G37*
G36*
X142002144Y-82812625D02*
G01*
X141792594Y-82812625D01*
X141792594Y-82614187D01*
X142002144Y-82614187D01*
X142002144Y-82812625D01*
G37*
G36*
X170577144Y-82812625D02*
G01*
X170367594Y-82812625D01*
X170367594Y-82614187D01*
X170577144Y-82614187D01*
X170577144Y-82812625D01*
G37*
G36*
X168989644Y-82812625D02*
G01*
X168780094Y-82812625D01*
X168780094Y-82614187D01*
X168989644Y-82614187D01*
X168989644Y-82812625D01*
G37*
%TO.C,kibuzzard-63418876*%
G36*
X126158146Y-87807333D02*
G01*
X127041854Y-87807333D01*
X127041854Y-88992667D01*
X126158146Y-88992667D01*
X126158146Y-88487313D01*
X126290438Y-88487313D01*
X126909563Y-88860375D01*
X126909563Y-88701625D01*
X126393625Y-88401587D01*
X126393625Y-88398412D01*
X126909563Y-88098375D01*
X126909563Y-87939625D01*
X126290438Y-88312687D01*
X126290438Y-88487313D01*
X126158146Y-88487313D01*
X126158146Y-87807333D01*
G37*
%TO.C,kibuzzard-63418870*%
G36*
X129744905Y-88612012D02*
G01*
X137055095Y-88612012D01*
X137055095Y-99987988D01*
X129744905Y-99987988D01*
X129744905Y-99114371D01*
X130399595Y-99114371D01*
X130557607Y-99114371D01*
X130557607Y-98883999D01*
X130591572Y-98878092D01*
X130668658Y-98894454D01*
X130728614Y-98943541D01*
X130771439Y-99025353D01*
X130797135Y-99139889D01*
X130805700Y-99287150D01*
X130799136Y-99422067D01*
X130779446Y-99532453D01*
X130746630Y-99618310D01*
X130700687Y-99679635D01*
X130641617Y-99716431D01*
X130569421Y-99728696D01*
X130491153Y-99717251D01*
X130406979Y-99682917D01*
X130406979Y-99818778D01*
X130495953Y-99846467D01*
X130594525Y-99855696D01*
X130682092Y-99846813D01*
X130757982Y-99820162D01*
X130822198Y-99775744D01*
X130874737Y-99713560D01*
X130915602Y-99633608D01*
X130944790Y-99535889D01*
X130962304Y-99420403D01*
X130968142Y-99287150D01*
X130960607Y-99144147D01*
X130955045Y-99114371D01*
X131137967Y-99114371D01*
X131295979Y-99114371D01*
X131295979Y-98883999D01*
X131329944Y-98878092D01*
X131407030Y-98894454D01*
X131466986Y-98943541D01*
X131509811Y-99025353D01*
X131535507Y-99139889D01*
X131544072Y-99287150D01*
X131537508Y-99422067D01*
X131517819Y-99532453D01*
X131485002Y-99618310D01*
X131439059Y-99679635D01*
X131379989Y-99716431D01*
X131307793Y-99728696D01*
X131229525Y-99717251D01*
X131145351Y-99682917D01*
X131145351Y-99818778D01*
X131234325Y-99846467D01*
X131332897Y-99855696D01*
X131420464Y-99846813D01*
X131496354Y-99820162D01*
X131560570Y-99775744D01*
X131613110Y-99713560D01*
X131653974Y-99633608D01*
X131683163Y-99535889D01*
X131700676Y-99420403D01*
X131706514Y-99287150D01*
X131698979Y-99144147D01*
X131676376Y-99023144D01*
X131670455Y-99007584D01*
X131638704Y-98924142D01*
X131609968Y-98882187D01*
X131585963Y-98847140D01*
X131518153Y-98792139D01*
X131444738Y-98762906D01*
X131806932Y-98762906D01*
X132047642Y-99840929D01*
X132239618Y-99840929D01*
X132400854Y-99114371D01*
X134829828Y-99114371D01*
X134987839Y-99114371D01*
X134987839Y-98883999D01*
X135021804Y-98878092D01*
X135098890Y-98894454D01*
X135158846Y-98943541D01*
X135201672Y-99025353D01*
X135227367Y-99139889D01*
X135235932Y-99287150D01*
X135229369Y-99422067D01*
X135209679Y-99532453D01*
X135176862Y-99618310D01*
X135130919Y-99679635D01*
X135071850Y-99716431D01*
X134999653Y-99728696D01*
X134921386Y-99717251D01*
X134837211Y-99682917D01*
X134837211Y-99818778D01*
X134926185Y-99846467D01*
X135024758Y-99855696D01*
X135112324Y-99846813D01*
X135188215Y-99820162D01*
X135252430Y-99775744D01*
X135304970Y-99713560D01*
X135345834Y-99633608D01*
X135375023Y-99535889D01*
X135392536Y-99420403D01*
X135398374Y-99287150D01*
X135390840Y-99144147D01*
X135385278Y-99114371D01*
X135568200Y-99114371D01*
X135726211Y-99114371D01*
X135726211Y-98883999D01*
X135760176Y-98878092D01*
X135837262Y-98894454D01*
X135897218Y-98943541D01*
X135940044Y-99025353D01*
X135965739Y-99139889D01*
X135974304Y-99287150D01*
X135967741Y-99422067D01*
X135948051Y-99532453D01*
X135915235Y-99618310D01*
X135869291Y-99679635D01*
X135810222Y-99716431D01*
X135738025Y-99728696D01*
X135659758Y-99717251D01*
X135575583Y-99682917D01*
X135575583Y-99818778D01*
X135664557Y-99846467D01*
X135763130Y-99855696D01*
X135850696Y-99846813D01*
X135926587Y-99820162D01*
X135990802Y-99775744D01*
X136043342Y-99713560D01*
X136084206Y-99633608D01*
X136113395Y-99535889D01*
X136130908Y-99420403D01*
X136136746Y-99287150D01*
X136129212Y-99144147D01*
X136106609Y-99023144D01*
X136102892Y-99013378D01*
X136068936Y-98924142D01*
X136016196Y-98847140D01*
X135948386Y-98792139D01*
X135874970Y-98762906D01*
X136237165Y-98762906D01*
X136477874Y-99840929D01*
X136669851Y-99840929D01*
X136909083Y-98762906D01*
X136739258Y-98762906D01*
X136570909Y-99693254D01*
X136569432Y-99693254D01*
X136514744Y-99391030D01*
X136401083Y-98762906D01*
X136237165Y-98762906D01*
X135874970Y-98762906D01*
X135865507Y-98759138D01*
X135767560Y-98748138D01*
X135662342Y-98756260D01*
X135568200Y-98780626D01*
X135568200Y-99114371D01*
X135385278Y-99114371D01*
X135368236Y-99023144D01*
X135330564Y-98924142D01*
X135277824Y-98847140D01*
X135210014Y-98792139D01*
X135130923Y-98760647D01*
X135127135Y-98759138D01*
X135029188Y-98748138D01*
X134923970Y-98756260D01*
X134829828Y-98780626D01*
X134829828Y-99114371D01*
X132400854Y-99114371D01*
X132478851Y-98762906D01*
X132309025Y-98762906D01*
X132140676Y-99693254D01*
X132139200Y-99693254D01*
X132021819Y-99044574D01*
X131970851Y-98762906D01*
X131806932Y-98762906D01*
X131444738Y-98762906D01*
X131435275Y-98759138D01*
X131337328Y-98748138D01*
X131232110Y-98756260D01*
X131137967Y-98780626D01*
X131137967Y-99114371D01*
X130955045Y-99114371D01*
X130938004Y-99023144D01*
X130900332Y-98924142D01*
X130847591Y-98847140D01*
X130779781Y-98792139D01*
X130696903Y-98759138D01*
X130637999Y-98752523D01*
X130598955Y-98748138D01*
X130493737Y-98756260D01*
X130399595Y-98780626D01*
X130399595Y-99114371D01*
X129744905Y-99114371D01*
X129744905Y-97294938D01*
X130244119Y-97294938D01*
X130249028Y-97430558D01*
X130263755Y-97545876D01*
X130288299Y-97640893D01*
X130342402Y-97749285D01*
X130416348Y-97819862D01*
X130513694Y-97858613D01*
X130637999Y-97871530D01*
X130760431Y-97864042D01*
X130873128Y-97841577D01*
X130873128Y-96778252D01*
X130795000Y-96763275D01*
X131040864Y-96763275D01*
X131040864Y-97856554D01*
X131208600Y-97856554D01*
X131442232Y-97062804D01*
X131445227Y-97062804D01*
X131445227Y-97856554D01*
X131609968Y-97856554D01*
X131609968Y-97819113D01*
X131767220Y-97819113D01*
X131847427Y-97848234D01*
X131932294Y-97865706D01*
X132021819Y-97871530D01*
X132109572Y-97862638D01*
X132185624Y-97835961D01*
X132249976Y-97791500D01*
X132302627Y-97729254D01*
X132343578Y-97649224D01*
X132372829Y-97551409D01*
X132390380Y-97435810D01*
X132396230Y-97302426D01*
X132395877Y-97294938D01*
X134737043Y-97294938D01*
X134741952Y-97430558D01*
X134756679Y-97545876D01*
X134781224Y-97640893D01*
X134835326Y-97749285D01*
X134909272Y-97819862D01*
X135006619Y-97858613D01*
X135130923Y-97871530D01*
X135253355Y-97864042D01*
X135290919Y-97856554D01*
X135533789Y-97856554D01*
X135701525Y-97856554D01*
X135935157Y-97062804D01*
X135938152Y-97062804D01*
X135938152Y-97856554D01*
X136102892Y-97856554D01*
X136102892Y-97819113D01*
X136260145Y-97819113D01*
X136340352Y-97848234D01*
X136425218Y-97865706D01*
X136514744Y-97871530D01*
X136602496Y-97862638D01*
X136678548Y-97835961D01*
X136742900Y-97791500D01*
X136795552Y-97729254D01*
X136836503Y-97649224D01*
X136865754Y-97551409D01*
X136883304Y-97435810D01*
X136889154Y-97302426D01*
X136882836Y-97168294D01*
X136863882Y-97053444D01*
X136832291Y-96957875D01*
X136788063Y-96881589D01*
X136709437Y-96807539D01*
X136608347Y-96763109D01*
X136484791Y-96748299D01*
X136482276Y-96748516D01*
X136389316Y-96756536D01*
X136297586Y-96781247D01*
X136297586Y-96916035D01*
X136393061Y-96889077D01*
X136484791Y-96880092D01*
X136591498Y-96903867D01*
X136666006Y-96975192D01*
X136698455Y-97053818D01*
X136717924Y-97162896D01*
X136724414Y-97302426D01*
X136718257Y-97445202D01*
X136699786Y-97558024D01*
X136669001Y-97640893D01*
X136601607Y-97717273D01*
X136510251Y-97742733D01*
X136420392Y-97724761D01*
X136420392Y-97332379D01*
X136609095Y-97332379D01*
X136609095Y-97205080D01*
X136260145Y-97205080D01*
X136260145Y-97819113D01*
X136102892Y-97819113D01*
X136102892Y-96763275D01*
X135929166Y-96763275D01*
X135695534Y-97557025D01*
X135691041Y-97557025D01*
X135691041Y-96763275D01*
X135533789Y-96763275D01*
X135533789Y-97856554D01*
X135290919Y-97856554D01*
X135366053Y-97841577D01*
X135366053Y-96778252D01*
X135248862Y-96755787D01*
X135130923Y-96748299D01*
X135004206Y-96761861D01*
X134969730Y-96775806D01*
X134903614Y-96802547D01*
X134829148Y-96870357D01*
X134788852Y-96942665D01*
X134760070Y-97037531D01*
X134742800Y-97154956D01*
X134737043Y-97294938D01*
X132395877Y-97294938D01*
X132389912Y-97168294D01*
X132370957Y-97053444D01*
X132339366Y-96957875D01*
X132295139Y-96881589D01*
X132216513Y-96807539D01*
X132115422Y-96763109D01*
X132027158Y-96752529D01*
X131991867Y-96748299D01*
X131896392Y-96756536D01*
X131804661Y-96781247D01*
X131804661Y-96916035D01*
X131900136Y-96889077D01*
X131991867Y-96880092D01*
X132098574Y-96903867D01*
X132173081Y-96975192D01*
X132205530Y-97053818D01*
X132224999Y-97162896D01*
X132231489Y-97302426D01*
X132225332Y-97445202D01*
X132206861Y-97558024D01*
X132176076Y-97640893D01*
X132108683Y-97717273D01*
X132017326Y-97742733D01*
X131927468Y-97724761D01*
X131927468Y-97332379D01*
X132116171Y-97332379D01*
X132116171Y-97205080D01*
X131767220Y-97205080D01*
X131767220Y-97819113D01*
X131609968Y-97819113D01*
X131609968Y-96763275D01*
X131436242Y-96763275D01*
X131202609Y-97557025D01*
X131198117Y-97557025D01*
X131198117Y-96763275D01*
X131040864Y-96763275D01*
X130795000Y-96763275D01*
X130755938Y-96755787D01*
X130637999Y-96748299D01*
X130600687Y-96752292D01*
X130511282Y-96761861D01*
X130410690Y-96802547D01*
X130336224Y-96870357D01*
X130295928Y-96942665D01*
X130267145Y-97037531D01*
X130249875Y-97154956D01*
X130244119Y-97294938D01*
X129744905Y-97294938D01*
X129744905Y-95872179D01*
X130147983Y-95872179D01*
X130331799Y-95872179D01*
X130597648Y-95340480D01*
X130600687Y-95340480D01*
X130600687Y-95872179D01*
X130770830Y-95872179D01*
X130770830Y-95124763D01*
X130971356Y-95124763D01*
X131133904Y-95124763D01*
X131133904Y-94887777D01*
X131168844Y-94881700D01*
X131248144Y-94898532D01*
X131309821Y-94949029D01*
X131353876Y-95033189D01*
X131380309Y-95151013D01*
X131389120Y-95302502D01*
X131382368Y-95441292D01*
X131362113Y-95554848D01*
X131328354Y-95643169D01*
X131281092Y-95706255D01*
X131220326Y-95744107D01*
X131146057Y-95756724D01*
X131065543Y-95744951D01*
X130978952Y-95709631D01*
X130978952Y-95849392D01*
X131070480Y-95877876D01*
X131171883Y-95887370D01*
X131261963Y-95878232D01*
X131340032Y-95850816D01*
X131406091Y-95805123D01*
X131460139Y-95741153D01*
X131502177Y-95658906D01*
X131524688Y-95583542D01*
X131700543Y-95583542D01*
X131713608Y-95692920D01*
X131752801Y-95777992D01*
X131818124Y-95838758D01*
X131909577Y-95875217D01*
X132027158Y-95887370D01*
X132121344Y-95879268D01*
X132207429Y-95854962D01*
X132285411Y-95814452D01*
X132285411Y-95656461D01*
X132205235Y-95711319D01*
X132120669Y-95744234D01*
X132031715Y-95755205D01*
X131964114Y-95744761D01*
X131913222Y-95713429D01*
X131881321Y-95661968D01*
X131870687Y-95591138D01*
X131903348Y-95469607D01*
X131946833Y-95425172D01*
X132011966Y-95386054D01*
X132105056Y-95337442D01*
X132177721Y-95286804D01*
X132229963Y-95234141D01*
X132277246Y-95144511D01*
X132280132Y-95124763D01*
X134769203Y-95124763D01*
X134931751Y-95124763D01*
X134931751Y-94887777D01*
X134966691Y-94881700D01*
X135045990Y-94898532D01*
X135107667Y-94949029D01*
X135151722Y-95033189D01*
X135178155Y-95151013D01*
X135186966Y-95302502D01*
X135180215Y-95441292D01*
X135159960Y-95554848D01*
X135126201Y-95643169D01*
X135078939Y-95706255D01*
X135018173Y-95744107D01*
X134943904Y-95756724D01*
X134863390Y-95744951D01*
X134776799Y-95709631D01*
X134776799Y-95849392D01*
X134868327Y-95877876D01*
X134969730Y-95887370D01*
X135059810Y-95878232D01*
X135077046Y-95872179D01*
X135513581Y-95872179D01*
X135683725Y-95872179D01*
X135920710Y-95067035D01*
X135923749Y-95067035D01*
X135923749Y-95872179D01*
X136090854Y-95872179D01*
X136090854Y-94763207D01*
X135914634Y-94763207D01*
X135677648Y-95568351D01*
X135673091Y-95568351D01*
X135673091Y-94763207D01*
X135513581Y-94763207D01*
X135513581Y-95872179D01*
X135077046Y-95872179D01*
X135137879Y-95850816D01*
X135203938Y-95805123D01*
X135257986Y-95741153D01*
X135300024Y-95658906D01*
X135330050Y-95558382D01*
X135348066Y-95439580D01*
X135354072Y-95302502D01*
X135348138Y-95172544D01*
X135330335Y-95059914D01*
X135300665Y-94964612D01*
X135259126Y-94886638D01*
X135205718Y-94825991D01*
X135140443Y-94782671D01*
X135132130Y-94779871D01*
X135063299Y-94756680D01*
X134974287Y-94748016D01*
X134866048Y-94756371D01*
X134769203Y-94781437D01*
X134769203Y-95124763D01*
X132280132Y-95124763D01*
X132293007Y-95036652D01*
X132273068Y-94915121D01*
X132213252Y-94823973D01*
X132116597Y-94767005D01*
X131986141Y-94748016D01*
X131854736Y-94759410D01*
X131730926Y-94793590D01*
X131730926Y-94945504D01*
X131848279Y-94896512D01*
X131966392Y-94880181D01*
X132032855Y-94890056D01*
X132083366Y-94919679D01*
X132125902Y-95029057D01*
X132095519Y-95138815D01*
X132004371Y-95212873D01*
X131900901Y-95265030D01*
X131821399Y-95318200D01*
X131765866Y-95372382D01*
X131716874Y-95466189D01*
X131700543Y-95583542D01*
X131524688Y-95583542D01*
X131532203Y-95558382D01*
X131550220Y-95439580D01*
X131556225Y-95302502D01*
X131550291Y-95172544D01*
X131532488Y-95059914D01*
X131502818Y-94964612D01*
X131461279Y-94886638D01*
X131407871Y-94825991D01*
X131342596Y-94782671D01*
X131265452Y-94756680D01*
X131184958Y-94748845D01*
X131176440Y-94748016D01*
X131068202Y-94756371D01*
X130971356Y-94781437D01*
X130971356Y-95124763D01*
X130770830Y-95124763D01*
X130770830Y-94763207D01*
X130600687Y-94763207D01*
X130600687Y-95249332D01*
X130597648Y-95249332D01*
X130391208Y-94863010D01*
X130337876Y-94763207D01*
X130155579Y-94763207D01*
X130445734Y-95291868D01*
X130147983Y-95872179D01*
X129744905Y-95872179D01*
X129744905Y-93325243D01*
X130052130Y-93325243D01*
X130056326Y-93460189D01*
X130068913Y-93575270D01*
X130089891Y-93670486D01*
X130136321Y-93779530D01*
X130200091Y-93850813D01*
X130284090Y-93890116D01*
X130391208Y-93903216D01*
X130498325Y-93890116D01*
X130582324Y-93850813D01*
X130646094Y-93779530D01*
X130692524Y-93670486D01*
X130709164Y-93594964D01*
X130853586Y-93594964D01*
X130866841Y-93705935D01*
X130906606Y-93792246D01*
X130972880Y-93853896D01*
X131065664Y-93890886D01*
X131184958Y-93903216D01*
X131280516Y-93894996D01*
X131367854Y-93870336D01*
X131446972Y-93829236D01*
X131446972Y-93668945D01*
X131365628Y-93724601D01*
X131279831Y-93757995D01*
X131189581Y-93769127D01*
X131120995Y-93758530D01*
X131069363Y-93726742D01*
X131036996Y-93674532D01*
X131026208Y-93602670D01*
X131034492Y-93534084D01*
X131059345Y-93479369D01*
X131103463Y-93434287D01*
X131169545Y-93394600D01*
X131263990Y-93345280D01*
X131337714Y-93293904D01*
X131390716Y-93240474D01*
X131438688Y-93149539D01*
X131454679Y-93040110D01*
X131434449Y-92916809D01*
X131373762Y-92824333D01*
X131275699Y-92766536D01*
X131249223Y-92762682D01*
X131670455Y-92762682D01*
X131670455Y-92896772D01*
X131843077Y-92896772D01*
X131843077Y-93753714D01*
X131670455Y-93753714D01*
X131670455Y-93887804D01*
X132194484Y-93887804D01*
X132353234Y-93887804D01*
X132518149Y-93887804D01*
X132541268Y-92932221D01*
X132542810Y-92932221D01*
X132638368Y-93625789D01*
X132784788Y-93625789D01*
X132872640Y-92932221D01*
X132877263Y-92932221D01*
X132903465Y-93887804D01*
X133054509Y-93887804D01*
X134672834Y-93887804D01*
X134859327Y-93887804D01*
X135129047Y-93348362D01*
X135132130Y-93348362D01*
X135132130Y-93887804D01*
X135304751Y-93887804D01*
X135304751Y-93753714D01*
X135492785Y-93753714D01*
X135492785Y-93887804D01*
X136024521Y-93887804D01*
X136024521Y-93129503D01*
X136278829Y-93129503D01*
X136443744Y-93129503D01*
X136443744Y-92889066D01*
X136479193Y-92882901D01*
X136559647Y-92899978D01*
X136622222Y-92951210D01*
X136666919Y-93036596D01*
X136693737Y-93156136D01*
X136702676Y-93309830D01*
X136695826Y-93450642D01*
X136675276Y-93565851D01*
X136641026Y-93655459D01*
X136593075Y-93719464D01*
X136531425Y-93757867D01*
X136456074Y-93770668D01*
X136374387Y-93758723D01*
X136286535Y-93722889D01*
X136286535Y-93864685D01*
X136379396Y-93893584D01*
X136482276Y-93903216D01*
X136573668Y-93893945D01*
X136652874Y-93866130D01*
X136719895Y-93819772D01*
X136774730Y-93754870D01*
X136817380Y-93671425D01*
X136847844Y-93569437D01*
X136866122Y-93448905D01*
X136872215Y-93309830D01*
X136866194Y-93177980D01*
X136848133Y-93063710D01*
X136818030Y-92967020D01*
X136775886Y-92887910D01*
X136721701Y-92826380D01*
X136655475Y-92782430D01*
X136577208Y-92756060D01*
X136486899Y-92747270D01*
X136377084Y-92755747D01*
X136278829Y-92781178D01*
X136278829Y-93129503D01*
X136024521Y-93129503D01*
X136024521Y-92762682D01*
X135851899Y-92762682D01*
X135851899Y-93753714D01*
X135492785Y-93753714D01*
X135304751Y-93753714D01*
X135304751Y-92762682D01*
X135132130Y-92762682D01*
X135132130Y-93255886D01*
X135129047Y-93255886D01*
X134911449Y-92848684D01*
X134865492Y-92762682D01*
X134680540Y-92762682D01*
X134974921Y-93299042D01*
X134672834Y-93887804D01*
X133054509Y-93887804D01*
X132995941Y-92762682D01*
X132794035Y-92762682D01*
X132700018Y-93479369D01*
X132696936Y-93479369D01*
X132604460Y-92762682D01*
X132410261Y-92762682D01*
X132353234Y-93887804D01*
X132194484Y-93887804D01*
X132194484Y-93753714D01*
X132021863Y-93753714D01*
X132021863Y-92896772D01*
X132194484Y-92896772D01*
X132194484Y-92762682D01*
X131670455Y-92762682D01*
X131249223Y-92762682D01*
X131143344Y-92747270D01*
X131099885Y-92749758D01*
X131053608Y-92752407D01*
X130967297Y-92767820D01*
X130884412Y-92793508D01*
X130884412Y-92947634D01*
X131003474Y-92897928D01*
X131123307Y-92881360D01*
X131190737Y-92891378D01*
X131241984Y-92921432D01*
X131285140Y-93032403D01*
X131271440Y-93110665D01*
X131230339Y-93172829D01*
X131161839Y-93218896D01*
X131056862Y-93271813D01*
X130976202Y-93325757D01*
X130919861Y-93380729D01*
X130870155Y-93475901D01*
X130853586Y-93594964D01*
X130709164Y-93594964D01*
X130713503Y-93575270D01*
X130726090Y-93460189D01*
X130730285Y-93325243D01*
X130726090Y-93190297D01*
X130713503Y-93075216D01*
X130692524Y-92980000D01*
X130646094Y-92870956D01*
X130582324Y-92799673D01*
X130498325Y-92760371D01*
X130391208Y-92747270D01*
X130284090Y-92760371D01*
X130200091Y-92799673D01*
X130136321Y-92870956D01*
X130089891Y-92980000D01*
X130068913Y-93075216D01*
X130056326Y-93190297D01*
X130052130Y-93325243D01*
X129744905Y-93325243D01*
X129744905Y-90761680D01*
X130028518Y-90761680D01*
X130028518Y-90897751D01*
X130203690Y-90897751D01*
X130203690Y-91767357D01*
X130028518Y-91767357D01*
X130028518Y-91903429D01*
X130560291Y-91903429D01*
X130560291Y-91767357D01*
X130385119Y-91767357D01*
X130385119Y-91606261D01*
X130763616Y-91606261D01*
X130777067Y-91718872D01*
X130817419Y-91806458D01*
X130884673Y-91869020D01*
X130978828Y-91906557D01*
X131099885Y-91919069D01*
X131196855Y-91910728D01*
X131285484Y-91885703D01*
X131365771Y-91843995D01*
X131365771Y-91681335D01*
X131283225Y-91737814D01*
X131196160Y-91771702D01*
X131104577Y-91782998D01*
X131034977Y-91772245D01*
X130982582Y-91739987D01*
X130949737Y-91687005D01*
X130938788Y-91614081D01*
X130947195Y-91544482D01*
X130972415Y-91488958D01*
X131017186Y-91443210D01*
X131084244Y-91402936D01*
X131180085Y-91352887D01*
X131209263Y-91332554D01*
X131514355Y-91332554D01*
X131518613Y-91469495D01*
X131531386Y-91586276D01*
X131552674Y-91682899D01*
X131599791Y-91793555D01*
X131664503Y-91865892D01*
X131749743Y-91905775D01*
X131858444Y-91919069D01*
X131967144Y-91905775D01*
X131972158Y-91903429D01*
X132285426Y-91903429D01*
X132452779Y-91903429D01*
X132476239Y-90933724D01*
X132477803Y-90933724D01*
X132574774Y-91637542D01*
X132723357Y-91637542D01*
X132812508Y-90933724D01*
X132817200Y-90933724D01*
X132843788Y-91903429D01*
X132997064Y-91903429D01*
X132981595Y-91606261D01*
X133891695Y-91606261D01*
X133905146Y-91718872D01*
X133945498Y-91806458D01*
X134012752Y-91869020D01*
X134106907Y-91906557D01*
X134227963Y-91919069D01*
X134324934Y-91910728D01*
X134413563Y-91885703D01*
X134493850Y-91843995D01*
X134493850Y-91681335D01*
X134411304Y-91737814D01*
X134324239Y-91771702D01*
X134232655Y-91782998D01*
X134163056Y-91772245D01*
X134110660Y-91739987D01*
X134077816Y-91687005D01*
X134066867Y-91614081D01*
X134075274Y-91544482D01*
X134100494Y-91488958D01*
X134145265Y-91443210D01*
X134212323Y-91402936D01*
X134308164Y-91352887D01*
X134382977Y-91300752D01*
X134436763Y-91246532D01*
X134485443Y-91154254D01*
X134488414Y-91133921D01*
X134704995Y-91133921D01*
X134872348Y-91133921D01*
X134872348Y-90889931D01*
X134908321Y-90883675D01*
X134989963Y-90901005D01*
X135053463Y-90952993D01*
X135098821Y-91039641D01*
X135126035Y-91160948D01*
X135135106Y-91316914D01*
X135128155Y-91459806D01*
X135107301Y-91576718D01*
X135072545Y-91667650D01*
X135023886Y-91732601D01*
X134961324Y-91771572D01*
X134884860Y-91784562D01*
X134801966Y-91772440D01*
X134712816Y-91736077D01*
X134712816Y-91879968D01*
X134807049Y-91909294D01*
X134911449Y-91919069D01*
X135004191Y-91909660D01*
X135084568Y-91881434D01*
X135152579Y-91834391D01*
X135208225Y-91768530D01*
X135251505Y-91683852D01*
X135282419Y-91580357D01*
X135300968Y-91458044D01*
X135307151Y-91316914D01*
X135421325Y-91316914D01*
X135426452Y-91458546D01*
X135441832Y-91578977D01*
X135467465Y-91678207D01*
X135523966Y-91791404D01*
X135601190Y-91865110D01*
X135702853Y-91905579D01*
X135832668Y-91919069D01*
X135960528Y-91911249D01*
X135999758Y-91903429D01*
X136179885Y-91903429D01*
X136361313Y-91903429D01*
X136420747Y-91603133D01*
X136688197Y-91603133D01*
X136747631Y-91903429D01*
X136922803Y-91903429D01*
X136846322Y-91578827D01*
X136653788Y-90761680D01*
X136450463Y-90761680D01*
X136179885Y-91903429D01*
X135999758Y-91903429D01*
X136078222Y-91887788D01*
X136078222Y-90777320D01*
X135955836Y-90753860D01*
X135832668Y-90746040D01*
X135700333Y-90760203D01*
X135595281Y-90802693D01*
X135517514Y-90873509D01*
X135481072Y-90938901D01*
X135475431Y-90949023D01*
X135445373Y-91048095D01*
X135427337Y-91170725D01*
X135421325Y-91316914D01*
X135307151Y-91316914D01*
X135301041Y-91183115D01*
X135282712Y-91067156D01*
X135252165Y-90969037D01*
X135209398Y-90888758D01*
X135154412Y-90826319D01*
X135087208Y-90781719D01*
X135007784Y-90754960D01*
X134916141Y-90746040D01*
X134804703Y-90754642D01*
X134704995Y-90780448D01*
X134704995Y-91133921D01*
X134488414Y-91133921D01*
X134501670Y-91043207D01*
X134481142Y-90918084D01*
X134419558Y-90824242D01*
X134357084Y-90780796D01*
X134279142Y-90754729D01*
X134185734Y-90746040D01*
X134094672Y-90751253D01*
X134007086Y-90766893D01*
X133922976Y-90792961D01*
X133922976Y-90949365D01*
X134043798Y-90898924D01*
X134165402Y-90882111D01*
X134233829Y-90892277D01*
X134285833Y-90922776D01*
X134329626Y-91035387D01*
X134315723Y-91114805D01*
X134274016Y-91177888D01*
X134204503Y-91224636D01*
X134097974Y-91278334D01*
X134016123Y-91333076D01*
X133958949Y-91388860D01*
X133908508Y-91485439D01*
X133891695Y-91606261D01*
X132981595Y-91606261D01*
X132937631Y-90761680D01*
X132732742Y-90761680D01*
X132641034Y-91460761D01*
X132637335Y-91488958D01*
X132634207Y-91488958D01*
X132540365Y-90761680D01*
X132343296Y-90761680D01*
X132285426Y-91903429D01*
X131972158Y-91903429D01*
X132052385Y-91865892D01*
X132117097Y-91793555D01*
X132164213Y-91682899D01*
X132185502Y-91586276D01*
X132198275Y-91469495D01*
X132202532Y-91332554D01*
X132198275Y-91195614D01*
X132185502Y-91078832D01*
X132164213Y-90982210D01*
X132160022Y-90972365D01*
X132117097Y-90871554D01*
X132052385Y-90799217D01*
X131967144Y-90759334D01*
X131858444Y-90746040D01*
X131749743Y-90759334D01*
X131664503Y-90799217D01*
X131599791Y-90871554D01*
X131552674Y-90982210D01*
X131531386Y-91078832D01*
X131518613Y-91195614D01*
X131514355Y-91332554D01*
X131209263Y-91332554D01*
X131254898Y-91300752D01*
X131308684Y-91246532D01*
X131357365Y-91154254D01*
X131373591Y-91043207D01*
X131353063Y-90918084D01*
X131291479Y-90824242D01*
X131229005Y-90780796D01*
X131151063Y-90754729D01*
X131057655Y-90746040D01*
X130966594Y-90751253D01*
X130912247Y-90760958D01*
X130879007Y-90766893D01*
X130794897Y-90792961D01*
X130794897Y-90949365D01*
X130915719Y-90898924D01*
X131037323Y-90882111D01*
X131105750Y-90892277D01*
X131157754Y-90922776D01*
X131201547Y-91035387D01*
X131187645Y-91114805D01*
X131145937Y-91177888D01*
X131076424Y-91224636D01*
X130969895Y-91278334D01*
X130888044Y-91333076D01*
X130830870Y-91388860D01*
X130780429Y-91485439D01*
X130763616Y-91606261D01*
X130385119Y-91606261D01*
X130385119Y-90897751D01*
X130560291Y-90897751D01*
X130560291Y-90761680D01*
X130028518Y-90761680D01*
X129744905Y-90761680D01*
X129744905Y-90157179D01*
X133790384Y-90157179D01*
X133974534Y-90157179D01*
X134006681Y-90051015D01*
X134045972Y-89983348D01*
X134096772Y-89947033D01*
X134163447Y-89934929D01*
X134273778Y-89921435D01*
X134278867Y-89919054D01*
X134596834Y-89919054D01*
X134779397Y-89919054D01*
X134871472Y-89585679D01*
X134897467Y-89513646D01*
X134927828Y-89468998D01*
X135023872Y-89438041D01*
X135085784Y-89438041D01*
X135085784Y-89919054D01*
X135263584Y-89919054D01*
X135481072Y-89919054D01*
X136020822Y-89919054D01*
X136020822Y-89780941D01*
X135843022Y-89780941D01*
X135843022Y-89530116D01*
X136227197Y-89530116D01*
X136846322Y-89903179D01*
X136846322Y-89744429D01*
X136330384Y-89444391D01*
X136330384Y-89441216D01*
X136846322Y-89141179D01*
X136846322Y-88982429D01*
X136227197Y-89355491D01*
X136227197Y-89530116D01*
X135843022Y-89530116D01*
X135843022Y-88898291D01*
X136020822Y-88898291D01*
X136020822Y-88760179D01*
X135481072Y-88760179D01*
X135481072Y-88898291D01*
X135658872Y-88898291D01*
X135658872Y-89780941D01*
X135481072Y-89780941D01*
X135481072Y-89919054D01*
X135263584Y-89919054D01*
X135263584Y-88776054D01*
X135175037Y-88758415D01*
X135085079Y-88747832D01*
X134993709Y-88744304D01*
X134878968Y-88753564D01*
X134786629Y-88781345D01*
X134716690Y-88827648D01*
X134667743Y-88893882D01*
X134638374Y-88981459D01*
X134628584Y-89090379D01*
X134639697Y-89194162D01*
X134673034Y-89278498D01*
X134728597Y-89343387D01*
X134806384Y-89388829D01*
X134806384Y-89392004D01*
X134746059Y-89470585D01*
X134695259Y-89595204D01*
X134596834Y-89919054D01*
X134278867Y-89919054D01*
X134360297Y-89880954D01*
X134425980Y-89807532D01*
X134473803Y-89695216D01*
X134495411Y-89597144D01*
X134508375Y-89478611D01*
X134512697Y-89339616D01*
X134508375Y-89200622D01*
X134495411Y-89082089D01*
X134473803Y-88984016D01*
X134425980Y-88871701D01*
X134360297Y-88798279D01*
X134273778Y-88757798D01*
X134163447Y-88744304D01*
X134053115Y-88757798D01*
X133966597Y-88798279D01*
X133900914Y-88871701D01*
X133853090Y-88984016D01*
X133831483Y-89082089D01*
X133818518Y-89200622D01*
X133814197Y-89339616D01*
X133818518Y-89481698D01*
X133831483Y-89601025D01*
X133853090Y-89697598D01*
X133902898Y-89807730D01*
X133974534Y-89882541D01*
X133974534Y-89885716D01*
X133915400Y-89932746D01*
X133861822Y-89997635D01*
X133818562Y-90074430D01*
X133790384Y-90157179D01*
X129744905Y-90157179D01*
X129744905Y-89617429D01*
X129877197Y-89617429D01*
X129890849Y-89731729D01*
X129931807Y-89820629D01*
X130000069Y-89884129D01*
X130095637Y-89922229D01*
X130218509Y-89934929D01*
X130316934Y-89926462D01*
X130406893Y-89901062D01*
X130488384Y-89858729D01*
X130488384Y-89693629D01*
X130404600Y-89750955D01*
X130316229Y-89785351D01*
X130223272Y-89796816D01*
X130152628Y-89785902D01*
X130099447Y-89753160D01*
X130066109Y-89699383D01*
X130054997Y-89625366D01*
X130063530Y-89554723D01*
X130089128Y-89498366D01*
X130134570Y-89451932D01*
X130202634Y-89411054D01*
X130299913Y-89360254D01*
X130375848Y-89307337D01*
X130430440Y-89252304D01*
X130479851Y-89158641D01*
X130482867Y-89138004D01*
X130702697Y-89138004D01*
X130872559Y-89138004D01*
X130872559Y-88890354D01*
X130909072Y-88884004D01*
X130979407Y-88896219D01*
X131036954Y-88932864D01*
X131081712Y-88993938D01*
X131113683Y-89079443D01*
X131132865Y-89189377D01*
X131139259Y-89323741D01*
X131132204Y-89468777D01*
X131111037Y-89587443D01*
X131075759Y-89679738D01*
X131026370Y-89745664D01*
X130962870Y-89785219D01*
X130885259Y-89798404D01*
X130801122Y-89786101D01*
X130710634Y-89749191D01*
X130710634Y-89895241D01*
X130806281Y-89925007D01*
X130912247Y-89934929D01*
X131006381Y-89925379D01*
X131024392Y-89919054D01*
X131405959Y-89919054D01*
X131590109Y-89919054D01*
X131650434Y-89614254D01*
X131921897Y-89614254D01*
X131982222Y-89919054D01*
X132160022Y-89919054D01*
X132019756Y-89323741D01*
X132223522Y-89323741D01*
X132228725Y-89467498D01*
X132244336Y-89589736D01*
X132270353Y-89690454D01*
X132327701Y-89805349D01*
X132406084Y-89880160D01*
X132509272Y-89921237D01*
X132641034Y-89934929D01*
X132770812Y-89926991D01*
X132890272Y-89903179D01*
X132890272Y-88776054D01*
X132766050Y-88752241D01*
X132641034Y-88744304D01*
X132506714Y-88758679D01*
X132400087Y-88801807D01*
X132321153Y-88873685D01*
X132278439Y-88950332D01*
X132247930Y-89050890D01*
X132229624Y-89175360D01*
X132223522Y-89323741D01*
X132019756Y-89323741D01*
X131886972Y-88760179D01*
X131680597Y-88760179D01*
X131405959Y-89919054D01*
X131024392Y-89919054D01*
X131087963Y-89896730D01*
X131156995Y-89848981D01*
X131213475Y-89782132D01*
X131257404Y-89696184D01*
X131288782Y-89591136D01*
X131307609Y-89466988D01*
X131313884Y-89323741D01*
X131307683Y-89187936D01*
X131289080Y-89070237D01*
X131258074Y-88970647D01*
X131214665Y-88889163D01*
X131158855Y-88825787D01*
X131090642Y-88780519D01*
X131010027Y-88753357D01*
X130917009Y-88744304D01*
X130803900Y-88753035D01*
X130702697Y-88779229D01*
X130702697Y-89138004D01*
X130482867Y-89138004D01*
X130496322Y-89045929D01*
X130475486Y-88918929D01*
X130412978Y-88823679D01*
X130349566Y-88779582D01*
X130270456Y-88753123D01*
X130175647Y-88744304D01*
X130083219Y-88749595D01*
X129994319Y-88765470D01*
X129908947Y-88791929D01*
X129908947Y-88950679D01*
X130031581Y-88899482D01*
X130155009Y-88882416D01*
X130224462Y-88892735D01*
X130277247Y-88923691D01*
X130310584Y-88972904D01*
X130321697Y-89037991D01*
X130307586Y-89118601D01*
X130265252Y-89182630D01*
X130194697Y-89230079D01*
X130086570Y-89284583D01*
X130003491Y-89340145D01*
X129945459Y-89396766D01*
X129894262Y-89494794D01*
X129877197Y-89617429D01*
X129744905Y-89617429D01*
X129744905Y-88612012D01*
G37*
G36*
X134245600Y-88906824D02*
G01*
X134301559Y-88980048D01*
X134325372Y-89063391D01*
X134339659Y-89183248D01*
X134344422Y-89339616D01*
X134339659Y-89495985D01*
X134325372Y-89615841D01*
X134301559Y-89699185D01*
X134245600Y-89772408D01*
X134163447Y-89796816D01*
X134081294Y-89772408D01*
X134025334Y-89699185D01*
X134001522Y-89615841D01*
X133987234Y-89495985D01*
X133982472Y-89339616D01*
X133987234Y-89183248D01*
X134001522Y-89063391D01*
X134025334Y-88980048D01*
X134081294Y-88906824D01*
X134163447Y-88882416D01*
X134245600Y-88906824D01*
G37*
G36*
X132712472Y-88896704D02*
G01*
X132712472Y-89784116D01*
X132641034Y-89798404D01*
X132530108Y-89773004D01*
X132454503Y-89696804D01*
X132422312Y-89610197D01*
X132402997Y-89485843D01*
X132396559Y-89323741D01*
X132403086Y-89176986D01*
X132422665Y-89062686D01*
X132455297Y-88980841D01*
X132531100Y-88907023D01*
X132641034Y-88882416D01*
X132712472Y-88896704D01*
G37*
G36*
X131939383Y-90906158D02*
G01*
X131994515Y-90978299D01*
X132017976Y-91060412D01*
X132032052Y-91178497D01*
X132036744Y-91332554D01*
X132032052Y-91486612D01*
X132017976Y-91604697D01*
X131994515Y-91686809D01*
X131939383Y-91758951D01*
X131858444Y-91782998D01*
X131777505Y-91758951D01*
X131722372Y-91686809D01*
X131698912Y-91604697D01*
X131684835Y-91486612D01*
X131680143Y-91332554D01*
X131684835Y-91178497D01*
X131698912Y-91060412D01*
X131722372Y-90978299D01*
X131777505Y-90906158D01*
X131858444Y-90882111D01*
X131939383Y-90906158D01*
G37*
G36*
X130470968Y-92905057D02*
G01*
X130525297Y-92976147D01*
X130548416Y-93057063D01*
X130562288Y-93173429D01*
X130566912Y-93325243D01*
X130562288Y-93477057D01*
X130548416Y-93593423D01*
X130525297Y-93674339D01*
X130470968Y-93745430D01*
X130391208Y-93769127D01*
X130311447Y-93745430D01*
X130257118Y-93674339D01*
X130233999Y-93593423D01*
X130220128Y-93477057D01*
X130215504Y-93325243D01*
X130220128Y-93173429D01*
X130233999Y-93057063D01*
X130257118Y-92976147D01*
X130311447Y-92905057D01*
X130391208Y-92881360D01*
X130470968Y-92905057D01*
G37*
G36*
X135903050Y-90896187D02*
G01*
X135903050Y-91770485D01*
X135832668Y-91784562D01*
X135723381Y-91759537D01*
X135648893Y-91684463D01*
X135617178Y-91599136D01*
X135598149Y-91476620D01*
X135591806Y-91316914D01*
X135598236Y-91172327D01*
X135617525Y-91059716D01*
X135649675Y-90979081D01*
X135724358Y-90906354D01*
X135832668Y-90882111D01*
X135903050Y-90896187D01*
G37*
G36*
X135198317Y-96892073D02*
G01*
X135198317Y-97729254D01*
X135130923Y-97742733D01*
X135026275Y-97718771D01*
X134954950Y-97646884D01*
X134924581Y-97565179D01*
X134906360Y-97447864D01*
X134900286Y-97294938D01*
X134906443Y-97156490D01*
X134924914Y-97048659D01*
X134955699Y-96971448D01*
X135027211Y-96901807D01*
X135130923Y-96878594D01*
X135198317Y-96892073D01*
G37*
G36*
X130705392Y-96892073D02*
G01*
X130705392Y-97729254D01*
X130637999Y-97742733D01*
X130533351Y-97718771D01*
X130462026Y-97646884D01*
X130431657Y-97565179D01*
X130413436Y-97447864D01*
X130407362Y-97294938D01*
X130413519Y-97156490D01*
X130431990Y-97048659D01*
X130462775Y-96971448D01*
X130534287Y-96901807D01*
X130637999Y-96878594D01*
X130705392Y-96892073D01*
G37*
G36*
X131894909Y-89479316D02*
G01*
X131677422Y-89479316D01*
X131785372Y-88934804D01*
X131786959Y-88934804D01*
X131894909Y-89479316D01*
G37*
G36*
X136661609Y-91470190D02*
G01*
X136447335Y-91470190D01*
X136553690Y-90933724D01*
X136555254Y-90933724D01*
X136661609Y-91470190D01*
G37*
G36*
X135085784Y-88895116D02*
G01*
X135085784Y-89299929D01*
X135023872Y-89299929D01*
X134920684Y-89288023D01*
X134852422Y-89252304D01*
X134814322Y-89188010D01*
X134801622Y-89090379D01*
X134813528Y-88996915D01*
X134849247Y-88932423D01*
X134909175Y-88894918D01*
X134993709Y-88882416D01*
X135085784Y-88895116D01*
G37*
D10*
%TO.C,R402*%
X176689170Y-94750712D02*
X176689170Y-94276196D01*
X177734170Y-94750712D02*
X177734170Y-94276196D01*
%TO.C,C401*%
X174421670Y-94372876D02*
X174421670Y-94654036D01*
X173401670Y-94372876D02*
X173401670Y-94654036D01*
%TO.C,C503*%
X185201671Y-102748455D02*
X185201671Y-100878455D01*
X185201671Y-100878455D02*
X189111671Y-100878455D01*
X189111671Y-102748455D02*
X185201671Y-102748455D01*
%TO.C,C402*%
X172896671Y-92103456D02*
X172896671Y-96013456D01*
X171026671Y-96013456D02*
X171026671Y-92103456D01*
X171026671Y-92103456D02*
X172896671Y-92103456D01*
%TO.C,C302*%
X163931143Y-94685282D02*
X163931143Y-94966442D01*
X162911143Y-94685282D02*
X162911143Y-94966442D01*
%TO.C,R401*%
X176084169Y-94750714D02*
X176084169Y-94276198D01*
X175039169Y-94750714D02*
X175039169Y-94276198D01*
%TO.C,C506*%
X183721671Y-105128456D02*
X183721671Y-106998456D01*
X183721671Y-106998456D02*
X179811671Y-106998456D01*
X179811671Y-105128456D02*
X183721671Y-105128456D01*
%TO.C,C407*%
X174601671Y-104854035D02*
X174601671Y-104572875D01*
X175621671Y-104854035D02*
X175621671Y-104572875D01*
%TD*%
M02*
