%TF.GenerationSoftware,KiCad,Pcbnew,(6.0.5)*%
%TF.CreationDate,2022-10-08T22:42:16+08:00*%
%TF.ProjectId,LabPrecisionVoltageSource_V1.2,4c616250-7265-4636-9973-696f6e566f6c,rev?*%
%TF.SameCoordinates,Original*%
%TF.FileFunction,Copper,L1,Top*%
%TF.FilePolarity,Positive*%
%FSLAX46Y46*%
G04 Gerber Fmt 4.6, Leading zero omitted, Abs format (unit mm)*
G04 Created by KiCad (PCBNEW (6.0.5)) date 2022-10-08 22:42:16*
%MOMM*%
%LPD*%
G01*
G04 APERTURE LIST*
G04 Aperture macros list*
%AMRoundRect*
0 Rectangle with rounded corners*
0 $1 Rounding radius*
0 $2 $3 $4 $5 $6 $7 $8 $9 X,Y pos of 4 corners*
0 Add a 4 corners polygon primitive as box body*
4,1,4,$2,$3,$4,$5,$6,$7,$8,$9,$2,$3,0*
0 Add four circle primitives for the rounded corners*
1,1,$1+$1,$2,$3*
1,1,$1+$1,$4,$5*
1,1,$1+$1,$6,$7*
1,1,$1+$1,$8,$9*
0 Add four rect primitives between the rounded corners*
20,1,$1+$1,$2,$3,$4,$5,0*
20,1,$1+$1,$4,$5,$6,$7,0*
20,1,$1+$1,$6,$7,$8,$9,0*
20,1,$1+$1,$8,$9,$2,$3,0*%
G04 Aperture macros list end*
%TA.AperFunction,ComponentPad*%
%ADD10C,2.240000*%
%TD*%
%TA.AperFunction,ComponentPad*%
%ADD11C,2.740000*%
%TD*%
%TA.AperFunction,SMDPad,CuDef*%
%ADD12RoundRect,0.225000X0.250000X-0.225000X0.250000X0.225000X-0.250000X0.225000X-0.250000X-0.225000X0*%
%TD*%
%TA.AperFunction,SMDPad,CuDef*%
%ADD13RoundRect,0.218750X-0.218750X-0.381250X0.218750X-0.381250X0.218750X0.381250X-0.218750X0.381250X0*%
%TD*%
%TA.AperFunction,SMDPad,CuDef*%
%ADD14RoundRect,0.150000X0.150000X-0.825000X0.150000X0.825000X-0.150000X0.825000X-0.150000X-0.825000X0*%
%TD*%
%TA.AperFunction,SMDPad,CuDef*%
%ADD15RoundRect,0.150000X-0.512500X-0.150000X0.512500X-0.150000X0.512500X0.150000X-0.512500X0.150000X0*%
%TD*%
%TA.AperFunction,SMDPad,CuDef*%
%ADD16RoundRect,0.225000X0.225000X0.250000X-0.225000X0.250000X-0.225000X-0.250000X0.225000X-0.250000X0*%
%TD*%
%TA.AperFunction,SMDPad,CuDef*%
%ADD17R,0.700000X0.250000*%
%TD*%
%TA.AperFunction,SMDPad,CuDef*%
%ADD18R,1.660000X2.380000*%
%TD*%
%TA.AperFunction,ComponentPad*%
%ADD19R,1.700000X1.700000*%
%TD*%
%TA.AperFunction,ComponentPad*%
%ADD20O,1.700000X1.700000*%
%TD*%
%TA.AperFunction,SMDPad,CuDef*%
%ADD21RoundRect,0.225000X-0.225000X-0.250000X0.225000X-0.250000X0.225000X0.250000X-0.225000X0.250000X0*%
%TD*%
%TA.AperFunction,SMDPad,CuDef*%
%ADD22C,1.000000*%
%TD*%
%TA.AperFunction,SMDPad,CuDef*%
%ADD23RoundRect,0.062500X-0.362500X-0.062500X0.362500X-0.062500X0.362500X0.062500X-0.362500X0.062500X0*%
%TD*%
%TA.AperFunction,SMDPad,CuDef*%
%ADD24R,1.650000X2.380000*%
%TD*%
%TA.AperFunction,SMDPad,CuDef*%
%ADD25RoundRect,0.140000X-0.170000X0.140000X-0.170000X-0.140000X0.170000X-0.140000X0.170000X0.140000X0*%
%TD*%
%TA.AperFunction,SMDPad,CuDef*%
%ADD26RoundRect,0.250000X-0.425000X0.450000X-0.425000X-0.450000X0.425000X-0.450000X0.425000X0.450000X0*%
%TD*%
%TA.AperFunction,SMDPad,CuDef*%
%ADD27RoundRect,0.135000X-0.135000X-0.185000X0.135000X-0.185000X0.135000X0.185000X-0.135000X0.185000X0*%
%TD*%
%TA.AperFunction,SMDPad,CuDef*%
%ADD28RoundRect,0.250000X-0.450000X-0.425000X0.450000X-0.425000X0.450000X0.425000X-0.450000X0.425000X0*%
%TD*%
%TA.AperFunction,SMDPad,CuDef*%
%ADD29R,1.100000X1.100000*%
%TD*%
%TA.AperFunction,SMDPad,CuDef*%
%ADD30RoundRect,0.150000X-0.825000X-0.150000X0.825000X-0.150000X0.825000X0.150000X-0.825000X0.150000X0*%
%TD*%
%TA.AperFunction,SMDPad,CuDef*%
%ADD31RoundRect,0.250000X0.250000X0.475000X-0.250000X0.475000X-0.250000X-0.475000X0.250000X-0.475000X0*%
%TD*%
%TA.AperFunction,SMDPad,CuDef*%
%ADD32R,0.450000X1.750000*%
%TD*%
%TA.AperFunction,SMDPad,CuDef*%
%ADD33R,3.600000X1.500000*%
%TD*%
%TA.AperFunction,SMDPad,CuDef*%
%ADD34R,1.500000X3.600000*%
%TD*%
%TA.AperFunction,SMDPad,CuDef*%
%ADD35RoundRect,0.135000X-0.185000X0.135000X-0.185000X-0.135000X0.185000X-0.135000X0.185000X0.135000X0*%
%TD*%
%TA.AperFunction,SMDPad,CuDef*%
%ADD36RoundRect,0.135000X0.185000X-0.135000X0.185000X0.135000X-0.185000X0.135000X-0.185000X-0.135000X0*%
%TD*%
%TA.AperFunction,SMDPad,CuDef*%
%ADD37RoundRect,0.140000X0.140000X0.170000X-0.140000X0.170000X-0.140000X-0.170000X0.140000X-0.170000X0*%
%TD*%
%TA.AperFunction,SMDPad,CuDef*%
%ADD38RoundRect,0.250000X-0.475000X0.250000X-0.475000X-0.250000X0.475000X-0.250000X0.475000X0.250000X0*%
%TD*%
%TA.AperFunction,SMDPad,CuDef*%
%ADD39RoundRect,0.140000X0.170000X-0.140000X0.170000X0.140000X-0.170000X0.140000X-0.170000X-0.140000X0*%
%TD*%
%TA.AperFunction,SMDPad,CuDef*%
%ADD40RoundRect,0.140000X-0.140000X-0.170000X0.140000X-0.170000X0.140000X0.170000X-0.140000X0.170000X0*%
%TD*%
%TA.AperFunction,SMDPad,CuDef*%
%ADD41RoundRect,0.100000X0.637500X0.100000X-0.637500X0.100000X-0.637500X-0.100000X0.637500X-0.100000X0*%
%TD*%
%TA.AperFunction,SMDPad,CuDef*%
%ADD42RoundRect,0.250000X0.475000X-0.250000X0.475000X0.250000X-0.475000X0.250000X-0.475000X-0.250000X0*%
%TD*%
%TA.AperFunction,SMDPad,CuDef*%
%ADD43RoundRect,0.250000X0.450000X0.425000X-0.450000X0.425000X-0.450000X-0.425000X0.450000X-0.425000X0*%
%TD*%
%TA.AperFunction,SMDPad,CuDef*%
%ADD44RoundRect,0.250000X-0.250000X-0.475000X0.250000X-0.475000X0.250000X0.475000X-0.250000X0.475000X0*%
%TD*%
%TA.AperFunction,SMDPad,CuDef*%
%ADD45RoundRect,0.200000X0.200000X0.275000X-0.200000X0.275000X-0.200000X-0.275000X0.200000X-0.275000X0*%
%TD*%
%TA.AperFunction,SMDPad,CuDef*%
%ADD46RoundRect,0.135000X0.135000X0.185000X-0.135000X0.185000X-0.135000X-0.185000X0.135000X-0.185000X0*%
%TD*%
%TA.AperFunction,SMDPad,CuDef*%
%ADD47R,1.500000X0.700000*%
%TD*%
%TA.AperFunction,SMDPad,CuDef*%
%ADD48R,0.700000X1.500000*%
%TD*%
%TA.AperFunction,SMDPad,CuDef*%
%ADD49R,0.700000X2.500000*%
%TD*%
%TA.AperFunction,ViaPad*%
%ADD50C,0.800000*%
%TD*%
%TA.AperFunction,ViaPad*%
%ADD51C,0.502000*%
%TD*%
%TA.AperFunction,ViaPad*%
%ADD52C,0.603000*%
%TD*%
%TA.AperFunction,ViaPad*%
%ADD53C,0.600000*%
%TD*%
%TA.AperFunction,Conductor*%
%ADD54C,0.200000*%
%TD*%
%TA.AperFunction,Conductor*%
%ADD55C,0.500000*%
%TD*%
%TA.AperFunction,Conductor*%
%ADD56C,0.400000*%
%TD*%
%TA.AperFunction,Conductor*%
%ADD57C,0.300000*%
%TD*%
%TA.AperFunction,Conductor*%
%ADD58C,0.600000*%
%TD*%
%TA.AperFunction,Conductor*%
%ADD59C,1.000000*%
%TD*%
%TA.AperFunction,Conductor*%
%ADD60C,0.150000*%
%TD*%
G04 APERTURE END LIST*
D10*
%TO.P,J101,1,In*%
%TO.N,/ADC/ADC_INPUT*%
X189400000Y-94700000D03*
D11*
%TO.P,J101,2,Ext*%
%TO.N,GND*%
X186860000Y-92160000D03*
X191940000Y-92160000D03*
X186860000Y-97240000D03*
X191940000Y-97240000D03*
%TD*%
D12*
%TO.P,C205,1*%
%TO.N,GND*%
X153571141Y-86950863D03*
%TO.P,C205,2*%
%TO.N,VDDA*%
X153571141Y-85400863D03*
%TD*%
D13*
%TO.P,FB204,1*%
%TO.N,Net-(C220-Pad1)*%
X151708643Y-96238866D03*
%TO.P,FB204,2*%
%TO.N,-15V*%
X153833643Y-96238866D03*
%TD*%
D14*
%TO.P,U501,1,NC*%
%TO.N,unconnected-(U501-Pad1)*%
X171177437Y-105753743D03*
%TO.P,U501,2,-*%
%TO.N,Net-(R501-Pad2)*%
X172447437Y-105753743D03*
%TO.P,U501,3,+*%
%TO.N,/ADC/ADC_INPUT*%
X173717437Y-105753743D03*
%TO.P,U501,4,V-*%
%TO.N,-15V*%
X174987437Y-105753743D03*
%TO.P,U501,5,NC*%
%TO.N,unconnected-(U501-Pad5)*%
X174987437Y-100803743D03*
%TO.P,U501,6*%
%TO.N,Net-(R501-Pad2)*%
X173717437Y-100803743D03*
%TO.P,U501,7,V+*%
%TO.N,+15V*%
X172447437Y-100803743D03*
%TO.P,U501,8,DNC*%
%TO.N,unconnected-(U501-Pad8)*%
X171177437Y-100803743D03*
%TD*%
D13*
%TO.P,FB203,1*%
%TO.N,Net-(C211-Pad2)*%
X151508642Y-102175863D03*
%TO.P,FB203,2*%
%TO.N,VDD*%
X153633642Y-102175863D03*
%TD*%
D15*
%TO.P,U201,1,IN*%
%TO.N,VIN*%
X147433641Y-84625863D03*
%TO.P,U201,2,GND*%
%TO.N,GND*%
X147433641Y-85575863D03*
%TO.P,U201,3,EN*%
%TO.N,VIN*%
X147433641Y-86525863D03*
%TO.P,U201,4,NC*%
%TO.N,unconnected-(U201-Pad4)*%
X149708641Y-86525863D03*
%TO.P,U201,5,OUT*%
%TO.N,Net-(C202-Pad2)*%
X149708641Y-84625863D03*
%TD*%
D16*
%TO.P,C405,1*%
%TO.N,-15V*%
X175046142Y-85875863D03*
%TO.P,C405,2*%
%TO.N,GND*%
X173496142Y-85875863D03*
%TD*%
D17*
%TO.P,U205,1,IN*%
%TO.N,/Power/VNEG*%
X147169142Y-98149864D03*
%TO.P,U205,2,IN*%
X147169142Y-98599864D03*
%TO.P,U205,3,EN/UV*%
X147169142Y-99049864D03*
%TO.P,U205,4,PG*%
%TO.N,unconnected-(U205-Pad4)*%
X147169142Y-99499864D03*
%TO.P,U205,5,PGFB*%
%TO.N,/Power/VNEG*%
X147169142Y-99949864D03*
%TO.P,U205,6,ILIM*%
%TO.N,GND*%
X147169142Y-100399864D03*
%TO.P,U205,7,VIOC*%
%TO.N,unconnected-(U205-Pad7)*%
X149969142Y-100399864D03*
%TO.P,U205,8,SET*%
%TO.N,Net-(C216-Pad1)*%
X149969142Y-99949864D03*
%TO.P,U205,9,GND*%
%TO.N,GND*%
X149969142Y-99499864D03*
%TO.P,U205,10,OUTS*%
%TO.N,Net-(C220-Pad1)*%
X149969142Y-99049864D03*
%TO.P,U205,11,OUT*%
X149969142Y-98599864D03*
%TO.P,U205,12,OUT*%
X149969142Y-98149864D03*
D18*
%TO.P,U205,13,IN*%
%TO.N,/Power/VNEG*%
X148569142Y-99274864D03*
%TD*%
D19*
%TO.P,J102,1,Pin_1*%
%TO.N,VIN*%
X122081141Y-101069677D03*
D20*
%TO.P,J102,2,Pin_2*%
X124621141Y-101069677D03*
%TO.P,J102,3,Pin_3*%
%TO.N,GND*%
X122081141Y-98529677D03*
%TO.P,J102,4,Pin_4*%
X124621141Y-98529677D03*
%TO.P,J102,5,Pin_5*%
%TO.N,/PMOD_SCK*%
X122081141Y-95989677D03*
%TO.P,J102,6,Pin_6*%
%TO.N,unconnected-(J102-Pad6)*%
X124621141Y-95989677D03*
%TO.P,J102,7,Pin_7*%
%TO.N,/PMOD_MISO*%
X122081141Y-93449677D03*
%TO.P,J102,8,Pin_8*%
%TO.N,/ADC/ADC_CLKIN*%
X124621141Y-93449677D03*
%TO.P,J102,9,Pin_9*%
%TO.N,/PMOD_MOSI*%
X122081141Y-90909677D03*
%TO.P,J102,10,Pin_10*%
%TO.N,/PMOD_CS_ADC*%
X124621141Y-90909677D03*
%TO.P,J102,11,Pin_11*%
%TO.N,/PMOD_CS_DAC*%
X122081141Y-88369677D03*
%TO.P,J102,12,Pin_12*%
%TO.N,/ADC/ADC_IRQ*%
X124621141Y-88369677D03*
%TD*%
D21*
%TO.P,C504,1*%
%TO.N,GND*%
X167886671Y-100313456D03*
%TO.P,C504,2*%
%TO.N,+15V*%
X169436671Y-100313456D03*
%TD*%
D22*
%TO.P,TP204,1,1*%
%TO.N,-15V*%
X154771140Y-98325864D03*
%TD*%
D23*
%TO.P,U202,1,IN*%
%TO.N,/Power/VPOS*%
X147104512Y-92075864D03*
%TO.P,U202,2,IN*%
X147104512Y-92575864D03*
%TO.P,U202,3,EN/UV*%
X147104512Y-93075864D03*
%TO.P,U202,4,PG*%
%TO.N,unconnected-(U202-Pad4)*%
X147104512Y-93575864D03*
%TO.P,U202,5,ILIM*%
%TO.N,GND*%
X147104512Y-94075864D03*
%TO.P,U202,6,PGFB*%
%TO.N,/Power/VPOS*%
X150004512Y-94075864D03*
%TO.P,U202,7,SET*%
%TO.N,Net-(C204-Pad1)*%
X150004512Y-93575864D03*
%TO.P,U202,8,GND*%
%TO.N,GND*%
X150004512Y-93075864D03*
%TO.P,U202,9,OUTS*%
%TO.N,Net-(C208-Pad1)*%
X150004512Y-92575864D03*
%TO.P,U202,10,OUT*%
X150004512Y-92075864D03*
D24*
%TO.P,U202,11,GND*%
%TO.N,GND*%
X148554512Y-93075864D03*
%TD*%
D22*
%TO.P,TP301,1,1*%
%TO.N,/Reference/VREF*%
X169321143Y-97625862D03*
%TD*%
D25*
%TO.P,C502,1*%
%TO.N,Net-(C502-Pad1)*%
X168521142Y-101765863D03*
%TO.P,C502,2*%
%TO.N,GND*%
X168521142Y-102725863D03*
%TD*%
D26*
%TO.P,C301,1*%
%TO.N,VDDA*%
X157099142Y-93273865D03*
%TO.P,C301,2*%
%TO.N,GND*%
X157099142Y-95973865D03*
%TD*%
D25*
%TO.P,C213,1*%
%TO.N,GND*%
X129876144Y-91301865D03*
%TO.P,C213,2*%
%TO.N,Net-(C213-Pad2)*%
X129876144Y-92261865D03*
%TD*%
D12*
%TO.P,C202,1*%
%TO.N,GND*%
X151571141Y-86950863D03*
%TO.P,C202,2*%
%TO.N,Net-(C202-Pad2)*%
X151571141Y-85400863D03*
%TD*%
D27*
%TO.P,R202,1*%
%TO.N,VIN*%
X143844144Y-91245863D03*
%TO.P,R202,2*%
%TO.N,Net-(C210-Pad1)*%
X144864144Y-91245863D03*
%TD*%
D12*
%TO.P,C211,1*%
%TO.N,GND*%
X151571141Y-105450864D03*
%TO.P,C211,2*%
%TO.N,Net-(C211-Pad2)*%
X151571141Y-103900864D03*
%TD*%
D28*
%TO.P,C404,1*%
%TO.N,GND*%
X172121141Y-83875863D03*
%TO.P,C404,2*%
%TO.N,-15V*%
X174821141Y-83875863D03*
%TD*%
D29*
%TO.P,D201,1,K*%
%TO.N,/Power/VPOS*%
X134829143Y-87178865D03*
%TO.P,D201,2,A*%
%TO.N,Net-(D201-Pad2)*%
X134829143Y-89978865D03*
%TD*%
D30*
%TO.P,U401,1,BAL*%
%TO.N,unconnected-(U401-Pad1)*%
X177696142Y-83620862D03*
%TO.P,U401,2,-*%
%TO.N,Net-(C406-Pad1)*%
X177696142Y-84890862D03*
%TO.P,U401,3,+*%
%TO.N,GND*%
X177696142Y-86160862D03*
%TO.P,U401,4,V-*%
%TO.N,-15V*%
X177696142Y-87430862D03*
%TO.P,U401,5,COMP*%
%TO.N,unconnected-(U401-Pad5)*%
X182646142Y-87430862D03*
%TO.P,U401,6*%
%TO.N,Net-(C406-Pad2)*%
X182646142Y-86160862D03*
%TO.P,U401,7,V+*%
%TO.N,+15V*%
X182646142Y-84890862D03*
%TO.P,U401,8,C/B*%
%TO.N,unconnected-(U401-Pad8)*%
X182646142Y-83620862D03*
%TD*%
D31*
%TO.P,C220,1*%
%TO.N,Net-(C220-Pad1)*%
X149935770Y-96188864D03*
%TO.P,C220,2*%
%TO.N,GND*%
X148035770Y-96188864D03*
%TD*%
D32*
%TO.P,U402,1,R_{OFS}*%
%TO.N,/Reference/VREF*%
X180607439Y-90786142D03*
%TO.P,U402,2,REF*%
%TO.N,Net-(C406-Pad2)*%
X179957439Y-90786142D03*
%TO.P,U402,3,R_{COM}*%
%TO.N,Net-(C406-Pad1)*%
X179307439Y-90786142D03*
%TO.P,U402,4,GE_{ADJ}*%
%TO.N,GND*%
X178657439Y-90786142D03*
%TO.P,U402,5,R_{IN}*%
%TO.N,/Reference/VREF*%
X178007439Y-90786142D03*
%TO.P,U402,6,GND*%
%TO.N,GND*%
X177357439Y-90786142D03*
%TO.P,U402,7,I_{OUT2}*%
X176707439Y-90786142D03*
%TO.P,U402,8,GND*%
X176057439Y-90786142D03*
%TO.P,U402,9,~{CS}/LD*%
%TO.N,/PMOD_CS_DAC*%
X175407439Y-90786142D03*
%TO.P,U402,10,SDI*%
%TO.N,/PMOD_MOSI*%
X174757439Y-90786142D03*
%TO.P,U402,11,SCK*%
%TO.N,/PMOD_SCK*%
X174107439Y-90786142D03*
%TO.P,U402,12,SDO*%
%TO.N,/PMOD_MISO*%
X173457439Y-90786142D03*
%TO.P,U402,13,GND*%
%TO.N,GND*%
X172807439Y-90786142D03*
%TO.P,U402,14,V_{DD}*%
%TO.N,VDDA*%
X172157439Y-90786142D03*
%TO.P,U402,15,GND*%
%TO.N,GND*%
X172157439Y-97986142D03*
%TO.P,U402,16,GND*%
X172807439Y-97986142D03*
%TO.P,U402,17,~{CLR}*%
%TO.N,Net-(R401-Pad1)*%
X173457439Y-97986142D03*
%TO.P,U402,18,~{RFLAG}*%
%TO.N,unconnected-(U402-Pad18)*%
X174107439Y-97986142D03*
%TO.P,U402,19,M-SPAN*%
%TO.N,GND*%
X174757439Y-97986142D03*
%TO.P,U402,20,S0*%
X175407439Y-97986142D03*
%TO.P,U402,21,S1*%
X176057439Y-97986142D03*
%TO.P,U402,22,S2*%
X176707439Y-97986142D03*
%TO.P,U402,23,~{LDAC}*%
%TO.N,Net-(R402-Pad1)*%
X177357439Y-97986142D03*
%TO.P,U402,24,GND*%
%TO.N,GND*%
X178007439Y-97986142D03*
%TO.P,U402,25,V_{OSADJ}*%
X178657439Y-97986142D03*
%TO.P,U402,26,I_{OUT1}*%
%TO.N,Net-(C410-Pad2)*%
X179307439Y-97986142D03*
%TO.P,U402,27,R_{FB}*%
%TO.N,Net-(C410-Pad1)*%
X179957439Y-97986142D03*
%TO.P,U402,28,R_{FB}*%
X180607439Y-97986142D03*
%TD*%
D33*
%TO.P,L203,1*%
%TO.N,Net-(C217-Pad1)*%
X136353141Y-101150863D03*
%TO.P,L203,2*%
%TO.N,/Power/VNEG*%
X136353141Y-104200863D03*
%TD*%
D22*
%TO.P,TP201,1,1*%
%TO.N,/Power/VPOS*%
X144471144Y-88275862D03*
%TD*%
D23*
%TO.P,U204,1,FB1N*%
%TO.N,Net-(C212-Pad2)*%
X132363143Y-92658865D03*
%TO.P,U204,2,FB1P*%
%TO.N,Net-(C213-Pad2)*%
X132363143Y-93158865D03*
%TO.P,U204,3,VREF*%
X132363143Y-93658865D03*
%TO.P,U204,4,FB2P*%
%TO.N,Net-(C218-Pad2)*%
X132363143Y-94158865D03*
%TO.P,U204,5,FB2N*%
%TO.N,GND*%
X132363143Y-94658865D03*
%TO.P,U204,6,SW2*%
%TO.N,Net-(C217-Pad2)*%
X135263143Y-94658865D03*
%TO.P,U204,7,~{SHDN}/SS2*%
%TO.N,Net-(C215-Pad1)*%
X135263143Y-94158865D03*
%TO.P,U204,8,VIN*%
%TO.N,VIN*%
X135263143Y-93658865D03*
%TO.P,U204,9,~{SHDN}/SS1*%
%TO.N,Net-(C210-Pad1)*%
X135263143Y-93158865D03*
%TO.P,U204,10,SW1*%
%TO.N,Net-(D201-Pad2)*%
X135263143Y-92658865D03*
D24*
%TO.P,U204,11,GND*%
%TO.N,GND*%
X133813143Y-93658865D03*
%TD*%
D34*
%TO.P,L202,1*%
%TO.N,VIN*%
X141180141Y-97341863D03*
%TO.P,L202,2*%
%TO.N,Net-(C217-Pad2)*%
X138130141Y-97341863D03*
%TD*%
D22*
%TO.P,TP203,1,1*%
%TO.N,/Power/VNEG*%
X143571142Y-102775865D03*
%TD*%
D35*
%TO.P,R207,1*%
%TO.N,Net-(C218-Pad2)*%
X128733142Y-95307865D03*
%TO.P,R207,2*%
%TO.N,/Power/VNEG*%
X128733142Y-96327865D03*
%TD*%
D36*
%TO.P,R204,1*%
%TO.N,Net-(C212-Pad2)*%
X129714641Y-89075864D03*
%TO.P,R204,2*%
%TO.N,/Power/VPOS*%
X129714641Y-88055864D03*
%TD*%
D37*
%TO.P,C215,1*%
%TO.N,Net-(C215-Pad1)*%
X144834142Y-97214861D03*
%TO.P,C215,2*%
%TO.N,GND*%
X143874142Y-97214861D03*
%TD*%
D31*
%TO.P,C208,1*%
%TO.N,Net-(C208-Pad1)*%
X150012512Y-90027862D03*
%TO.P,C208,2*%
%TO.N,GND*%
X148112512Y-90027862D03*
%TD*%
D38*
%TO.P,C209,1*%
%TO.N,/Power/VPOS*%
X132543141Y-87120863D03*
%TO.P,C209,2*%
%TO.N,GND*%
X132543141Y-89020863D03*
%TD*%
D39*
%TO.P,C218,1*%
%TO.N,/Power/VNEG*%
X129876144Y-96297865D03*
%TO.P,C218,2*%
%TO.N,Net-(C218-Pad2)*%
X129876144Y-95337865D03*
%TD*%
D12*
%TO.P,C409,1*%
%TO.N,+15V*%
X183171142Y-99650863D03*
%TO.P,C409,2*%
%TO.N,GND*%
X183171142Y-98100863D03*
%TD*%
D13*
%TO.P,FB202,1*%
%TO.N,Net-(C208-Pad1)*%
X151708640Y-90027862D03*
%TO.P,FB202,2*%
%TO.N,+15V*%
X153833640Y-90027862D03*
%TD*%
D40*
%TO.P,C216,1*%
%TO.N,Net-(C216-Pad1)*%
X152153140Y-98766865D03*
%TO.P,C216,2*%
%TO.N,GND*%
X153113140Y-98766865D03*
%TD*%
D22*
%TO.P,TP202,1,1*%
%TO.N,+15V*%
X154771140Y-92175865D03*
%TD*%
D41*
%TO.P,U502,1,A_{VDD}*%
%TO.N,VDDA*%
X165933642Y-106200863D03*
%TO.P,U502,2,A_{GND}*%
%TO.N,GND*%
X165933642Y-105550863D03*
%TO.P,U502,3,REFIN-*%
X165933642Y-104900863D03*
%TO.P,U502,4,REFIN+*%
%TO.N,/Reference/VREF*%
X165933642Y-104250863D03*
%TO.P,U502,5,CH0*%
%TO.N,Net-(C501-Pad1)*%
X165933642Y-103600863D03*
%TO.P,U502,6,CH1*%
%TO.N,Net-(C502-Pad1)*%
X165933642Y-102950863D03*
%TO.P,U502,7,NC*%
%TO.N,unconnected-(U502-Pad7)*%
X165933642Y-102300863D03*
%TO.P,U502,8,NC*%
%TO.N,unconnected-(U502-Pad8)*%
X165933642Y-101650863D03*
%TO.P,U502,9,NC*%
%TO.N,unconnected-(U502-Pad9)*%
X165933642Y-101000863D03*
%TO.P,U502,10,NC*%
%TO.N,unconnected-(U502-Pad10)*%
X165933642Y-100350863D03*
%TO.P,U502,11,NC*%
%TO.N,unconnected-(U502-Pad11)*%
X160208642Y-100350863D03*
%TO.P,U502,12,NC*%
%TO.N,unconnected-(U502-Pad12)*%
X160208642Y-101000863D03*
%TO.P,U502,13,~{CS}*%
%TO.N,/PMOD_CS_ADC*%
X160208642Y-101650863D03*
%TO.P,U502,14,SCK*%
%TO.N,/PMOD_SCK*%
X160208642Y-102300863D03*
%TO.P,U502,15,SDI*%
%TO.N,/PMOD_MOSI*%
X160208642Y-102950863D03*
%TO.P,U502,16,SDO*%
%TO.N,/PMOD_MISO*%
X160208642Y-103600863D03*
%TO.P,U502,17,~{IRQ}/MDAT*%
%TO.N,/ADC/ADC_IRQ*%
X160208642Y-104250863D03*
%TO.P,U502,18,MCLKIN*%
%TO.N,/ADC/ADC_CLKIN*%
X160208642Y-104900863D03*
%TO.P,U502,19,D_{GND}*%
%TO.N,GND*%
X160208642Y-105550863D03*
%TO.P,U502,20,D_{VDD}*%
%TO.N,VDD*%
X160208642Y-106200863D03*
%TD*%
D40*
%TO.P,C204,1*%
%TO.N,Net-(C204-Pad1)*%
X152138514Y-92567866D03*
%TO.P,C204,2*%
%TO.N,GND*%
X153098514Y-92567866D03*
%TD*%
D27*
%TO.P,R203,1*%
%TO.N,GND*%
X129839639Y-90216865D03*
%TO.P,R203,2*%
%TO.N,Net-(C212-Pad2)*%
X130859639Y-90216865D03*
%TD*%
D37*
%TO.P,C210,1*%
%TO.N,Net-(C210-Pad1)*%
X144834144Y-90102864D03*
%TO.P,C210,2*%
%TO.N,GND*%
X143874144Y-90102864D03*
%TD*%
D40*
%TO.P,C406,1*%
%TO.N,Net-(C406-Pad1)*%
X179141140Y-88925864D03*
%TO.P,C406,2*%
%TO.N,Net-(C406-Pad2)*%
X180101140Y-88925864D03*
%TD*%
D21*
%TO.P,C507,1*%
%TO.N,GND*%
X156726643Y-106220363D03*
%TO.P,C507,2*%
%TO.N,VDD*%
X158276643Y-106220363D03*
%TD*%
D35*
%TO.P,R502,1*%
%TO.N,Net-(C502-Pad1)*%
X169537141Y-101735863D03*
%TO.P,R502,2*%
%TO.N,GND*%
X169537141Y-102755863D03*
%TD*%
D38*
%TO.P,C219,1*%
%TO.N,GND*%
X139909140Y-100963865D03*
%TO.P,C219,2*%
%TO.N,/Power/VNEG*%
X139909140Y-102863865D03*
%TD*%
D30*
%TO.P,U403,1,NC*%
%TO.N,unconnected-(U403-Pad1)*%
X177696142Y-101370863D03*
%TO.P,U403,2,-*%
%TO.N,Net-(C410-Pad2)*%
X177696142Y-102640863D03*
%TO.P,U403,3,+*%
%TO.N,GND*%
X177696142Y-103910863D03*
%TO.P,U403,4,V-*%
%TO.N,-15V*%
X177696142Y-105180863D03*
%TO.P,U403,5,NC*%
%TO.N,unconnected-(U403-Pad5)*%
X182646142Y-105180863D03*
%TO.P,U403,6*%
%TO.N,Net-(C410-Pad1)*%
X182646142Y-103910863D03*
%TO.P,U403,7,V+*%
%TO.N,+15V*%
X182646142Y-102640863D03*
%TO.P,U403,8,DNC*%
%TO.N,unconnected-(U403-Pad8)*%
X182646142Y-101370863D03*
%TD*%
D42*
%TO.P,C303,1*%
%TO.N,/Reference/VREF*%
X169321144Y-95725864D03*
%TO.P,C303,2*%
%TO.N,GND*%
X169321144Y-93825864D03*
%TD*%
D37*
%TO.P,C410,1*%
%TO.N,Net-(C410-Pad1)*%
X180262436Y-99825865D03*
%TO.P,C410,2*%
%TO.N,Net-(C410-Pad2)*%
X179302436Y-99825865D03*
%TD*%
D13*
%TO.P,FB201,1*%
%TO.N,Net-(C202-Pad2)*%
X151508642Y-83675865D03*
%TO.P,FB201,2*%
%TO.N,VDDA*%
X153633642Y-83675865D03*
%TD*%
D21*
%TO.P,C408,1*%
%TO.N,+15V*%
X185296139Y-83575863D03*
%TO.P,C408,2*%
%TO.N,GND*%
X186846139Y-83575863D03*
%TD*%
D43*
%TO.P,C206,1*%
%TO.N,VIN*%
X144307141Y-93658865D03*
%TO.P,C206,2*%
%TO.N,GND*%
X141607141Y-93658865D03*
%TD*%
D44*
%TO.P,C203,1*%
%TO.N,VIN*%
X137882142Y-93658861D03*
%TO.P,C203,2*%
%TO.N,GND*%
X139782142Y-93658861D03*
%TD*%
D12*
%TO.P,C207,1*%
%TO.N,GND*%
X145571142Y-104650863D03*
%TO.P,C207,2*%
%TO.N,VIN*%
X145571142Y-103100863D03*
%TD*%
D42*
%TO.P,C217,1*%
%TO.N,Net-(C217-Pad1)*%
X135083140Y-99180864D03*
%TO.P,C217,2*%
%TO.N,Net-(C217-Pad2)*%
X135083140Y-97280864D03*
%TD*%
D45*
%TO.P,R403,1*%
%TO.N,/ADC/ADC_INPUT*%
X186476641Y-103910364D03*
%TO.P,R403,2*%
%TO.N,Net-(C410-Pad1)*%
X184826641Y-103910364D03*
%TD*%
D46*
%TO.P,R205,1*%
%TO.N,GND*%
X153143140Y-99782863D03*
%TO.P,R205,2*%
%TO.N,Net-(C216-Pad1)*%
X152123140Y-99782863D03*
%TD*%
%TO.P,R206,1*%
%TO.N,Net-(C215-Pad1)*%
X144866141Y-96071864D03*
%TO.P,R206,2*%
%TO.N,VIN*%
X143846141Y-96071864D03*
%TD*%
D29*
%TO.P,D202,1,K*%
%TO.N,GND*%
X132670142Y-98481866D03*
%TO.P,D202,2,A*%
%TO.N,Net-(C217-Pad1)*%
X132670142Y-101281866D03*
%TD*%
D35*
%TO.P,R208,1*%
%TO.N,Net-(C213-Pad2)*%
X129876144Y-93275865D03*
%TO.P,R208,2*%
%TO.N,Net-(C218-Pad2)*%
X129876144Y-94295865D03*
%TD*%
D47*
%TO.P,U301,1,~{SHDN}*%
%TO.N,VDDA*%
X161271143Y-93575862D03*
%TO.P,U301,2,V_{IN}*%
X161271143Y-94825862D03*
%TO.P,U301,3,GND*%
%TO.N,GND*%
X161271143Y-96075862D03*
D48*
%TO.P,U301,4,GND*%
X163421143Y-96975862D03*
D47*
%TO.P,U301,5,GND*%
X165571143Y-96075862D03*
%TO.P,U301,6,V_{OUT_S}*%
%TO.N,/Reference/VREF*%
X165571143Y-94825862D03*
%TO.P,U301,7,V_{OUT_F}*%
X165571143Y-93575862D03*
D49*
%TO.P,U301,8,GND*%
%TO.N,GND*%
X163421143Y-93075862D03*
%TD*%
D39*
%TO.P,C501,1*%
%TO.N,Net-(C501-Pad1)*%
X168521142Y-104757863D03*
%TO.P,C501,2*%
%TO.N,GND*%
X168521142Y-103797863D03*
%TD*%
D15*
%TO.P,U203,1,IN*%
%TO.N,VIN*%
X147433641Y-103125863D03*
%TO.P,U203,2,GND*%
%TO.N,GND*%
X147433641Y-104075863D03*
%TO.P,U203,3,EN*%
%TO.N,VIN*%
X147433641Y-105025863D03*
%TO.P,U203,4,NC*%
%TO.N,unconnected-(U203-Pad4)*%
X149708641Y-105025863D03*
%TO.P,U203,5,OUT*%
%TO.N,Net-(C211-Pad2)*%
X149708641Y-103125863D03*
%TD*%
D46*
%TO.P,R201,1*%
%TO.N,GND*%
X153128511Y-93583863D03*
%TO.P,R201,2*%
%TO.N,Net-(C204-Pad1)*%
X152108511Y-93583863D03*
%TD*%
D12*
%TO.P,C214,1*%
%TO.N,GND*%
X153571141Y-105450863D03*
%TO.P,C214,2*%
%TO.N,VDD*%
X153571141Y-103900863D03*
%TD*%
D28*
%TO.P,C403,1*%
%TO.N,+15V*%
X185521142Y-85575863D03*
%TO.P,C403,2*%
%TO.N,GND*%
X188221142Y-85575863D03*
%TD*%
D36*
%TO.P,R501,1*%
%TO.N,Net-(C501-Pad1)*%
X169537139Y-104787863D03*
%TO.P,R501,2*%
%TO.N,Net-(R501-Pad2)*%
X169537139Y-103767863D03*
%TD*%
D34*
%TO.P,L201,1*%
%TO.N,Net-(D201-Pad2)*%
X138130141Y-89975864D03*
%TO.P,L201,2*%
%TO.N,VIN*%
X141180141Y-89975864D03*
%TD*%
D25*
%TO.P,C212,1*%
%TO.N,/Power/VPOS*%
X130857641Y-88085864D03*
%TO.P,C212,2*%
%TO.N,Net-(C212-Pad2)*%
X130857641Y-89045864D03*
%TD*%
D12*
%TO.P,C201,1*%
%TO.N,GND*%
X145571142Y-86350863D03*
%TO.P,C201,2*%
%TO.N,VIN*%
X145571142Y-84800863D03*
%TD*%
D21*
%TO.P,C505,1*%
%TO.N,VDDA*%
X167876642Y-106220363D03*
%TO.P,C505,2*%
%TO.N,GND*%
X169426642Y-106220363D03*
%TD*%
D50*
%TO.N,GND*%
X185800000Y-94700000D03*
X190300000Y-99300000D03*
X186600000Y-99600000D03*
X192700000Y-99400000D03*
D51*
%TO.N,VDD*%
X159074263Y-106200862D03*
X153633642Y-103091485D03*
%TO.N,GND*%
X149961670Y-87713456D03*
D50*
X145700000Y-81700000D03*
X122809000Y-107950000D03*
D51*
X169961669Y-106763455D03*
D50*
X191420000Y-81700000D03*
D51*
X146311671Y-100613456D03*
X151624261Y-97900865D03*
X133761669Y-84263455D03*
D52*
X133421141Y-93625861D03*
D51*
X171161671Y-97413457D03*
D52*
X156261671Y-106663457D03*
D50*
X148240000Y-81700000D03*
D52*
X133421139Y-92875863D03*
D50*
X140589000Y-107950000D03*
X168529000Y-107950000D03*
D52*
X134171141Y-92875864D03*
X133421141Y-94375860D03*
D50*
X163480000Y-81700000D03*
D51*
X179261671Y-96363455D03*
X151649263Y-91675864D03*
D50*
X186309000Y-107950000D03*
D52*
X133000000Y-89900000D03*
X164299264Y-96975864D03*
D51*
X168911672Y-106763455D03*
D50*
X125380000Y-81700000D03*
D51*
X178311671Y-100113456D03*
D50*
X176149000Y-107950000D03*
X138049000Y-107950000D03*
D51*
X150361671Y-104163456D03*
D50*
X127800000Y-89800000D03*
D51*
X134361671Y-85313456D03*
D52*
X134100000Y-91800000D03*
X153128512Y-93065864D03*
D50*
X181229000Y-107950000D03*
X188849000Y-107950000D03*
D51*
X151411668Y-87813455D03*
X148361669Y-91213455D03*
D50*
X145669000Y-107950000D03*
D52*
X179111671Y-103913457D03*
D51*
X168411671Y-100863455D03*
D52*
X163811670Y-100663457D03*
D51*
X188861668Y-100863457D03*
D50*
X168560000Y-81700000D03*
D51*
X171161670Y-96563457D03*
X172121142Y-85553985D03*
X146161671Y-87163455D03*
X178061670Y-89313457D03*
X169069265Y-102755863D03*
X152561671Y-86913456D03*
D50*
X143160000Y-81700000D03*
D51*
X189911670Y-101813455D03*
X168521142Y-103253985D03*
X180661669Y-96363455D03*
D50*
X188880000Y-81700000D03*
D52*
X142221143Y-92675865D03*
X157353139Y-106846861D03*
X140421142Y-92675860D03*
X132300000Y-97400000D03*
D51*
X176261670Y-89313457D03*
D52*
X144721141Y-86350864D03*
D50*
X120269000Y-107950000D03*
D52*
X134171141Y-93625862D03*
D51*
X176261670Y-92213457D03*
D50*
X127400000Y-95800000D03*
X160940000Y-81700000D03*
D51*
X172661672Y-99313455D03*
X177061671Y-92213456D03*
D50*
X140500000Y-100000000D03*
D52*
X142221143Y-94675862D03*
D50*
X127920000Y-81700000D03*
X120300000Y-81700000D03*
D52*
X146326642Y-85595363D03*
D50*
X186340000Y-81700000D03*
D51*
X148061671Y-88763455D03*
D50*
X135509000Y-107950000D03*
D51*
X158511672Y-98713456D03*
D52*
X162549263Y-96975865D03*
X132300000Y-96600000D03*
D51*
X182111672Y-98113457D03*
D52*
X132600000Y-91800000D03*
D51*
X172986669Y-94588455D03*
D52*
X169321142Y-94603984D03*
X176114263Y-103910861D03*
D51*
X152749263Y-91675864D03*
X152611670Y-88013456D03*
D52*
X149018511Y-93075864D03*
D51*
X181761669Y-106063456D03*
D50*
X153289000Y-107950000D03*
X183769000Y-107950000D03*
D51*
X138961670Y-84313456D03*
D50*
X178689000Y-107950000D03*
D52*
X134171141Y-94375862D03*
X144461671Y-104263456D03*
D51*
X147111671Y-100963457D03*
X174861668Y-99313455D03*
D50*
X158369000Y-107950000D03*
D51*
X148711669Y-97063457D03*
D50*
X176180000Y-81700000D03*
D51*
X177161670Y-89313457D03*
D50*
X181260000Y-81700000D03*
D51*
X147361670Y-97113457D03*
D52*
X149006513Y-93887863D03*
D50*
X122840000Y-81700000D03*
D51*
X188221141Y-86553986D03*
D50*
X153320000Y-81700000D03*
X132969000Y-107950000D03*
D51*
X145811670Y-97413457D03*
D50*
X148209000Y-107950000D03*
D51*
X178311670Y-99313454D03*
X152724265Y-97900863D03*
X178311671Y-96713456D03*
X182061671Y-96363455D03*
D50*
X143129000Y-107950000D03*
X166020000Y-81700000D03*
X171100000Y-81700000D03*
D51*
X188221141Y-84603985D03*
D50*
X160909000Y-107950000D03*
D51*
X138261671Y-85313455D03*
D50*
X150749000Y-107950000D03*
D52*
X139471142Y-94675862D03*
D50*
X191389000Y-107950000D03*
D51*
X157686670Y-98538456D03*
D50*
X173609000Y-107950000D03*
D51*
X183761671Y-106063456D03*
D50*
X171069000Y-107950000D03*
X129100000Y-90800000D03*
D51*
X174661670Y-92663456D03*
D50*
X163449000Y-107950000D03*
X193929000Y-107950000D03*
D51*
X172121140Y-84853984D03*
X183161671Y-97063457D03*
D50*
X130460000Y-81700000D03*
D51*
X137561670Y-84263456D03*
X135611671Y-85313455D03*
X145461670Y-100963457D03*
D52*
X139471141Y-92675865D03*
D51*
X177561669Y-99763455D03*
D50*
X155829000Y-107950000D03*
D51*
X151271141Y-92453984D03*
X150911671Y-88563455D03*
X171161670Y-98413456D03*
D50*
X183800000Y-81700000D03*
D52*
X141321141Y-92675862D03*
D51*
X148411670Y-87713456D03*
X142511670Y-98313457D03*
D50*
X158400000Y-81700000D03*
D51*
X149211670Y-88463456D03*
D52*
X133100000Y-96600000D03*
X132100000Y-89900000D03*
X146249265Y-104075861D03*
X132550000Y-90650000D03*
D51*
X146111670Y-95013456D03*
X146461670Y-96063454D03*
X187599265Y-83575861D03*
X144861670Y-98163457D03*
D50*
X125349000Y-107950000D03*
D52*
X169321142Y-92972930D03*
D51*
X188221141Y-83903986D03*
D50*
X165989000Y-107950000D03*
D52*
X140421140Y-94675864D03*
X132600000Y-95300000D03*
D50*
X139600000Y-100000000D03*
X127889000Y-107950000D03*
D51*
X176461671Y-99313455D03*
D52*
X143874141Y-97872863D03*
D51*
X148661671Y-95263455D03*
X136261669Y-84263456D03*
D50*
X150780000Y-81700000D03*
X178720000Y-81700000D03*
D51*
X153711671Y-88413455D03*
D52*
X141321140Y-94675862D03*
D51*
X135011671Y-84263456D03*
X132611670Y-84263456D03*
X171611668Y-99313455D03*
D52*
X173600000Y-92700000D03*
D50*
X129300000Y-98500000D03*
D51*
X136961671Y-85313457D03*
D52*
X134100000Y-95300000D03*
X149006511Y-92287862D03*
D51*
X147361670Y-95263457D03*
X175661670Y-99313455D03*
X142861670Y-97413457D03*
X172749265Y-85875863D03*
D50*
X193900000Y-81700000D03*
X127800000Y-92000000D03*
D52*
X148106514Y-92287862D03*
X143874141Y-89428861D03*
D50*
X133000000Y-81700000D03*
D52*
X148106513Y-93037862D03*
X152549077Y-104376051D03*
D50*
X127400000Y-98500000D03*
D51*
X133161671Y-85313456D03*
D52*
X148106513Y-93887865D03*
D51*
X151185770Y-98739355D03*
D50*
X135540000Y-81700000D03*
D52*
X153143143Y-99278862D03*
D50*
X155860000Y-81700000D03*
X127800000Y-93800000D03*
D51*
X188861670Y-102763456D03*
X176061672Y-100063455D03*
D50*
X140620000Y-81700000D03*
D51*
X167361669Y-100863456D03*
D52*
X175700000Y-92700000D03*
X176311669Y-86163456D03*
D50*
X130429000Y-107950000D03*
X138080000Y-81700000D03*
X173640000Y-81700000D03*
X127800000Y-88000000D03*
D51*
X187224076Y-85575863D03*
D52*
%TO.N,+15V*%
X184461670Y-100663457D03*
X155061669Y-90763457D03*
X184461670Y-102763456D03*
X184461671Y-85963455D03*
X184461670Y-85063456D03*
X184461671Y-101763455D03*
X155061671Y-89863456D03*
X172861671Y-102963456D03*
X184461670Y-99663456D03*
X184461671Y-84063455D03*
%TO.N,-15V*%
X176961669Y-106263455D03*
X175161670Y-84963457D03*
X175461670Y-87463458D03*
X178061670Y-106263457D03*
X175161670Y-86663457D03*
X155061671Y-96063454D03*
X176361670Y-87463457D03*
X155061669Y-96963457D03*
D51*
%TO.N,Net-(C215-Pad1)*%
X144171140Y-95275864D03*
X136271140Y-94475864D03*
%TO.N,VDDA*%
X171611671Y-89713456D03*
X165211670Y-106713457D03*
X153561670Y-84513457D03*
X171611668Y-90463455D03*
D52*
X161271143Y-94203985D03*
D51*
X164311670Y-106713457D03*
X166111670Y-106713457D03*
X171611671Y-91213457D03*
X167011669Y-106713457D03*
D52*
X161271143Y-92853985D03*
%TO.N,VIN*%
X143296143Y-94675862D03*
D51*
X137321142Y-94475864D03*
X137321142Y-92825865D03*
D52*
X146411672Y-84563455D03*
X142376141Y-91245863D03*
X142300144Y-96071864D03*
X146401641Y-102945364D03*
X143276141Y-91245863D03*
X147451641Y-102470363D03*
X148461668Y-84563455D03*
D51*
X137271141Y-93675863D03*
X138121142Y-94475864D03*
D52*
X143150142Y-96071862D03*
X136621140Y-93675862D03*
X143296144Y-92650863D03*
X148451640Y-102920365D03*
D51*
X138121142Y-92825865D03*
D52*
X144536671Y-84563455D03*
%TO.N,/Power/VPOS*%
X146211669Y-92863456D03*
X150004510Y-94581297D03*
D51*
%TO.N,Net-(C210-Pad1)*%
X144121141Y-92075863D03*
X136271142Y-92825865D03*
%TO.N,/ADC/ADC_CLKIN*%
X155161670Y-103713457D03*
%TO.N,/ADC/ADC_IRQ*%
X155711670Y-103113456D03*
%TO.N,Net-(R401-Pad1)*%
X175561671Y-96263456D03*
%TO.N,Net-(R402-Pad1)*%
X177211670Y-96263457D03*
%TO.N,/PMOD_CS_DAC*%
X175407439Y-89367688D03*
%TO.N,/PMOD_MOSI*%
X174411670Y-88613454D03*
X157761670Y-103363455D03*
X119461669Y-87650000D03*
%TO.N,/PMOD_MISO*%
X157761670Y-104063457D03*
X172811671Y-88613456D03*
X120311670Y-88413457D03*
%TO.N,/PMOD_SCK*%
X120085336Y-90314663D03*
X173611670Y-88613456D03*
X157761670Y-102663456D03*
%TO.N,/PMOD_CS_ADC*%
X157761670Y-101963455D03*
D53*
X123400000Y-95100000D03*
%TD*%
D54*
%TO.N,/Reference/VREF*%
X166711669Y-95063455D02*
X166711669Y-98077460D01*
X165571144Y-94825862D02*
X166474076Y-94825862D01*
X166474076Y-94825862D02*
X166711669Y-95063455D01*
X166711669Y-98077460D02*
X166983679Y-98349470D01*
X166983679Y-98349470D02*
X168099544Y-98349470D01*
X168099544Y-98349470D02*
X168105524Y-98343490D01*
X168109514Y-98340486D02*
G75*
G03*
X168105524Y-98343490I469686J-628014D01*
G01*
X168109514Y-98340486D02*
X168400000Y-98050000D01*
X168449995Y-97929290D02*
G75*
G02*
X168400000Y-98050000I-170695J-10D01*
G01*
X168450000Y-97929290D02*
X168450000Y-96650000D01*
X168451159Y-96631078D02*
G75*
G02*
X168450000Y-96650000I-4262159J251578D01*
G01*
X168451159Y-96631078D02*
X168451159Y-96398841D01*
X168451159Y-96398841D02*
X169124136Y-95725864D01*
X169124136Y-95725864D02*
X169321144Y-95725864D01*
D55*
X170850000Y-95950000D02*
X169700000Y-95950000D01*
X178161672Y-95363454D02*
X171436546Y-95363454D01*
X171436546Y-95363454D02*
X170850000Y-95950000D01*
X179361670Y-94163457D02*
X178161672Y-95363454D01*
X179361670Y-93280932D02*
X179361670Y-94163457D01*
X169574136Y-95725864D02*
X169321144Y-95725864D01*
X170761669Y-94538331D02*
X169574136Y-95725864D01*
X167436543Y-90763457D02*
X169911668Y-90763457D01*
X169911668Y-90763457D02*
X170761669Y-91613457D01*
X165571142Y-92628858D02*
X167436543Y-90763457D01*
X165571142Y-93575864D02*
X165571142Y-92628858D01*
X170761669Y-91613457D02*
X170761669Y-94538331D01*
D56*
%TO.N,/ADC/ADC_INPUT*%
X186476638Y-103736292D02*
G75*
G02*
X187900000Y-100300000I4859662J-8D01*
G01*
X186476641Y-103736292D02*
X186476641Y-103910364D01*
X188692893Y-99507107D02*
X187900000Y-100300000D01*
X188692890Y-99507104D02*
G75*
G03*
X189400000Y-97800000I-1707090J1707104D01*
G01*
X189400000Y-94700000D02*
X189400000Y-97800000D01*
D57*
%TO.N,VDD*%
X160208640Y-106200861D02*
X159074263Y-106200862D01*
D58*
X153633640Y-103838365D02*
X153571141Y-103900864D01*
X153633642Y-103091485D02*
X153633640Y-103838365D01*
D57*
X158296141Y-106200861D02*
X158276641Y-106220363D01*
D58*
X153633640Y-102175865D02*
X153633642Y-103091485D01*
D57*
X159074263Y-106200862D02*
X158296141Y-106200861D01*
D54*
%TO.N,GND*%
X168111669Y-105413456D02*
X168619736Y-105413456D01*
D55*
X177696140Y-103910862D02*
X176114263Y-103910861D01*
X176311669Y-86163456D02*
X176314266Y-86160861D01*
X163421142Y-93075864D02*
X163421142Y-96975864D01*
D54*
X147894513Y-94075865D02*
X148106513Y-93887865D01*
X133108141Y-94658864D02*
X133111142Y-94655863D01*
X164111672Y-104213457D02*
X164111672Y-100963457D01*
D55*
X187599265Y-83575861D02*
X187649264Y-83575862D01*
D58*
X146146140Y-104075863D02*
X145571142Y-104650861D01*
D55*
X151571141Y-105372928D02*
X150361671Y-104163456D01*
X144849075Y-104650861D02*
X144461671Y-104263456D01*
X167886669Y-100313457D02*
X167886670Y-100338456D01*
X151571141Y-105450862D02*
X151571141Y-105372928D01*
D58*
X153128514Y-93583866D02*
X153128512Y-93065864D01*
D54*
X149969141Y-99499865D02*
X150974770Y-99499865D01*
D55*
X159411671Y-98713456D02*
X161311672Y-96813455D01*
D54*
X147104513Y-94075865D02*
X147894513Y-94075865D01*
D57*
X161049076Y-105550863D02*
X161361668Y-105863456D01*
D55*
X168521142Y-103253985D02*
X168521141Y-102725862D01*
D54*
X150974770Y-99499865D02*
X151185770Y-99288864D01*
D55*
X169426643Y-106248484D02*
X168911672Y-106763455D01*
D54*
X149018511Y-93075864D02*
X148554512Y-93075864D01*
D58*
X153143143Y-99278862D02*
X153143140Y-98796864D01*
D54*
X164111672Y-100963457D02*
X163811670Y-100663457D01*
X151185770Y-98739355D02*
X151185772Y-98161234D01*
D55*
X188221141Y-84503984D02*
X188221141Y-84603985D01*
X167886670Y-100338456D02*
X167361669Y-100863456D01*
D54*
X165933641Y-104900863D02*
X164799076Y-104900863D01*
D55*
X169321142Y-93825863D02*
X169321142Y-92972930D01*
X145571142Y-104650861D02*
X144849075Y-104650861D01*
D54*
X132363141Y-94658862D02*
X133108141Y-94658864D01*
D58*
X147433641Y-85575863D02*
X146346141Y-85575863D01*
D54*
X151446143Y-97900865D02*
X151624261Y-97900865D01*
X168619736Y-105413456D02*
X169426643Y-106220361D01*
X151185772Y-98161234D02*
X151446143Y-97900865D01*
X151624261Y-97900865D02*
X152724265Y-97900863D01*
D57*
X160208642Y-105550861D02*
X161049076Y-105550863D01*
X168551141Y-102755863D02*
X168521142Y-102725864D01*
D55*
X165299263Y-96975864D02*
X164299264Y-96975864D01*
X157099142Y-95973864D02*
X157099142Y-97925985D01*
D58*
X153128512Y-92597864D02*
X153098511Y-92567865D01*
D55*
X158511672Y-98713456D02*
X159411671Y-98713456D01*
X169537142Y-102755863D02*
X169069265Y-102755863D01*
D54*
X152749263Y-91675864D02*
X152871142Y-91675864D01*
D55*
X165571142Y-96703985D02*
X165299263Y-96975864D01*
D54*
X151649263Y-91675864D02*
X152749263Y-91675864D01*
X151271141Y-92453984D02*
X151271142Y-91925863D01*
X148106513Y-93887865D02*
X147906513Y-94087863D01*
D58*
X143874141Y-97214864D02*
X143874141Y-97872863D01*
D55*
X177696140Y-103910862D02*
X179109077Y-103910861D01*
D57*
X160880243Y-106994884D02*
X157501162Y-106994884D01*
D58*
X153143140Y-98796864D02*
X153113140Y-98766863D01*
D59*
X124621141Y-98529677D02*
X122081141Y-98529677D01*
D55*
X161271143Y-96672928D02*
X161574078Y-96975864D01*
X172121142Y-83875861D02*
X172121140Y-84853984D01*
D58*
X153143142Y-99782865D02*
X153143143Y-99278862D01*
D54*
X152871142Y-97900865D02*
X153113141Y-98142863D01*
X164799076Y-104900863D02*
X164111672Y-104213457D01*
X151271141Y-92875864D02*
X151271141Y-92453984D01*
D55*
X161574078Y-96975864D02*
X162549263Y-96975865D01*
D54*
X151271142Y-91925863D02*
X151521141Y-91675864D01*
D58*
X146346141Y-85575863D02*
X146326642Y-85595363D01*
D54*
X152871142Y-91675864D02*
X153098511Y-91903234D01*
D57*
X161361668Y-105863456D02*
X161361670Y-106513457D01*
D55*
X152549077Y-105450862D02*
X152549077Y-104376051D01*
X177696142Y-86160861D02*
X176314266Y-86160861D01*
X187649264Y-83575862D02*
X188221141Y-83575863D01*
X188221141Y-84603985D02*
X188221141Y-85575861D01*
X188221141Y-85575861D02*
X188221141Y-86553986D01*
X172749265Y-85875863D02*
X173496140Y-85875863D01*
D54*
X167961669Y-105263456D02*
X168111669Y-105413456D01*
D55*
X169426643Y-106220361D02*
X169426643Y-106228427D01*
D58*
X145571142Y-86350862D02*
X144721141Y-86350864D01*
D57*
X161361670Y-106513457D02*
X160880243Y-106994884D01*
D54*
X167211670Y-105263456D02*
X167961669Y-105263456D01*
D55*
X186846140Y-83575863D02*
X187599265Y-83575861D01*
D54*
X150004512Y-93075864D02*
X149018511Y-93075864D01*
D55*
X188221141Y-85575861D02*
X187224076Y-85575863D01*
X164299264Y-96975864D02*
X163421142Y-96975864D01*
X157099142Y-97925985D02*
X157099142Y-97950929D01*
X172121142Y-85553985D02*
X172121142Y-85875863D01*
X157861671Y-98713456D02*
X158511672Y-98713456D01*
D58*
X153128512Y-93065864D02*
X153128512Y-92597864D01*
D54*
X151071141Y-93075864D02*
X151271141Y-92875864D01*
X152724265Y-97900863D02*
X152871142Y-97900865D01*
D57*
X157501162Y-106994884D02*
X157353139Y-106846861D01*
D55*
X161271143Y-96075865D02*
X161271143Y-96672928D01*
X179111671Y-103913457D02*
X179109077Y-103910861D01*
X168521142Y-103797862D02*
X168521142Y-103253985D01*
X165571141Y-96075863D02*
X165571142Y-96703985D01*
D54*
X151521141Y-91675864D02*
X151649263Y-91675864D01*
X165933643Y-105550861D02*
X166924265Y-105550863D01*
D55*
X156726641Y-106220363D02*
X156704764Y-106220363D01*
D57*
X157353139Y-106846861D02*
X156726641Y-106220363D01*
D54*
X153098511Y-91903234D02*
X153098511Y-92567865D01*
D55*
X162549263Y-96975865D02*
X163421142Y-96975864D01*
D54*
X153113141Y-98142863D02*
X153113140Y-98766863D01*
D55*
X169426643Y-106220361D02*
X169426643Y-106248484D01*
X172121140Y-84853984D02*
X172121142Y-85553985D01*
X156704764Y-106220363D02*
X156261671Y-106663457D01*
X172121142Y-85875863D02*
X172749265Y-85875863D01*
D54*
X151185770Y-98839354D02*
X151185770Y-98739355D01*
D55*
X157099142Y-97950929D02*
X157686670Y-98538456D01*
X188221141Y-83575863D02*
X188221141Y-83903986D01*
X188221141Y-83903986D02*
X188221141Y-84503984D01*
X169321142Y-93825863D02*
X169321142Y-94603984D01*
X168551141Y-102755863D02*
X168521141Y-102725862D01*
X169426643Y-106228427D02*
X169961669Y-106763455D01*
D58*
X147433641Y-104075863D02*
X146249265Y-104075861D01*
D54*
X166924265Y-105550863D02*
X167211670Y-105263456D01*
D55*
X151571141Y-105450862D02*
X152549077Y-105450862D01*
X167886670Y-100338456D02*
X168411671Y-100863455D01*
X157686670Y-98538456D02*
X157861671Y-98713456D01*
D58*
X146326642Y-85595363D02*
X145571142Y-86350862D01*
D55*
X169069265Y-102755863D02*
X168551141Y-102755863D01*
D58*
X143874141Y-90102861D02*
X143874141Y-89428861D01*
D55*
X152549077Y-105450862D02*
X153571141Y-105450862D01*
D54*
X150004512Y-93075864D02*
X151071141Y-93075864D01*
D58*
X146249265Y-104075861D02*
X146146140Y-104075863D01*
D54*
X151185770Y-99288864D02*
X151185770Y-98839354D01*
D57*
%TO.N,+15V*%
X169436669Y-100313456D02*
X169711670Y-100313456D01*
X171011670Y-102913456D02*
X172083203Y-102913456D01*
X170411671Y-102313456D02*
X171011670Y-102913456D01*
X169711670Y-100313456D02*
X170411669Y-101013455D01*
X172083203Y-102913456D02*
X172447435Y-102549223D01*
X170411669Y-101013455D02*
X170411671Y-102313456D01*
X172447435Y-100803744D02*
X172447435Y-102549223D01*
X172447435Y-102549223D02*
X172861671Y-102963456D01*
D54*
%TO.N,Net-(C212-Pad2)*%
X131204140Y-92658864D02*
X130859640Y-92314365D01*
X129714638Y-89075864D02*
X130827642Y-89075864D01*
X130859640Y-92314365D02*
X130859641Y-90216863D01*
X130827642Y-89075864D02*
X130857640Y-89045864D01*
X132363142Y-92658864D02*
X131204140Y-92658864D01*
X130857641Y-90214864D02*
X130859641Y-90216863D01*
X130857640Y-89045864D02*
X130857641Y-90214864D01*
%TO.N,Net-(C218-Pad2)*%
X132363139Y-94158863D02*
X130013141Y-94158864D01*
X129846140Y-95307862D02*
X129876144Y-95337864D01*
X130013141Y-94158864D02*
X129876144Y-94295862D01*
X129876144Y-94295862D02*
X129876144Y-95337864D01*
X128733144Y-95307862D02*
X129846140Y-95307862D01*
D60*
%TO.N,Net-(C215-Pad1)*%
X144834141Y-96103862D02*
X144866141Y-96071862D01*
X144866141Y-96071862D02*
X144866139Y-95970863D01*
X144834141Y-97214864D02*
X144834141Y-96103862D01*
X135263141Y-94158863D02*
X135954142Y-94158863D01*
X144866139Y-95970863D02*
X144171140Y-95275864D01*
X135954142Y-94158863D02*
X136271140Y-94475864D01*
D54*
%TO.N,Net-(C213-Pad2)*%
X132363141Y-93658866D02*
X132363142Y-93158862D01*
X129993140Y-93158864D02*
X132363142Y-93158862D01*
X129993140Y-93158864D02*
X129876140Y-93275864D01*
X129876142Y-92261863D02*
X129876140Y-93275864D01*
D55*
%TO.N,VDDA*%
X161271143Y-94203985D02*
X161271142Y-93575865D01*
D56*
X153674078Y-83675866D02*
X159311670Y-89313457D01*
D55*
X156200000Y-92374723D02*
X157099142Y-93273865D01*
D56*
X153633643Y-83675865D02*
X153674078Y-83675866D01*
D55*
X154399076Y-85400862D02*
X156200000Y-87201786D01*
X153571143Y-85400862D02*
X154399076Y-85400862D01*
D56*
X171211671Y-89313454D02*
X171611671Y-89713456D01*
D55*
X161271143Y-92853985D02*
X161271143Y-92622928D01*
X157099142Y-91800858D02*
X157099142Y-93273865D01*
X161271143Y-94825864D02*
X161271143Y-94203985D01*
X161271143Y-92622928D02*
X159311670Y-90663456D01*
X156200000Y-87201786D02*
X156200000Y-92374723D01*
X153571141Y-83738366D02*
X153571143Y-85400862D01*
X161271142Y-93575865D02*
X161271143Y-92853985D01*
D56*
X159311670Y-89313457D02*
X171211671Y-89313454D01*
D55*
X153633643Y-83675865D02*
X153571141Y-83738366D01*
X159311670Y-90663456D02*
X158236544Y-90663456D01*
X158236544Y-90663456D02*
X157099142Y-91800858D01*
D54*
X167876636Y-106220363D02*
G75*
G03*
X167857141Y-106200864I-19536J-37D01*
G01*
D58*
%TO.N,VIN*%
X141541139Y-91245863D02*
X141521144Y-91225862D01*
X143150142Y-96071862D02*
X142300144Y-96071864D01*
X144304141Y-93658863D02*
X143296144Y-92650863D01*
X142376141Y-91245863D02*
X141541139Y-91245863D01*
X143296143Y-94675862D02*
X143296140Y-96075864D01*
X141525143Y-96071862D02*
X141421144Y-96175861D01*
X144307142Y-93658863D02*
X144304141Y-93658863D01*
X143296144Y-92650863D02*
X143296142Y-91250863D01*
X142300144Y-96071864D02*
X141525143Y-96071862D01*
X143844140Y-91245863D02*
X143276141Y-91245863D01*
X143276141Y-91245863D02*
X142376141Y-91245863D01*
X144307142Y-93658863D02*
X144307142Y-93664862D01*
X143846140Y-96071862D02*
X143150142Y-96071862D01*
D56*
X141425143Y-96071862D02*
X141421140Y-96075862D01*
D58*
X144307142Y-93664862D02*
X143296143Y-94675862D01*
D59*
X124621141Y-101069677D02*
X122081141Y-101069677D01*
D54*
%TO.N,/Power/VPOS*%
X150004512Y-94075862D02*
X150004510Y-94581297D01*
D60*
%TO.N,Net-(C210-Pad1)*%
X144864142Y-91245863D02*
X144864139Y-91332863D01*
X135938141Y-93158864D02*
X136271142Y-92825865D01*
X144834143Y-90102861D02*
X144834141Y-91215864D01*
X144864139Y-91332863D02*
X144121141Y-92075863D01*
X135263143Y-93158862D02*
X135938141Y-93158864D01*
X144834141Y-91215864D02*
X144864142Y-91245863D01*
D54*
%TO.N,Net-(C204-Pad1)*%
X152108511Y-92597865D02*
X152138513Y-92567863D01*
X150004512Y-93575864D02*
X152100513Y-93575862D01*
X152100513Y-93575862D02*
X152108511Y-93583866D01*
X152108511Y-93583866D02*
X152108511Y-92597865D01*
%TO.N,Net-(C216-Pad1)*%
X149969141Y-99949864D02*
X151956140Y-99949864D01*
X151956140Y-99949864D02*
X152123142Y-99782863D01*
X152123142Y-99782863D02*
X152123142Y-98796862D01*
X152123142Y-98796862D02*
X152153141Y-98766863D01*
D58*
%TO.N,Net-(C202-Pad2)*%
X151571141Y-85400864D02*
X151571141Y-84789863D01*
X151407141Y-84625863D02*
X151571141Y-84789863D01*
X151571141Y-84789863D02*
X151571141Y-83738364D01*
X149708641Y-84625863D02*
X151407141Y-84625863D01*
X151571141Y-83738364D02*
X151508642Y-83675865D01*
%TO.N,Net-(C211-Pad2)*%
X151446141Y-103125863D02*
X151571141Y-103000862D01*
X149708641Y-103125863D02*
X151446141Y-103125863D01*
X151431141Y-102441863D02*
X151459141Y-102413863D01*
X151555140Y-102422363D02*
X151508642Y-102375863D01*
X151571141Y-103000862D02*
X151571141Y-102238364D01*
X151571141Y-103900865D02*
X151571141Y-103000862D01*
X151571141Y-102238364D02*
X151508642Y-102175863D01*
D56*
%TO.N,/Power/VNEG*%
X129846140Y-96327863D02*
X129876144Y-96297861D01*
X131471140Y-102475865D02*
X134771141Y-102475862D01*
X130671143Y-101675864D02*
X131471140Y-102475865D01*
D54*
X147169142Y-99949864D02*
X147899864Y-99949864D01*
X139811141Y-102961863D02*
X139909140Y-102863865D01*
D56*
X129876144Y-96297861D02*
X130671143Y-97092862D01*
X130671143Y-97092862D02*
X130671143Y-101675864D01*
X128733142Y-96327863D02*
X129846140Y-96327863D01*
D54*
%TO.N,Net-(C406-Pad1)*%
X177696140Y-84890864D02*
X178867476Y-84890864D01*
X179292141Y-88996864D02*
X179121142Y-88825865D01*
X179141142Y-88925862D02*
X179141139Y-85164529D01*
X179307438Y-90786141D02*
X179307437Y-89092161D01*
X179307437Y-89092161D02*
X179141142Y-88925862D01*
X178867476Y-84890861D02*
G75*
G02*
X179141139Y-85164529I24J-273639D01*
G01*
%TO.N,Net-(C406-Pad2)*%
X179957440Y-90786139D02*
X179957438Y-89069566D01*
X179942141Y-88964864D02*
X180081142Y-88825863D01*
X179957438Y-89069566D02*
X180101140Y-88925862D01*
X180101140Y-88925862D02*
X180101142Y-86700766D01*
X182646140Y-86160863D02*
X180641044Y-86160863D01*
X180641044Y-86160942D02*
G75*
G03*
X180101142Y-86700766I-44J-539858D01*
G01*
D56*
%TO.N,Net-(C410-Pad1)*%
X180262436Y-99825865D02*
X180262436Y-98012436D01*
D54*
X180262438Y-99825865D02*
X180262437Y-103042609D01*
X182646142Y-103910864D02*
X181130692Y-103910864D01*
D56*
X184826641Y-103910364D02*
X182646643Y-103910362D01*
X180262436Y-98012436D02*
X180250000Y-98000000D01*
X180607439Y-97986142D02*
X179957439Y-97986142D01*
D54*
X181130692Y-103910863D02*
G75*
G02*
X180262437Y-103042609I8J868263D01*
G01*
D56*
X182646063Y-103910858D02*
G75*
G02*
X182646643Y-103910363I537J-42D01*
G01*
D54*
%TO.N,Net-(C410-Pad2)*%
X177696145Y-102640862D02*
X178896519Y-102640864D01*
X179302440Y-99825865D02*
X179302438Y-102234943D01*
X179307438Y-97986142D02*
X179307437Y-99820866D01*
X178896519Y-102640838D02*
G75*
G03*
X179302438Y-102234943I-19J405938D01*
G01*
X179302441Y-99825937D02*
G75*
G03*
X179307437Y-99820866I-41J5037D01*
G01*
%TO.N,/Reference/VREF*%
X165933641Y-104250862D02*
X164799076Y-104250862D01*
D55*
X178007439Y-90786142D02*
X178007439Y-92407439D01*
X180607439Y-92592561D02*
X179919068Y-93280932D01*
D54*
X168761669Y-99313456D02*
X169321143Y-98753983D01*
D55*
X178007439Y-92407439D02*
X178880932Y-93280932D01*
X180607439Y-90786139D02*
X180607439Y-92592561D01*
D54*
X166775735Y-99700000D02*
X167162280Y-99313455D01*
X164561672Y-99964064D02*
X164825736Y-99700000D01*
D55*
X178880932Y-93280932D02*
X179361670Y-93280932D01*
D54*
X164825736Y-99700000D02*
X166775735Y-99700000D01*
X167162280Y-99313455D02*
X168761669Y-99313456D01*
D55*
X179919068Y-93280932D02*
X179361670Y-93280932D01*
D54*
X164561672Y-104013456D02*
X164561672Y-99964064D01*
D56*
X169321143Y-97625862D02*
X169321142Y-95725864D01*
D54*
X164799076Y-104250862D02*
X164561672Y-104013456D01*
X169321143Y-98753983D02*
X169321143Y-97625862D01*
D60*
%TO.N,/ADC/ADC_INPUT*%
X179876641Y-103720363D02*
X179876641Y-104045362D01*
X184451641Y-104820363D02*
X184751641Y-104820363D01*
X174977731Y-103270363D02*
X179426639Y-103270361D01*
X173717439Y-105753744D02*
X173717439Y-104530656D01*
X186476641Y-104716627D02*
X186476643Y-103910362D01*
X180376644Y-104545363D02*
X184176640Y-104545363D01*
X184751641Y-104820363D02*
X184751757Y-104820479D01*
X184751757Y-104820479D02*
X186400734Y-104820477D01*
X184326637Y-104695363D02*
G75*
G03*
X184176640Y-104545363I-150037J-37D01*
G01*
X186476710Y-104716629D02*
G75*
G02*
X186400734Y-104820477I-113510J3329D01*
G01*
X179876639Y-103720363D02*
G75*
G03*
X179426639Y-103270361I-450039J-37D01*
G01*
X174977731Y-103270439D02*
G75*
G03*
X173717439Y-104530656I-31J-1260261D01*
G01*
X180376644Y-104545359D02*
G75*
G02*
X179876641Y-104045362I-44J499959D01*
G01*
X184451641Y-104820360D02*
G75*
G02*
X184326640Y-104695363I-41J124960D01*
G01*
%TO.N,/ADC/ADC_CLKIN*%
X157150000Y-105250000D02*
X155613457Y-103713457D01*
X158799137Y-104900863D02*
X158450000Y-105250000D01*
X158450000Y-105250000D02*
X157150000Y-105250000D01*
X160208642Y-104900863D02*
X158799137Y-104900863D01*
X155613457Y-103713457D02*
X155161670Y-103713457D01*
%TO.N,/ADC/ADC_IRQ*%
X157348214Y-104750000D02*
X155711670Y-103113456D01*
X158275126Y-104750000D02*
X157348214Y-104750000D01*
X158774264Y-104250862D02*
X158275126Y-104750000D01*
X160208642Y-104250862D02*
X158774264Y-104250862D01*
D54*
%TO.N,Net-(R401-Pad1)*%
X175561671Y-96263456D02*
X175311670Y-96513457D01*
X175311670Y-96513457D02*
X173711671Y-96513456D01*
X173711671Y-96513456D02*
X173457438Y-96767686D01*
X173457438Y-96767686D02*
X173457438Y-97986140D01*
%TO.N,Net-(R402-Pad1)*%
X177357439Y-97986142D02*
X177357439Y-96409226D01*
X177357439Y-96409226D02*
X177211670Y-96263457D01*
%TO.N,Net-(R501-Pad2)*%
X172447437Y-103774568D02*
X172734787Y-103774567D01*
X172447437Y-103774568D02*
X172447438Y-105753744D01*
X172447437Y-103774568D02*
X169543843Y-103774568D01*
X173717439Y-100803744D02*
X173717439Y-102791917D01*
X173717467Y-102791917D02*
G75*
G02*
X172734787Y-103774567I-982667J17D01*
G01*
X169537132Y-103767865D02*
G75*
G03*
X169543843Y-103774568I6668J-35D01*
G01*
D60*
%TO.N,/PMOD_CS_DAC*%
X175407439Y-90786140D02*
X175407439Y-89367688D01*
%TO.N,/PMOD_MOSI*%
X160208640Y-102950861D02*
X158174264Y-102950862D01*
X158174264Y-102950862D02*
X157761670Y-103363455D01*
X174757440Y-88959224D02*
X174411670Y-88613454D01*
X174757439Y-90786142D02*
X174757440Y-88959224D01*
%TO.N,/PMOD_MISO*%
X158224265Y-103600862D02*
X157761670Y-104063457D01*
X120711669Y-92080206D02*
X122081141Y-93449676D01*
X120311670Y-89763457D02*
X120711671Y-90163455D01*
X173457438Y-89259226D02*
X172811671Y-88613456D01*
X120311670Y-88413457D02*
X120311670Y-89763457D01*
X120711671Y-90163455D02*
X120711669Y-92080206D01*
X173457438Y-90786142D02*
X173457438Y-89259226D01*
X160208640Y-103600862D02*
X158224265Y-103600862D01*
%TO.N,/PMOD_SCK*%
X158124263Y-102300863D02*
X157761670Y-102663456D01*
X160208642Y-102300861D02*
X158124263Y-102300863D01*
X174107439Y-90786142D02*
X174107441Y-89109224D01*
X120085336Y-90337123D02*
X120311670Y-90563457D01*
X120311670Y-94220206D02*
X122081141Y-95989678D01*
X174107441Y-89109224D02*
X173611670Y-88613456D01*
X120311670Y-90563457D02*
X120311670Y-94220206D01*
X120085336Y-90314663D02*
X120085336Y-90337123D01*
D54*
%TO.N,Net-(C501-Pad1)*%
X167501641Y-104045941D02*
X167501641Y-104312688D01*
X168521142Y-104757864D02*
X167946817Y-104757862D01*
X169537142Y-104787863D02*
X168551141Y-104787863D01*
X167056564Y-103600862D02*
X165933641Y-103600864D01*
X167501638Y-104312688D02*
G75*
G03*
X167946817Y-104757862I445162J-12D01*
G01*
X167056564Y-103600859D02*
G75*
G02*
X167501641Y-104045941I36J-445041D01*
G01*
X168521137Y-104757864D02*
G75*
G03*
X168551141Y-104787863I29963J-36D01*
G01*
%TO.N,Net-(C502-Pad1)*%
X169537139Y-101735865D02*
X168551143Y-101735865D01*
X168521139Y-101765864D02*
X167882309Y-101765862D01*
X167501643Y-102146528D02*
X167501643Y-102494022D01*
X167044802Y-102950864D02*
X165933640Y-102950865D01*
X167044802Y-102950843D02*
G75*
G03*
X167501643Y-102494022I-2J456843D01*
G01*
X167501662Y-102146528D02*
G75*
G02*
X167882309Y-101765862I380638J28D01*
G01*
X168521065Y-101765864D02*
G75*
G02*
X168551143Y-101735865I30035J-36D01*
G01*
D60*
%TO.N,/PMOD_CS_ADC*%
X160208642Y-101650863D02*
X158074265Y-101650863D01*
X158074265Y-101650863D02*
X157761670Y-101963455D01*
%TD*%
%TA.AperFunction,Conductor*%
%TO.N,GND*%
G36*
X134215931Y-91320002D02*
G01*
X134236905Y-91336905D01*
X134563095Y-91663095D01*
X134597121Y-91725407D01*
X134600000Y-91752190D01*
X134600000Y-95447810D01*
X134579998Y-95515931D01*
X134563095Y-95536905D01*
X134336905Y-95763095D01*
X134274593Y-95797121D01*
X134247810Y-95800000D01*
X132026000Y-95800000D01*
X131957879Y-95779998D01*
X131911386Y-95726342D01*
X131900000Y-95674000D01*
X131900000Y-94726000D01*
X131920002Y-94657879D01*
X131973658Y-94611386D01*
X132026000Y-94600000D01*
X133000000Y-94600000D01*
X133000000Y-92300000D01*
X131726000Y-92300000D01*
X131657879Y-92279998D01*
X131611386Y-92226342D01*
X131600000Y-92174000D01*
X131600000Y-91426000D01*
X131620002Y-91357879D01*
X131673658Y-91311386D01*
X131726000Y-91300000D01*
X134147810Y-91300000D01*
X134215931Y-91320002D01*
G37*
%TD.AperFunction*%
%TD*%
%TA.AperFunction,Conductor*%
%TO.N,-15V*%
G36*
X155503791Y-95483458D02*
G01*
X155550284Y-95537114D01*
X155561670Y-95589456D01*
X155561672Y-99037455D01*
X155541670Y-99105576D01*
X155488014Y-99152069D01*
X155435672Y-99163455D01*
X154087669Y-99163455D01*
X154019548Y-99143453D01*
X153973055Y-99089797D01*
X153961669Y-99037455D01*
X153961669Y-96963455D01*
X153903418Y-96963455D01*
X153487670Y-96963456D01*
X153419550Y-96943454D01*
X153373057Y-96889799D01*
X153361671Y-96837456D01*
X153361672Y-95589456D01*
X153381674Y-95521335D01*
X153435330Y-95474842D01*
X153487672Y-95463456D01*
X155435670Y-95463456D01*
X155503791Y-95483458D01*
G37*
%TD.AperFunction*%
%TD*%
%TA.AperFunction,Conductor*%
%TO.N,GND*%
G36*
X193942121Y-89520002D02*
G01*
X193988614Y-89573658D01*
X194000000Y-89626000D01*
X194000000Y-100074000D01*
X193979998Y-100142121D01*
X193926342Y-100188614D01*
X193874000Y-100200000D01*
X190300000Y-100200000D01*
X190300000Y-102874000D01*
X190279998Y-102942121D01*
X190226342Y-102988614D01*
X190174000Y-103000000D01*
X187093445Y-103000000D01*
X187025324Y-102979998D01*
X186978831Y-102926342D01*
X186968727Y-102856068D01*
X186970432Y-102846728D01*
X186971329Y-102842686D01*
X187006723Y-102683033D01*
X187027892Y-102587548D01*
X187030737Y-102576931D01*
X187123095Y-102284008D01*
X187144407Y-102216417D01*
X187148163Y-102206095D01*
X187149888Y-102201931D01*
X187292826Y-101856848D01*
X187297469Y-101846892D01*
X187303349Y-101835598D01*
X187472015Y-101511595D01*
X187477511Y-101502076D01*
X187680615Y-101183265D01*
X187686920Y-101174261D01*
X187917034Y-100874371D01*
X187924099Y-100865951D01*
X188020887Y-100760325D01*
X188157919Y-100610781D01*
X188176748Y-100593975D01*
X188186726Y-100586726D01*
X188199655Y-100568931D01*
X188212495Y-100553898D01*
X188946790Y-99819603D01*
X188961824Y-99806762D01*
X188971599Y-99799660D01*
X188979618Y-99793834D01*
X188985445Y-99785814D01*
X188986144Y-99785115D01*
X188992908Y-99776790D01*
X189118513Y-99638207D01*
X189164210Y-99587788D01*
X189328956Y-99365657D01*
X189471135Y-99128447D01*
X189503128Y-99060805D01*
X189588057Y-98881237D01*
X189589378Y-98878444D01*
X189591914Y-98871358D01*
X189648412Y-98713456D01*
X189682548Y-98618054D01*
X189683297Y-98615064D01*
X189683300Y-98615054D01*
X189748994Y-98352789D01*
X189748995Y-98352785D01*
X189749746Y-98349786D01*
X189765866Y-98241117D01*
X189789871Y-98079283D01*
X189790325Y-98076223D01*
X189802843Y-97821421D01*
X189803941Y-97810808D01*
X189803941Y-97809793D01*
X189805492Y-97800000D01*
X189802051Y-97778274D01*
X189800500Y-97758564D01*
X189800500Y-96050526D01*
X189820502Y-95982405D01*
X189873250Y-95936331D01*
X190057785Y-95850281D01*
X190057790Y-95850278D01*
X190062772Y-95847955D01*
X190104384Y-95818818D01*
X190247532Y-95718585D01*
X190247535Y-95718583D01*
X190252043Y-95715426D01*
X190415426Y-95552043D01*
X190442989Y-95512680D01*
X190544798Y-95367281D01*
X190544799Y-95367279D01*
X190547955Y-95362772D01*
X190550278Y-95357790D01*
X190550281Y-95357785D01*
X190643281Y-95158345D01*
X190643282Y-95158344D01*
X190645604Y-95153363D01*
X190663523Y-95086490D01*
X190703982Y-94935493D01*
X190703982Y-94935491D01*
X190705406Y-94930178D01*
X190725544Y-94700000D01*
X190705406Y-94469822D01*
X190645604Y-94246637D01*
X190643281Y-94241655D01*
X190550281Y-94042215D01*
X190550278Y-94042210D01*
X190547955Y-94037228D01*
X190415426Y-93847957D01*
X190252043Y-93684574D01*
X190247535Y-93681417D01*
X190247532Y-93681415D01*
X190067281Y-93555202D01*
X190067279Y-93555201D01*
X190062772Y-93552045D01*
X190057790Y-93549722D01*
X190057785Y-93549719D01*
X189858345Y-93456719D01*
X189858344Y-93456718D01*
X189853363Y-93454396D01*
X189848055Y-93452974D01*
X189848053Y-93452973D01*
X189635493Y-93396018D01*
X189635491Y-93396018D01*
X189630178Y-93394594D01*
X189400000Y-93374456D01*
X189169822Y-93394594D01*
X189164509Y-93396018D01*
X189164507Y-93396018D01*
X188951947Y-93452973D01*
X188951945Y-93452974D01*
X188946637Y-93454396D01*
X188941656Y-93456718D01*
X188941655Y-93456719D01*
X188742215Y-93549719D01*
X188742210Y-93549722D01*
X188737228Y-93552045D01*
X188732721Y-93555201D01*
X188732719Y-93555202D01*
X188552468Y-93681415D01*
X188552465Y-93681417D01*
X188547957Y-93684574D01*
X188384574Y-93847957D01*
X188252045Y-94037228D01*
X188249722Y-94042210D01*
X188249719Y-94042215D01*
X188156719Y-94241655D01*
X188154396Y-94246637D01*
X188094594Y-94469822D01*
X188074456Y-94700000D01*
X188094594Y-94930178D01*
X188096018Y-94935491D01*
X188096018Y-94935493D01*
X188136478Y-95086490D01*
X188154396Y-95153363D01*
X188156718Y-95158344D01*
X188156719Y-95158345D01*
X188249719Y-95357785D01*
X188249722Y-95357790D01*
X188252045Y-95362772D01*
X188255201Y-95367279D01*
X188255202Y-95367281D01*
X188357012Y-95512680D01*
X188384574Y-95552043D01*
X188547957Y-95715426D01*
X188552465Y-95718583D01*
X188552468Y-95718585D01*
X188695616Y-95818818D01*
X188737228Y-95847955D01*
X188742210Y-95850278D01*
X188742215Y-95850281D01*
X188926750Y-95936331D01*
X188980035Y-95983249D01*
X188999500Y-96050526D01*
X188999500Y-97758564D01*
X188997949Y-97778274D01*
X188994508Y-97800000D01*
X188996059Y-97809793D01*
X188996059Y-97809795D01*
X188996084Y-97809953D01*
X188997437Y-97836726D01*
X188987235Y-98018399D01*
X188985653Y-98032440D01*
X188950197Y-98241117D01*
X188947053Y-98254892D01*
X188888453Y-98458296D01*
X188883794Y-98471611D01*
X188802787Y-98667179D01*
X188796656Y-98679909D01*
X188694265Y-98865169D01*
X188686758Y-98877118D01*
X188564258Y-99049766D01*
X188555453Y-99060805D01*
X188434194Y-99196492D01*
X188414304Y-99214469D01*
X188406168Y-99220380D01*
X188400342Y-99228399D01*
X188393240Y-99238174D01*
X188380399Y-99253208D01*
X187646102Y-99987505D01*
X187631069Y-100000345D01*
X187613274Y-100013274D01*
X187608610Y-100019694D01*
X187604905Y-100023702D01*
X187603879Y-100024769D01*
X187603563Y-100025154D01*
X187333356Y-100317461D01*
X187077457Y-100642067D01*
X187076080Y-100644128D01*
X187076077Y-100644132D01*
X187054885Y-100675848D01*
X186847815Y-100985750D01*
X186645846Y-101346391D01*
X186472796Y-101721766D01*
X186471943Y-101724077D01*
X186471943Y-101724078D01*
X186358544Y-102031459D01*
X186329730Y-102109561D01*
X186329058Y-102111945D01*
X186329056Y-102111950D01*
X186317291Y-102153665D01*
X186217531Y-102507386D01*
X186140950Y-102892381D01*
X186139717Y-102898581D01*
X186106809Y-102961491D01*
X186045114Y-102996623D01*
X186016138Y-103000000D01*
X185626000Y-103000000D01*
X185557879Y-102979998D01*
X185511386Y-102926342D01*
X185500000Y-102874000D01*
X185500000Y-98706728D01*
X185486328Y-98706782D01*
X185486326Y-98706782D01*
X183811922Y-98713455D01*
X183811420Y-98713456D01*
X181687670Y-98713456D01*
X181619549Y-98693454D01*
X181573056Y-98639798D01*
X181561670Y-98587456D01*
X181561668Y-96831572D01*
X181561668Y-96813457D01*
X180406391Y-96813456D01*
X178879787Y-96813455D01*
X178861672Y-96813455D01*
X178861670Y-97045081D01*
X178861670Y-99467235D01*
X178849865Y-99520483D01*
X178828464Y-99566378D01*
X178821936Y-99615964D01*
X178821937Y-100035765D01*
X178828464Y-100085352D01*
X178832537Y-100094086D01*
X178832537Y-100094087D01*
X178849865Y-100131246D01*
X178861670Y-100184496D01*
X178861670Y-100387457D01*
X178841668Y-100455578D01*
X178788012Y-100502071D01*
X178735670Y-100513457D01*
X177186670Y-100513458D01*
X175637670Y-100513458D01*
X175569549Y-100493456D01*
X175523056Y-100439800D01*
X175511670Y-100387458D01*
X175511671Y-100031640D01*
X175511671Y-99563457D01*
X170937670Y-99563457D01*
X170869549Y-99543455D01*
X170823056Y-99489799D01*
X170811670Y-99437457D01*
X170811670Y-97239457D01*
X170831672Y-97171336D01*
X170885328Y-97124843D01*
X170937670Y-97113457D01*
X171911670Y-97113458D01*
X172885670Y-97113458D01*
X172953791Y-97133460D01*
X173000284Y-97187116D01*
X173011670Y-97239457D01*
X173011671Y-99213456D01*
X174511670Y-99213456D01*
X174511670Y-98981373D01*
X174519481Y-98942104D01*
X174521306Y-98939373D01*
X174532939Y-98880890D01*
X174532939Y-97239457D01*
X174552941Y-97171336D01*
X174606597Y-97124843D01*
X174658939Y-97113457D01*
X175805068Y-97113456D01*
X176785670Y-97113455D01*
X176853791Y-97133457D01*
X176900284Y-97187113D01*
X176911670Y-97239455D01*
X176911670Y-99213457D01*
X177275369Y-99213457D01*
X177761670Y-99213456D01*
X177761670Y-98981373D01*
X177769481Y-98942104D01*
X177771306Y-98939373D01*
X177782939Y-98880890D01*
X177782939Y-97091394D01*
X177771306Y-97032911D01*
X177769481Y-97030180D01*
X177761670Y-96990911D01*
X177761670Y-96089456D01*
X177781672Y-96021335D01*
X177835328Y-95974842D01*
X177887670Y-95963456D01*
X181560792Y-95963456D01*
X181562538Y-95963468D01*
X184200000Y-96000000D01*
X184200000Y-89626000D01*
X184220002Y-89557879D01*
X184273658Y-89511386D01*
X184326000Y-89500000D01*
X193874000Y-89500000D01*
X193942121Y-89520002D01*
G37*
%TD.AperFunction*%
%TD*%
%TA.AperFunction,Conductor*%
%TO.N,Net-(D201-Pad2)*%
G36*
X138830333Y-88194769D02*
G01*
X138866297Y-88244269D01*
X138871142Y-88274862D01*
X138871142Y-91676865D01*
X138852235Y-91735056D01*
X138802735Y-91771020D01*
X138772143Y-91775865D01*
X137144599Y-91775863D01*
X136871142Y-91775863D01*
X136301922Y-92345083D01*
X136247405Y-92372860D01*
X136231315Y-92374077D01*
X136221282Y-92374016D01*
X136216287Y-92373985D01*
X136209236Y-92373942D01*
X136202459Y-92375879D01*
X136202458Y-92375879D01*
X136091665Y-92407544D01*
X136091663Y-92407545D01*
X136084885Y-92409482D01*
X136078921Y-92413245D01*
X135981475Y-92474729D01*
X135981473Y-92474731D01*
X135975507Y-92478495D01*
X135889894Y-92575432D01*
X135886898Y-92581814D01*
X135886897Y-92581815D01*
X135842272Y-92676865D01*
X135834930Y-92692502D01*
X135833846Y-92699466D01*
X135831907Y-92705808D01*
X135796813Y-92755928D01*
X135737233Y-92775864D01*
X135296201Y-92775865D01*
X134970140Y-92775865D01*
X134911949Y-92756958D01*
X134875985Y-92707458D01*
X134871140Y-92676865D01*
X134871141Y-91341543D01*
X134871141Y-91325863D01*
X134202776Y-90705238D01*
X134173000Y-90651786D01*
X134171141Y-90632691D01*
X134171141Y-88274862D01*
X134190048Y-88216671D01*
X134239548Y-88180707D01*
X134270141Y-88175862D01*
X138772142Y-88175862D01*
X138830333Y-88194769D01*
G37*
%TD.AperFunction*%
%TD*%
%TA.AperFunction,Conductor*%
%TO.N,Net-(C208-Pad1)*%
G36*
X152465702Y-89156771D02*
G01*
X152501666Y-89206271D01*
X152506511Y-89236864D01*
X152506511Y-90838866D01*
X152487604Y-90897057D01*
X152438104Y-90933021D01*
X152407512Y-90937866D01*
X151038949Y-90937863D01*
X150806511Y-90937863D01*
X150767600Y-90976774D01*
X150767599Y-90976776D01*
X150756513Y-90987862D01*
X150756513Y-92588863D01*
X150737606Y-92647054D01*
X150688106Y-92683018D01*
X150657513Y-92687863D01*
X149705512Y-92687863D01*
X149647321Y-92668956D01*
X149611357Y-92619456D01*
X149606512Y-92588863D01*
X149606512Y-90987861D01*
X149551672Y-90933021D01*
X149435511Y-90816859D01*
X149407734Y-90762343D01*
X149406515Y-90746856D01*
X149406511Y-89236864D01*
X149425418Y-89178673D01*
X149474918Y-89142709D01*
X149505511Y-89137864D01*
X152407511Y-89137864D01*
X152465702Y-89156771D01*
G37*
%TD.AperFunction*%
%TD*%
%TA.AperFunction,Conductor*%
%TO.N,-15V*%
G36*
X175703792Y-83183457D02*
G01*
X175750285Y-83237113D01*
X175761671Y-83289455D01*
X175761672Y-87063456D01*
X178535671Y-87063456D01*
X178603792Y-87083458D01*
X178650285Y-87137114D01*
X178661671Y-87189456D01*
X178661669Y-87737458D01*
X178641667Y-87805579D01*
X178588011Y-87852072D01*
X178535669Y-87863458D01*
X176611670Y-87863458D01*
X174687670Y-87863457D01*
X174619549Y-87843455D01*
X174573056Y-87789799D01*
X174561670Y-87737457D01*
X174561670Y-84663458D01*
X174513128Y-84663458D01*
X174187670Y-84663457D01*
X174119549Y-84643455D01*
X174073056Y-84589799D01*
X174061670Y-84537457D01*
X174061672Y-83289455D01*
X174081674Y-83221334D01*
X174135330Y-83174841D01*
X174187672Y-83163455D01*
X175635671Y-83163455D01*
X175703792Y-83183457D01*
G37*
%TD.AperFunction*%
%TD*%
%TA.AperFunction,Conductor*%
%TO.N,GND*%
G36*
X142713263Y-92245865D02*
G01*
X142759756Y-92299521D01*
X142771142Y-92351863D01*
X142771142Y-94949863D01*
X142751140Y-95017984D01*
X142697484Y-95064477D01*
X142645142Y-95075863D01*
X139047140Y-95075863D01*
X138979019Y-95055861D01*
X138932526Y-95002205D01*
X138921140Y-94949863D01*
X138921140Y-92351865D01*
X138941142Y-92283744D01*
X138994798Y-92237251D01*
X139047140Y-92225865D01*
X142645142Y-92225863D01*
X142713263Y-92245865D01*
G37*
%TD.AperFunction*%
%TD*%
%TA.AperFunction,Conductor*%
%TO.N,+15V*%
G36*
X185003793Y-99183457D02*
G01*
X185050286Y-99237113D01*
X185061672Y-99289455D01*
X185061670Y-103108864D01*
X185041668Y-103176985D01*
X184988012Y-103223478D01*
X184935670Y-103234864D01*
X184613126Y-103234865D01*
X184595123Y-103234865D01*
X184590230Y-103235640D01*
X184590229Y-103235640D01*
X184511135Y-103248166D01*
X184511133Y-103248167D01*
X184501337Y-103249718D01*
X184492500Y-103254221D01*
X184483069Y-103257285D01*
X184482157Y-103254478D01*
X184444124Y-103263456D01*
X181687671Y-103263456D01*
X181619550Y-103243454D01*
X181573057Y-103189798D01*
X181561671Y-103137456D01*
X181561671Y-102189457D01*
X181581673Y-102121336D01*
X181635329Y-102074843D01*
X181687671Y-102063457D01*
X183659994Y-102063455D01*
X183961669Y-102063455D01*
X183961672Y-100563455D01*
X183835470Y-100563455D01*
X182787670Y-100563454D01*
X182719549Y-100543452D01*
X182673056Y-100489796D01*
X182661670Y-100437454D01*
X182661671Y-99289455D01*
X182681673Y-99221334D01*
X182735329Y-99174841D01*
X182787671Y-99163455D01*
X184935672Y-99163455D01*
X185003793Y-99183457D01*
G37*
%TD.AperFunction*%
%TD*%
%TA.AperFunction,Conductor*%
%TO.N,+15V*%
G36*
X185803791Y-82983459D02*
G01*
X185850284Y-83037115D01*
X185861670Y-83089457D01*
X185861670Y-84663457D01*
X185910212Y-84663457D01*
X186235670Y-84663458D01*
X186303791Y-84683460D01*
X186350284Y-84737116D01*
X186361670Y-84789458D01*
X186361671Y-86237457D01*
X186341669Y-86305578D01*
X186288013Y-86352071D01*
X186235671Y-86363457D01*
X184287670Y-86363457D01*
X184219549Y-86343455D01*
X184173056Y-86289799D01*
X184161670Y-86237457D01*
X184161670Y-85263456D01*
X183918958Y-85263456D01*
X181787670Y-85263457D01*
X181719549Y-85243455D01*
X181673056Y-85189799D01*
X181661670Y-85137457D01*
X181661670Y-84589456D01*
X181681672Y-84521335D01*
X181735328Y-84474842D01*
X181787670Y-84463456D01*
X184161670Y-84463456D01*
X184161670Y-83089457D01*
X184181672Y-83021336D01*
X184235328Y-82974843D01*
X184287670Y-82963457D01*
X185735670Y-82963457D01*
X185803791Y-82983459D01*
G37*
%TD.AperFunction*%
%TD*%
%TA.AperFunction,Conductor*%
%TO.N,Net-(C217-Pad1)*%
G36*
X135096143Y-98575864D02*
G01*
X135768951Y-98575865D01*
X135837072Y-98595867D01*
X135858044Y-98612767D01*
X136921140Y-99675861D01*
X137022440Y-99675861D01*
X138095142Y-99675866D01*
X138163262Y-99695868D01*
X138209755Y-99749524D01*
X138221141Y-99801866D01*
X138221142Y-101849862D01*
X138201140Y-101917983D01*
X138147484Y-101964476D01*
X138095142Y-101975862D01*
X132097143Y-101975862D01*
X132029022Y-101955860D01*
X131982529Y-101902204D01*
X131971143Y-101849862D01*
X131971143Y-100651864D01*
X131991145Y-100583743D01*
X132044801Y-100537250D01*
X132097143Y-100525864D01*
X134221142Y-100525864D01*
X134221142Y-98778056D01*
X134241144Y-98709935D01*
X134258046Y-98688961D01*
X134334239Y-98612767D01*
X134396551Y-98578742D01*
X134423334Y-98575862D01*
X135096143Y-98575864D01*
G37*
%TD.AperFunction*%
%TD*%
%TA.AperFunction,Conductor*%
%TO.N,/Power/VNEG*%
G36*
X149330334Y-97594771D02*
G01*
X149366298Y-97644271D01*
X149371143Y-97674864D01*
X149371141Y-100376863D01*
X149352234Y-100435054D01*
X149302734Y-100471018D01*
X149272141Y-100475863D01*
X147870140Y-100475863D01*
X147811949Y-100456956D01*
X147775985Y-100407456D01*
X147771140Y-100376863D01*
X147771140Y-100075864D01*
X147753633Y-100013037D01*
X147750000Y-99986463D01*
X147750000Y-99958374D01*
X147751405Y-99941751D01*
X147770443Y-99829976D01*
X147770443Y-99829974D01*
X147771143Y-99825865D01*
X147771140Y-99175864D01*
X147554122Y-99175864D01*
X147544420Y-99175387D01*
X147543653Y-99175312D01*
X147538890Y-99174364D01*
X146799394Y-99174364D01*
X146794631Y-99175312D01*
X146793864Y-99175387D01*
X146784162Y-99175864D01*
X146471139Y-99175864D01*
X145950000Y-99725000D01*
X145949651Y-99725384D01*
X145729459Y-99967595D01*
X145676325Y-99997934D01*
X145656205Y-100000000D01*
X144371140Y-100000000D01*
X144371140Y-100008243D01*
X144371141Y-101575863D01*
X144371140Y-103476863D01*
X144352233Y-103535054D01*
X144302733Y-103571018D01*
X144272140Y-103575863D01*
X138371141Y-103575863D01*
X138371141Y-105076861D01*
X138352234Y-105135052D01*
X138302734Y-105171016D01*
X138272141Y-105175861D01*
X136387530Y-105175862D01*
X134566786Y-105175863D01*
X134508595Y-105156956D01*
X134472631Y-105107456D01*
X134467845Y-105080275D01*
X134374671Y-102378276D01*
X134391561Y-102319468D01*
X134439793Y-102281820D01*
X134473612Y-102275864D01*
X141941589Y-102275862D01*
X143100000Y-102275862D01*
X143100000Y-98874863D01*
X143118907Y-98816672D01*
X143168407Y-98780708D01*
X143199000Y-98775863D01*
X144371141Y-98775863D01*
X145355461Y-98775864D01*
X145371141Y-98775864D01*
X145960699Y-98164464D01*
X145962692Y-98162456D01*
X146532806Y-97604133D01*
X146587609Y-97576926D01*
X146602074Y-97575864D01*
X149272143Y-97575864D01*
X149330334Y-97594771D01*
G37*
%TD.AperFunction*%
%TD*%
%TA.AperFunction,Conductor*%
%TO.N,/Power/VPOS*%
G36*
X143659191Y-85918907D02*
G01*
X143695155Y-85968407D01*
X143700000Y-85999000D01*
X143700000Y-87675864D01*
X147055656Y-87675864D01*
X147113847Y-87694771D01*
X147129524Y-87708951D01*
X147296365Y-87895926D01*
X147303166Y-87904450D01*
X147352810Y-87974233D01*
X147371141Y-88031622D01*
X147371141Y-93151364D01*
X147352234Y-93209555D01*
X147302734Y-93245519D01*
X147272141Y-93250364D01*
X146732844Y-93250365D01*
X146716112Y-93250365D01*
X146711346Y-93251313D01*
X146648961Y-93263721D01*
X146648959Y-93263722D01*
X146639395Y-93265624D01*
X146634293Y-93269033D01*
X146599954Y-93275863D01*
X146488922Y-93275863D01*
X145970144Y-93275862D01*
X145911953Y-93256955D01*
X145875989Y-93207455D01*
X145871144Y-93176862D01*
X145871142Y-88991543D01*
X145871142Y-88975863D01*
X145807577Y-88975863D01*
X144122254Y-88975865D01*
X144086979Y-88968109D01*
X144086871Y-88968471D01*
X144080113Y-88966450D01*
X144080111Y-88966449D01*
X143955865Y-88929292D01*
X143949104Y-88927270D01*
X143867359Y-88926770D01*
X143812362Y-88926434D01*
X143812361Y-88926434D01*
X143805311Y-88926391D01*
X143798534Y-88928328D01*
X143798533Y-88928328D01*
X143673831Y-88963968D01*
X143673829Y-88963969D01*
X143667051Y-88965906D01*
X143665431Y-88966928D01*
X143627969Y-88974843D01*
X142660255Y-88970777D01*
X142602144Y-88951625D01*
X142566389Y-88901975D01*
X142561671Y-88871778D01*
X142561671Y-87270363D01*
X139206785Y-87273060D01*
X135736820Y-87275850D01*
X135736819Y-87275850D01*
X135721141Y-87275863D01*
X135721141Y-87676861D01*
X135702234Y-87735052D01*
X135652734Y-87771016D01*
X135622141Y-87775861D01*
X132731311Y-87775863D01*
X132371142Y-87775863D01*
X132360562Y-87781364D01*
X132360560Y-87781365D01*
X131143875Y-88414042D01*
X131095527Y-88425172D01*
X130409241Y-88406623D01*
X129367466Y-88378466D01*
X129309808Y-88357993D01*
X129275194Y-88307540D01*
X129271141Y-88279502D01*
X129271140Y-87424864D01*
X129290047Y-87366673D01*
X129339547Y-87330709D01*
X129370140Y-87325864D01*
X131196952Y-87325861D01*
X131421144Y-87325861D01*
X131431451Y-87320707D01*
X131431453Y-87320707D01*
X131807116Y-87132876D01*
X131807117Y-87132875D01*
X131821141Y-87125863D01*
X131821141Y-86724862D01*
X131840048Y-86666671D01*
X131889548Y-86630707D01*
X131920141Y-86625862D01*
X132321142Y-86625862D01*
X132321140Y-85998999D01*
X132340047Y-85940810D01*
X132389547Y-85904846D01*
X132420140Y-85900000D01*
X143601000Y-85900000D01*
X143659191Y-85918907D01*
G37*
%TD.AperFunction*%
%TD*%
%TA.AperFunction,Conductor*%
%TO.N,VIN*%
G36*
X148793764Y-102140364D02*
G01*
X148840257Y-102194020D01*
X148851643Y-102246362D01*
X148851643Y-102892363D01*
X148850323Y-102910549D01*
X148845641Y-102942645D01*
X148845641Y-103309081D01*
X148846310Y-103313629D01*
X148846311Y-103313636D01*
X148850299Y-103340724D01*
X148851642Y-103359074D01*
X148851641Y-104792376D01*
X148850321Y-104810564D01*
X148845641Y-104842645D01*
X148845641Y-105194364D01*
X148825639Y-105262485D01*
X148771983Y-105308978D01*
X148719641Y-105320364D01*
X146877642Y-105320364D01*
X146809521Y-105300362D01*
X146763028Y-105246706D01*
X146751642Y-105194365D01*
X146751640Y-104846365D01*
X146771642Y-104778244D01*
X146825297Y-104731751D01*
X146877640Y-104720364D01*
X148019378Y-104720365D01*
X148201640Y-104720365D01*
X148201640Y-104516979D01*
X148225061Y-104443811D01*
X148228077Y-104439583D01*
X148235434Y-104432213D01*
X148286677Y-104327381D01*
X148296641Y-104259081D01*
X148296641Y-103892645D01*
X148294968Y-103881277D01*
X148287925Y-103833437D01*
X148287925Y-103833436D01*
X148286499Y-103823751D01*
X148235073Y-103719008D01*
X148227706Y-103711654D01*
X148225189Y-103708138D01*
X148201640Y-103634792D01*
X148201640Y-103470364D01*
X146051641Y-103470364D01*
X146051641Y-103487855D01*
X146031639Y-103555976D01*
X145977800Y-103602552D01*
X145967791Y-103607104D01*
X145961869Y-103609796D01*
X145952507Y-103613608D01*
X145945268Y-103616221D01*
X145917197Y-103626354D01*
X145917193Y-103626356D01*
X145908753Y-103629403D01*
X145901504Y-103634699D01*
X145898188Y-103636462D01*
X145885025Y-103644154D01*
X145881875Y-103646169D01*
X145873704Y-103649884D01*
X145838459Y-103680255D01*
X145830560Y-103686527D01*
X145819804Y-103694385D01*
X145819801Y-103694388D01*
X145818813Y-103693036D01*
X145760689Y-103719181D01*
X145743469Y-103720363D01*
X144977642Y-103720363D01*
X144909521Y-103700361D01*
X144863028Y-103646705D01*
X144851642Y-103594363D01*
X144851641Y-102246365D01*
X144871643Y-102178244D01*
X144925299Y-102131751D01*
X144977641Y-102120365D01*
X146851642Y-102120364D01*
X148725643Y-102120362D01*
X148793764Y-102140364D01*
G37*
%TD.AperFunction*%
%TD*%
%TA.AperFunction,Conductor*%
%TO.N,+15V*%
G36*
X155503791Y-89283458D02*
G01*
X155550284Y-89337114D01*
X155561670Y-89389456D01*
X155561672Y-92837456D01*
X155541670Y-92905577D01*
X155488014Y-92952070D01*
X155435672Y-92963456D01*
X154087669Y-92963456D01*
X154019548Y-92943454D01*
X153973055Y-92889798D01*
X153961669Y-92837456D01*
X153961669Y-90763455D01*
X153903418Y-90763455D01*
X153487670Y-90763456D01*
X153419550Y-90743454D01*
X153373057Y-90689799D01*
X153361671Y-90637456D01*
X153361669Y-89389458D01*
X153381671Y-89321337D01*
X153435327Y-89274844D01*
X153487669Y-89263458D01*
X154461670Y-89263457D01*
X155435670Y-89263456D01*
X155503791Y-89283458D01*
G37*
%TD.AperFunction*%
%TD*%
%TA.AperFunction,Conductor*%
%TO.N,GND*%
G36*
X128842121Y-87320002D02*
G01*
X128888614Y-87373658D01*
X128900000Y-87426000D01*
X128900000Y-89800000D01*
X130074000Y-89800000D01*
X130142121Y-89820002D01*
X130188614Y-89873658D01*
X130200000Y-89926000D01*
X130200000Y-91474000D01*
X130179998Y-91542121D01*
X130126342Y-91588614D01*
X130074000Y-91600000D01*
X128900000Y-91600000D01*
X128900000Y-94274000D01*
X128879998Y-94342121D01*
X128826342Y-94388614D01*
X128774000Y-94400000D01*
X128000000Y-94400000D01*
X128000000Y-97100000D01*
X129547810Y-97100000D01*
X129615931Y-97120002D01*
X129636905Y-97136905D01*
X130063095Y-97563095D01*
X130097121Y-97625407D01*
X130100000Y-97652190D01*
X130100000Y-99374000D01*
X130079998Y-99442121D01*
X130026342Y-99488614D01*
X129974000Y-99500000D01*
X121326000Y-99500000D01*
X121257879Y-99479998D01*
X121211386Y-99426342D01*
X121200000Y-99374000D01*
X121200000Y-97626000D01*
X121220002Y-97557879D01*
X121273658Y-97511386D01*
X121326000Y-97500000D01*
X126900000Y-97500000D01*
X126900000Y-87426000D01*
X126920002Y-87357879D01*
X126973658Y-87311386D01*
X127026000Y-87300000D01*
X128774000Y-87300000D01*
X128842121Y-87320002D01*
G37*
%TD.AperFunction*%
%TD*%
%TA.AperFunction,Conductor*%
%TO.N,VDDA*%
G36*
X168253791Y-105783459D02*
G01*
X168300284Y-105837115D01*
X168311670Y-105889457D01*
X168311670Y-107037456D01*
X168291668Y-107105577D01*
X168238012Y-107152070D01*
X168185670Y-107163456D01*
X166105835Y-107163457D01*
X164026000Y-107163457D01*
X163957879Y-107143455D01*
X163911386Y-107089799D01*
X163900000Y-107037457D01*
X163900000Y-106089455D01*
X163920002Y-106021334D01*
X163973658Y-105974841D01*
X164026000Y-105963455D01*
X166620538Y-105963457D01*
X167011669Y-105963457D01*
X167011669Y-105923414D01*
X167031671Y-105855293D01*
X167079587Y-105814714D01*
X167078563Y-105813031D01*
X167086159Y-105808408D01*
X167094329Y-105804898D01*
X167099215Y-105800885D01*
X167101398Y-105798702D01*
X167103674Y-105796638D01*
X167104323Y-105797354D01*
X167108795Y-105794632D01*
X167109153Y-105795221D01*
X167162050Y-105766336D01*
X167188833Y-105763457D01*
X168185670Y-105763457D01*
X168253791Y-105783459D01*
G37*
%TD.AperFunction*%
%TD*%
%TA.AperFunction,Conductor*%
%TO.N,-15V*%
G36*
X178803793Y-104783457D02*
G01*
X178850286Y-104837113D01*
X178861672Y-104889455D01*
X178861669Y-106937456D01*
X178841667Y-107005577D01*
X178788011Y-107052070D01*
X178735669Y-107063456D01*
X176761671Y-107063456D01*
X174787672Y-107063455D01*
X174719551Y-107043453D01*
X174673058Y-106989797D01*
X174661672Y-106937455D01*
X174661669Y-104889456D01*
X174681671Y-104821335D01*
X174735327Y-104774842D01*
X174787669Y-104763456D01*
X176761671Y-104763456D01*
X178735672Y-104763455D01*
X178803793Y-104783457D01*
G37*
%TD.AperFunction*%
%TD*%
%TA.AperFunction,Conductor*%
%TO.N,GND*%
G36*
X140942121Y-99620002D02*
G01*
X140988614Y-99673658D01*
X141000000Y-99726000D01*
X141000000Y-101374000D01*
X140979998Y-101442121D01*
X140926342Y-101488614D01*
X140874000Y-101500000D01*
X139226000Y-101500000D01*
X139157879Y-101479998D01*
X139111386Y-101426342D01*
X139100000Y-101374000D01*
X139100000Y-99726000D01*
X139120002Y-99657879D01*
X139173658Y-99611386D01*
X139226000Y-99600000D01*
X140874000Y-99600000D01*
X140942121Y-99620002D01*
G37*
%TD.AperFunction*%
%TD*%
%TA.AperFunction,Conductor*%
%TO.N,GND*%
G36*
X193075791Y-80401270D02*
G01*
X193238824Y-80411958D01*
X193239390Y-80411997D01*
X193328542Y-80418373D01*
X193344132Y-80420473D01*
X193487166Y-80448927D01*
X193489367Y-80449385D01*
X193596862Y-80472771D01*
X193610580Y-80476578D01*
X193744723Y-80522115D01*
X193748254Y-80523373D01*
X193855153Y-80563246D01*
X193866837Y-80568290D01*
X193992420Y-80630222D01*
X193997038Y-80632621D01*
X194098549Y-80688051D01*
X194108165Y-80693873D01*
X194223929Y-80771225D01*
X194229431Y-80775119D01*
X194322554Y-80844830D01*
X194330087Y-80850937D01*
X194434532Y-80942533D01*
X194440548Y-80948168D01*
X194522944Y-81030564D01*
X194528561Y-81036561D01*
X194601676Y-81119933D01*
X194620146Y-81140994D01*
X194626275Y-81148552D01*
X194695992Y-81241683D01*
X194699873Y-81247168D01*
X194777232Y-81362943D01*
X194783051Y-81372552D01*
X194838495Y-81474090D01*
X194840884Y-81478691D01*
X194902812Y-81604269D01*
X194907861Y-81615963D01*
X194947724Y-81722837D01*
X194948977Y-81726355D01*
X194994527Y-81860535D01*
X194998331Y-81874245D01*
X195021710Y-81981712D01*
X195022168Y-81983912D01*
X195050628Y-82126974D01*
X195052728Y-82142561D01*
X195054334Y-82165012D01*
X195039242Y-82234386D01*
X194989040Y-82284588D01*
X194928655Y-82300000D01*
X119226000Y-82300000D01*
X119157879Y-82279998D01*
X119111386Y-82226342D01*
X119100000Y-82174000D01*
X119100000Y-82097495D01*
X119102422Y-82072906D01*
X119120902Y-81980029D01*
X119121361Y-81977828D01*
X119143769Y-81874848D01*
X119147577Y-81861131D01*
X119194082Y-81724153D01*
X119195323Y-81720666D01*
X119234141Y-81616605D01*
X119239186Y-81604923D01*
X119302168Y-81477222D01*
X119304586Y-81472567D01*
X119358823Y-81373246D01*
X119364646Y-81363629D01*
X119443166Y-81246124D01*
X119447063Y-81240617D01*
X119515432Y-81149293D01*
X119521568Y-81141726D01*
X119614444Y-81035825D01*
X119620080Y-81029807D01*
X119700959Y-80948931D01*
X119706977Y-80943295D01*
X119812882Y-80850422D01*
X119820450Y-80844286D01*
X119911784Y-80775915D01*
X119917291Y-80772018D01*
X120034802Y-80693501D01*
X120044410Y-80687684D01*
X120143734Y-80633449D01*
X120148371Y-80631041D01*
X120150072Y-80630202D01*
X120276098Y-80568053D01*
X120287789Y-80563006D01*
X120391779Y-80524219D01*
X120395294Y-80522966D01*
X120532326Y-80476449D01*
X120546021Y-80472648D01*
X120649043Y-80450235D01*
X120651236Y-80449779D01*
X120655519Y-80448927D01*
X120798695Y-80420445D01*
X120814292Y-80418345D01*
X120857079Y-80415289D01*
X120892572Y-80412754D01*
X120893303Y-80412704D01*
X121067685Y-80401270D01*
X121075929Y-80401000D01*
X193067548Y-80401000D01*
X193075791Y-80401270D01*
G37*
%TD.AperFunction*%
%TD*%
%TA.AperFunction,Conductor*%
%TO.N,VIN*%
G36*
X148793690Y-83983458D02*
G01*
X148840183Y-84037114D01*
X148851569Y-84089530D01*
X148851389Y-84394176D01*
X148850069Y-84412291D01*
X148846301Y-84438117D01*
X148846300Y-84438125D01*
X148845641Y-84442645D01*
X148845641Y-84809081D01*
X148846311Y-84813634D01*
X148846312Y-84813644D01*
X148849773Y-84837152D01*
X148851117Y-84855578D01*
X148850264Y-86301886D01*
X148848944Y-86319999D01*
X148846302Y-86338113D01*
X148845641Y-86342645D01*
X148845641Y-86624000D01*
X148825639Y-86692121D01*
X148771983Y-86738614D01*
X148719641Y-86750000D01*
X147426000Y-86750000D01*
X147357879Y-86729998D01*
X147311386Y-86676342D01*
X147300000Y-86624000D01*
X147300000Y-86346362D01*
X147320002Y-86278241D01*
X147373658Y-86231748D01*
X147425999Y-86220362D01*
X148174302Y-86220364D01*
X148300000Y-86220364D01*
X148300000Y-84970364D01*
X146051641Y-84970364D01*
X146051475Y-84983507D01*
X146048600Y-84996331D01*
X146045419Y-84995618D01*
X146030715Y-85043453D01*
X145976477Y-85089265D01*
X145925585Y-85100000D01*
X144326000Y-85100000D01*
X144257879Y-85079998D01*
X144211386Y-85026342D01*
X144200000Y-84974000D01*
X144200000Y-84089456D01*
X144220002Y-84021335D01*
X144273658Y-83974842D01*
X144326000Y-83963456D01*
X148725569Y-83963456D01*
X148793690Y-83983458D01*
G37*
%TD.AperFunction*%
%TD*%
%TA.AperFunction,Conductor*%
%TO.N,GND*%
G36*
X146727118Y-100263455D02*
G01*
X146751693Y-100265876D01*
X146799394Y-100275364D01*
X147385670Y-100275364D01*
X147453791Y-100295366D01*
X147500284Y-100349022D01*
X147511670Y-100401364D01*
X147511670Y-101337457D01*
X147491668Y-101405578D01*
X147438012Y-101452071D01*
X147385670Y-101463457D01*
X144887671Y-101463457D01*
X144819550Y-101443455D01*
X144773057Y-101389799D01*
X144761671Y-101337457D01*
X144761670Y-100389454D01*
X144781672Y-100321333D01*
X144835328Y-100274840D01*
X144887670Y-100263454D01*
X146727118Y-100263455D01*
G37*
%TD.AperFunction*%
%TD*%
%TA.AperFunction,Conductor*%
%TO.N,GND*%
G36*
X143903791Y-83983458D02*
G01*
X143950284Y-84037114D01*
X143961670Y-84089456D01*
X143961671Y-85363456D01*
X145016210Y-85363456D01*
X145073414Y-85377189D01*
X145188016Y-85435582D01*
X145197805Y-85437132D01*
X145197807Y-85437133D01*
X145227291Y-85441803D01*
X145287654Y-85451363D01*
X145854630Y-85451363D01*
X145914993Y-85441803D01*
X145944477Y-85437133D01*
X145944479Y-85437132D01*
X145954268Y-85435582D01*
X146068870Y-85377189D01*
X146126074Y-85363456D01*
X147935671Y-85363456D01*
X148003792Y-85383458D01*
X148050285Y-85437114D01*
X148061671Y-85489456D01*
X148061671Y-85737456D01*
X148041669Y-85805577D01*
X147988013Y-85852070D01*
X147935671Y-85863456D01*
X146662787Y-85863457D01*
X146461670Y-85863457D01*
X146461670Y-86963455D01*
X146682165Y-86963455D01*
X146737497Y-86976255D01*
X146819623Y-87016399D01*
X146850114Y-87020847D01*
X146883397Y-87025703D01*
X146883401Y-87025703D01*
X146887923Y-87026363D01*
X147672385Y-87026363D01*
X147740506Y-87046365D01*
X147761481Y-87063268D01*
X147861670Y-87163458D01*
X148061669Y-87363455D01*
X150861669Y-87363455D01*
X150861671Y-86489454D01*
X150881673Y-86421333D01*
X150935329Y-86374840D01*
X150987670Y-86363454D01*
X152511670Y-86363455D01*
X154035670Y-86363457D01*
X154103791Y-86383459D01*
X154150284Y-86437115D01*
X154161670Y-86489457D01*
X154161670Y-88737457D01*
X154141668Y-88805578D01*
X154088012Y-88852071D01*
X154035670Y-88863457D01*
X149061670Y-88863457D01*
X149061670Y-91663457D01*
X149235670Y-91663457D01*
X149303791Y-91683459D01*
X149350284Y-91737115D01*
X149361670Y-91789457D01*
X149361671Y-94837455D01*
X149341669Y-94905576D01*
X149288013Y-94952069D01*
X149235671Y-94963455D01*
X148961671Y-94963455D01*
X148961810Y-94977316D01*
X148961810Y-94977317D01*
X148984492Y-97236191D01*
X148965175Y-97304509D01*
X148911988Y-97351538D01*
X148858498Y-97363456D01*
X146361669Y-97363456D01*
X146354139Y-97370986D01*
X145198575Y-98526551D01*
X145136263Y-98560576D01*
X145109480Y-98563456D01*
X142861670Y-98563456D01*
X142861670Y-98774000D01*
X142841668Y-98842121D01*
X142788012Y-98888614D01*
X142735670Y-98900000D01*
X142301000Y-98900000D01*
X142232879Y-98879998D01*
X142186386Y-98826342D01*
X142175000Y-98774000D01*
X142175000Y-98650000D01*
X142161726Y-98201857D01*
X142161671Y-98198127D01*
X142161669Y-96889457D01*
X142181671Y-96821336D01*
X142235327Y-96774843D01*
X142287669Y-96763457D01*
X144135670Y-96763457D01*
X144203791Y-96783459D01*
X144250284Y-96837115D01*
X144261670Y-96889457D01*
X144261670Y-97663457D01*
X144457967Y-97663457D01*
X144511217Y-97675262D01*
X144604655Y-97718833D01*
X144654241Y-97725361D01*
X144834076Y-97725361D01*
X145014042Y-97725360D01*
X145063629Y-97718833D01*
X145172458Y-97668085D01*
X145257366Y-97583177D01*
X145308114Y-97474348D01*
X145314642Y-97424762D01*
X145314642Y-97414934D01*
X145334644Y-97346813D01*
X145344976Y-97332934D01*
X145649881Y-96977212D01*
X145661671Y-96963457D01*
X145661671Y-94089456D01*
X145681673Y-94021335D01*
X145735329Y-93974842D01*
X145787671Y-93963456D01*
X147497704Y-93963454D01*
X147761670Y-93963454D01*
X147761671Y-91663455D01*
X147753877Y-91663455D01*
X147750596Y-91660612D01*
X147698576Y-91632208D01*
X147664550Y-91569897D01*
X147661670Y-91543111D01*
X147661670Y-87763457D01*
X147361670Y-87463457D01*
X144087671Y-87463457D01*
X144019550Y-87443455D01*
X143973057Y-87389799D01*
X143961671Y-87337457D01*
X143961668Y-85681571D01*
X143961668Y-85663456D01*
X132287668Y-85663456D01*
X132219547Y-85643454D01*
X132173054Y-85589798D01*
X132161668Y-85537456D01*
X132161670Y-84089456D01*
X132181672Y-84021335D01*
X132235328Y-83974842D01*
X132287670Y-83963456D01*
X143835670Y-83963456D01*
X143903791Y-83983458D01*
G37*
%TD.AperFunction*%
%TD*%
%TA.AperFunction,Conductor*%
%TO.N,Net-(C217-Pad2)*%
G36*
X135785729Y-94545864D02*
G01*
X135832937Y-94601115D01*
X135855267Y-94651862D01*
X135883888Y-94716907D01*
X135967106Y-94815908D01*
X136074765Y-94887572D01*
X136198211Y-94926139D01*
X136327520Y-94928509D01*
X136450495Y-94894982D01*
X136521476Y-94896361D01*
X136572729Y-94927449D01*
X137121141Y-95475862D01*
X137261439Y-95475862D01*
X138795142Y-95475865D01*
X138863263Y-95495867D01*
X138909756Y-95549523D01*
X138921142Y-95601865D01*
X138921140Y-99049864D01*
X138901138Y-99117985D01*
X138847482Y-99164478D01*
X138795141Y-99175864D01*
X137506931Y-99175863D01*
X136973336Y-99175862D01*
X136905215Y-99155860D01*
X136884241Y-99138958D01*
X135833948Y-98088672D01*
X135821140Y-98075864D01*
X135575436Y-98075864D01*
X134423332Y-98075862D01*
X134355211Y-98055860D01*
X134334237Y-98038957D01*
X134258047Y-97962767D01*
X134224021Y-97900455D01*
X134221142Y-97873672D01*
X134221142Y-96928056D01*
X134241144Y-96859935D01*
X134258046Y-96838961D01*
X134858332Y-96238672D01*
X134871140Y-96225864D01*
X134871141Y-94651862D01*
X134891143Y-94583741D01*
X134944799Y-94537248D01*
X134997141Y-94525862D01*
X135717608Y-94525862D01*
X135785729Y-94545864D01*
G37*
%TD.AperFunction*%
%TD*%
%TA.AperFunction,Conductor*%
%TO.N,GND*%
G36*
X133342121Y-96320002D02*
G01*
X133388614Y-96373658D01*
X133400000Y-96426000D01*
X133400000Y-98974000D01*
X133379998Y-99042121D01*
X133326342Y-99088614D01*
X133274000Y-99100000D01*
X132026000Y-99100000D01*
X131957879Y-99079998D01*
X131911386Y-99026342D01*
X131900000Y-98974000D01*
X131900000Y-96426000D01*
X131920002Y-96357879D01*
X131973658Y-96311386D01*
X132026000Y-96300000D01*
X133274000Y-96300000D01*
X133342121Y-96320002D01*
G37*
%TD.AperFunction*%
%TD*%
%TA.AperFunction,Conductor*%
%TO.N,Net-(C220-Pad1)*%
G36*
X152194960Y-95444772D02*
G01*
X152230924Y-95494272D01*
X152235769Y-95524865D01*
X152235770Y-96847855D01*
X152216863Y-96906046D01*
X152206774Y-96917859D01*
X152115102Y-97009531D01*
X152060585Y-97037308D01*
X152044291Y-97038524D01*
X151292365Y-97032376D01*
X150511820Y-97025993D01*
X150511819Y-97025993D01*
X150496143Y-97025865D01*
X150496143Y-97034016D01*
X150496140Y-99076864D01*
X150477233Y-99135055D01*
X150427733Y-99171019D01*
X150397141Y-99175864D01*
X150354111Y-99175864D01*
X150344413Y-99175387D01*
X150343660Y-99175313D01*
X150338890Y-99174364D01*
X149720142Y-99174364D01*
X149661951Y-99155457D01*
X149625987Y-99105957D01*
X149621142Y-99075364D01*
X149621142Y-97025865D01*
X149475929Y-96918544D01*
X149440370Y-96868754D01*
X149435770Y-96838929D01*
X149435769Y-95524865D01*
X149454676Y-95466674D01*
X149504176Y-95430710D01*
X149534769Y-95425865D01*
X152136769Y-95425865D01*
X152194960Y-95444772D01*
G37*
%TD.AperFunction*%
%TD*%
%TA.AperFunction,Conductor*%
%TO.N,GND*%
G36*
X163856010Y-107316035D02*
G01*
X163893798Y-107337172D01*
X163893803Y-107337174D01*
X163899983Y-107340631D01*
X163920584Y-107346680D01*
X163963781Y-107359364D01*
X163963785Y-107359365D01*
X163968104Y-107360633D01*
X163972552Y-107361273D01*
X163972559Y-107361274D01*
X164021552Y-107368318D01*
X164021559Y-107368319D01*
X164026000Y-107368957D01*
X164030496Y-107368957D01*
X166403861Y-107368956D01*
X168185670Y-107368956D01*
X168189016Y-107368596D01*
X168189021Y-107368596D01*
X168225987Y-107364622D01*
X168225993Y-107364621D01*
X168229351Y-107364260D01*
X168281693Y-107352874D01*
X168282387Y-107352704D01*
X168282406Y-107352700D01*
X168283540Y-107352423D01*
X168291873Y-107350386D01*
X168358652Y-107314802D01*
X168417905Y-107300000D01*
X194928674Y-107300000D01*
X194996795Y-107320002D01*
X195043288Y-107373658D01*
X195054354Y-107434977D01*
X195052761Y-107457276D01*
X195050660Y-107472877D01*
X195022063Y-107616651D01*
X195021605Y-107618852D01*
X194998389Y-107725583D01*
X194994584Y-107739294D01*
X194953025Y-107861728D01*
X194948872Y-107873963D01*
X194947614Y-107877495D01*
X194907939Y-107983870D01*
X194902893Y-107995559D01*
X194860502Y-108081518D01*
X194840786Y-108121499D01*
X194838368Y-108126155D01*
X194783153Y-108227275D01*
X194777330Y-108236892D01*
X194699775Y-108352961D01*
X194695878Y-108358468D01*
X194626419Y-108451254D01*
X194620283Y-108458822D01*
X194528469Y-108563516D01*
X194522832Y-108569535D01*
X194440723Y-108651643D01*
X194434704Y-108657280D01*
X194330002Y-108749099D01*
X194322434Y-108755235D01*
X194229652Y-108824690D01*
X194224144Y-108828587D01*
X194108070Y-108906143D01*
X194098454Y-108911965D01*
X193997335Y-108967179D01*
X193992687Y-108969593D01*
X193946106Y-108992563D01*
X193866729Y-109031705D01*
X193855033Y-109036754D01*
X193748652Y-109076430D01*
X193745228Y-109077650D01*
X193610470Y-109123391D01*
X193596758Y-109127196D01*
X193552746Y-109136769D01*
X193490123Y-109150390D01*
X193487922Y-109150848D01*
X193343999Y-109179473D01*
X193328422Y-109181572D01*
X193244442Y-109187587D01*
X193243891Y-109187625D01*
X193103694Y-109196810D01*
X193074396Y-109198729D01*
X193066134Y-109198999D01*
X176407959Y-109195711D01*
X121075236Y-109184788D01*
X121067036Y-109184518D01*
X121018715Y-109181352D01*
X120906996Y-109174031D01*
X120906238Y-109173979D01*
X120859551Y-109170637D01*
X120813462Y-109167337D01*
X120797901Y-109165241D01*
X120657047Y-109137225D01*
X120654854Y-109136769D01*
X120545114Y-109112899D01*
X120531398Y-109109092D01*
X120398645Y-109064031D01*
X120395113Y-109062773D01*
X120286807Y-109022378D01*
X120275112Y-109017329D01*
X120150613Y-108955936D01*
X120145955Y-108953517D01*
X120043376Y-108897506D01*
X120033765Y-108891688D01*
X119918884Y-108814928D01*
X119913377Y-108811031D01*
X119819356Y-108740649D01*
X119811788Y-108734513D01*
X119803544Y-108727284D01*
X119708100Y-108643582D01*
X119702101Y-108637963D01*
X119618954Y-108554816D01*
X119613318Y-108548799D01*
X119522395Y-108445123D01*
X119516274Y-108437575D01*
X119445865Y-108343520D01*
X119442003Y-108338062D01*
X119365231Y-108223165D01*
X119359409Y-108213550D01*
X119303391Y-108110960D01*
X119300973Y-108106304D01*
X119239579Y-107981810D01*
X119234535Y-107970129D01*
X119194104Y-107861728D01*
X119192875Y-107858274D01*
X119147833Y-107725583D01*
X119147815Y-107725529D01*
X119144009Y-107711818D01*
X119120136Y-107602070D01*
X119119678Y-107599869D01*
X119102421Y-107513112D01*
X119100000Y-107488531D01*
X119100000Y-107426000D01*
X119120002Y-107357879D01*
X119173658Y-107311386D01*
X119226000Y-107300000D01*
X163794499Y-107300000D01*
X163856010Y-107316035D01*
G37*
%TD.AperFunction*%
%TD*%
%TA.AperFunction,Conductor*%
%TO.N,VDDA*%
G36*
X172303792Y-89383457D02*
G01*
X172350285Y-89437113D01*
X172361671Y-89489455D01*
X172361670Y-91537457D01*
X172341668Y-91605578D01*
X172288012Y-91652071D01*
X172235670Y-91663457D01*
X171387670Y-91663457D01*
X171319549Y-91643455D01*
X171273056Y-91589799D01*
X171261670Y-91537457D01*
X171261672Y-89489455D01*
X171281674Y-89421334D01*
X171335330Y-89374841D01*
X171387672Y-89363455D01*
X172235671Y-89363455D01*
X172303792Y-89383457D01*
G37*
%TD.AperFunction*%
%TD*%
%TA.AperFunction,Conductor*%
%TO.N,GND*%
G36*
X178534641Y-88913456D02*
G01*
X178602762Y-88933458D01*
X178649255Y-88987114D01*
X178660641Y-89039455D01*
X178660641Y-89135764D01*
X178667168Y-89185351D01*
X178671241Y-89194085D01*
X178671241Y-89194086D01*
X178696639Y-89248551D01*
X178717916Y-89294180D01*
X178802824Y-89379088D01*
X178809394Y-89382152D01*
X178852269Y-89435792D01*
X178861669Y-89483546D01*
X178861670Y-91537457D01*
X178841668Y-91605578D01*
X178788012Y-91652071D01*
X178735670Y-91663457D01*
X178583939Y-91663457D01*
X178515818Y-91643455D01*
X178469325Y-91589799D01*
X178457939Y-91537457D01*
X178457939Y-90752292D01*
X178442888Y-90652180D01*
X178438812Y-90643691D01*
X178438509Y-90642707D01*
X178432939Y-90605658D01*
X178432939Y-89891394D01*
X178421306Y-89832911D01*
X178419481Y-89830180D01*
X178411670Y-89790911D01*
X178411670Y-89713456D01*
X178278744Y-89713456D01*
X178264458Y-89712049D01*
X178264418Y-89712456D01*
X178258255Y-89711849D01*
X178252187Y-89710642D01*
X177762691Y-89710642D01*
X177756623Y-89711849D01*
X177750460Y-89712456D01*
X177750420Y-89712049D01*
X177736134Y-89713456D01*
X177561669Y-89713456D01*
X177561669Y-90685371D01*
X177559420Y-90708672D01*
X177557459Y-90714872D01*
X177556939Y-90721479D01*
X177556939Y-92373219D01*
X177556066Y-92388028D01*
X177552075Y-92421749D01*
X177553767Y-92431013D01*
X177553767Y-92431014D01*
X177559619Y-92463055D01*
X177561669Y-92485693D01*
X177561669Y-93074000D01*
X177541667Y-93142121D01*
X177488011Y-93188614D01*
X177435669Y-93200000D01*
X172687671Y-93200000D01*
X172619550Y-93179998D01*
X172573057Y-93126342D01*
X172561671Y-93074000D01*
X172561671Y-91781371D01*
X172569481Y-91742104D01*
X172571306Y-91739373D01*
X172582939Y-91680890D01*
X172582939Y-90039455D01*
X172602941Y-89971334D01*
X172656597Y-89924841D01*
X172708939Y-89913455D01*
X172885672Y-89913455D01*
X172953792Y-89933457D01*
X173000285Y-89987113D01*
X173011671Y-90039455D01*
X173011670Y-92213457D01*
X175811670Y-92213457D01*
X175811670Y-91781371D01*
X175819481Y-91742104D01*
X175821306Y-91739373D01*
X175832939Y-91680890D01*
X175832939Y-89891394D01*
X175821306Y-89832911D01*
X175819480Y-89830178D01*
X175811669Y-89790909D01*
X175811668Y-89597869D01*
X175824275Y-89542932D01*
X175841989Y-89506371D01*
X175863446Y-89378833D01*
X175863582Y-89367688D01*
X175845247Y-89239664D01*
X175822967Y-89190661D01*
X175811668Y-89138510D01*
X175811668Y-89039455D01*
X175831670Y-88971334D01*
X175885326Y-88924841D01*
X175937668Y-88913455D01*
X176659960Y-88913455D01*
X178534641Y-88913456D01*
G37*
%TD.AperFunction*%
%TD*%
%TA.AperFunction,Conductor*%
%TO.N,GND*%
G36*
X133442121Y-88520002D02*
G01*
X133488614Y-88573658D01*
X133500000Y-88626000D01*
X133500000Y-90874000D01*
X133479998Y-90942121D01*
X133426342Y-90988614D01*
X133374000Y-91000000D01*
X131726000Y-91000000D01*
X131657879Y-90979998D01*
X131611386Y-90926342D01*
X131600000Y-90874000D01*
X131600000Y-88626000D01*
X131620002Y-88557879D01*
X131673658Y-88511386D01*
X131726000Y-88500000D01*
X133374000Y-88500000D01*
X133442121Y-88520002D01*
G37*
%TD.AperFunction*%
%TD*%
%TA.AperFunction,Conductor*%
%TO.N,VIN*%
G36*
X137546596Y-92525863D02*
G01*
X138322142Y-92525865D01*
X138380333Y-92544772D01*
X138416297Y-92594273D01*
X138421142Y-92624865D01*
X138421142Y-94676863D01*
X138402235Y-94735054D01*
X138352735Y-94771018D01*
X138322142Y-94775863D01*
X137546597Y-94775864D01*
X137213646Y-94775864D01*
X137155455Y-94756957D01*
X137141871Y-94745050D01*
X136663964Y-94241990D01*
X136656472Y-94232423D01*
X136655419Y-94230107D01*
X136570997Y-94132131D01*
X136551175Y-94119283D01*
X136533248Y-94104394D01*
X136376187Y-93939067D01*
X136221141Y-93775861D01*
X136095423Y-93775861D01*
X134970141Y-93775866D01*
X134911952Y-93756959D01*
X134875988Y-93707459D01*
X134871142Y-93676866D01*
X134871142Y-93624861D01*
X134890049Y-93566670D01*
X134939549Y-93530706D01*
X134970142Y-93525861D01*
X136036558Y-93525862D01*
X136221141Y-93525862D01*
X136530114Y-93200627D01*
X136550084Y-93184451D01*
X136562511Y-93176821D01*
X136567240Y-93171596D01*
X136567243Y-93171594D01*
X136605906Y-93128879D01*
X136649302Y-93080937D01*
X136652378Y-93074588D01*
X136653947Y-93072262D01*
X136664242Y-93059440D01*
X137077089Y-92624865D01*
X137141869Y-92556676D01*
X137195656Y-92527510D01*
X137213643Y-92525862D01*
X137546596Y-92525863D01*
G37*
%TD.AperFunction*%
%TD*%
M02*
