%TF.GenerationSoftware,KiCad,Pcbnew,(6.0.5)*%
%TF.CreationDate,2022-10-08T22:42:16+08:00*%
%TF.ProjectId,LabPrecisionVoltageSource_V1.2,4c616250-7265-4636-9973-696f6e566f6c,rev?*%
%TF.SameCoordinates,Original*%
%TF.FileFunction,Copper,L3,Inr*%
%TF.FilePolarity,Positive*%
%FSLAX46Y46*%
G04 Gerber Fmt 4.6, Leading zero omitted, Abs format (unit mm)*
G04 Created by KiCad (PCBNEW (6.0.5)) date 2022-10-08 22:42:16*
%MOMM*%
%LPD*%
G01*
G04 APERTURE LIST*
%TA.AperFunction,ComponentPad*%
%ADD10C,2.240000*%
%TD*%
%TA.AperFunction,ComponentPad*%
%ADD11C,2.740000*%
%TD*%
%TA.AperFunction,ComponentPad*%
%ADD12R,1.700000X1.700000*%
%TD*%
%TA.AperFunction,ComponentPad*%
%ADD13O,1.700000X1.700000*%
%TD*%
%TA.AperFunction,ViaPad*%
%ADD14C,0.800000*%
%TD*%
%TA.AperFunction,ViaPad*%
%ADD15C,0.502000*%
%TD*%
%TA.AperFunction,ViaPad*%
%ADD16C,0.603000*%
%TD*%
%TA.AperFunction,ViaPad*%
%ADD17C,0.600000*%
%TD*%
%TA.AperFunction,Conductor*%
%ADD18C,0.600000*%
%TD*%
%TA.AperFunction,Conductor*%
%ADD19C,0.150000*%
%TD*%
G04 APERTURE END LIST*
D10*
%TO.N,/ADC/ADC_INPUT*%
%TO.C,J101*%
X189400000Y-94700000D03*
D11*
%TO.N,GND*%
X186860000Y-92160000D03*
X191940000Y-92160000D03*
X186860000Y-97240000D03*
X191940000Y-97240000D03*
%TD*%
D12*
%TO.N,VIN*%
%TO.C,J102*%
X122081141Y-101069677D03*
D13*
X124621141Y-101069677D03*
%TO.N,GND*%
X122081141Y-98529677D03*
X124621141Y-98529677D03*
%TO.N,/PMOD_SCK*%
X122081141Y-95989677D03*
%TO.N,unconnected-(J102-Pad6)*%
X124621141Y-95989677D03*
%TO.N,/PMOD_MISO*%
X122081141Y-93449677D03*
%TO.N,/ADC/ADC_CLKIN*%
X124621141Y-93449677D03*
%TO.N,/PMOD_MOSI*%
X122081141Y-90909677D03*
%TO.N,/PMOD_CS_ADC*%
X124621141Y-90909677D03*
%TO.N,/PMOD_CS_DAC*%
X122081141Y-88369677D03*
%TO.N,/ADC/ADC_IRQ*%
X124621141Y-88369677D03*
%TD*%
D14*
%TO.N,GND*%
X185800000Y-94700000D03*
X190300000Y-99300000D03*
X186600000Y-99600000D03*
X192700000Y-99400000D03*
D15*
%TO.N,VDD*%
X159074263Y-106200862D03*
X153633642Y-103091485D03*
%TO.N,GND*%
X149961670Y-87713456D03*
D14*
X145700000Y-81700000D03*
X122809000Y-107950000D03*
D15*
X169961669Y-106763455D03*
D14*
X191420000Y-81700000D03*
D15*
X146311671Y-100613456D03*
X151624261Y-97900865D03*
X133761669Y-84263455D03*
D16*
X133421141Y-93625861D03*
D15*
X171161671Y-97413457D03*
D16*
X156261671Y-106663457D03*
D14*
X148240000Y-81700000D03*
D16*
X133421139Y-92875863D03*
D14*
X140589000Y-107950000D03*
X168529000Y-107950000D03*
D16*
X134171141Y-92875864D03*
X133421141Y-94375860D03*
D14*
X163480000Y-81700000D03*
D15*
X179261671Y-96363455D03*
X151649263Y-91675864D03*
D14*
X186309000Y-107950000D03*
D16*
X133000000Y-89900000D03*
X164299264Y-96975864D03*
D15*
X168911672Y-106763455D03*
D14*
X125380000Y-81700000D03*
D15*
X178311671Y-100113456D03*
D14*
X176149000Y-107950000D03*
X138049000Y-107950000D03*
D15*
X150361671Y-104163456D03*
D14*
X127800000Y-89800000D03*
D15*
X134361671Y-85313456D03*
D16*
X134100000Y-91800000D03*
X153128512Y-93065864D03*
D14*
X181229000Y-107950000D03*
X188849000Y-107950000D03*
D15*
X151411668Y-87813455D03*
X148361669Y-91213455D03*
D14*
X145669000Y-107950000D03*
D16*
X179111671Y-103913457D03*
D15*
X168411671Y-100863455D03*
D16*
X163811670Y-100663457D03*
D15*
X188861668Y-100863457D03*
D14*
X168560000Y-81700000D03*
D15*
X171161670Y-96563457D03*
X172121142Y-85553985D03*
X146161671Y-87163455D03*
X178061670Y-89313457D03*
X169069265Y-102755863D03*
X152561671Y-86913456D03*
D14*
X143160000Y-81700000D03*
D15*
X189911670Y-101813455D03*
X168521142Y-103253985D03*
X180661669Y-96363455D03*
D14*
X188880000Y-81700000D03*
D16*
X142221143Y-92675865D03*
X157353139Y-106846861D03*
X140421142Y-92675860D03*
X132300000Y-97400000D03*
D15*
X176261670Y-89313457D03*
D16*
X144721141Y-86350864D03*
D14*
X120269000Y-107950000D03*
D16*
X134171141Y-93625862D03*
D15*
X176261670Y-92213457D03*
D14*
X127400000Y-95800000D03*
X160940000Y-81700000D03*
D15*
X172661672Y-99313455D03*
X177061671Y-92213456D03*
D14*
X140500000Y-100000000D03*
D16*
X142221143Y-94675862D03*
D14*
X127920000Y-81700000D03*
X120300000Y-81700000D03*
D16*
X146326642Y-85595363D03*
D14*
X186340000Y-81700000D03*
D15*
X148061671Y-88763455D03*
D14*
X135509000Y-107950000D03*
D15*
X158511672Y-98713456D03*
D16*
X162549263Y-96975865D03*
X132300000Y-96600000D03*
D15*
X182111672Y-98113457D03*
D16*
X132600000Y-91800000D03*
D15*
X172986669Y-94588455D03*
D16*
X169321142Y-94603984D03*
X176114263Y-103910861D03*
D15*
X152749263Y-91675864D03*
X152611670Y-88013456D03*
D16*
X149018511Y-93075864D03*
D15*
X181761669Y-106063456D03*
D14*
X153289000Y-107950000D03*
X183769000Y-107950000D03*
D15*
X138961670Y-84313456D03*
D14*
X178689000Y-107950000D03*
D16*
X134171141Y-94375862D03*
X144461671Y-104263456D03*
D15*
X147111671Y-100963457D03*
X174861668Y-99313455D03*
D14*
X158369000Y-107950000D03*
D15*
X148711669Y-97063457D03*
D14*
X176180000Y-81700000D03*
D15*
X177161670Y-89313457D03*
D14*
X181260000Y-81700000D03*
D15*
X147361670Y-97113457D03*
D16*
X149006513Y-93887863D03*
D14*
X122840000Y-81700000D03*
D15*
X188221141Y-86553986D03*
D14*
X153320000Y-81700000D03*
X132969000Y-107950000D03*
D15*
X145811670Y-97413457D03*
D14*
X148209000Y-107950000D03*
D15*
X178311670Y-99313454D03*
X152724265Y-97900863D03*
X178311671Y-96713456D03*
X182061671Y-96363455D03*
D14*
X143129000Y-107950000D03*
X166020000Y-81700000D03*
X171100000Y-81700000D03*
D15*
X188221141Y-84603985D03*
D14*
X160909000Y-107950000D03*
D15*
X138261671Y-85313455D03*
D14*
X150749000Y-107950000D03*
D16*
X139471142Y-94675862D03*
D14*
X191389000Y-107950000D03*
D15*
X157686670Y-98538456D03*
D14*
X173609000Y-107950000D03*
D15*
X183761671Y-106063456D03*
D14*
X171069000Y-107950000D03*
X129100000Y-90800000D03*
D15*
X174661670Y-92663456D03*
D14*
X163449000Y-107950000D03*
X193929000Y-107950000D03*
D15*
X172121140Y-84853984D03*
X183161671Y-97063457D03*
D14*
X130460000Y-81700000D03*
D15*
X137561670Y-84263456D03*
X135611671Y-85313455D03*
X145461670Y-100963457D03*
D16*
X139471141Y-92675865D03*
D15*
X177561669Y-99763455D03*
D14*
X155829000Y-107950000D03*
D15*
X151271141Y-92453984D03*
X150911671Y-88563455D03*
X171161670Y-98413456D03*
D14*
X183800000Y-81700000D03*
D16*
X141321141Y-92675862D03*
D15*
X148411670Y-87713456D03*
X142511670Y-98313457D03*
D14*
X158400000Y-81700000D03*
D15*
X149211670Y-88463456D03*
D16*
X133100000Y-96600000D03*
X132100000Y-89900000D03*
X146249265Y-104075861D03*
X132550000Y-90650000D03*
D15*
X146111670Y-95013456D03*
X146461670Y-96063454D03*
X187599265Y-83575861D03*
X144861670Y-98163457D03*
D14*
X125349000Y-107950000D03*
D16*
X169321142Y-92972930D03*
D15*
X188221141Y-83903986D03*
D14*
X165989000Y-107950000D03*
D16*
X140421140Y-94675864D03*
X132600000Y-95300000D03*
D14*
X139600000Y-100000000D03*
X127889000Y-107950000D03*
D15*
X176461671Y-99313455D03*
D16*
X143874141Y-97872863D03*
D15*
X148661671Y-95263455D03*
X136261669Y-84263456D03*
D14*
X150780000Y-81700000D03*
X178720000Y-81700000D03*
D15*
X153711671Y-88413455D03*
D16*
X141321140Y-94675862D03*
D15*
X135011671Y-84263456D03*
X132611670Y-84263456D03*
X171611668Y-99313455D03*
D16*
X173600000Y-92700000D03*
D14*
X129300000Y-98500000D03*
D15*
X136961671Y-85313457D03*
D16*
X134100000Y-95300000D03*
X149006511Y-92287862D03*
D15*
X147361670Y-95263457D03*
X175661670Y-99313455D03*
X142861670Y-97413457D03*
X172749265Y-85875863D03*
D14*
X193900000Y-81700000D03*
X127800000Y-92000000D03*
D16*
X148106514Y-92287862D03*
X143874141Y-89428861D03*
D14*
X133000000Y-81700000D03*
D16*
X148106513Y-93037862D03*
X152549077Y-104376051D03*
D14*
X127400000Y-98500000D03*
D15*
X133161671Y-85313456D03*
D16*
X148106513Y-93887865D03*
D15*
X151185770Y-98739355D03*
D14*
X135540000Y-81700000D03*
D16*
X153143143Y-99278862D03*
D14*
X155860000Y-81700000D03*
X127800000Y-93800000D03*
D15*
X188861670Y-102763456D03*
X176061672Y-100063455D03*
D14*
X140620000Y-81700000D03*
D15*
X167361669Y-100863456D03*
D16*
X175700000Y-92700000D03*
X176311669Y-86163456D03*
D14*
X130429000Y-107950000D03*
X138080000Y-81700000D03*
X173640000Y-81700000D03*
X127800000Y-88000000D03*
D15*
X187224076Y-85575863D03*
D16*
%TO.N,+15V*%
X184461670Y-100663457D03*
X155061669Y-90763457D03*
X184461670Y-102763456D03*
X184461671Y-85963455D03*
X184461670Y-85063456D03*
X184461671Y-101763455D03*
X155061671Y-89863456D03*
X172861671Y-102963456D03*
X184461670Y-99663456D03*
X184461671Y-84063455D03*
%TO.N,-15V*%
X176961669Y-106263455D03*
X175161670Y-84963457D03*
X175461670Y-87463458D03*
X178061670Y-106263457D03*
X175161670Y-86663457D03*
X155061671Y-96063454D03*
X176361670Y-87463457D03*
X155061669Y-96963457D03*
D15*
%TO.N,Net-(C215-Pad1)*%
X144171140Y-95275864D03*
X136271140Y-94475864D03*
%TO.N,VDDA*%
X171611671Y-89713456D03*
X165211670Y-106713457D03*
X153561670Y-84513457D03*
X171611668Y-90463455D03*
D16*
X161271143Y-94203985D03*
D15*
X164311670Y-106713457D03*
X166111670Y-106713457D03*
X171611671Y-91213457D03*
X167011669Y-106713457D03*
D16*
X161271143Y-92853985D03*
%TO.N,VIN*%
X143296143Y-94675862D03*
D15*
X137321142Y-94475864D03*
X137321142Y-92825865D03*
D16*
X146411672Y-84563455D03*
X142376141Y-91245863D03*
X142300144Y-96071864D03*
X146401641Y-102945364D03*
X143276141Y-91245863D03*
X147451641Y-102470363D03*
X148461668Y-84563455D03*
D15*
X137271141Y-93675863D03*
X138121142Y-94475864D03*
D16*
X143150142Y-96071862D03*
X136621140Y-93675862D03*
X143296144Y-92650863D03*
X148451640Y-102920365D03*
D15*
X138121142Y-92825865D03*
D16*
X144536671Y-84563455D03*
%TO.N,/Power/VPOS*%
X146211669Y-92863456D03*
X150004510Y-94581297D03*
D15*
%TO.N,Net-(C210-Pad1)*%
X144121141Y-92075863D03*
X136271142Y-92825865D03*
%TO.N,/ADC/ADC_CLKIN*%
X155161670Y-103713457D03*
%TO.N,/ADC/ADC_IRQ*%
X155711670Y-103113456D03*
%TO.N,Net-(R401-Pad1)*%
X175561671Y-96263456D03*
%TO.N,Net-(R402-Pad1)*%
X177211670Y-96263457D03*
%TO.N,/PMOD_CS_DAC*%
X175407439Y-89367688D03*
%TO.N,/PMOD_MOSI*%
X174411670Y-88613454D03*
X157761670Y-103363455D03*
X119461669Y-87650000D03*
%TO.N,/PMOD_MISO*%
X157761670Y-104063457D03*
X172811671Y-88613456D03*
X120311670Y-88413457D03*
%TO.N,/PMOD_SCK*%
X120085336Y-90314663D03*
X173611670Y-88613456D03*
X157761670Y-102663456D03*
%TO.N,/PMOD_CS_ADC*%
X157761670Y-101963455D03*
D17*
X123400000Y-95100000D03*
%TD*%
D18*
%TO.N,GND*%
X132300000Y-97400000D02*
X132300000Y-96600000D01*
X132300000Y-96600000D02*
X133100000Y-96600000D01*
X136500000Y-100000000D02*
X133100000Y-96600000D01*
X132550000Y-90000000D02*
X132450000Y-89900000D01*
X140500000Y-100000000D02*
X139600000Y-100000000D01*
X139600000Y-100000000D02*
X136500000Y-100000000D01*
X133000000Y-89900000D02*
X132450000Y-89900000D01*
X132450000Y-89900000D02*
X132100000Y-89900000D01*
X132550000Y-90650000D02*
X132550000Y-90000000D01*
%TO.N,+15V*%
X155061671Y-89863456D02*
X155061669Y-90763457D01*
D19*
%TO.N,Net-(C215-Pad1)*%
X137071140Y-95275865D02*
X136271140Y-94475864D01*
X144171140Y-95275864D02*
X137071140Y-95275865D01*
D18*
%TO.N,VDDA*%
X160111671Y-100063457D02*
X158211670Y-100063457D01*
X156811672Y-93663457D02*
X156811670Y-87463457D01*
X155961669Y-97813456D02*
X155961669Y-94513455D01*
X161511671Y-101463457D02*
X160111671Y-100063457D01*
X161511671Y-105413456D02*
X161511671Y-101463457D01*
X156811670Y-87463457D02*
X153861670Y-84513457D01*
X158211670Y-100063457D02*
X155961669Y-97813456D01*
X153861670Y-84513457D02*
X153561670Y-84513457D01*
X167011669Y-106713457D02*
X164311670Y-106713457D01*
X162811672Y-106713457D02*
X161511671Y-105413456D01*
X155961669Y-94513455D02*
X156811672Y-93663457D01*
X164311670Y-106713457D02*
X162811672Y-106713457D01*
D19*
%TO.N,Net-(C210-Pad1)*%
X144121141Y-92075863D02*
X137021144Y-92075863D01*
X137021144Y-92075863D02*
X136271142Y-92825865D01*
%TO.N,/ADC/ADC_CLKIN*%
X125911670Y-94740206D02*
X124621142Y-93449676D01*
X125911672Y-102113455D02*
X125911670Y-94740206D01*
X132961671Y-105413456D02*
X130411671Y-102863455D01*
X155161670Y-103713457D02*
X153461671Y-105413456D01*
X153461671Y-105413456D02*
X132961671Y-105413456D01*
X126661672Y-102863455D02*
X125911672Y-102113455D01*
X130411671Y-102863455D02*
X126661672Y-102863455D01*
%TO.N,/ADC/ADC_IRQ*%
X133111671Y-105013457D02*
X130561670Y-102463456D01*
X154911669Y-103113456D02*
X153011671Y-105013457D01*
X153011671Y-105013457D02*
X133111671Y-105013457D01*
X130561670Y-102463456D02*
X126811670Y-102463456D01*
X126311669Y-90060204D02*
X124621140Y-88369676D01*
X126811670Y-102463456D02*
X126311671Y-101963455D01*
X155711670Y-103113456D02*
X154911669Y-103113456D01*
X126311671Y-101963455D02*
X126311669Y-90060204D01*
%TO.N,/PMOD_CS_DAC*%
X122811670Y-86213457D02*
X122081141Y-86943986D01*
X172757439Y-89367688D02*
X171753209Y-88363456D01*
X171753209Y-88363456D02*
X162261670Y-88363456D01*
X157611670Y-83713457D02*
X131711672Y-83713454D01*
X129211670Y-86213457D02*
X122811670Y-86213457D01*
X131711672Y-83713454D02*
X129211670Y-86213457D01*
X175407439Y-89367688D02*
X172757439Y-89367688D01*
X162261670Y-88363456D02*
X157611670Y-83713457D01*
X122081141Y-86943986D02*
X122081141Y-88369676D01*
%TO.N,/PMOD_MOSI*%
X162761668Y-87063456D02*
X172861670Y-87063456D01*
X119461669Y-87650000D02*
X119461669Y-87000895D01*
X157761670Y-103363455D02*
X154611670Y-106513456D01*
X119461669Y-87000895D02*
X119614002Y-86848562D01*
X154611670Y-106513456D02*
X121878287Y-106513456D01*
X158361670Y-82663457D02*
X162761668Y-87063456D01*
X123311670Y-92140204D02*
X122081141Y-90909677D01*
X120311670Y-104946839D02*
X120311672Y-95613456D01*
X172861670Y-87063456D02*
X174411670Y-88613454D01*
X121132404Y-82663457D02*
X158361670Y-82663457D01*
X123311671Y-94413456D02*
X123311670Y-92140204D01*
X121211669Y-94713457D02*
X123011671Y-94713456D01*
X119614002Y-86848562D02*
X119614002Y-84064690D01*
X123011671Y-94713456D02*
X123311671Y-94413456D01*
X120311672Y-95613456D02*
X121211669Y-94713457D01*
X121132404Y-82663462D02*
G75*
G03*
X119614003Y-84064690I1696J-1525138D01*
G01*
X120311644Y-104946839D02*
G75*
G03*
X121878287Y-106513456I1566656J39D01*
G01*
%TO.N,/PMOD_MISO*%
X154961670Y-106863457D02*
X121903800Y-106863457D01*
X157761670Y-104063457D02*
X154961670Y-106863457D01*
X121825451Y-93449676D02*
X122081141Y-93449676D01*
X119961669Y-104921326D02*
X119961671Y-95313456D01*
X120311670Y-84138911D02*
X120311670Y-88413457D01*
X172111671Y-87913457D02*
X162411670Y-87913457D01*
X157849557Y-83351344D02*
X121099239Y-83351342D01*
X172811671Y-88613456D02*
X172111671Y-87913457D01*
X162411670Y-87913457D02*
X157849557Y-83351344D01*
X119961671Y-95313456D02*
X121825451Y-93449676D01*
X119961643Y-104921326D02*
G75*
G03*
X121903800Y-106863457I1942157J26D01*
G01*
X120311642Y-84138911D02*
G75*
G02*
X121099239Y-83351342I787558J11D01*
G01*
%TO.N,/PMOD_SCK*%
X120093079Y-83611951D02*
X120216996Y-83426499D01*
X157761670Y-102663456D02*
X154261671Y-106163456D01*
X172461671Y-87463455D02*
X173611670Y-88613456D01*
X120766231Y-83059518D02*
X120984988Y-83016006D01*
X120661671Y-97063457D02*
X121735450Y-95989677D01*
X120984988Y-83016006D02*
X158114219Y-83016006D01*
X120560166Y-83144871D02*
X120766231Y-83059518D01*
X154261671Y-106163456D02*
X121868869Y-106163456D01*
X119836159Y-90065486D02*
X119836159Y-88216493D01*
X120007723Y-88044929D02*
X120007723Y-83818015D01*
X120374712Y-83268786D02*
X120560166Y-83144871D01*
X162561670Y-87463457D02*
X172461671Y-87463455D01*
X120085336Y-90314663D02*
X119836159Y-90065486D01*
X120007723Y-83818015D02*
X120093079Y-83611951D01*
X120216996Y-83426499D02*
X120374712Y-83268786D01*
X120661670Y-104956258D02*
X120661671Y-97063457D01*
X119836159Y-88216493D02*
X120007723Y-88044929D01*
X158114219Y-83016006D02*
X162561670Y-87463457D01*
X120661744Y-104956258D02*
G75*
G03*
X121868869Y-106163456I1207156J-42D01*
G01*
%TO.N,/PMOD_CS_ADC*%
X124463456Y-103263456D02*
X123400000Y-102200000D01*
X132811671Y-105813455D02*
X130261670Y-103263456D01*
X123400000Y-102200000D02*
X123400000Y-95100000D01*
X130261670Y-103263456D02*
X124463456Y-103263456D01*
X157761670Y-101963455D02*
X153911670Y-105813455D01*
X153911670Y-105813455D02*
X132811671Y-105813455D01*
%TD*%
M02*
