%TF.GenerationSoftware,KiCad,Pcbnew,(6.0.5)*%
%TF.CreationDate,2022-10-08T22:42:16+08:00*%
%TF.ProjectId,LabPrecisionVoltageSource_V1.2,4c616250-7265-4636-9973-696f6e566f6c,rev?*%
%TF.SameCoordinates,Original*%
%TF.FileFunction,Copper,L4,Bot*%
%TF.FilePolarity,Positive*%
%FSLAX46Y46*%
G04 Gerber Fmt 4.6, Leading zero omitted, Abs format (unit mm)*
G04 Created by KiCad (PCBNEW (6.0.5)) date 2022-10-08 22:42:16*
%MOMM*%
%LPD*%
G01*
G04 APERTURE LIST*
G04 Aperture macros list*
%AMRoundRect*
0 Rectangle with rounded corners*
0 $1 Rounding radius*
0 $2 $3 $4 $5 $6 $7 $8 $9 X,Y pos of 4 corners*
0 Add a 4 corners polygon primitive as box body*
4,1,4,$2,$3,$4,$5,$6,$7,$8,$9,$2,$3,0*
0 Add four circle primitives for the rounded corners*
1,1,$1+$1,$2,$3*
1,1,$1+$1,$4,$5*
1,1,$1+$1,$6,$7*
1,1,$1+$1,$8,$9*
0 Add four rect primitives between the rounded corners*
20,1,$1+$1,$2,$3,$4,$5,0*
20,1,$1+$1,$4,$5,$6,$7,0*
20,1,$1+$1,$6,$7,$8,$9,0*
20,1,$1+$1,$8,$9,$2,$3,0*%
G04 Aperture macros list end*
%TA.AperFunction,ComponentPad*%
%ADD10C,2.240000*%
%TD*%
%TA.AperFunction,ComponentPad*%
%ADD11C,2.740000*%
%TD*%
%TA.AperFunction,ComponentPad*%
%ADD12R,1.700000X1.700000*%
%TD*%
%TA.AperFunction,ComponentPad*%
%ADD13O,1.700000X1.700000*%
%TD*%
%TA.AperFunction,SMDPad,CuDef*%
%ADD14RoundRect,0.200000X0.275000X-0.200000X0.275000X0.200000X-0.275000X0.200000X-0.275000X-0.200000X0*%
%TD*%
%TA.AperFunction,SMDPad,CuDef*%
%ADD15RoundRect,0.225000X-0.250000X0.225000X-0.250000X-0.225000X0.250000X-0.225000X0.250000X0.225000X0*%
%TD*%
%TA.AperFunction,SMDPad,CuDef*%
%ADD16RoundRect,0.250000X-0.450000X-0.425000X0.450000X-0.425000X0.450000X0.425000X-0.450000X0.425000X0*%
%TD*%
%TA.AperFunction,SMDPad,CuDef*%
%ADD17RoundRect,0.250000X-0.425000X0.450000X-0.425000X-0.450000X0.425000X-0.450000X0.425000X0.450000X0*%
%TD*%
%TA.AperFunction,SMDPad,CuDef*%
%ADD18RoundRect,0.250000X0.450000X0.425000X-0.450000X0.425000X-0.450000X-0.425000X0.450000X-0.425000X0*%
%TD*%
%TA.AperFunction,SMDPad,CuDef*%
%ADD19RoundRect,0.225000X0.250000X-0.225000X0.250000X0.225000X-0.250000X0.225000X-0.250000X-0.225000X0*%
%TD*%
%TA.AperFunction,ViaPad*%
%ADD20C,0.800000*%
%TD*%
%TA.AperFunction,ViaPad*%
%ADD21C,0.502000*%
%TD*%
%TA.AperFunction,ViaPad*%
%ADD22C,0.603000*%
%TD*%
%TA.AperFunction,ViaPad*%
%ADD23C,0.600000*%
%TD*%
%TA.AperFunction,Conductor*%
%ADD24C,0.300000*%
%TD*%
%TA.AperFunction,Conductor*%
%ADD25C,0.500000*%
%TD*%
%TA.AperFunction,Conductor*%
%ADD26C,0.600000*%
%TD*%
%TA.AperFunction,Conductor*%
%ADD27C,0.800000*%
%TD*%
%TA.AperFunction,Conductor*%
%ADD28C,1.000000*%
%TD*%
%TA.AperFunction,Conductor*%
%ADD29C,0.200000*%
%TD*%
%TA.AperFunction,Conductor*%
%ADD30C,0.150000*%
%TD*%
G04 APERTURE END LIST*
D10*
%TO.P,J101,1,In*%
%TO.N,/ADC/ADC_INPUT*%
X189400000Y-94700000D03*
D11*
%TO.P,J101,2,Ext*%
%TO.N,GND*%
X186860000Y-92160000D03*
X191940000Y-92160000D03*
X186860000Y-97240000D03*
X191940000Y-97240000D03*
%TD*%
D12*
%TO.P,J102,1,Pin_1*%
%TO.N,VIN*%
X122081141Y-101069677D03*
D13*
%TO.P,J102,2,Pin_2*%
X124621141Y-101069677D03*
%TO.P,J102,3,Pin_3*%
%TO.N,GND*%
X122081141Y-98529677D03*
%TO.P,J102,4,Pin_4*%
X124621141Y-98529677D03*
%TO.P,J102,5,Pin_5*%
%TO.N,/PMOD_SCK*%
X122081141Y-95989677D03*
%TO.P,J102,6,Pin_6*%
%TO.N,unconnected-(J102-Pad6)*%
X124621141Y-95989677D03*
%TO.P,J102,7,Pin_7*%
%TO.N,/PMOD_MISO*%
X122081141Y-93449677D03*
%TO.P,J102,8,Pin_8*%
%TO.N,/ADC/ADC_CLKIN*%
X124621141Y-93449677D03*
%TO.P,J102,9,Pin_9*%
%TO.N,/PMOD_MOSI*%
X122081141Y-90909677D03*
%TO.P,J102,10,Pin_10*%
%TO.N,/PMOD_CS_ADC*%
X124621141Y-90909677D03*
%TO.P,J102,11,Pin_11*%
%TO.N,/PMOD_CS_DAC*%
X122081141Y-88369677D03*
%TO.P,J102,12,Pin_12*%
%TO.N,/ADC/ADC_IRQ*%
X124621141Y-88369677D03*
%TD*%
D14*
%TO.P,R402,1*%
%TO.N,Net-(R402-Pad1)*%
X177211670Y-95338454D03*
%TO.P,R402,2*%
%TO.N,VDDA*%
X177211670Y-93688454D03*
%TD*%
D15*
%TO.P,C401,1*%
%TO.N,VDDA*%
X173911670Y-93738456D03*
%TO.P,C401,2*%
%TO.N,GND*%
X173911670Y-95288456D03*
%TD*%
D16*
%TO.P,C503,1*%
%TO.N,+15V*%
X186161671Y-101813455D03*
%TO.P,C503,2*%
%TO.N,GND*%
X188861671Y-101813455D03*
%TD*%
D17*
%TO.P,C402,1*%
%TO.N,VDDA*%
X171961671Y-93063456D03*
%TO.P,C402,2*%
%TO.N,GND*%
X171961671Y-95763456D03*
%TD*%
D15*
%TO.P,C302,1*%
%TO.N,VDDA*%
X163421143Y-94050862D03*
%TO.P,C302,2*%
%TO.N,GND*%
X163421143Y-95600862D03*
%TD*%
D14*
%TO.P,R401,1*%
%TO.N,Net-(R401-Pad1)*%
X175561669Y-95338456D03*
%TO.P,R401,2*%
%TO.N,VDDA*%
X175561669Y-93688456D03*
%TD*%
D18*
%TO.P,C506,1*%
%TO.N,GND*%
X182761671Y-106063456D03*
%TO.P,C506,2*%
%TO.N,-15V*%
X180061671Y-106063456D03*
%TD*%
D19*
%TO.P,C407,1*%
%TO.N,-15V*%
X175111671Y-105488455D03*
%TO.P,C407,2*%
%TO.N,GND*%
X175111671Y-103938455D03*
%TD*%
D20*
%TO.N,GND*%
X185800000Y-94700000D03*
X190300000Y-99300000D03*
X186600000Y-99600000D03*
X192700000Y-99400000D03*
D21*
%TO.N,VDD*%
X159074263Y-106200862D03*
X153633642Y-103091485D03*
%TO.N,GND*%
X149961670Y-87713456D03*
D20*
X145700000Y-81700000D03*
X122809000Y-107950000D03*
D21*
X169961669Y-106763455D03*
D20*
X191420000Y-81700000D03*
D21*
X146311671Y-100613456D03*
X151624261Y-97900865D03*
X133761669Y-84263455D03*
D22*
X133421141Y-93625861D03*
D21*
X171161671Y-97413457D03*
D22*
X156261671Y-106663457D03*
D20*
X148240000Y-81700000D03*
D22*
X133421139Y-92875863D03*
D20*
X140589000Y-107950000D03*
X168529000Y-107950000D03*
D22*
X134171141Y-92875864D03*
X133421141Y-94375860D03*
D20*
X163480000Y-81700000D03*
D21*
X179261671Y-96363455D03*
X151649263Y-91675864D03*
D20*
X186309000Y-107950000D03*
D22*
X133000000Y-89900000D03*
X164299264Y-96975864D03*
D21*
X168911672Y-106763455D03*
D20*
X125380000Y-81700000D03*
D21*
X178311671Y-100113456D03*
D20*
X176149000Y-107950000D03*
X138049000Y-107950000D03*
D21*
X150361671Y-104163456D03*
D20*
X127800000Y-89800000D03*
D21*
X134361671Y-85313456D03*
D22*
X134100000Y-91800000D03*
X153128512Y-93065864D03*
D20*
X181229000Y-107950000D03*
X188849000Y-107950000D03*
D21*
X151411668Y-87813455D03*
X148361669Y-91213455D03*
D20*
X145669000Y-107950000D03*
D22*
X179111671Y-103913457D03*
D21*
X168411671Y-100863455D03*
D22*
X163811670Y-100663457D03*
D21*
X188861668Y-100863457D03*
D20*
X168560000Y-81700000D03*
D21*
X171161670Y-96563457D03*
X172121142Y-85553985D03*
X146161671Y-87163455D03*
X178061670Y-89313457D03*
X169069265Y-102755863D03*
X152561671Y-86913456D03*
D20*
X143160000Y-81700000D03*
D21*
X189911670Y-101813455D03*
X168521142Y-103253985D03*
X180661669Y-96363455D03*
D20*
X188880000Y-81700000D03*
D22*
X142221143Y-92675865D03*
X157353139Y-106846861D03*
X140421142Y-92675860D03*
X132300000Y-97400000D03*
D21*
X176261670Y-89313457D03*
D22*
X144721141Y-86350864D03*
D20*
X120269000Y-107950000D03*
D22*
X134171141Y-93625862D03*
D21*
X176261670Y-92213457D03*
D20*
X127400000Y-95800000D03*
X160940000Y-81700000D03*
D21*
X172661672Y-99313455D03*
X177061671Y-92213456D03*
D20*
X140500000Y-100000000D03*
D22*
X142221143Y-94675862D03*
D20*
X127920000Y-81700000D03*
X120300000Y-81700000D03*
D22*
X146326642Y-85595363D03*
D20*
X186340000Y-81700000D03*
D21*
X148061671Y-88763455D03*
D20*
X135509000Y-107950000D03*
D21*
X158511672Y-98713456D03*
D22*
X162549263Y-96975865D03*
X132300000Y-96600000D03*
D21*
X182111672Y-98113457D03*
D22*
X132600000Y-91800000D03*
D21*
X172986669Y-94588455D03*
D22*
X169321142Y-94603984D03*
X176114263Y-103910861D03*
D21*
X152749263Y-91675864D03*
X152611670Y-88013456D03*
D22*
X149018511Y-93075864D03*
D21*
X181761669Y-106063456D03*
D20*
X153289000Y-107950000D03*
X183769000Y-107950000D03*
D21*
X138961670Y-84313456D03*
D20*
X178689000Y-107950000D03*
D22*
X134171141Y-94375862D03*
X144461671Y-104263456D03*
D21*
X147111671Y-100963457D03*
X174861668Y-99313455D03*
D20*
X158369000Y-107950000D03*
D21*
X148711669Y-97063457D03*
D20*
X176180000Y-81700000D03*
D21*
X177161670Y-89313457D03*
D20*
X181260000Y-81700000D03*
D21*
X147361670Y-97113457D03*
D22*
X149006513Y-93887863D03*
D20*
X122840000Y-81700000D03*
D21*
X188221141Y-86553986D03*
D20*
X153320000Y-81700000D03*
X132969000Y-107950000D03*
D21*
X145811670Y-97413457D03*
D20*
X148209000Y-107950000D03*
D21*
X178311670Y-99313454D03*
X152724265Y-97900863D03*
X178311671Y-96713456D03*
X182061671Y-96363455D03*
D20*
X143129000Y-107950000D03*
X166020000Y-81700000D03*
X171100000Y-81700000D03*
D21*
X188221141Y-84603985D03*
D20*
X160909000Y-107950000D03*
D21*
X138261671Y-85313455D03*
D20*
X150749000Y-107950000D03*
D22*
X139471142Y-94675862D03*
D20*
X191389000Y-107950000D03*
D21*
X157686670Y-98538456D03*
D20*
X173609000Y-107950000D03*
D21*
X183761671Y-106063456D03*
D20*
X171069000Y-107950000D03*
X129100000Y-90800000D03*
D21*
X174661670Y-92663456D03*
D20*
X163449000Y-107950000D03*
X193929000Y-107950000D03*
D21*
X172121140Y-84853984D03*
X183161671Y-97063457D03*
D20*
X130460000Y-81700000D03*
D21*
X137561670Y-84263456D03*
X135611671Y-85313455D03*
X145461670Y-100963457D03*
D22*
X139471141Y-92675865D03*
D21*
X177561669Y-99763455D03*
D20*
X155829000Y-107950000D03*
D21*
X151271141Y-92453984D03*
X150911671Y-88563455D03*
X171161670Y-98413456D03*
D20*
X183800000Y-81700000D03*
D22*
X141321141Y-92675862D03*
D21*
X148411670Y-87713456D03*
X142511670Y-98313457D03*
D20*
X158400000Y-81700000D03*
D21*
X149211670Y-88463456D03*
D22*
X133100000Y-96600000D03*
X132100000Y-89900000D03*
X146249265Y-104075861D03*
X132550000Y-90650000D03*
D21*
X146111670Y-95013456D03*
X146461670Y-96063454D03*
X187599265Y-83575861D03*
X144861670Y-98163457D03*
D20*
X125349000Y-107950000D03*
D22*
X169321142Y-92972930D03*
D21*
X188221141Y-83903986D03*
D20*
X165989000Y-107950000D03*
D22*
X140421140Y-94675864D03*
X132600000Y-95300000D03*
D20*
X139600000Y-100000000D03*
X127889000Y-107950000D03*
D21*
X176461671Y-99313455D03*
D22*
X143874141Y-97872863D03*
D21*
X148661671Y-95263455D03*
X136261669Y-84263456D03*
D20*
X150780000Y-81700000D03*
X178720000Y-81700000D03*
D21*
X153711671Y-88413455D03*
D22*
X141321140Y-94675862D03*
D21*
X135011671Y-84263456D03*
X132611670Y-84263456D03*
X171611668Y-99313455D03*
D22*
X173600000Y-92700000D03*
D20*
X129300000Y-98500000D03*
D21*
X136961671Y-85313457D03*
D22*
X134100000Y-95300000D03*
X149006511Y-92287862D03*
D21*
X147361670Y-95263457D03*
X175661670Y-99313455D03*
X142861670Y-97413457D03*
X172749265Y-85875863D03*
D20*
X193900000Y-81700000D03*
X127800000Y-92000000D03*
D22*
X148106514Y-92287862D03*
X143874141Y-89428861D03*
D20*
X133000000Y-81700000D03*
D22*
X148106513Y-93037862D03*
X152549077Y-104376051D03*
D20*
X127400000Y-98500000D03*
D21*
X133161671Y-85313456D03*
D22*
X148106513Y-93887865D03*
D21*
X151185770Y-98739355D03*
D20*
X135540000Y-81700000D03*
D22*
X153143143Y-99278862D03*
D20*
X155860000Y-81700000D03*
X127800000Y-93800000D03*
D21*
X188861670Y-102763456D03*
X176061672Y-100063455D03*
D20*
X140620000Y-81700000D03*
D21*
X167361669Y-100863456D03*
D22*
X175700000Y-92700000D03*
X176311669Y-86163456D03*
D20*
X130429000Y-107950000D03*
X138080000Y-81700000D03*
X173640000Y-81700000D03*
X127800000Y-88000000D03*
D21*
X187224076Y-85575863D03*
D22*
%TO.N,+15V*%
X184461670Y-100663457D03*
X155061669Y-90763457D03*
X184461670Y-102763456D03*
X184461671Y-85963455D03*
X184461670Y-85063456D03*
X184461671Y-101763455D03*
X155061671Y-89863456D03*
X172861671Y-102963456D03*
X184461670Y-99663456D03*
X184461671Y-84063455D03*
%TO.N,-15V*%
X176961669Y-106263455D03*
X175161670Y-84963457D03*
X175461670Y-87463458D03*
X178061670Y-106263457D03*
X175161670Y-86663457D03*
X155061671Y-96063454D03*
X176361670Y-87463457D03*
X155061669Y-96963457D03*
D21*
%TO.N,Net-(C215-Pad1)*%
X144171140Y-95275864D03*
X136271140Y-94475864D03*
%TO.N,VDDA*%
X171611671Y-89713456D03*
X165211670Y-106713457D03*
X153561670Y-84513457D03*
X171611668Y-90463455D03*
D22*
X161271143Y-94203985D03*
D21*
X164311670Y-106713457D03*
X166111670Y-106713457D03*
X171611671Y-91213457D03*
X167011669Y-106713457D03*
D22*
X161271143Y-92853985D03*
%TO.N,VIN*%
X143296143Y-94675862D03*
D21*
X137321142Y-94475864D03*
X137321142Y-92825865D03*
D22*
X146411672Y-84563455D03*
X142376141Y-91245863D03*
X142300144Y-96071864D03*
X146401641Y-102945364D03*
X143276141Y-91245863D03*
X147451641Y-102470363D03*
X148461668Y-84563455D03*
D21*
X137271141Y-93675863D03*
X138121142Y-94475864D03*
D22*
X143150142Y-96071862D03*
X136621140Y-93675862D03*
X143296144Y-92650863D03*
X148451640Y-102920365D03*
D21*
X138121142Y-92825865D03*
D22*
X144536671Y-84563455D03*
%TO.N,/Power/VPOS*%
X146211669Y-92863456D03*
X150004510Y-94581297D03*
D21*
%TO.N,Net-(C210-Pad1)*%
X144121141Y-92075863D03*
X136271142Y-92825865D03*
%TO.N,/ADC/ADC_CLKIN*%
X155161670Y-103713457D03*
%TO.N,/ADC/ADC_IRQ*%
X155711670Y-103113456D03*
%TO.N,Net-(R401-Pad1)*%
X175561671Y-96263456D03*
%TO.N,Net-(R402-Pad1)*%
X177211670Y-96263457D03*
%TO.N,/PMOD_CS_DAC*%
X175407439Y-89367688D03*
%TO.N,/PMOD_MOSI*%
X174411670Y-88613454D03*
X157761670Y-103363455D03*
X119461669Y-87650000D03*
%TO.N,/PMOD_MISO*%
X157761670Y-104063457D03*
X172811671Y-88613456D03*
X120311670Y-88413457D03*
%TO.N,/PMOD_SCK*%
X120085336Y-90314663D03*
X173611670Y-88613456D03*
X157761670Y-102663456D03*
%TO.N,/PMOD_CS_ADC*%
X157761670Y-101963455D03*
D23*
X123400000Y-95100000D03*
%TD*%
D24*
%TO.N,VDD*%
X159074263Y-106200862D02*
X157049076Y-106200861D01*
X157049076Y-106200861D02*
X155911670Y-105063455D01*
X155911670Y-105063455D02*
X154311669Y-105063456D01*
X154311669Y-105063456D02*
X153633640Y-104385428D01*
X153633640Y-104385428D02*
X153633642Y-103091485D01*
D25*
%TO.N,GND*%
X172986669Y-95288457D02*
X172986669Y-94588455D01*
X172436670Y-95288457D02*
X171961670Y-95763456D01*
X163449263Y-96975864D02*
X164299264Y-96975864D01*
X171161670Y-96563457D02*
X171961670Y-95763456D01*
X166479972Y-100245764D02*
X164229365Y-100245762D01*
X167179973Y-99545763D02*
X166479972Y-100245764D01*
X164299264Y-96975864D02*
X165610073Y-96975864D01*
X175111670Y-103938456D02*
X176086669Y-103938456D01*
X167179973Y-98545763D02*
X167179973Y-99545763D01*
X162549263Y-96975865D02*
X163449263Y-96975864D01*
X171161670Y-98413456D02*
X171161671Y-97413457D01*
X165610073Y-96975864D02*
X167179973Y-98545763D01*
X173911670Y-95288457D02*
X172986669Y-95288457D01*
X188861671Y-101813455D02*
X188861670Y-102763456D01*
X182761670Y-106063456D02*
X183761671Y-106063456D01*
X188861671Y-101813455D02*
X188861668Y-100863457D01*
X164229365Y-100245762D02*
X163811670Y-100663457D01*
X163421142Y-95600863D02*
X163421143Y-96947741D01*
X172986669Y-95288457D02*
X172436670Y-95288457D01*
X182761670Y-106063456D02*
X181761669Y-106063456D01*
X163421143Y-96947741D02*
X163449263Y-96975864D01*
X188861671Y-101813455D02*
X189911670Y-101813455D01*
X176086669Y-103938456D02*
X176114263Y-103910861D01*
X171161671Y-97413457D02*
X171161670Y-96563457D01*
D26*
%TO.N,+15V*%
X155061671Y-87663455D02*
X159761670Y-82963457D01*
X184061671Y-82963457D02*
X184461670Y-83363456D01*
X184461672Y-100963457D02*
X184461671Y-101763455D01*
X186111669Y-101763457D02*
X186161669Y-101813456D01*
X184461670Y-83363456D02*
X184461671Y-84063455D01*
X184461670Y-85063456D02*
X184461671Y-85963455D01*
X184461670Y-99663456D02*
X184461670Y-100663457D01*
X184461671Y-101763455D02*
X186111669Y-101763457D01*
D24*
X184461672Y-104313456D02*
X184461670Y-102763456D01*
D26*
X159761670Y-82963457D02*
X184061671Y-82963457D01*
X184461671Y-101863454D02*
X184461670Y-102763456D01*
D24*
X172861671Y-102963456D02*
X174611669Y-104713457D01*
D26*
X184461671Y-85963455D02*
X184461670Y-99663456D01*
X184461670Y-100663457D02*
X184461672Y-100963457D01*
D24*
X184061672Y-104713455D02*
X184461672Y-104313456D01*
D26*
X155061671Y-89863456D02*
X155061671Y-87663455D01*
X184461671Y-101763455D02*
X184461671Y-101863454D01*
X184461671Y-84063455D02*
X184461670Y-85063456D01*
D24*
X174611669Y-104713457D02*
X184061672Y-104713455D01*
D26*
%TO.N,-15V*%
X175161670Y-86663457D02*
X175161670Y-87163458D01*
X178061670Y-106263457D02*
X179861671Y-106263457D01*
X155061672Y-94063456D02*
X156061670Y-93063457D01*
X162161671Y-101161671D02*
X162161671Y-105163457D01*
X156061670Y-88063457D02*
X160161670Y-83963456D01*
X179861671Y-106263457D02*
X180061671Y-106063456D01*
X155061669Y-97963456D02*
X157861669Y-100763456D01*
X175161670Y-87163458D02*
X175461670Y-87463458D01*
D27*
X175111672Y-105488456D02*
X175111672Y-106013456D01*
D26*
X155061669Y-96963457D02*
X155061669Y-97963456D01*
X162661669Y-105663455D02*
X171261671Y-105663455D01*
X176961669Y-106263455D02*
X178061670Y-106263457D01*
X175161670Y-84263456D02*
X175161670Y-84963457D01*
X157861669Y-100763456D02*
X161763456Y-100763456D01*
X171861670Y-106263457D02*
X175861669Y-106263457D01*
X175461670Y-87463458D02*
X176361670Y-87463457D01*
X174861670Y-83963456D02*
X175161670Y-84263456D01*
X171261671Y-105663455D02*
X171861670Y-106263457D01*
X155061671Y-96063454D02*
X155061672Y-94063456D01*
X160161670Y-83963456D02*
X174861670Y-83963456D01*
X156061670Y-93063457D02*
X156061670Y-88063457D01*
X155061669Y-96963457D02*
X155061671Y-96063454D01*
X175861669Y-106263457D02*
X176961669Y-106263455D01*
X162161671Y-105163457D02*
X162661669Y-105663455D01*
X161763456Y-100763456D02*
X162161671Y-101161671D01*
X175161670Y-84963457D02*
X175161670Y-86663457D01*
D25*
%TO.N,VDDA*%
X172636670Y-93738457D02*
X171961669Y-93063457D01*
X177161672Y-93738457D02*
X177211670Y-93688457D01*
X171611671Y-92713457D02*
X171961669Y-93063457D01*
X171611671Y-89713456D02*
X171611671Y-91213457D01*
X173911670Y-93738457D02*
X177161672Y-93738457D01*
X161271143Y-94203985D02*
X161271143Y-92853985D01*
X163421142Y-94050863D02*
X161424264Y-94050863D01*
X173911670Y-93738457D02*
X172636670Y-93738457D01*
X161424264Y-94050863D02*
X161271143Y-94203985D01*
X171611671Y-91213457D02*
X171611671Y-92713457D01*
D28*
%TO.N,VIN*%
X132453016Y-102920363D02*
X146801640Y-102920366D01*
X140261670Y-84563454D02*
X139651642Y-85173484D01*
X130602325Y-101069677D02*
X132453016Y-102920363D01*
X148451640Y-102920365D02*
X147901640Y-102920363D01*
X135608547Y-96063455D02*
X137561672Y-96063455D01*
X146411672Y-84563455D02*
X148461668Y-84563455D01*
X122081141Y-101069677D02*
X124621140Y-101069677D01*
X130602325Y-101069677D02*
X135608547Y-96063455D01*
X147901640Y-102920363D02*
X147451641Y-102470363D01*
X144536671Y-84563455D02*
X140261670Y-84563454D01*
X124621140Y-101069677D02*
X130602325Y-101069677D01*
X139651642Y-85173484D02*
X139651640Y-90970364D01*
X144536671Y-84563455D02*
X146411672Y-84563455D01*
X147901640Y-102920363D02*
X146426644Y-102920363D01*
D29*
%TO.N,/Power/VPOS*%
X150004510Y-94581297D02*
X146704511Y-94581298D01*
X146704511Y-94581298D02*
X146211669Y-94088457D01*
X146211669Y-94088457D02*
X146211669Y-92863456D01*
%TO.N,Net-(R401-Pad1)*%
X175561669Y-95338455D02*
X175561671Y-96263456D01*
%TO.N,Net-(R402-Pad1)*%
X177211668Y-95338457D02*
X177211670Y-96263457D01*
D30*
%TO.N,/PMOD_MOSI*%
X119461669Y-90363456D02*
X120011670Y-90913457D01*
X120015451Y-90909677D02*
X122081141Y-90909677D01*
X120011670Y-90913457D02*
X120015451Y-90909677D01*
X119461669Y-87650000D02*
X119461669Y-90363456D01*
%TO.N,/PMOD_CS_ADC*%
X123400000Y-92130818D02*
X124621141Y-90909677D01*
X123400000Y-95100000D02*
X123400000Y-92130818D01*
%TD*%
%TA.AperFunction,Conductor*%
%TO.N,GND*%
G36*
X193075791Y-80401270D02*
G01*
X193238824Y-80411958D01*
X193239390Y-80411997D01*
X193328542Y-80418373D01*
X193344132Y-80420473D01*
X193487166Y-80448927D01*
X193489367Y-80449385D01*
X193596862Y-80472771D01*
X193610580Y-80476578D01*
X193744723Y-80522115D01*
X193748254Y-80523373D01*
X193855153Y-80563246D01*
X193866837Y-80568290D01*
X193992420Y-80630222D01*
X193997038Y-80632621D01*
X194098549Y-80688051D01*
X194108165Y-80693873D01*
X194223929Y-80771225D01*
X194229431Y-80775119D01*
X194322554Y-80844830D01*
X194330087Y-80850937D01*
X194434532Y-80942533D01*
X194440548Y-80948168D01*
X194522944Y-81030564D01*
X194528561Y-81036561D01*
X194601676Y-81119933D01*
X194620146Y-81140994D01*
X194626275Y-81148552D01*
X194695992Y-81241683D01*
X194699873Y-81247168D01*
X194777232Y-81362943D01*
X194783051Y-81372552D01*
X194838495Y-81474090D01*
X194840884Y-81478691D01*
X194902812Y-81604269D01*
X194907861Y-81615963D01*
X194947724Y-81722837D01*
X194948977Y-81726355D01*
X194994527Y-81860535D01*
X194998331Y-81874245D01*
X195021710Y-81981712D01*
X195022168Y-81983912D01*
X195050628Y-82126974D01*
X195052728Y-82142561D01*
X195054334Y-82165012D01*
X195039242Y-82234386D01*
X194989040Y-82284588D01*
X194928655Y-82300000D01*
X119226000Y-82300000D01*
X119157879Y-82279998D01*
X119111386Y-82226342D01*
X119100000Y-82174000D01*
X119100000Y-82097495D01*
X119102422Y-82072906D01*
X119120902Y-81980029D01*
X119121361Y-81977828D01*
X119143769Y-81874848D01*
X119147577Y-81861131D01*
X119194082Y-81724153D01*
X119195323Y-81720666D01*
X119234141Y-81616605D01*
X119239186Y-81604923D01*
X119302168Y-81477222D01*
X119304586Y-81472567D01*
X119358823Y-81373246D01*
X119364646Y-81363629D01*
X119443166Y-81246124D01*
X119447063Y-81240617D01*
X119515432Y-81149293D01*
X119521568Y-81141726D01*
X119614444Y-81035825D01*
X119620080Y-81029807D01*
X119700959Y-80948931D01*
X119706977Y-80943295D01*
X119812882Y-80850422D01*
X119820450Y-80844286D01*
X119911784Y-80775915D01*
X119917291Y-80772018D01*
X120034802Y-80693501D01*
X120044410Y-80687684D01*
X120143734Y-80633449D01*
X120148371Y-80631041D01*
X120150072Y-80630202D01*
X120276098Y-80568053D01*
X120287789Y-80563006D01*
X120391779Y-80524219D01*
X120395294Y-80522966D01*
X120532326Y-80476449D01*
X120546021Y-80472648D01*
X120649043Y-80450235D01*
X120651236Y-80449779D01*
X120655519Y-80448927D01*
X120798695Y-80420445D01*
X120814292Y-80418345D01*
X120857079Y-80415289D01*
X120892572Y-80412754D01*
X120893303Y-80412704D01*
X121067685Y-80401270D01*
X121075929Y-80401000D01*
X193067548Y-80401000D01*
X193075791Y-80401270D01*
G37*
%TD.AperFunction*%
%TD*%
%TA.AperFunction,Conductor*%
%TO.N,GND*%
G36*
X194996795Y-107320002D02*
G01*
X195043288Y-107373658D01*
X195054354Y-107434977D01*
X195052761Y-107457276D01*
X195050660Y-107472877D01*
X195022063Y-107616651D01*
X195021605Y-107618852D01*
X194998389Y-107725583D01*
X194994584Y-107739294D01*
X194953025Y-107861728D01*
X194948872Y-107873963D01*
X194947614Y-107877495D01*
X194907939Y-107983870D01*
X194902893Y-107995559D01*
X194860502Y-108081518D01*
X194840786Y-108121499D01*
X194838368Y-108126155D01*
X194783153Y-108227275D01*
X194777330Y-108236892D01*
X194699775Y-108352961D01*
X194695878Y-108358468D01*
X194626419Y-108451254D01*
X194620283Y-108458822D01*
X194528469Y-108563516D01*
X194522832Y-108569535D01*
X194440723Y-108651643D01*
X194434704Y-108657280D01*
X194330002Y-108749099D01*
X194322434Y-108755235D01*
X194229652Y-108824690D01*
X194224144Y-108828587D01*
X194108070Y-108906143D01*
X194098454Y-108911965D01*
X193997335Y-108967179D01*
X193992687Y-108969593D01*
X193946106Y-108992563D01*
X193866729Y-109031705D01*
X193855033Y-109036754D01*
X193748652Y-109076430D01*
X193745228Y-109077650D01*
X193610470Y-109123391D01*
X193596758Y-109127196D01*
X193552746Y-109136769D01*
X193490123Y-109150390D01*
X193487922Y-109150848D01*
X193343999Y-109179473D01*
X193328422Y-109181572D01*
X193244442Y-109187587D01*
X193243891Y-109187625D01*
X193103694Y-109196810D01*
X193074396Y-109198729D01*
X193066134Y-109198999D01*
X176407959Y-109195711D01*
X121075236Y-109184788D01*
X121067036Y-109184518D01*
X121018715Y-109181352D01*
X120906996Y-109174031D01*
X120906238Y-109173979D01*
X120859551Y-109170637D01*
X120813462Y-109167337D01*
X120797901Y-109165241D01*
X120657047Y-109137225D01*
X120654854Y-109136769D01*
X120545114Y-109112899D01*
X120531398Y-109109092D01*
X120398645Y-109064031D01*
X120395113Y-109062773D01*
X120286807Y-109022378D01*
X120275112Y-109017329D01*
X120150613Y-108955936D01*
X120145955Y-108953517D01*
X120043376Y-108897506D01*
X120033765Y-108891688D01*
X119918884Y-108814928D01*
X119913377Y-108811031D01*
X119819356Y-108740649D01*
X119811788Y-108734513D01*
X119803544Y-108727284D01*
X119708100Y-108643582D01*
X119702101Y-108637963D01*
X119618954Y-108554816D01*
X119613318Y-108548799D01*
X119522395Y-108445123D01*
X119516274Y-108437575D01*
X119445865Y-108343520D01*
X119442003Y-108338062D01*
X119365231Y-108223165D01*
X119359409Y-108213550D01*
X119303391Y-108110960D01*
X119300973Y-108106304D01*
X119239579Y-107981810D01*
X119234535Y-107970129D01*
X119194104Y-107861728D01*
X119192875Y-107858274D01*
X119147833Y-107725583D01*
X119147815Y-107725529D01*
X119144009Y-107711818D01*
X119120136Y-107602070D01*
X119119678Y-107599869D01*
X119102421Y-107513112D01*
X119100000Y-107488531D01*
X119100000Y-107426000D01*
X119120002Y-107357879D01*
X119173658Y-107311386D01*
X119226000Y-107300000D01*
X194928674Y-107300000D01*
X194996795Y-107320002D01*
G37*
%TD.AperFunction*%
%TD*%
%TA.AperFunction,Conductor*%
%TO.N,VIN*%
G36*
X143530833Y-90782364D02*
G01*
X143566797Y-90831864D01*
X143571641Y-90861953D01*
X143576641Y-91845166D01*
X143576642Y-91845669D01*
X143576642Y-96464456D01*
X143557735Y-96522647D01*
X143508235Y-96558611D01*
X143477642Y-96563456D01*
X140339141Y-96563457D01*
X137200639Y-96563458D01*
X137142448Y-96544551D01*
X137106484Y-96495051D01*
X137101639Y-96464458D01*
X137101639Y-94870363D01*
X137054283Y-94818701D01*
X136917667Y-94669666D01*
X138964018Y-94669666D01*
X138964933Y-94676663D01*
X138964933Y-94676664D01*
X138966941Y-94692022D01*
X138982663Y-94812248D01*
X138985501Y-94818699D01*
X138985502Y-94818701D01*
X139037735Y-94937410D01*
X139040576Y-94943866D01*
X139133102Y-95053939D01*
X139138973Y-95057847D01*
X139138974Y-95057848D01*
X139151329Y-95066072D01*
X139252803Y-95133619D01*
X139259534Y-95135722D01*
X139265619Y-95137623D01*
X139390056Y-95176500D01*
X139461942Y-95177818D01*
X139526775Y-95179006D01*
X139526777Y-95179006D01*
X139533828Y-95179135D01*
X139540631Y-95177280D01*
X139540633Y-95177280D01*
X139587480Y-95164508D01*
X139672560Y-95141312D01*
X139795101Y-95066072D01*
X139802545Y-95057848D01*
X139873556Y-94979396D01*
X139926624Y-94948942D01*
X139987457Y-94955497D01*
X140022736Y-94982129D01*
X140024424Y-94984137D01*
X140078561Y-95048542D01*
X140078564Y-95048544D01*
X140083100Y-95053941D01*
X140088971Y-95057849D01*
X140088972Y-95057850D01*
X140101324Y-95066072D01*
X140202801Y-95133621D01*
X140209532Y-95135724D01*
X140215617Y-95137625D01*
X140340054Y-95176502D01*
X140411940Y-95177820D01*
X140476773Y-95179008D01*
X140476775Y-95179008D01*
X140483826Y-95179137D01*
X140490629Y-95177282D01*
X140490631Y-95177282D01*
X140537478Y-95164510D01*
X140622558Y-95141314D01*
X140745099Y-95066074D01*
X140797632Y-95008036D01*
X140850700Y-94977582D01*
X140911533Y-94984137D01*
X140946813Y-95010770D01*
X140978561Y-95048540D01*
X140978564Y-95048542D01*
X140983100Y-95053939D01*
X140988971Y-95057847D01*
X140988972Y-95057848D01*
X141001327Y-95066072D01*
X141102801Y-95133619D01*
X141109532Y-95135722D01*
X141115617Y-95137623D01*
X141240054Y-95176500D01*
X141311940Y-95177818D01*
X141376773Y-95179006D01*
X141376775Y-95179006D01*
X141383826Y-95179135D01*
X141390629Y-95177280D01*
X141390631Y-95177280D01*
X141437478Y-95164508D01*
X141522558Y-95141312D01*
X141645099Y-95066072D01*
X141656080Y-95053941D01*
X141697633Y-95008033D01*
X141750701Y-94977579D01*
X141811534Y-94984134D01*
X141846812Y-95010766D01*
X141883103Y-95053939D01*
X141888974Y-95057847D01*
X141888975Y-95057848D01*
X141901330Y-95066072D01*
X142002804Y-95133619D01*
X142009535Y-95135722D01*
X142015620Y-95137623D01*
X142140057Y-95176500D01*
X142211943Y-95177818D01*
X142276776Y-95179006D01*
X142276778Y-95179006D01*
X142283829Y-95179135D01*
X142290632Y-95177280D01*
X142290634Y-95177280D01*
X142337481Y-95164508D01*
X142422561Y-95141312D01*
X142545102Y-95066072D01*
X142556083Y-95053941D01*
X142636867Y-94964691D01*
X142636867Y-94964690D01*
X142641599Y-94959463D01*
X142704297Y-94830056D01*
X142706208Y-94818701D01*
X142727520Y-94692022D01*
X142727520Y-94692021D01*
X142728154Y-94688253D01*
X142728305Y-94675862D01*
X142707920Y-94533519D01*
X142648403Y-94402618D01*
X142589091Y-94333783D01*
X142559144Y-94299027D01*
X142559143Y-94299026D01*
X142554539Y-94293683D01*
X142548622Y-94289848D01*
X142548620Y-94289846D01*
X142439795Y-94219310D01*
X142439793Y-94219309D01*
X142433873Y-94215472D01*
X142296106Y-94174271D01*
X142214361Y-94173771D01*
X142159364Y-94173435D01*
X142159363Y-94173435D01*
X142152313Y-94173392D01*
X142145536Y-94175329D01*
X142145535Y-94175329D01*
X142020833Y-94210969D01*
X142020831Y-94210970D01*
X142014053Y-94212907D01*
X141892441Y-94289639D01*
X141845382Y-94342923D01*
X141845381Y-94342924D01*
X141792689Y-94374024D01*
X141731780Y-94368212D01*
X141696179Y-94342013D01*
X141665828Y-94306788D01*
X141659140Y-94299026D01*
X141659139Y-94299025D01*
X141654536Y-94293683D01*
X141648619Y-94289848D01*
X141648617Y-94289846D01*
X141539792Y-94219310D01*
X141539790Y-94219309D01*
X141533870Y-94215472D01*
X141396103Y-94174271D01*
X141314358Y-94173771D01*
X141259361Y-94173435D01*
X141259360Y-94173435D01*
X141252310Y-94173392D01*
X141245533Y-94175329D01*
X141245532Y-94175329D01*
X141120830Y-94210969D01*
X141120828Y-94210970D01*
X141114050Y-94212907D01*
X140992438Y-94289639D01*
X140945379Y-94342923D01*
X140892687Y-94374023D01*
X140831778Y-94368211D01*
X140796176Y-94342011D01*
X140759141Y-94299029D01*
X140759138Y-94299026D01*
X140754536Y-94293685D01*
X140748619Y-94289850D01*
X140748617Y-94289848D01*
X140639792Y-94219312D01*
X140639788Y-94219310D01*
X140633870Y-94215474D01*
X140496103Y-94174273D01*
X140414358Y-94173773D01*
X140359361Y-94173437D01*
X140359360Y-94173437D01*
X140352310Y-94173394D01*
X140345533Y-94175331D01*
X140345532Y-94175331D01*
X140220830Y-94210971D01*
X140220828Y-94210972D01*
X140214050Y-94212909D01*
X140092438Y-94289641D01*
X140087772Y-94294924D01*
X140087770Y-94294926D01*
X140020073Y-94371578D01*
X139967380Y-94402678D01*
X139906472Y-94396866D01*
X139870871Y-94370667D01*
X139833512Y-94327309D01*
X139809143Y-94299027D01*
X139809142Y-94299026D01*
X139804538Y-94293683D01*
X139798621Y-94289848D01*
X139798619Y-94289846D01*
X139689794Y-94219310D01*
X139689792Y-94219309D01*
X139683872Y-94215472D01*
X139546105Y-94174271D01*
X139464360Y-94173771D01*
X139409363Y-94173435D01*
X139409362Y-94173435D01*
X139402312Y-94173392D01*
X139395535Y-94175329D01*
X139395534Y-94175329D01*
X139270832Y-94210969D01*
X139270830Y-94210970D01*
X139264052Y-94212907D01*
X139142440Y-94289639D01*
X139137774Y-94294923D01*
X139137772Y-94294924D01*
X139134147Y-94299029D01*
X139047252Y-94397418D01*
X138986141Y-94527582D01*
X138964018Y-94669666D01*
X136917667Y-94669666D01*
X136745608Y-94481965D01*
X136720586Y-94429103D01*
X136709949Y-94354826D01*
X136709948Y-94354823D01*
X136708948Y-94347840D01*
X136706028Y-94341418D01*
X136706027Y-94341414D01*
X136658340Y-94236532D01*
X136655419Y-94230107D01*
X136646118Y-94219312D01*
X136575602Y-94137475D01*
X136575601Y-94137474D01*
X136570997Y-94132131D01*
X136565080Y-94128296D01*
X136565078Y-94128294D01*
X136468392Y-94065626D01*
X136468390Y-94065625D01*
X136462470Y-94061788D01*
X136348073Y-94027576D01*
X136303462Y-93999624D01*
X136062963Y-93737261D01*
X136037579Y-93681589D01*
X136049767Y-93621630D01*
X136062963Y-93603467D01*
X136352608Y-93287490D01*
X136399544Y-93258874D01*
X136417817Y-93253893D01*
X136445495Y-93246347D01*
X136445497Y-93246346D01*
X136452298Y-93244492D01*
X136472193Y-93232277D01*
X136556502Y-93180511D01*
X136556504Y-93180509D01*
X136562511Y-93176821D01*
X136567240Y-93171596D01*
X136567243Y-93171594D01*
X136644569Y-93086166D01*
X136644569Y-93086165D01*
X136649302Y-93080937D01*
X136705692Y-92964548D01*
X136713659Y-92917196D01*
X136738308Y-92866725D01*
X136905406Y-92684436D01*
X136918942Y-92669669D01*
X138964017Y-92669669D01*
X138964932Y-92676666D01*
X138964932Y-92676667D01*
X138966940Y-92692025D01*
X138982662Y-92812251D01*
X138985500Y-92818702D01*
X138985501Y-92818704D01*
X139020860Y-92899063D01*
X139040575Y-92943869D01*
X139133101Y-93053942D01*
X139138972Y-93057850D01*
X139138973Y-93057851D01*
X139151328Y-93066075D01*
X139252802Y-93133622D01*
X139390055Y-93176503D01*
X139461941Y-93177820D01*
X139526774Y-93179009D01*
X139526776Y-93179009D01*
X139533827Y-93179138D01*
X139540630Y-93177283D01*
X139540632Y-93177283D01*
X139587479Y-93164511D01*
X139672559Y-93141315D01*
X139795100Y-93066075D01*
X139799840Y-93060839D01*
X139869267Y-92984136D01*
X139873559Y-92979394D01*
X139926627Y-92948940D01*
X139987460Y-92955495D01*
X140022740Y-92982128D01*
X140046816Y-93010770D01*
X140083102Y-93053937D01*
X140088973Y-93057845D01*
X140088974Y-93057846D01*
X140102588Y-93066908D01*
X140202803Y-93133617D01*
X140209534Y-93135720D01*
X140209550Y-93135725D01*
X140340056Y-93176498D01*
X140411942Y-93177816D01*
X140476775Y-93179004D01*
X140476777Y-93179004D01*
X140483828Y-93179133D01*
X140490631Y-93177278D01*
X140490633Y-93177278D01*
X140537480Y-93164506D01*
X140622560Y-93141310D01*
X140745101Y-93066070D01*
X140749836Y-93060839D01*
X140797633Y-93008034D01*
X140850701Y-92977581D01*
X140911534Y-92984136D01*
X140946813Y-93010769D01*
X140978562Y-93048540D01*
X140978565Y-93048542D01*
X140983101Y-93053939D01*
X140988972Y-93057847D01*
X140988973Y-93057848D01*
X141002584Y-93066908D01*
X141102802Y-93133619D01*
X141109533Y-93135722D01*
X141127419Y-93141310D01*
X141240055Y-93176500D01*
X141311941Y-93177818D01*
X141376774Y-93179006D01*
X141376776Y-93179006D01*
X141383827Y-93179135D01*
X141390630Y-93177280D01*
X141390632Y-93177280D01*
X141437479Y-93164508D01*
X141522559Y-93141312D01*
X141645100Y-93066072D01*
X141656080Y-93053942D01*
X141678011Y-93029712D01*
X141697632Y-93008035D01*
X141750700Y-92977581D01*
X141811533Y-92984136D01*
X141846813Y-93010770D01*
X141878561Y-93048540D01*
X141878566Y-93048544D01*
X141883103Y-93053942D01*
X141888974Y-93057850D01*
X141888975Y-93057851D01*
X141901330Y-93066075D01*
X142002804Y-93133622D01*
X142140057Y-93176503D01*
X142211943Y-93177820D01*
X142276776Y-93179009D01*
X142276778Y-93179009D01*
X142283829Y-93179138D01*
X142290632Y-93177283D01*
X142290634Y-93177283D01*
X142337481Y-93164511D01*
X142422561Y-93141315D01*
X142545102Y-93066075D01*
X142549842Y-93060839D01*
X142636867Y-92964694D01*
X142636867Y-92964693D01*
X142641599Y-92959466D01*
X142704297Y-92830059D01*
X142705941Y-92820292D01*
X142727520Y-92692025D01*
X142727520Y-92692024D01*
X142728154Y-92688256D01*
X142728305Y-92675865D01*
X142707920Y-92533522D01*
X142671233Y-92452833D01*
X142651324Y-92409045D01*
X142651323Y-92409044D01*
X142648403Y-92402621D01*
X142554539Y-92293686D01*
X142548622Y-92289851D01*
X142548620Y-92289849D01*
X142439795Y-92219313D01*
X142439793Y-92219312D01*
X142433873Y-92215475D01*
X142296106Y-92174274D01*
X142214361Y-92173774D01*
X142159364Y-92173438D01*
X142159363Y-92173438D01*
X142152313Y-92173395D01*
X142145536Y-92175332D01*
X142145535Y-92175332D01*
X142020833Y-92210972D01*
X142020831Y-92210973D01*
X142014053Y-92212910D01*
X141892441Y-92289642D01*
X141887773Y-92294928D01*
X141887769Y-92294931D01*
X141845382Y-92342924D01*
X141792690Y-92374024D01*
X141731781Y-92368212D01*
X141696180Y-92342012D01*
X141659142Y-92299027D01*
X141659140Y-92299025D01*
X141654537Y-92293683D01*
X141648620Y-92289848D01*
X141648618Y-92289846D01*
X141539793Y-92219310D01*
X141539789Y-92219308D01*
X141533871Y-92215472D01*
X141396104Y-92174271D01*
X141314359Y-92173771D01*
X141259362Y-92173435D01*
X141259361Y-92173435D01*
X141252311Y-92173392D01*
X141245534Y-92175329D01*
X141245533Y-92175329D01*
X141120831Y-92210969D01*
X141120829Y-92210970D01*
X141114051Y-92212907D01*
X140992439Y-92289639D01*
X140987774Y-92294921D01*
X140987767Y-92294927D01*
X140945381Y-92342920D01*
X140892689Y-92374020D01*
X140831780Y-92368208D01*
X140796179Y-92342008D01*
X140759143Y-92299025D01*
X140759142Y-92299024D01*
X140754538Y-92293681D01*
X140748621Y-92289846D01*
X140748619Y-92289844D01*
X140639794Y-92219308D01*
X140639792Y-92219307D01*
X140633872Y-92215470D01*
X140496105Y-92174269D01*
X140414360Y-92173769D01*
X140359363Y-92173433D01*
X140359362Y-92173433D01*
X140352312Y-92173390D01*
X140345535Y-92175327D01*
X140345534Y-92175327D01*
X140220832Y-92210967D01*
X140220830Y-92210968D01*
X140214052Y-92212905D01*
X140092440Y-92289637D01*
X140020876Y-92370667D01*
X140020071Y-92371579D01*
X139967379Y-92402679D01*
X139906470Y-92396867D01*
X139870868Y-92370667D01*
X139809142Y-92299030D01*
X139809139Y-92299027D01*
X139804537Y-92293686D01*
X139798620Y-92289851D01*
X139798618Y-92289849D01*
X139689793Y-92219313D01*
X139689791Y-92219312D01*
X139683871Y-92215475D01*
X139546104Y-92174274D01*
X139464359Y-92173774D01*
X139409362Y-92173438D01*
X139409361Y-92173438D01*
X139402311Y-92173395D01*
X139395534Y-92175332D01*
X139395533Y-92175332D01*
X139270831Y-92210972D01*
X139270829Y-92210973D01*
X139264051Y-92212910D01*
X139142439Y-92289642D01*
X139137773Y-92294926D01*
X139137771Y-92294927D01*
X139100241Y-92337422D01*
X139047251Y-92397421D01*
X138986140Y-92527585D01*
X138964017Y-92669669D01*
X136918942Y-92669669D01*
X137101640Y-92470362D01*
X137101639Y-90862457D01*
X137120546Y-90804266D01*
X137170046Y-90768302D01*
X137200639Y-90763457D01*
X143472642Y-90763457D01*
X143530833Y-90782364D01*
G37*
%TD.AperFunction*%
%TD*%
%TA.AperFunction,Conductor*%
%TO.N,GND*%
G36*
X133442121Y-89520002D02*
G01*
X133488614Y-89573658D01*
X133500000Y-89626000D01*
X133500000Y-90874000D01*
X133479998Y-90942121D01*
X133426342Y-90988614D01*
X133374000Y-91000000D01*
X131600000Y-91000000D01*
X131600000Y-95900000D01*
X133047810Y-95900000D01*
X133115931Y-95920002D01*
X133136905Y-95936905D01*
X133295062Y-96095062D01*
X133304356Y-96105445D01*
X133472389Y-96315486D01*
X133499325Y-96381175D01*
X133500000Y-96394198D01*
X133500000Y-96747810D01*
X133479998Y-96815931D01*
X133463095Y-96836905D01*
X132401362Y-97898638D01*
X132398623Y-97901296D01*
X130736387Y-99465753D01*
X130673073Y-99497875D01*
X130650031Y-99500000D01*
X121326000Y-99500000D01*
X121257879Y-99479998D01*
X121211386Y-99426342D01*
X121200000Y-99374000D01*
X121200000Y-97626000D01*
X121220002Y-97557879D01*
X121273658Y-97511386D01*
X121326000Y-97500000D01*
X129500000Y-97500000D01*
X129700000Y-97300000D01*
X129703455Y-97294818D01*
X129889652Y-97015523D01*
X129889653Y-97015521D01*
X129900000Y-97000000D01*
X129900000Y-89626000D01*
X129920002Y-89557879D01*
X129973658Y-89511386D01*
X130026000Y-89500000D01*
X133374000Y-89500000D01*
X133442121Y-89520002D01*
G37*
%TD.AperFunction*%
%TD*%
%TA.AperFunction,Conductor*%
%TO.N,GND*%
G36*
X193642121Y-90420002D02*
G01*
X193688614Y-90473658D01*
X193700000Y-90526000D01*
X193700000Y-99974000D01*
X193679998Y-100042121D01*
X193626342Y-100088614D01*
X193574000Y-100100000D01*
X185226000Y-100100000D01*
X185157879Y-100079998D01*
X185111386Y-100026342D01*
X185100000Y-99974000D01*
X185100000Y-94700000D01*
X188124647Y-94700000D01*
X188144022Y-94921463D01*
X188201560Y-95136196D01*
X188203882Y-95141177D01*
X188203883Y-95141178D01*
X188293186Y-95332689D01*
X188293189Y-95332694D01*
X188295512Y-95337676D01*
X188423023Y-95519781D01*
X188580219Y-95676977D01*
X188584727Y-95680134D01*
X188584730Y-95680136D01*
X188660495Y-95733187D01*
X188762323Y-95804488D01*
X188767305Y-95806811D01*
X188767310Y-95806814D01*
X188958822Y-95896117D01*
X188963804Y-95898440D01*
X188969112Y-95899862D01*
X188969114Y-95899863D01*
X189034949Y-95917503D01*
X189178537Y-95955978D01*
X189400000Y-95975353D01*
X189621463Y-95955978D01*
X189765051Y-95917503D01*
X189830886Y-95899863D01*
X189830888Y-95899862D01*
X189836196Y-95898440D01*
X189841178Y-95896117D01*
X190032690Y-95806814D01*
X190032695Y-95806811D01*
X190037677Y-95804488D01*
X190139505Y-95733187D01*
X190215270Y-95680136D01*
X190215273Y-95680134D01*
X190219781Y-95676977D01*
X190376977Y-95519781D01*
X190504488Y-95337676D01*
X190506811Y-95332694D01*
X190506814Y-95332689D01*
X190596117Y-95141178D01*
X190596118Y-95141177D01*
X190598440Y-95136196D01*
X190655978Y-94921463D01*
X190675353Y-94700000D01*
X190655978Y-94478537D01*
X190598440Y-94263804D01*
X190596117Y-94258822D01*
X190506814Y-94067311D01*
X190506811Y-94067306D01*
X190504488Y-94062324D01*
X190376977Y-93880219D01*
X190219781Y-93723023D01*
X190215273Y-93719866D01*
X190215270Y-93719864D01*
X190139505Y-93666813D01*
X190037677Y-93595512D01*
X190032695Y-93593189D01*
X190032690Y-93593186D01*
X189841178Y-93503883D01*
X189841177Y-93503882D01*
X189836196Y-93501560D01*
X189830888Y-93500138D01*
X189830886Y-93500137D01*
X189765051Y-93482497D01*
X189621463Y-93444022D01*
X189400000Y-93424647D01*
X189178537Y-93444022D01*
X189034949Y-93482497D01*
X188969114Y-93500137D01*
X188969112Y-93500138D01*
X188963804Y-93501560D01*
X188958823Y-93503882D01*
X188958822Y-93503883D01*
X188767311Y-93593186D01*
X188767306Y-93593189D01*
X188762324Y-93595512D01*
X188757817Y-93598668D01*
X188757815Y-93598669D01*
X188584730Y-93719864D01*
X188584727Y-93719866D01*
X188580219Y-93723023D01*
X188423023Y-93880219D01*
X188295512Y-94062324D01*
X188293189Y-94067306D01*
X188293186Y-94067311D01*
X188203883Y-94258822D01*
X188201560Y-94263804D01*
X188144022Y-94478537D01*
X188124647Y-94700000D01*
X185100000Y-94700000D01*
X185100000Y-90526000D01*
X185120002Y-90457879D01*
X185173658Y-90411386D01*
X185226000Y-90400000D01*
X193574000Y-90400000D01*
X193642121Y-90420002D01*
G37*
%TD.AperFunction*%
%TD*%
M02*
