%TF.GenerationSoftware,KiCad,Pcbnew,(6.0.5)*%
%TF.CreationDate,2022-10-08T22:42:16+08:00*%
%TF.ProjectId,LabPrecisionVoltageSource_V1.2,4c616250-7265-4636-9973-696f6e566f6c,rev?*%
%TF.SameCoordinates,Original*%
%TF.FileFunction,Soldermask,Top*%
%TF.FilePolarity,Negative*%
%FSLAX46Y46*%
G04 Gerber Fmt 4.6, Leading zero omitted, Abs format (unit mm)*
G04 Created by KiCad (PCBNEW (6.0.5)) date 2022-10-08 22:42:16*
%MOMM*%
%LPD*%
G01*
G04 APERTURE LIST*
G04 Aperture macros list*
%AMRoundRect*
0 Rectangle with rounded corners*
0 $1 Rounding radius*
0 $2 $3 $4 $5 $6 $7 $8 $9 X,Y pos of 4 corners*
0 Add a 4 corners polygon primitive as box body*
4,1,4,$2,$3,$4,$5,$6,$7,$8,$9,$2,$3,0*
0 Add four circle primitives for the rounded corners*
1,1,$1+$1,$2,$3*
1,1,$1+$1,$4,$5*
1,1,$1+$1,$6,$7*
1,1,$1+$1,$8,$9*
0 Add four rect primitives between the rounded corners*
20,1,$1+$1,$2,$3,$4,$5,0*
20,1,$1+$1,$4,$5,$6,$7,0*
20,1,$1+$1,$6,$7,$8,$9,0*
20,1,$1+$1,$8,$9,$2,$3,0*%
G04 Aperture macros list end*
%ADD10C,2.240000*%
%ADD11C,2.740000*%
%ADD12RoundRect,0.225000X0.250000X-0.225000X0.250000X0.225000X-0.250000X0.225000X-0.250000X-0.225000X0*%
%ADD13C,2.200000*%
%ADD14RoundRect,0.218750X-0.218750X-0.381250X0.218750X-0.381250X0.218750X0.381250X-0.218750X0.381250X0*%
%ADD15RoundRect,0.150000X0.150000X-0.825000X0.150000X0.825000X-0.150000X0.825000X-0.150000X-0.825000X0*%
%ADD16RoundRect,0.150000X-0.512500X-0.150000X0.512500X-0.150000X0.512500X0.150000X-0.512500X0.150000X0*%
%ADD17RoundRect,0.225000X0.225000X0.250000X-0.225000X0.250000X-0.225000X-0.250000X0.225000X-0.250000X0*%
%ADD18R,0.700000X0.250000*%
%ADD19R,1.660000X2.380000*%
%ADD20R,1.700000X1.700000*%
%ADD21O,1.700000X1.700000*%
%ADD22RoundRect,0.225000X-0.225000X-0.250000X0.225000X-0.250000X0.225000X0.250000X-0.225000X0.250000X0*%
%ADD23C,1.000000*%
%ADD24RoundRect,0.062500X-0.362500X-0.062500X0.362500X-0.062500X0.362500X0.062500X-0.362500X0.062500X0*%
%ADD25R,1.650000X2.380000*%
%ADD26RoundRect,0.140000X-0.170000X0.140000X-0.170000X-0.140000X0.170000X-0.140000X0.170000X0.140000X0*%
%ADD27RoundRect,0.250000X-0.425000X0.450000X-0.425000X-0.450000X0.425000X-0.450000X0.425000X0.450000X0*%
%ADD28RoundRect,0.135000X-0.135000X-0.185000X0.135000X-0.185000X0.135000X0.185000X-0.135000X0.185000X0*%
%ADD29RoundRect,0.250000X-0.450000X-0.425000X0.450000X-0.425000X0.450000X0.425000X-0.450000X0.425000X0*%
%ADD30R,1.100000X1.100000*%
%ADD31RoundRect,0.150000X-0.825000X-0.150000X0.825000X-0.150000X0.825000X0.150000X-0.825000X0.150000X0*%
%ADD32RoundRect,0.250000X0.250000X0.475000X-0.250000X0.475000X-0.250000X-0.475000X0.250000X-0.475000X0*%
%ADD33R,0.450000X1.750000*%
%ADD34R,3.600000X1.500000*%
%ADD35R,1.500000X3.600000*%
%ADD36RoundRect,0.135000X-0.185000X0.135000X-0.185000X-0.135000X0.185000X-0.135000X0.185000X0.135000X0*%
%ADD37RoundRect,0.135000X0.185000X-0.135000X0.185000X0.135000X-0.185000X0.135000X-0.185000X-0.135000X0*%
%ADD38RoundRect,0.140000X0.140000X0.170000X-0.140000X0.170000X-0.140000X-0.170000X0.140000X-0.170000X0*%
%ADD39RoundRect,0.250000X-0.475000X0.250000X-0.475000X-0.250000X0.475000X-0.250000X0.475000X0.250000X0*%
%ADD40RoundRect,0.140000X0.170000X-0.140000X0.170000X0.140000X-0.170000X0.140000X-0.170000X-0.140000X0*%
%ADD41RoundRect,0.140000X-0.140000X-0.170000X0.140000X-0.170000X0.140000X0.170000X-0.140000X0.170000X0*%
%ADD42RoundRect,0.100000X0.637500X0.100000X-0.637500X0.100000X-0.637500X-0.100000X0.637500X-0.100000X0*%
%ADD43RoundRect,0.250000X0.475000X-0.250000X0.475000X0.250000X-0.475000X0.250000X-0.475000X-0.250000X0*%
%ADD44RoundRect,0.250000X0.450000X0.425000X-0.450000X0.425000X-0.450000X-0.425000X0.450000X-0.425000X0*%
%ADD45RoundRect,0.250000X-0.250000X-0.475000X0.250000X-0.475000X0.250000X0.475000X-0.250000X0.475000X0*%
%ADD46RoundRect,0.200000X0.200000X0.275000X-0.200000X0.275000X-0.200000X-0.275000X0.200000X-0.275000X0*%
%ADD47RoundRect,0.135000X0.135000X0.185000X-0.135000X0.185000X-0.135000X-0.185000X0.135000X-0.185000X0*%
%ADD48R,1.500000X0.700000*%
%ADD49R,0.700000X1.500000*%
%ADD50R,0.700000X2.500000*%
G04 APERTURE END LIST*
%TO.C,kibuzzard-63418A4B*%
G36*
X120304717Y-103836400D02*
G01*
X126095282Y-103836400D01*
X126095282Y-105563600D01*
X120304717Y-105563600D01*
X120304717Y-105404850D01*
X120463467Y-105404850D01*
X120676827Y-105404850D01*
X120676827Y-104827635D01*
X120751122Y-104827635D01*
X120866375Y-104864782D01*
X120902808Y-104918361D01*
X120934002Y-105004800D01*
X121044492Y-105404850D01*
X121263567Y-105404850D01*
X121454067Y-105404850D01*
X122120817Y-105404850D01*
X122120817Y-105239115D01*
X121667427Y-105239115D01*
X121667427Y-104738100D01*
X122101767Y-104738100D01*
X122101767Y-104576175D01*
X121667427Y-104576175D01*
X121667427Y-104179935D01*
X122120817Y-104179935D01*
X122120817Y-104014200D01*
X122301792Y-104014200D01*
X122610402Y-105404850D01*
X122858052Y-105404850D01*
X123083494Y-104395200D01*
X123351448Y-104395200D01*
X123679108Y-104212320D01*
X123682917Y-104214225D01*
X123682917Y-105404850D01*
X123896277Y-105404850D01*
X124492543Y-105404850D01*
X124797343Y-105404850D01*
X125250733Y-105404850D01*
X125936532Y-105404850D01*
X125936532Y-105239115D01*
X125471713Y-105239115D01*
X125471713Y-105235305D01*
X125583453Y-105102193D01*
X125678643Y-104977178D01*
X125757284Y-104860258D01*
X125819375Y-104751435D01*
X125879171Y-104615545D01*
X125915048Y-104487275D01*
X125927008Y-104366625D01*
X125905338Y-104205891D01*
X125840330Y-104089448D01*
X125734364Y-104018724D01*
X125589822Y-103995150D01*
X125469173Y-104006157D01*
X125356143Y-104039177D01*
X125250733Y-104094210D01*
X125250733Y-104273280D01*
X125358048Y-104210838D01*
X125456473Y-104173373D01*
X125546008Y-104160885D01*
X125670785Y-104212320D01*
X125701503Y-104278995D01*
X125711743Y-104376150D01*
X125702334Y-104480536D01*
X125674109Y-104591221D01*
X125627067Y-104708203D01*
X125561209Y-104831484D01*
X125476533Y-104961063D01*
X125373041Y-105096940D01*
X125250733Y-105239115D01*
X125250733Y-105404850D01*
X124797343Y-105404850D01*
X124797343Y-105081000D01*
X124492543Y-105081000D01*
X124492543Y-105404850D01*
X123896277Y-105404850D01*
X123896277Y-104014200D01*
X123684822Y-104014200D01*
X123351448Y-104208510D01*
X123351448Y-104395200D01*
X123083494Y-104395200D01*
X123168567Y-104014200D01*
X122957112Y-104014200D01*
X122739943Y-105214350D01*
X122738037Y-105214350D01*
X122520867Y-104014200D01*
X122301792Y-104014200D01*
X122120817Y-104014200D01*
X121454067Y-104014200D01*
X121454067Y-105404850D01*
X121263567Y-105404850D01*
X121145457Y-105016230D01*
X121084497Y-104866687D01*
X121012107Y-104772390D01*
X121012107Y-104768580D01*
X121105452Y-104714049D01*
X121172127Y-104636182D01*
X121212132Y-104534979D01*
X121225467Y-104410440D01*
X121213720Y-104279736D01*
X121178477Y-104174643D01*
X121119740Y-104095163D01*
X121035814Y-104039600D01*
X120925007Y-104006262D01*
X120787317Y-103995150D01*
X120677674Y-103999383D01*
X120569724Y-104012083D01*
X120463467Y-104033250D01*
X120463467Y-105404850D01*
X120304717Y-105404850D01*
X120304717Y-103836400D01*
G37*
G36*
X120888759Y-104175887D02*
G01*
X120960672Y-104220893D01*
X121003535Y-104298283D01*
X121017822Y-104410440D01*
X121002582Y-104527597D01*
X120956862Y-104604750D01*
X120874947Y-104647613D01*
X120751122Y-104661900D01*
X120676827Y-104661900D01*
X120676827Y-104176125D01*
X120787317Y-104160885D01*
X120888759Y-104175887D01*
G37*
%TD*%
D10*
%TO.C,J101*%
X189400000Y-94700000D03*
D11*
X186860000Y-92160000D03*
X191940000Y-92160000D03*
X186860000Y-97240000D03*
X191940000Y-97240000D03*
%TD*%
D12*
%TO.C,C205*%
X153571141Y-86950863D03*
X153571141Y-85400863D03*
%TD*%
D13*
%TO.C,H103*%
X128578396Y-84775865D03*
%TD*%
D14*
%TO.C,FB204*%
X151708643Y-96238866D03*
X153833643Y-96238866D03*
%TD*%
D15*
%TO.C,U501*%
X171177437Y-105753743D03*
X172447437Y-105753743D03*
X173717437Y-105753743D03*
X174987437Y-105753743D03*
X174987437Y-100803743D03*
X173717437Y-100803743D03*
X172447437Y-100803743D03*
X171177437Y-100803743D03*
%TD*%
D14*
%TO.C,FB203*%
X151508642Y-102175863D03*
X153633642Y-102175863D03*
%TD*%
D16*
%TO.C,U201*%
X147433641Y-84625863D03*
X147433641Y-85575863D03*
X147433641Y-86525863D03*
X149708641Y-86525863D03*
X149708641Y-84625863D03*
%TD*%
D17*
%TO.C,C405*%
X175046142Y-85875863D03*
X173496142Y-85875863D03*
%TD*%
D18*
%TO.C,U205*%
X147169142Y-98149864D03*
X147169142Y-98599864D03*
X147169142Y-99049864D03*
X147169142Y-99499864D03*
X147169142Y-99949864D03*
X147169142Y-100399864D03*
X149969142Y-100399864D03*
X149969142Y-99949864D03*
X149969142Y-99499864D03*
X149969142Y-99049864D03*
X149969142Y-98599864D03*
X149969142Y-98149864D03*
D19*
X148569142Y-99274864D03*
%TD*%
D20*
%TO.C,J102*%
X122081141Y-101069677D03*
D21*
X124621141Y-101069677D03*
X122081141Y-98529677D03*
X124621141Y-98529677D03*
X122081141Y-95989677D03*
X124621141Y-95989677D03*
X122081141Y-93449677D03*
X124621141Y-93449677D03*
X122081141Y-90909677D03*
X124621141Y-90909677D03*
X122081141Y-88369677D03*
X124621141Y-88369677D03*
%TD*%
D22*
%TO.C,C504*%
X167886671Y-100313456D03*
X169436671Y-100313456D03*
%TD*%
D23*
%TO.C,TP204*%
X154771140Y-98325864D03*
%TD*%
D24*
%TO.C,U202*%
X147104512Y-92075864D03*
X147104512Y-92575864D03*
X147104512Y-93075864D03*
X147104512Y-93575864D03*
X147104512Y-94075864D03*
X150004512Y-94075864D03*
X150004512Y-93575864D03*
X150004512Y-93075864D03*
X150004512Y-92575864D03*
X150004512Y-92075864D03*
D25*
X148554512Y-93075864D03*
%TD*%
D23*
%TO.C,TP301*%
X169321143Y-97625862D03*
%TD*%
D26*
%TO.C,C502*%
X168521142Y-101765863D03*
X168521142Y-102725863D03*
%TD*%
D27*
%TO.C,C301*%
X157099142Y-93273865D03*
X157099142Y-95973865D03*
%TD*%
D26*
%TO.C,C213*%
X129876144Y-91301865D03*
X129876144Y-92261865D03*
%TD*%
D12*
%TO.C,C202*%
X151571141Y-86950863D03*
X151571141Y-85400863D03*
%TD*%
D28*
%TO.C,R202*%
X143844144Y-91245863D03*
X144864144Y-91245863D03*
%TD*%
D12*
%TO.C,C211*%
X151571141Y-105450864D03*
X151571141Y-103900864D03*
%TD*%
D29*
%TO.C,C404*%
X172121141Y-83875863D03*
X174821141Y-83875863D03*
%TD*%
D30*
%TO.C,D201*%
X134829143Y-87178865D03*
X134829143Y-89978865D03*
%TD*%
D31*
%TO.C,U401*%
X177696142Y-83620862D03*
X177696142Y-84890862D03*
X177696142Y-86160862D03*
X177696142Y-87430862D03*
X182646142Y-87430862D03*
X182646142Y-86160862D03*
X182646142Y-84890862D03*
X182646142Y-83620862D03*
%TD*%
D32*
%TO.C,C220*%
X149935770Y-96188864D03*
X148035770Y-96188864D03*
%TD*%
D33*
%TO.C,U402*%
X180607439Y-90786142D03*
X179957439Y-90786142D03*
X179307439Y-90786142D03*
X178657439Y-90786142D03*
X178007439Y-90786142D03*
X177357439Y-90786142D03*
X176707439Y-90786142D03*
X176057439Y-90786142D03*
X175407439Y-90786142D03*
X174757439Y-90786142D03*
X174107439Y-90786142D03*
X173457439Y-90786142D03*
X172807439Y-90786142D03*
X172157439Y-90786142D03*
X172157439Y-97986142D03*
X172807439Y-97986142D03*
X173457439Y-97986142D03*
X174107439Y-97986142D03*
X174757439Y-97986142D03*
X175407439Y-97986142D03*
X176057439Y-97986142D03*
X176707439Y-97986142D03*
X177357439Y-97986142D03*
X178007439Y-97986142D03*
X178657439Y-97986142D03*
X179307439Y-97986142D03*
X179957439Y-97986142D03*
X180607439Y-97986142D03*
%TD*%
D34*
%TO.C,L203*%
X136353141Y-101150863D03*
X136353141Y-104200863D03*
%TD*%
D23*
%TO.C,TP201*%
X144471144Y-88275862D03*
%TD*%
D24*
%TO.C,U204*%
X132363143Y-92658865D03*
X132363143Y-93158865D03*
X132363143Y-93658865D03*
X132363143Y-94158865D03*
X132363143Y-94658865D03*
X135263143Y-94658865D03*
X135263143Y-94158865D03*
X135263143Y-93658865D03*
X135263143Y-93158865D03*
X135263143Y-92658865D03*
D25*
X133813143Y-93658865D03*
%TD*%
D35*
%TO.C,L202*%
X141180141Y-97341863D03*
X138130141Y-97341863D03*
%TD*%
D23*
%TO.C,TP203*%
X143571142Y-102775865D03*
%TD*%
D36*
%TO.C,R207*%
X128733142Y-95307865D03*
X128733142Y-96327865D03*
%TD*%
D37*
%TO.C,R204*%
X129714641Y-89075864D03*
X129714641Y-88055864D03*
%TD*%
D38*
%TO.C,C215*%
X144834142Y-97214861D03*
X143874142Y-97214861D03*
%TD*%
D32*
%TO.C,C208*%
X150012512Y-90027862D03*
X148112512Y-90027862D03*
%TD*%
D39*
%TO.C,C209*%
X132543141Y-87120863D03*
X132543141Y-89020863D03*
%TD*%
D40*
%TO.C,C218*%
X129876144Y-96297865D03*
X129876144Y-95337865D03*
%TD*%
D12*
%TO.C,C409*%
X183171142Y-99650863D03*
X183171142Y-98100863D03*
%TD*%
D14*
%TO.C,FB202*%
X151708640Y-90027862D03*
X153833640Y-90027862D03*
%TD*%
D41*
%TO.C,C216*%
X152153140Y-98766865D03*
X153113140Y-98766865D03*
%TD*%
D23*
%TO.C,TP202*%
X154771140Y-92175865D03*
%TD*%
D42*
%TO.C,U502*%
X165933642Y-106200863D03*
X165933642Y-105550863D03*
X165933642Y-104900863D03*
X165933642Y-104250863D03*
X165933642Y-103600863D03*
X165933642Y-102950863D03*
X165933642Y-102300863D03*
X165933642Y-101650863D03*
X165933642Y-101000863D03*
X165933642Y-100350863D03*
X160208642Y-100350863D03*
X160208642Y-101000863D03*
X160208642Y-101650863D03*
X160208642Y-102300863D03*
X160208642Y-102950863D03*
X160208642Y-103600863D03*
X160208642Y-104250863D03*
X160208642Y-104900863D03*
X160208642Y-105550863D03*
X160208642Y-106200863D03*
%TD*%
D41*
%TO.C,C204*%
X152138514Y-92567866D03*
X153098514Y-92567866D03*
%TD*%
D28*
%TO.C,R203*%
X129839639Y-90216865D03*
X130859639Y-90216865D03*
%TD*%
D38*
%TO.C,C210*%
X144834144Y-90102864D03*
X143874144Y-90102864D03*
%TD*%
D41*
%TO.C,C406*%
X179141140Y-88925864D03*
X180101140Y-88925864D03*
%TD*%
D22*
%TO.C,C507*%
X156726643Y-106220363D03*
X158276643Y-106220363D03*
%TD*%
D36*
%TO.C,R502*%
X169537141Y-101735863D03*
X169537141Y-102755863D03*
%TD*%
D39*
%TO.C,C219*%
X139909140Y-100963865D03*
X139909140Y-102863865D03*
%TD*%
D31*
%TO.C,U403*%
X177696142Y-101370863D03*
X177696142Y-102640863D03*
X177696142Y-103910863D03*
X177696142Y-105180863D03*
X182646142Y-105180863D03*
X182646142Y-103910863D03*
X182646142Y-102640863D03*
X182646142Y-101370863D03*
%TD*%
D43*
%TO.C,C303*%
X169321144Y-95725864D03*
X169321144Y-93825864D03*
%TD*%
D38*
%TO.C,C410*%
X180262436Y-99825865D03*
X179302436Y-99825865D03*
%TD*%
D14*
%TO.C,FB201*%
X151508642Y-83675865D03*
X153633642Y-83675865D03*
%TD*%
D22*
%TO.C,C408*%
X185296139Y-83575863D03*
X186846139Y-83575863D03*
%TD*%
D44*
%TO.C,C206*%
X144307141Y-93658865D03*
X141607141Y-93658865D03*
%TD*%
D45*
%TO.C,C203*%
X137882142Y-93658861D03*
X139782142Y-93658861D03*
%TD*%
D13*
%TO.C,H104*%
X192574195Y-84775863D03*
%TD*%
D12*
%TO.C,C207*%
X145571142Y-104650863D03*
X145571142Y-103100863D03*
%TD*%
D43*
%TO.C,C217*%
X135083140Y-99180864D03*
X135083140Y-97280864D03*
%TD*%
D46*
%TO.C,R403*%
X186476641Y-103910364D03*
X184826641Y-103910364D03*
%TD*%
D47*
%TO.C,R205*%
X153143140Y-99782863D03*
X152123140Y-99782863D03*
%TD*%
%TO.C,R206*%
X144866141Y-96071864D03*
X143846141Y-96071864D03*
%TD*%
D30*
%TO.C,D202*%
X132670142Y-98481866D03*
X132670142Y-101281866D03*
%TD*%
D36*
%TO.C,R208*%
X129876144Y-93275865D03*
X129876144Y-94295865D03*
%TD*%
D13*
%TO.C,H102*%
X128578398Y-104725861D03*
%TD*%
D48*
%TO.C,U301*%
X161271143Y-93575862D03*
X161271143Y-94825862D03*
X161271143Y-96075862D03*
D49*
X163421143Y-96975862D03*
D48*
X165571143Y-96075862D03*
X165571143Y-94825862D03*
X165571143Y-93575862D03*
D50*
X163421143Y-93075862D03*
%TD*%
D40*
%TO.C,C501*%
X168521142Y-104757863D03*
X168521142Y-103797863D03*
%TD*%
D16*
%TO.C,U203*%
X147433641Y-103125863D03*
X147433641Y-104075863D03*
X147433641Y-105025863D03*
X149708641Y-105025863D03*
X149708641Y-103125863D03*
%TD*%
D47*
%TO.C,R201*%
X153128511Y-93583863D03*
X152108511Y-93583863D03*
%TD*%
D12*
%TO.C,C214*%
X153571141Y-105450863D03*
X153571141Y-103900863D03*
%TD*%
D29*
%TO.C,C403*%
X185521142Y-85575863D03*
X188221142Y-85575863D03*
%TD*%
D37*
%TO.C,R501*%
X169537139Y-104787863D03*
X169537139Y-103767863D03*
%TD*%
D13*
%TO.C,H101*%
X192574196Y-104775862D03*
%TD*%
D35*
%TO.C,L201*%
X138130141Y-89975864D03*
X141180141Y-89975864D03*
%TD*%
D26*
%TO.C,C212*%
X130857641Y-88085864D03*
X130857641Y-89045864D03*
%TD*%
D12*
%TO.C,C201*%
X145571142Y-86350863D03*
X145571142Y-84800863D03*
%TD*%
D22*
%TO.C,C505*%
X167876642Y-106220363D03*
X169426642Y-106220363D03*
%TD*%
G36*
X193076117Y-80400321D02*
G01*
X193346779Y-80419677D01*
X193364576Y-80422236D01*
X193625795Y-80479065D01*
X193643044Y-80484130D01*
X193893522Y-80577557D01*
X193909874Y-80585025D01*
X194144505Y-80713145D01*
X194159628Y-80722864D01*
X194373637Y-80883070D01*
X194387224Y-80894843D01*
X194576259Y-81083879D01*
X194588031Y-81097464D01*
X194748238Y-81311473D01*
X194757957Y-81326597D01*
X194886078Y-81561230D01*
X194893546Y-81577583D01*
X194986970Y-81828057D01*
X194992035Y-81845305D01*
X195048864Y-82106527D01*
X195051423Y-82124320D01*
X195054334Y-82165008D01*
X195039244Y-82234383D01*
X194989043Y-82284586D01*
X194928655Y-82300000D01*
X119226000Y-82300000D01*
X119157879Y-82279998D01*
X119111386Y-82226342D01*
X119100000Y-82174000D01*
X119100000Y-82089545D01*
X119102881Y-82062755D01*
X119150196Y-81845309D01*
X119155262Y-81828061D01*
X119248700Y-81577582D01*
X119256167Y-81561231D01*
X119384296Y-81326598D01*
X119394016Y-81311475D01*
X119554230Y-81097469D01*
X119566002Y-81083884D01*
X119755040Y-80894852D01*
X119768626Y-80883080D01*
X119982640Y-80722874D01*
X119997763Y-80713155D01*
X120232401Y-80585033D01*
X120248752Y-80577566D01*
X120499230Y-80484140D01*
X120516479Y-80479075D01*
X120777695Y-80422247D01*
X120795503Y-80419687D01*
X121066659Y-80400320D01*
X121075636Y-80400000D01*
X193067129Y-80400000D01*
X193076117Y-80400321D01*
G37*
G36*
X194996795Y-107320002D02*
G01*
X195043288Y-107373658D01*
X195054354Y-107434981D01*
X195051451Y-107475606D01*
X195048892Y-107493407D01*
X194992070Y-107754630D01*
X194987005Y-107771880D01*
X194893583Y-108022360D01*
X194886115Y-108038713D01*
X194757994Y-108273352D01*
X194748274Y-108288476D01*
X194588068Y-108502486D01*
X194576295Y-108516073D01*
X194387256Y-108705109D01*
X194373669Y-108716882D01*
X194159653Y-108877090D01*
X194144529Y-108886809D01*
X193909897Y-109014923D01*
X193893543Y-109022392D01*
X193643053Y-109115814D01*
X193625803Y-109120878D01*
X193364572Y-109177699D01*
X193346794Y-109180256D01*
X193075647Y-109199677D01*
X193066620Y-109199999D01*
X121075630Y-109185788D01*
X121066656Y-109185466D01*
X120795496Y-109166050D01*
X120777714Y-109163493D01*
X120516481Y-109106670D01*
X120499231Y-109101605D01*
X120248753Y-109008186D01*
X120232400Y-109000718D01*
X119997769Y-108872604D01*
X119982645Y-108862885D01*
X119768632Y-108702679D01*
X119755045Y-108690906D01*
X119566010Y-108501874D01*
X119554237Y-108488288D01*
X119394030Y-108274279D01*
X119384311Y-108259154D01*
X119256193Y-108024524D01*
X119248724Y-108008171D01*
X119155302Y-107757694D01*
X119150237Y-107740445D01*
X119093411Y-107479217D01*
X119090853Y-107461423D01*
X119090321Y-107453985D01*
X119090000Y-107444996D01*
X119090000Y-107426000D01*
X119110002Y-107357879D01*
X119163658Y-107311386D01*
X119216000Y-107300000D01*
X194928674Y-107300000D01*
X194996795Y-107320002D01*
G37*
G36*
X192821376Y-102993541D02*
G01*
X192839172Y-102996100D01*
X193072506Y-103046860D01*
X193089754Y-103051924D01*
X193313499Y-103135375D01*
X193329853Y-103142844D01*
X193539442Y-103257289D01*
X193554565Y-103267008D01*
X193745734Y-103410116D01*
X193759320Y-103421889D01*
X193928169Y-103590738D01*
X193939942Y-103604324D01*
X194083050Y-103795493D01*
X194092769Y-103810616D01*
X194207214Y-104020205D01*
X194214683Y-104036559D01*
X194298134Y-104260304D01*
X194303198Y-104277552D01*
X194353958Y-104510886D01*
X194356517Y-104528682D01*
X194373552Y-104766874D01*
X194373552Y-104784850D01*
X194356517Y-105023042D01*
X194353958Y-105040838D01*
X194303198Y-105274172D01*
X194298134Y-105291420D01*
X194214683Y-105515165D01*
X194207214Y-105531519D01*
X194092769Y-105741108D01*
X194083050Y-105756231D01*
X193939943Y-105947400D01*
X193928170Y-105960986D01*
X193759320Y-106129836D01*
X193745734Y-106141609D01*
X193554563Y-106284718D01*
X193539440Y-106294437D01*
X193329855Y-106408880D01*
X193313501Y-106416349D01*
X193089754Y-106499801D01*
X193072506Y-106504865D01*
X192839172Y-106555625D01*
X192821377Y-106558184D01*
X192583178Y-106575220D01*
X192565200Y-106575220D01*
X192327020Y-106558184D01*
X192309226Y-106555626D01*
X192075881Y-106504865D01*
X192058632Y-106499800D01*
X191834893Y-106416351D01*
X191818540Y-106408883D01*
X191608950Y-106294438D01*
X191593826Y-106284718D01*
X191402658Y-106141611D01*
X191389072Y-106129838D01*
X191220222Y-105960988D01*
X191208449Y-105947402D01*
X191065340Y-105756231D01*
X191055621Y-105741108D01*
X190941178Y-105531523D01*
X190933709Y-105515169D01*
X190850257Y-105291423D01*
X190845193Y-105274175D01*
X190794433Y-105040840D01*
X190791874Y-105023044D01*
X190774839Y-104784850D01*
X190774839Y-104766874D01*
X190791874Y-104528683D01*
X190794433Y-104510887D01*
X190845193Y-104277552D01*
X190850257Y-104260304D01*
X190933709Y-104036558D01*
X190941178Y-104020204D01*
X191055621Y-103810618D01*
X191065340Y-103795495D01*
X191208449Y-103604325D01*
X191220222Y-103590739D01*
X191389072Y-103421889D01*
X191402658Y-103410116D01*
X191593828Y-103267007D01*
X191608951Y-103257288D01*
X191818537Y-103142845D01*
X191834891Y-103135376D01*
X192058637Y-103051924D01*
X192075885Y-103046860D01*
X192309220Y-102996100D01*
X192327016Y-102993541D01*
X192565208Y-102976506D01*
X192583184Y-102976506D01*
X192821376Y-102993541D01*
G37*
G36*
X128825572Y-102943542D02*
G01*
X128843367Y-102946101D01*
X129076711Y-102996862D01*
X129093960Y-103001926D01*
X129317700Y-103085375D01*
X129334054Y-103092844D01*
X129543643Y-103207289D01*
X129558766Y-103217008D01*
X129749935Y-103360115D01*
X129763521Y-103371888D01*
X129932371Y-103540738D01*
X129944144Y-103554324D01*
X130087251Y-103745493D01*
X130096971Y-103760617D01*
X130211416Y-103970207D01*
X130218884Y-103986560D01*
X130302334Y-104210299D01*
X130307398Y-104227548D01*
X130358159Y-104460892D01*
X130360718Y-104478687D01*
X130377753Y-104716874D01*
X130377753Y-104734851D01*
X130360717Y-104973038D01*
X130358159Y-104990832D01*
X130307398Y-105224177D01*
X130302333Y-105241426D01*
X130218883Y-105465165D01*
X130211415Y-105481518D01*
X130096970Y-105691108D01*
X130087250Y-105706232D01*
X129944146Y-105897397D01*
X129932373Y-105910984D01*
X129763515Y-106079841D01*
X129749929Y-106091613D01*
X129558762Y-106234719D01*
X129543639Y-106244438D01*
X129334054Y-106358881D01*
X129317700Y-106366350D01*
X129093953Y-106449802D01*
X129076705Y-106454866D01*
X128843370Y-106505626D01*
X128825574Y-106508185D01*
X128587382Y-106525220D01*
X128569406Y-106525220D01*
X128331214Y-106508185D01*
X128313418Y-106505626D01*
X128080083Y-106454866D01*
X128062835Y-106449802D01*
X127839089Y-106366350D01*
X127822735Y-106358881D01*
X127613149Y-106244438D01*
X127598026Y-106234719D01*
X127406860Y-106091613D01*
X127393274Y-106079841D01*
X127224417Y-105910985D01*
X127212644Y-105897398D01*
X127069540Y-105706234D01*
X127059820Y-105691110D01*
X126945375Y-105481519D01*
X126937907Y-105465166D01*
X126854458Y-105241427D01*
X126849394Y-105224178D01*
X126798633Y-104990834D01*
X126796074Y-104973039D01*
X126779039Y-104734850D01*
X126779039Y-104716873D01*
X126796074Y-104478688D01*
X126798632Y-104460894D01*
X126849392Y-104227552D01*
X126854457Y-104210302D01*
X126937910Y-103986556D01*
X126945379Y-103970203D01*
X127059821Y-103760620D01*
X127069540Y-103745497D01*
X127212649Y-103554326D01*
X127224422Y-103540740D01*
X127393272Y-103371890D01*
X127406858Y-103360117D01*
X127598029Y-103217008D01*
X127613152Y-103207289D01*
X127822735Y-103092847D01*
X127839088Y-103085378D01*
X128062834Y-103001925D01*
X128080084Y-102996860D01*
X128313426Y-102946100D01*
X128331221Y-102943542D01*
X128569409Y-102926507D01*
X128587385Y-102926507D01*
X128825572Y-102943542D01*
G37*
G36*
X192821375Y-82993542D02*
G01*
X192839171Y-82996101D01*
X193072506Y-83046861D01*
X193089754Y-83051925D01*
X193313501Y-83135377D01*
X193329855Y-83142846D01*
X193539440Y-83257289D01*
X193554563Y-83267008D01*
X193745734Y-83410117D01*
X193759320Y-83421890D01*
X193928170Y-83590740D01*
X193939943Y-83604326D01*
X194083050Y-83795495D01*
X194092770Y-83810619D01*
X194207215Y-84020209D01*
X194214683Y-84036562D01*
X194298133Y-84260301D01*
X194303198Y-84277550D01*
X194353959Y-84510895D01*
X194356517Y-84528689D01*
X194373552Y-84766874D01*
X194373552Y-84784852D01*
X194356516Y-85023042D01*
X194353958Y-85040836D01*
X194303198Y-85274177D01*
X194298133Y-85291427D01*
X194214680Y-85515171D01*
X194207212Y-85531523D01*
X194092769Y-85741111D01*
X194083049Y-85756235D01*
X193939942Y-85947403D01*
X193928169Y-85960989D01*
X193759319Y-86129839D01*
X193745733Y-86141612D01*
X193554564Y-86284719D01*
X193539441Y-86294438D01*
X193329852Y-86408883D01*
X193313498Y-86416352D01*
X193089758Y-86499801D01*
X193072509Y-86504865D01*
X192839165Y-86555626D01*
X192821371Y-86558185D01*
X192583184Y-86575221D01*
X192565206Y-86575221D01*
X192327019Y-86558185D01*
X192309225Y-86555627D01*
X192075883Y-86504867D01*
X192058633Y-86499802D01*
X191834887Y-86416349D01*
X191818534Y-86408880D01*
X191608951Y-86294438D01*
X191593828Y-86284719D01*
X191402657Y-86141610D01*
X191389071Y-86129837D01*
X191220221Y-85960987D01*
X191208448Y-85947401D01*
X191065339Y-85756230D01*
X191055620Y-85741107D01*
X190941178Y-85531524D01*
X190933709Y-85515171D01*
X190850256Y-85291425D01*
X190845191Y-85274175D01*
X190794431Y-85040833D01*
X190791873Y-85023038D01*
X190774838Y-84784851D01*
X190774838Y-84766875D01*
X190791873Y-84528688D01*
X190794432Y-84510893D01*
X190845193Y-84277549D01*
X190850257Y-84260300D01*
X190933706Y-84036561D01*
X190941174Y-84020208D01*
X191055619Y-83810617D01*
X191065339Y-83795493D01*
X191208443Y-83604329D01*
X191220216Y-83590742D01*
X191389073Y-83421886D01*
X191402659Y-83410114D01*
X191593825Y-83267008D01*
X191608948Y-83257289D01*
X191818534Y-83142846D01*
X191834888Y-83135377D01*
X192058634Y-83051925D01*
X192075882Y-83046861D01*
X192309217Y-82996101D01*
X192327013Y-82993542D01*
X192565206Y-82976507D01*
X192583182Y-82976507D01*
X192821375Y-82993542D01*
G37*
G36*
X128825575Y-82993542D02*
G01*
X128843371Y-82996101D01*
X129076706Y-83046861D01*
X129093954Y-83051925D01*
X129317700Y-83135377D01*
X129334054Y-83142846D01*
X129543639Y-83257289D01*
X129558762Y-83267008D01*
X129749933Y-83410117D01*
X129763519Y-83421890D01*
X129932369Y-83590740D01*
X129944142Y-83604326D01*
X130087251Y-83795497D01*
X130096970Y-83810620D01*
X130211413Y-84020205D01*
X130218882Y-84036559D01*
X130302334Y-84260305D01*
X130307398Y-84277553D01*
X130358158Y-84510888D01*
X130360717Y-84528684D01*
X130377752Y-84766876D01*
X130377752Y-84784852D01*
X130360717Y-85023044D01*
X130358158Y-85040840D01*
X130307398Y-85274175D01*
X130302334Y-85291423D01*
X130218882Y-85515169D01*
X130211413Y-85531523D01*
X130096970Y-85741108D01*
X130087251Y-85756231D01*
X129944142Y-85947402D01*
X129932369Y-85960988D01*
X129763519Y-86129838D01*
X129749933Y-86141611D01*
X129558762Y-86284720D01*
X129543639Y-86294439D01*
X129334054Y-86408882D01*
X129317700Y-86416351D01*
X129093954Y-86499803D01*
X129076706Y-86504867D01*
X128843371Y-86555627D01*
X128825575Y-86558186D01*
X128587383Y-86575221D01*
X128569407Y-86575221D01*
X128331215Y-86558186D01*
X128313419Y-86555627D01*
X128080084Y-86504867D01*
X128062836Y-86499803D01*
X127839090Y-86416351D01*
X127822736Y-86408882D01*
X127613150Y-86294439D01*
X127598027Y-86284720D01*
X127406857Y-86141611D01*
X127393271Y-86129838D01*
X127224420Y-85960987D01*
X127212647Y-85947401D01*
X127069540Y-85756234D01*
X127059820Y-85741110D01*
X126945377Y-85531522D01*
X126937909Y-85515170D01*
X126854456Y-85291426D01*
X126849391Y-85274176D01*
X126798631Y-85040834D01*
X126796073Y-85023039D01*
X126779038Y-84784852D01*
X126779038Y-84766876D01*
X126796073Y-84528689D01*
X126798631Y-84510894D01*
X126849391Y-84277552D01*
X126854456Y-84260303D01*
X126937908Y-84036559D01*
X126945377Y-84020205D01*
X127059821Y-83810618D01*
X127069540Y-83795495D01*
X127212647Y-83604326D01*
X127224420Y-83590740D01*
X127393270Y-83421890D01*
X127406856Y-83410117D01*
X127598027Y-83267008D01*
X127613150Y-83257289D01*
X127822735Y-83142846D01*
X127839089Y-83135377D01*
X128062835Y-83051925D01*
X128080083Y-83046861D01*
X128313418Y-82996101D01*
X128331214Y-82993542D01*
X128569407Y-82976507D01*
X128587383Y-82976507D01*
X128825575Y-82993542D01*
G37*
M02*
