%TF.GenerationSoftware,KiCad,Pcbnew,(6.0.5)*%
%TF.CreationDate,2022-10-08T22:42:16+08:00*%
%TF.ProjectId,LabPrecisionVoltageSource_V1.2,4c616250-7265-4636-9973-696f6e566f6c,rev?*%
%TF.SameCoordinates,Original*%
%TF.FileFunction,Legend,Top*%
%TF.FilePolarity,Positive*%
%FSLAX46Y46*%
G04 Gerber Fmt 4.6, Leading zero omitted, Abs format (unit mm)*
G04 Created by KiCad (PCBNEW (6.0.5)) date 2022-10-08 22:42:16*
%MOMM*%
%LPD*%
G01*
G04 APERTURE LIST*
%ADD10C,0.120000*%
%ADD11C,0.150000*%
G04 APERTURE END LIST*
%TO.C,kibuzzard-63418A24*%
G36*
X138960075Y-103926875D02*
G01*
X142839925Y-103926875D01*
X142839925Y-105673125D01*
X138960075Y-105673125D01*
X138960075Y-105495325D01*
X139118825Y-105495325D01*
X139776050Y-105495325D01*
X139776050Y-105476275D01*
X139989410Y-105476275D01*
X140132761Y-105504850D01*
X140288495Y-105514375D01*
X140446610Y-105497944D01*
X140570435Y-105448653D01*
X140664494Y-105358879D01*
X140733313Y-105221005D01*
X140764533Y-105100143D01*
X140783266Y-104953458D01*
X140788820Y-104800000D01*
X140900000Y-104800000D01*
X140905186Y-104966793D01*
X140920743Y-105109033D01*
X140946673Y-105226720D01*
X141004061Y-105361499D01*
X141082880Y-105449605D01*
X141186703Y-105498183D01*
X141319100Y-105514375D01*
X141451498Y-105498183D01*
X141555320Y-105449605D01*
X141634139Y-105361499D01*
X141691528Y-105226720D01*
X141717457Y-105109033D01*
X141729379Y-105000025D01*
X141862025Y-105000025D01*
X142170635Y-105000025D01*
X142170635Y-105400075D01*
X142374470Y-105400075D01*
X142374470Y-105000025D01*
X142681175Y-105000025D01*
X142681175Y-104841910D01*
X142374470Y-104841910D01*
X142374470Y-104447575D01*
X142170635Y-104447575D01*
X142170635Y-104841910D01*
X141862025Y-104841910D01*
X141862025Y-105000025D01*
X141729379Y-105000025D01*
X141733014Y-104966793D01*
X141738200Y-104800000D01*
X141733014Y-104633207D01*
X141717457Y-104490967D01*
X141691528Y-104373280D01*
X141634139Y-104238501D01*
X141555320Y-104150395D01*
X141451498Y-104101818D01*
X141319100Y-104085625D01*
X141186703Y-104101818D01*
X141082880Y-104150395D01*
X141004061Y-104238501D01*
X140946673Y-104373280D01*
X140920743Y-104490967D01*
X140905186Y-104633207D01*
X140900000Y-104800000D01*
X140788820Y-104800000D01*
X140789510Y-104780950D01*
X140782188Y-104602892D01*
X140760221Y-104453528D01*
X140723609Y-104332858D01*
X140672353Y-104240883D01*
X140577632Y-104154628D01*
X140449679Y-104102876D01*
X140288495Y-104085625D01*
X140138476Y-104095150D01*
X139989410Y-104123725D01*
X139989410Y-105476275D01*
X139776050Y-105476275D01*
X139776050Y-105329590D01*
X139332185Y-105329590D01*
X139332185Y-104104675D01*
X139118825Y-104104675D01*
X139118825Y-105495325D01*
X138960075Y-105495325D01*
X138960075Y-103926875D01*
G37*
G36*
X141417684Y-104280649D02*
G01*
X141484835Y-104368518D01*
X141513410Y-104468530D01*
X141530555Y-104612358D01*
X141536270Y-104800000D01*
X141530555Y-104987643D01*
X141513410Y-105131470D01*
X141484835Y-105231483D01*
X141417684Y-105319351D01*
X141319100Y-105348640D01*
X141220516Y-105319351D01*
X141153365Y-105231483D01*
X141124790Y-105131470D01*
X141107645Y-104987643D01*
X141101930Y-104800000D01*
X141107645Y-104612358D01*
X141124790Y-104468530D01*
X141153365Y-104368518D01*
X141220516Y-104280649D01*
X141319100Y-104251360D01*
X141417684Y-104280649D01*
G37*
G36*
X140420416Y-104280887D02*
G01*
X140511380Y-104369470D01*
X140550538Y-104467683D01*
X140574033Y-104604843D01*
X140581865Y-104780950D01*
X140574139Y-104975472D01*
X140550962Y-105124697D01*
X140512332Y-105228625D01*
X140421607Y-105320065D01*
X140288495Y-105350545D01*
X140202770Y-105333400D01*
X140202770Y-104268505D01*
X140288495Y-104251360D01*
X140420416Y-104280887D01*
G37*
%TO.C,kibuzzard-63418A1A*%
G36*
X120827469Y-84608594D02*
G01*
X125772531Y-84608594D01*
X125772531Y-86791406D01*
X120827469Y-86791406D01*
X120827469Y-86569156D01*
X121025906Y-86569156D01*
X121292606Y-86569156D01*
X122121281Y-86569156D01*
X122354644Y-86569156D01*
X122395125Y-85092781D01*
X122402269Y-85092781D01*
X122538000Y-86164344D01*
X122764219Y-86164344D01*
X122911856Y-85092781D01*
X122914237Y-85092781D01*
X122949956Y-86569156D01*
X123204750Y-86569156D01*
X123160697Y-85700000D01*
X123330956Y-85700000D01*
X123337439Y-85908492D01*
X123356885Y-86086292D01*
X123389297Y-86233400D01*
X123461032Y-86401873D01*
X123559556Y-86512006D01*
X123689334Y-86572728D01*
X123854831Y-86592969D01*
X124020328Y-86572728D01*
X124078854Y-86545344D01*
X124573969Y-86545344D01*
X124753158Y-86581062D01*
X124947825Y-86592969D01*
X125145469Y-86572430D01*
X125300250Y-86510816D01*
X125417824Y-86398599D01*
X125503847Y-86226256D01*
X125542873Y-86075179D01*
X125566289Y-85891823D01*
X125574094Y-85676188D01*
X125564941Y-85453615D01*
X125537482Y-85266910D01*
X125491717Y-85116073D01*
X125427647Y-85001103D01*
X125309246Y-84893285D01*
X125149305Y-84828595D01*
X124947825Y-84807031D01*
X124760302Y-84818938D01*
X124573969Y-84854656D01*
X124573969Y-86545344D01*
X124078854Y-86545344D01*
X124150106Y-86512006D01*
X124248630Y-86401873D01*
X124320366Y-86233400D01*
X124352777Y-86086292D01*
X124372224Y-85908492D01*
X124378706Y-85700000D01*
X124372224Y-85491508D01*
X124352777Y-85313708D01*
X124320366Y-85166600D01*
X124248630Y-84998127D01*
X124150106Y-84887994D01*
X124020328Y-84827272D01*
X123854831Y-84807031D01*
X123689334Y-84827272D01*
X123559556Y-84887994D01*
X123461032Y-84998127D01*
X123389297Y-85166600D01*
X123356885Y-85313708D01*
X123337439Y-85491508D01*
X123330956Y-85700000D01*
X123160697Y-85700000D01*
X123116644Y-84830844D01*
X122816606Y-84830844D01*
X122673731Y-85938125D01*
X122668969Y-85938125D01*
X122523712Y-84830844D01*
X122211769Y-84830844D01*
X122121281Y-86569156D01*
X121292606Y-86569156D01*
X121292606Y-85973844D01*
X121430719Y-85985750D01*
X121600449Y-85969875D01*
X121738165Y-85922250D01*
X121843866Y-85842875D01*
X121918610Y-85728840D01*
X121963457Y-85577233D01*
X121978406Y-85388056D01*
X121963854Y-85202186D01*
X121920198Y-85054152D01*
X121847437Y-84943953D01*
X121742927Y-84867885D01*
X121604021Y-84822245D01*
X121430719Y-84807031D01*
X121293665Y-84812323D01*
X121158727Y-84828198D01*
X121025906Y-84854656D01*
X121025906Y-86569156D01*
X120827469Y-86569156D01*
X120827469Y-84608594D01*
G37*
G36*
X123978061Y-85050812D02*
G01*
X124062000Y-85160647D01*
X124097719Y-85285663D01*
X124119150Y-85465447D01*
X124126294Y-85700000D01*
X124119150Y-85934553D01*
X124097719Y-86114337D01*
X124062000Y-86239353D01*
X123978061Y-86349188D01*
X123854831Y-86385800D01*
X123731602Y-86349188D01*
X123647662Y-86239353D01*
X123611944Y-86114337D01*
X123590512Y-85934553D01*
X123583369Y-85700000D01*
X123590512Y-85465447D01*
X123611944Y-85285663D01*
X123647662Y-85160647D01*
X123731602Y-85050812D01*
X123854831Y-85014200D01*
X123978061Y-85050812D01*
G37*
G36*
X125112727Y-85051109D02*
G01*
X125226431Y-85161838D01*
X125275379Y-85284604D01*
X125304748Y-85456054D01*
X125314537Y-85676188D01*
X125304880Y-85919340D01*
X125275908Y-86105871D01*
X125227622Y-86235781D01*
X125114215Y-86350081D01*
X124947825Y-86388181D01*
X124840669Y-86366750D01*
X124840669Y-85035631D01*
X124947825Y-85014200D01*
X125112727Y-85051109D01*
G37*
G36*
X121559009Y-85036227D02*
G01*
X121648603Y-85102306D01*
X121701288Y-85217797D01*
X121718850Y-85388056D01*
X121701288Y-85571115D01*
X121648603Y-85691666D01*
X121559009Y-85758638D01*
X121430719Y-85780963D01*
X121292606Y-85764294D01*
X121292606Y-85033250D01*
X121430719Y-85014200D01*
X121559009Y-85036227D01*
G37*
%TO.C,kibuzzard-63418A0A*%
G36*
X137276205Y-85726875D02*
G01*
X142123795Y-85726875D01*
X142123795Y-87473125D01*
X137276205Y-87473125D01*
X137276205Y-87276275D01*
X137434955Y-87276275D01*
X137578306Y-87304850D01*
X137734040Y-87314375D01*
X137892155Y-87297944D01*
X138015980Y-87248653D01*
X138110039Y-87158879D01*
X138178857Y-87021005D01*
X138210078Y-86900143D01*
X138228811Y-86753458D01*
X138235055Y-86580950D01*
X138374120Y-86580950D01*
X138381651Y-86752846D01*
X138404243Y-86901823D01*
X138441896Y-87027881D01*
X138494611Y-87131019D01*
X138562388Y-87211237D01*
X138645225Y-87268536D01*
X138743124Y-87302915D01*
X138856085Y-87314375D01*
X138983244Y-87302469D01*
X139067413Y-87276275D01*
X140292455Y-87276275D01*
X140435806Y-87304850D01*
X140591540Y-87314375D01*
X140749655Y-87297944D01*
X140873480Y-87248653D01*
X140967539Y-87158879D01*
X141036358Y-87021005D01*
X141067578Y-86900143D01*
X141086311Y-86753458D01*
X141092555Y-86580950D01*
X141231620Y-86580950D01*
X141239151Y-86752846D01*
X141261743Y-86901823D01*
X141299396Y-87027881D01*
X141352111Y-87131019D01*
X141419888Y-87211237D01*
X141502725Y-87268536D01*
X141600624Y-87302915D01*
X141713585Y-87314375D01*
X141840744Y-87302469D01*
X141955520Y-87266750D01*
X141955520Y-87091490D01*
X141846935Y-87135781D01*
X141745970Y-87150545D01*
X141652837Y-87134723D01*
X141576637Y-87087257D01*
X141517370Y-87008146D01*
X141475037Y-86897392D01*
X141449637Y-86754993D01*
X141441170Y-86580950D01*
X141448843Y-86419713D01*
X141471862Y-86287792D01*
X141510226Y-86185186D01*
X141563937Y-86111897D01*
X141632993Y-86067923D01*
X141717395Y-86053265D01*
X141761210Y-86060885D01*
X141761210Y-86358065D01*
X141965045Y-86358065D01*
X141965045Y-85927535D01*
X141843601Y-85896103D01*
X141707870Y-85885625D01*
X141596249Y-85896489D01*
X141499511Y-85929083D01*
X141417655Y-85983405D01*
X141350682Y-86059456D01*
X141298593Y-86157236D01*
X141261386Y-86276745D01*
X141239061Y-86417983D01*
X141231620Y-86580950D01*
X141092555Y-86580950D01*
X141085233Y-86402892D01*
X141063266Y-86253528D01*
X141026654Y-86132858D01*
X140975398Y-86040883D01*
X140880677Y-85954628D01*
X140752724Y-85902876D01*
X140591540Y-85885625D01*
X140441521Y-85895150D01*
X140292455Y-85923725D01*
X140292455Y-87276275D01*
X139067413Y-87276275D01*
X139098020Y-87266750D01*
X139098020Y-87091490D01*
X138989435Y-87135781D01*
X138888470Y-87150545D01*
X138795337Y-87134723D01*
X138719137Y-87087257D01*
X138659870Y-87008146D01*
X138617537Y-86897392D01*
X138602208Y-86811455D01*
X139431395Y-86811455D01*
X140002895Y-86811455D01*
X140002895Y-86653340D01*
X139431395Y-86653340D01*
X139431395Y-86811455D01*
X138602208Y-86811455D01*
X138592137Y-86754993D01*
X138583670Y-86580950D01*
X138591343Y-86419713D01*
X138614362Y-86287792D01*
X138652726Y-86185186D01*
X138706437Y-86111897D01*
X138775493Y-86067923D01*
X138859895Y-86053265D01*
X138903710Y-86060885D01*
X138903710Y-86358065D01*
X139107545Y-86358065D01*
X139107545Y-85927535D01*
X138986101Y-85896103D01*
X138850370Y-85885625D01*
X138738749Y-85896489D01*
X138642011Y-85929083D01*
X138560155Y-85983405D01*
X138493182Y-86059456D01*
X138441093Y-86157236D01*
X138403886Y-86276745D01*
X138381561Y-86417983D01*
X138374120Y-86580950D01*
X138235055Y-86580950D01*
X138227733Y-86402892D01*
X138205766Y-86253528D01*
X138169154Y-86132858D01*
X138117897Y-86040883D01*
X138023177Y-85954628D01*
X137895224Y-85902876D01*
X137734040Y-85885625D01*
X137584021Y-85895150D01*
X137434955Y-85923725D01*
X137434955Y-87276275D01*
X137276205Y-87276275D01*
X137276205Y-85726875D01*
G37*
G36*
X137865961Y-86080887D02*
G01*
X137956925Y-86169470D01*
X137996083Y-86267683D01*
X138019578Y-86404843D01*
X138027410Y-86580950D01*
X138019684Y-86775472D01*
X137996507Y-86924697D01*
X137957877Y-87028625D01*
X137867152Y-87120065D01*
X137734040Y-87150545D01*
X137648315Y-87133400D01*
X137648315Y-86068505D01*
X137734040Y-86051360D01*
X137865961Y-86080887D01*
G37*
G36*
X140723461Y-86080887D02*
G01*
X140814425Y-86169470D01*
X140853583Y-86267683D01*
X140877078Y-86404843D01*
X140884910Y-86580950D01*
X140877184Y-86775472D01*
X140854007Y-86924697D01*
X140815377Y-87028625D01*
X140724652Y-87120065D01*
X140591540Y-87150545D01*
X140505815Y-87133400D01*
X140505815Y-86068505D01*
X140591540Y-86051360D01*
X140723461Y-86080887D01*
G37*
%TO.C,kibuzzard-634189FF*%
G36*
X155790605Y-99726875D02*
G01*
X158809395Y-99726875D01*
X158809395Y-101473125D01*
X155790605Y-101473125D01*
X155790605Y-101295325D01*
X155949355Y-101295325D01*
X156162715Y-101295325D01*
X156235105Y-100929565D01*
X156560860Y-100929565D01*
X156633250Y-101295325D01*
X156854230Y-101295325D01*
X156849715Y-101276275D01*
X156978055Y-101276275D01*
X157121406Y-101304850D01*
X157277140Y-101314375D01*
X157435255Y-101297944D01*
X157559080Y-101248653D01*
X157653139Y-101158879D01*
X157721957Y-101021005D01*
X157753178Y-100900143D01*
X157771911Y-100753458D01*
X157778155Y-100580950D01*
X157917220Y-100580950D01*
X157924751Y-100752846D01*
X157947343Y-100901823D01*
X157984996Y-101027881D01*
X158037711Y-101131019D01*
X158105488Y-101211237D01*
X158188325Y-101268536D01*
X158286224Y-101302915D01*
X158399185Y-101314375D01*
X158526344Y-101302469D01*
X158641120Y-101266750D01*
X158641120Y-101091490D01*
X158532535Y-101135781D01*
X158431570Y-101150545D01*
X158338437Y-101134723D01*
X158262237Y-101087257D01*
X158202970Y-101008146D01*
X158160637Y-100897392D01*
X158135237Y-100754993D01*
X158126770Y-100580950D01*
X158134443Y-100419713D01*
X158157462Y-100287792D01*
X158195826Y-100185186D01*
X158249537Y-100111897D01*
X158318593Y-100067923D01*
X158402995Y-100053265D01*
X158446810Y-100060885D01*
X158446810Y-100358065D01*
X158650645Y-100358065D01*
X158650645Y-99927535D01*
X158529201Y-99896103D01*
X158393470Y-99885625D01*
X158281849Y-99896489D01*
X158185111Y-99929083D01*
X158103255Y-99983405D01*
X158036282Y-100059456D01*
X157984193Y-100157236D01*
X157946986Y-100276745D01*
X157924661Y-100417983D01*
X157917220Y-100580950D01*
X157778155Y-100580950D01*
X157770833Y-100402892D01*
X157748866Y-100253528D01*
X157712254Y-100132858D01*
X157660997Y-100040883D01*
X157566277Y-99954628D01*
X157438324Y-99902876D01*
X157277140Y-99885625D01*
X157127121Y-99895150D01*
X156978055Y-99923725D01*
X156978055Y-101276275D01*
X156849715Y-101276275D01*
X156524665Y-99904675D01*
X156277015Y-99904675D01*
X155949355Y-101295325D01*
X155790605Y-101295325D01*
X155790605Y-99726875D01*
G37*
G36*
X157409061Y-100080887D02*
G01*
X157500025Y-100169470D01*
X157539183Y-100267683D01*
X157562678Y-100404843D01*
X157570510Y-100580950D01*
X157562784Y-100775472D01*
X157539607Y-100924697D01*
X157500977Y-101028625D01*
X157410252Y-101120065D01*
X157277140Y-101150545D01*
X157191415Y-101133400D01*
X157191415Y-100068505D01*
X157277140Y-100051360D01*
X157409061Y-100080887D01*
G37*
G36*
X156528475Y-100767640D02*
G01*
X156267490Y-100767640D01*
X156397030Y-100114225D01*
X156398935Y-100114225D01*
X156528475Y-100767640D01*
G37*
%TO.C,kibuzzard-634189F6*%
G36*
X183673125Y-92628705D02*
G01*
X183673125Y-95571295D01*
X181926875Y-95571295D01*
X181926875Y-95161085D01*
X182085625Y-95161085D01*
X182097531Y-95288244D01*
X182133250Y-95403020D01*
X182308510Y-95403020D01*
X182264219Y-95294435D01*
X182249455Y-95193470D01*
X182265277Y-95100337D01*
X182312743Y-95024137D01*
X182391854Y-94964870D01*
X182502608Y-94922537D01*
X182645007Y-94897137D01*
X182819050Y-94888670D01*
X182980287Y-94896343D01*
X183112208Y-94919362D01*
X183214814Y-94957726D01*
X183288103Y-95011437D01*
X183332077Y-95080493D01*
X183346735Y-95164895D01*
X183339115Y-95208710D01*
X183041935Y-95208710D01*
X183041935Y-95412545D01*
X183472465Y-95412545D01*
X183503897Y-95291101D01*
X183514375Y-95155370D01*
X183503511Y-95043749D01*
X183470917Y-94947011D01*
X183416595Y-94865155D01*
X183340544Y-94798182D01*
X183242764Y-94746093D01*
X183123255Y-94708886D01*
X182982017Y-94686561D01*
X182819050Y-94679120D01*
X182647154Y-94686651D01*
X182498177Y-94709243D01*
X182372119Y-94746896D01*
X182268981Y-94799611D01*
X182188763Y-94867388D01*
X182131464Y-94950225D01*
X182097085Y-95048124D01*
X182085625Y-95161085D01*
X181926875Y-95161085D01*
X181926875Y-93877115D01*
X182104675Y-93877115D01*
X182470435Y-93949505D01*
X182470435Y-94275260D01*
X182104675Y-94347650D01*
X182104675Y-94568630D01*
X183495325Y-94239065D01*
X183495325Y-93991415D01*
X182104675Y-93663755D01*
X182104675Y-93877115D01*
X181926875Y-93877115D01*
X181926875Y-93086540D01*
X182085625Y-93086540D01*
X182102056Y-93244655D01*
X182151347Y-93368480D01*
X182241121Y-93462539D01*
X182378995Y-93531357D01*
X182499857Y-93562578D01*
X182646542Y-93581311D01*
X182819050Y-93587555D01*
X182997108Y-93580233D01*
X183146472Y-93558266D01*
X183267142Y-93521654D01*
X183359117Y-93470397D01*
X183445372Y-93375677D01*
X183497124Y-93247724D01*
X183514375Y-93086540D01*
X183504850Y-92936521D01*
X183476275Y-92787455D01*
X182123725Y-92787455D01*
X182095150Y-92930806D01*
X182085625Y-93086540D01*
X181926875Y-93086540D01*
X181926875Y-92628705D01*
X183673125Y-92628705D01*
G37*
G36*
X183348640Y-93086540D02*
G01*
X183319113Y-93218461D01*
X183230530Y-93309425D01*
X183132317Y-93348583D01*
X182995157Y-93372078D01*
X182819050Y-93379910D01*
X182624528Y-93372184D01*
X182475303Y-93349007D01*
X182371375Y-93310377D01*
X182279935Y-93219652D01*
X182249455Y-93086540D01*
X182266600Y-93000815D01*
X183331495Y-93000815D01*
X183348640Y-93086540D01*
G37*
G36*
X183285775Y-94111430D02*
G01*
X183285775Y-94113335D01*
X182632360Y-94242875D01*
X182632360Y-93981890D01*
X183285775Y-94111430D01*
G37*
%TO.C,kibuzzard-634189ED*%
G36*
X187319118Y-88436400D02*
G01*
X191280882Y-88436400D01*
X191280882Y-90163600D01*
X187319118Y-90163600D01*
X187319118Y-88595150D01*
X187477867Y-88595150D01*
X187786478Y-89985800D01*
X188034128Y-89985800D01*
X188144722Y-89490500D01*
X188464658Y-89490500D01*
X188475664Y-89654330D01*
X188508684Y-89785140D01*
X188563718Y-89882930D01*
X188641188Y-89950663D01*
X188741518Y-89991303D01*
X188864708Y-90004850D01*
X188987898Y-89991303D01*
X189088228Y-89950663D01*
X189165698Y-89882930D01*
X189220731Y-89785140D01*
X189249423Y-89671475D01*
X189464783Y-89671475D01*
X189484309Y-89833400D01*
X189542888Y-89934365D01*
X189610198Y-89973523D01*
X189707988Y-89997018D01*
X189836258Y-90004850D01*
X189958813Y-89995960D01*
X190069937Y-89969290D01*
X190169632Y-89924840D01*
X190169632Y-89187605D01*
X190398233Y-89187605D01*
X190594448Y-89187605D01*
X190594448Y-89700050D01*
X190611354Y-89847687D01*
X190662075Y-89940080D01*
X190756134Y-89988658D01*
X190903058Y-90004850D01*
X191008309Y-89999135D01*
X191103083Y-89981990D01*
X191103083Y-89808635D01*
X191021644Y-89830066D01*
X190941157Y-89837210D01*
X190826858Y-89805778D01*
X190802093Y-89661950D01*
X190802093Y-89187605D01*
X191122133Y-89187605D01*
X191122133Y-89033300D01*
X190802093Y-89033300D01*
X190802093Y-88671350D01*
X190594448Y-88671350D01*
X190594448Y-89033300D01*
X190398233Y-89033300D01*
X190398233Y-89187605D01*
X190169632Y-89187605D01*
X190169632Y-88995200D01*
X189960083Y-88995200D01*
X189961988Y-89810540D01*
X189832448Y-89848640D01*
X189703860Y-89811492D01*
X189668618Y-89671475D01*
X189668618Y-88995200D01*
X189464783Y-88995200D01*
X189464783Y-89671475D01*
X189249423Y-89671475D01*
X189253751Y-89654330D01*
X189264758Y-89490500D01*
X189253751Y-89326670D01*
X189220731Y-89195860D01*
X189165698Y-89098070D01*
X189088228Y-89030337D01*
X188987898Y-88989697D01*
X188864708Y-88976150D01*
X188741518Y-88989697D01*
X188641188Y-89030337D01*
X188563718Y-89098070D01*
X188508684Y-89195860D01*
X188475664Y-89326670D01*
X188464658Y-89490500D01*
X188144722Y-89490500D01*
X188344643Y-88595150D01*
X188133188Y-88595150D01*
X187916017Y-89795300D01*
X187914113Y-89795300D01*
X187696943Y-88595150D01*
X187477867Y-88595150D01*
X187319118Y-88595150D01*
X187319118Y-88436400D01*
G37*
G36*
X188951147Y-89151172D02*
G01*
X189008535Y-89207608D01*
X189040682Y-89315954D01*
X189051398Y-89490500D01*
X189040682Y-89665046D01*
X189008535Y-89773392D01*
X188951147Y-89829828D01*
X188864708Y-89848640D01*
X188778268Y-89829828D01*
X188720880Y-89773392D01*
X188688733Y-89665046D01*
X188678018Y-89490500D01*
X188688733Y-89315954D01*
X188720880Y-89207608D01*
X188778268Y-89151172D01*
X188864708Y-89132360D01*
X188951147Y-89151172D01*
G37*
%TO.C,kibuzzard-634189C4*%
G36*
X170163600Y-89536325D02*
G01*
X170163600Y-92463675D01*
X168436400Y-92463675D01*
X168436400Y-91870585D01*
X168595150Y-91870585D01*
X169261900Y-91870585D01*
X169261900Y-92285875D01*
X169423825Y-92285875D01*
X169423825Y-91870585D01*
X169820065Y-91870585D01*
X169820065Y-92304925D01*
X169985800Y-92304925D01*
X169985800Y-91657225D01*
X168595150Y-91657225D01*
X168595150Y-91870585D01*
X168436400Y-91870585D01*
X168436400Y-91352425D01*
X168595150Y-91352425D01*
X168760885Y-91352425D01*
X168760885Y-90899035D01*
X169261900Y-90899035D01*
X169261900Y-91333375D01*
X169423825Y-91333375D01*
X169423825Y-90899035D01*
X169820065Y-90899035D01*
X169820065Y-91352425D01*
X169985800Y-91352425D01*
X169985800Y-90685675D01*
X168595150Y-90685675D01*
X168595150Y-91352425D01*
X168436400Y-91352425D01*
X168436400Y-90495175D01*
X168595150Y-90495175D01*
X168983770Y-90377065D01*
X169133313Y-90316105D01*
X169227610Y-90243715D01*
X169231420Y-90243715D01*
X169285951Y-90337060D01*
X169363818Y-90403735D01*
X169465021Y-90443740D01*
X169589560Y-90457075D01*
X169720264Y-90445328D01*
X169825357Y-90410085D01*
X169904837Y-90351348D01*
X169960400Y-90267422D01*
X169993738Y-90156614D01*
X170004850Y-90018925D01*
X170000617Y-89909282D01*
X169987917Y-89801332D01*
X169966750Y-89695075D01*
X168595150Y-89695075D01*
X168595150Y-89908435D01*
X169172365Y-89908435D01*
X169172365Y-89982730D01*
X169135218Y-90097983D01*
X169081639Y-90134416D01*
X168995200Y-90165610D01*
X168595150Y-90276100D01*
X168595150Y-90495175D01*
X168436400Y-90495175D01*
X168436400Y-89536325D01*
X170163600Y-89536325D01*
G37*
G36*
X169839115Y-90018925D02*
G01*
X169824113Y-90120366D01*
X169779107Y-90192280D01*
X169701717Y-90235143D01*
X169589560Y-90249430D01*
X169472403Y-90234190D01*
X169395250Y-90188470D01*
X169352387Y-90106555D01*
X169338100Y-89982730D01*
X169338100Y-89908435D01*
X169823875Y-89908435D01*
X169839115Y-90018925D01*
G37*
D10*
%TO.C,J101*%
X185894800Y-95700000D02*
X185894800Y-93700000D01*
X190400000Y-98205200D02*
X188400000Y-98205200D01*
X188400000Y-91194800D02*
X190400000Y-91194800D01*
X192905200Y-93700000D02*
X192905200Y-95700000D01*
%TO.C,C205*%
X154081141Y-86316443D02*
X154081141Y-86035283D01*
X153061141Y-86316443D02*
X153061141Y-86035283D01*
%TO.C,G\u002A\u002A\u002A*%
G36*
X160685546Y-88511049D02*
G01*
X160694239Y-88548245D01*
X160705802Y-88598107D01*
X160719434Y-88657152D01*
X160734330Y-88721895D01*
X160749689Y-88788852D01*
X160762743Y-88845935D01*
X160776273Y-88904782D01*
X160788663Y-88957882D01*
X160799432Y-89003233D01*
X160808097Y-89038831D01*
X160814176Y-89062672D01*
X160817187Y-89072754D01*
X160817377Y-89072945D01*
X160820325Y-89064779D01*
X160827601Y-89042717D01*
X160838592Y-89008674D01*
X160852684Y-88964562D01*
X160869266Y-88912297D01*
X160887725Y-88853790D01*
X160897419Y-88822946D01*
X160975176Y-88575232D01*
X161041963Y-88572832D01*
X161108751Y-88570432D01*
X161125651Y-88626663D01*
X161132839Y-88650798D01*
X161143767Y-88687766D01*
X161157532Y-88734501D01*
X161173230Y-88787937D01*
X161189961Y-88845007D01*
X161199396Y-88877243D01*
X161218010Y-88939622D01*
X161233688Y-88989540D01*
X161246145Y-89026177D01*
X161255097Y-89048713D01*
X161260260Y-89056329D01*
X161261125Y-89055299D01*
X161264124Y-89043810D01*
X161270567Y-89018084D01*
X161279995Y-88979981D01*
X161291953Y-88931361D01*
X161305982Y-88874086D01*
X161321625Y-88810014D01*
X161338425Y-88741007D01*
X161341322Y-88729089D01*
X161358201Y-88659896D01*
X161373979Y-88595729D01*
X161388205Y-88538378D01*
X161400431Y-88489632D01*
X161410208Y-88451278D01*
X161417086Y-88425107D01*
X161420616Y-88412907D01*
X161420872Y-88412314D01*
X161430589Y-88409098D01*
X161452587Y-88406691D01*
X161482588Y-88405511D01*
X161490875Y-88405457D01*
X161523958Y-88405890D01*
X161543708Y-88407668D01*
X161553342Y-88411505D01*
X161556079Y-88418116D01*
X161556078Y-88419950D01*
X161553834Y-88430543D01*
X161547598Y-88455550D01*
X161537786Y-88493415D01*
X161524809Y-88542585D01*
X161509083Y-88601505D01*
X161491019Y-88668622D01*
X161471031Y-88742381D01*
X161449534Y-88821228D01*
X161442061Y-88848528D01*
X161328606Y-89262614D01*
X161184852Y-89267386D01*
X161168433Y-89211169D01*
X161161354Y-89186850D01*
X161150584Y-89149741D01*
X161137028Y-89102964D01*
X161121589Y-89049642D01*
X161105174Y-88992898D01*
X161096977Y-88964546D01*
X161081519Y-88911258D01*
X161067576Y-88863561D01*
X161055803Y-88823662D01*
X161046854Y-88793772D01*
X161041384Y-88776097D01*
X161039987Y-88772186D01*
X161037210Y-88779307D01*
X161030269Y-88800408D01*
X161019752Y-88833603D01*
X161006249Y-88877004D01*
X160990349Y-88928727D01*
X160972641Y-88986884D01*
X160963705Y-89016422D01*
X160889378Y-89262614D01*
X160817887Y-89264997D01*
X160785221Y-89265366D01*
X160759404Y-89264305D01*
X160744481Y-89262037D01*
X160742476Y-89260856D01*
X160739836Y-89252045D01*
X160733545Y-89229012D01*
X160724073Y-89193574D01*
X160711895Y-89147552D01*
X160697483Y-89092764D01*
X160681308Y-89031028D01*
X160663844Y-88964165D01*
X160645563Y-88893992D01*
X160626937Y-88822329D01*
X160608438Y-88750994D01*
X160590540Y-88681807D01*
X160573714Y-88616587D01*
X160558433Y-88557151D01*
X160545170Y-88505321D01*
X160534396Y-88462913D01*
X160526584Y-88431747D01*
X160522208Y-88413643D01*
X160521426Y-88409779D01*
X160529070Y-88407816D01*
X160549452Y-88406319D01*
X160578751Y-88405525D01*
X160591063Y-88405457D01*
X160660701Y-88405457D01*
X160685546Y-88511049D01*
G37*
G36*
X170012264Y-88521401D02*
G01*
X169623024Y-88521401D01*
X169623024Y-88786416D01*
X169904602Y-88786416D01*
X169904602Y-88894078D01*
X169623024Y-88894078D01*
X169623024Y-89159092D01*
X170012264Y-89159092D01*
X170012264Y-89266755D01*
X169490517Y-89266755D01*
X169490517Y-88405457D01*
X170012264Y-88405457D01*
X170012264Y-88521401D01*
G37*
G36*
X169051586Y-89159092D02*
G01*
X169382854Y-89159092D01*
X169382854Y-89266755D01*
X168919079Y-89266755D01*
X168919079Y-88405457D01*
X169051586Y-88405457D01*
X169051586Y-89159092D01*
G37*
G36*
X159096972Y-82889839D02*
G01*
X159096972Y-87138356D01*
X154881583Y-87138356D01*
X154881583Y-85075603D01*
X155742880Y-85075603D01*
X155742911Y-85232755D01*
X155743000Y-85385407D01*
X155743145Y-85532739D01*
X155743342Y-85673932D01*
X155743590Y-85808167D01*
X155743883Y-85934623D01*
X155744221Y-86052482D01*
X155744598Y-86160924D01*
X155745013Y-86259130D01*
X155745462Y-86346279D01*
X155745943Y-86421554D01*
X155746452Y-86484133D01*
X155746985Y-86533199D01*
X155747541Y-86567930D01*
X155748116Y-86587509D01*
X155748541Y-86591763D01*
X155756155Y-86587635D01*
X155777339Y-86575527D01*
X155811385Y-86555853D01*
X155857586Y-86529028D01*
X155915231Y-86495466D01*
X155983614Y-86455581D01*
X156062025Y-86409787D01*
X156149757Y-86358498D01*
X156246101Y-86302130D01*
X156350348Y-86241095D01*
X156461791Y-86175809D01*
X156579720Y-86106685D01*
X156703429Y-86034138D01*
X156832207Y-85958582D01*
X156965347Y-85880431D01*
X157069122Y-85819493D01*
X157205054Y-85739637D01*
X157337110Y-85662015D01*
X157464584Y-85587043D01*
X157586772Y-85515139D01*
X157702968Y-85446718D01*
X157812468Y-85382197D01*
X157914565Y-85321992D01*
X158008555Y-85266519D01*
X158093733Y-85216195D01*
X158169393Y-85171436D01*
X158234831Y-85132658D01*
X158289341Y-85100278D01*
X158332218Y-85074711D01*
X158362758Y-85056376D01*
X158380254Y-85045686D01*
X158384394Y-85042931D01*
X158377354Y-85038510D01*
X158356741Y-85026478D01*
X158323431Y-85007326D01*
X158278295Y-84981547D01*
X158222209Y-84949632D01*
X158156047Y-84912074D01*
X158080682Y-84869364D01*
X157996987Y-84821994D01*
X157905838Y-84770457D01*
X157808107Y-84715243D01*
X157704668Y-84656845D01*
X157596396Y-84595755D01*
X157484164Y-84532465D01*
X157368847Y-84467466D01*
X157251317Y-84401250D01*
X157132449Y-84334310D01*
X157013117Y-84267138D01*
X156894194Y-84200224D01*
X156776554Y-84134062D01*
X156661072Y-84069142D01*
X156548621Y-84005957D01*
X156440074Y-83945000D01*
X156336307Y-83886760D01*
X156238192Y-83831732D01*
X156146603Y-83780405D01*
X156062415Y-83733274D01*
X155986501Y-83690828D01*
X155919734Y-83653561D01*
X155862990Y-83621963D01*
X155817141Y-83596528D01*
X155783062Y-83577746D01*
X155761627Y-83566110D01*
X155753759Y-83562121D01*
X155752392Y-83564157D01*
X155751140Y-83571392D01*
X155749996Y-83584464D01*
X155748958Y-83604008D01*
X155748021Y-83630662D01*
X155747179Y-83665062D01*
X155746429Y-83707846D01*
X155745765Y-83759651D01*
X155745184Y-83821113D01*
X155744680Y-83892869D01*
X155744249Y-83975557D01*
X155743886Y-84069812D01*
X155743588Y-84176273D01*
X155743349Y-84295576D01*
X155743164Y-84428357D01*
X155743029Y-84575254D01*
X155742940Y-84736904D01*
X155742892Y-84913944D01*
X155742880Y-85075603D01*
X154881583Y-85075603D01*
X154881583Y-82889839D01*
X159096972Y-82889839D01*
G37*
G36*
X167505752Y-88407415D02*
G01*
X167537542Y-88411139D01*
X167564591Y-88417399D01*
X167617599Y-88440942D01*
X167660668Y-88477138D01*
X167692545Y-88524540D01*
X167711979Y-88581701D01*
X167713518Y-88589725D01*
X167718981Y-88620781D01*
X167589354Y-88620781D01*
X167577187Y-88585584D01*
X167562238Y-88556795D01*
X167539073Y-88536595D01*
X167505569Y-88524006D01*
X167459602Y-88518056D01*
X167428371Y-88517260D01*
X167367899Y-88522047D01*
X167320396Y-88536275D01*
X167286153Y-88559749D01*
X167265457Y-88592271D01*
X167258596Y-88633144D01*
X167262106Y-88660888D01*
X167273650Y-88683569D01*
X167294754Y-88701985D01*
X167326940Y-88716935D01*
X167371732Y-88729214D01*
X167430655Y-88739623D01*
X167472647Y-88745206D01*
X167545968Y-88757957D01*
X167605214Y-88777095D01*
X167651915Y-88803457D01*
X167687604Y-88837882D01*
X167711260Y-88875808D01*
X167720780Y-88898397D01*
X167726579Y-88921777D01*
X167729495Y-88951109D01*
X167730362Y-88991558D01*
X167730366Y-88993815D01*
X167729939Y-89032469D01*
X167727749Y-89060344D01*
X167722622Y-89083212D01*
X167713384Y-89106847D01*
X167702902Y-89128854D01*
X167669630Y-89180935D01*
X167626543Y-89220509D01*
X167571805Y-89249155D01*
X167556913Y-89254520D01*
X167517820Y-89263695D01*
X167469042Y-89269549D01*
X167416838Y-89271829D01*
X167367468Y-89270285D01*
X167327191Y-89264666D01*
X167323885Y-89263865D01*
X167279615Y-89248405D01*
X167236450Y-89226147D01*
X167200861Y-89200636D01*
X167190751Y-89190912D01*
X167171864Y-89164490D01*
X167153047Y-89127976D01*
X167137035Y-89087629D01*
X167126560Y-89049705D01*
X167124996Y-89040406D01*
X167119697Y-89001740D01*
X167252338Y-89001740D01*
X167257409Y-89033451D01*
X167272446Y-89079154D01*
X167300358Y-89115991D01*
X167339141Y-89142375D01*
X167386793Y-89156723D01*
X167415949Y-89158910D01*
X167465669Y-89156209D01*
X167503748Y-89146934D01*
X167534294Y-89129636D01*
X167555454Y-89109732D01*
X167580353Y-89073543D01*
X167592243Y-89032722D01*
X167592210Y-88983407D01*
X167591863Y-88980182D01*
X167587391Y-88954708D01*
X167579062Y-88934299D01*
X167564908Y-88917876D01*
X167542965Y-88904362D01*
X167511266Y-88892678D01*
X167467846Y-88881746D01*
X167410740Y-88870486D01*
X167382851Y-88865514D01*
X167317965Y-88852998D01*
X167267102Y-88840104D01*
X167227743Y-88825655D01*
X167197367Y-88808473D01*
X167173455Y-88787383D01*
X167153486Y-88761205D01*
X167150934Y-88757183D01*
X167138234Y-88735087D01*
X167130831Y-88715609D01*
X167127388Y-88692878D01*
X167126568Y-88661024D01*
X167126621Y-88650399D01*
X167133307Y-88584977D01*
X167152603Y-88530020D01*
X167185063Y-88484635D01*
X167231241Y-88447931D01*
X167262687Y-88431122D01*
X167284357Y-88421903D01*
X167305479Y-88415555D01*
X167330212Y-88411407D01*
X167362716Y-88408786D01*
X167407154Y-88407023D01*
X167413107Y-88406848D01*
X167465629Y-88406078D01*
X167505752Y-88407415D01*
G37*
G36*
X169302313Y-85180262D02*
G01*
X169349272Y-85180989D01*
X169386210Y-85182543D01*
X169416400Y-85185173D01*
X169443110Y-85189129D01*
X169469611Y-85194660D01*
X169486376Y-85198738D01*
X169575134Y-85226611D01*
X169652180Y-85263247D01*
X169720841Y-85310471D01*
X169768218Y-85353314D01*
X169825422Y-85419308D01*
X169869224Y-85490277D01*
X169900874Y-85568870D01*
X169921624Y-85657738D01*
X169925958Y-85687154D01*
X169931626Y-85730801D01*
X169755588Y-85728563D01*
X169579551Y-85726324D01*
X169560986Y-85671185D01*
X169534505Y-85609820D01*
X169499759Y-85561072D01*
X169454867Y-85523255D01*
X169397949Y-85494682D01*
X169345917Y-85478220D01*
X169284833Y-85468129D01*
X169215069Y-85465939D01*
X169142244Y-85471183D01*
X169071975Y-85483398D01*
X169009879Y-85502118D01*
X168997989Y-85507013D01*
X168941944Y-85537842D01*
X168900934Y-85575155D01*
X168874501Y-85619581D01*
X168862184Y-85671751D01*
X168861107Y-85694866D01*
X168863884Y-85733932D01*
X168873966Y-85767824D01*
X168884310Y-85789554D01*
X168908525Y-85825602D01*
X168941813Y-85857174D01*
X168985434Y-85884833D01*
X169040648Y-85909143D01*
X169108714Y-85930666D01*
X169190894Y-85949967D01*
X169279333Y-85966128D01*
X169382124Y-85984084D01*
X169470748Y-86002083D01*
X169547591Y-86020791D01*
X169615037Y-86040871D01*
X169675471Y-86062987D01*
X169731278Y-86087804D01*
X169750115Y-86097228D01*
X169826194Y-86144355D01*
X169888362Y-86200371D01*
X169936823Y-86265501D01*
X169971736Y-86339839D01*
X169982325Y-86380955D01*
X169989817Y-86433383D01*
X169994023Y-86492131D01*
X169994758Y-86552205D01*
X169991835Y-86608613D01*
X169985068Y-86656361D01*
X169983783Y-86662157D01*
X169954846Y-86750042D01*
X169911316Y-86831441D01*
X169854204Y-86905412D01*
X169784525Y-86971016D01*
X169703293Y-87027312D01*
X169611520Y-87073358D01*
X169510219Y-87108214D01*
X169500520Y-87110809D01*
X169467424Y-87118869D01*
X169436476Y-87124778D01*
X169403758Y-87128947D01*
X169365349Y-87131785D01*
X169317333Y-87133702D01*
X169271051Y-87134816D01*
X169190788Y-87135391D01*
X169125045Y-87133526D01*
X169071948Y-87129148D01*
X169050260Y-87126108D01*
X168937718Y-87101018D01*
X168835542Y-87064470D01*
X168744333Y-87017024D01*
X168664691Y-86959237D01*
X168597216Y-86891669D01*
X168542508Y-86814878D01*
X168501168Y-86729423D01*
X168473795Y-86635862D01*
X168464943Y-86581411D01*
X168458264Y-86525509D01*
X168819698Y-86525509D01*
X168819698Y-86545341D01*
X168822104Y-86563342D01*
X168828384Y-86590835D01*
X168836431Y-86619347D01*
X168861784Y-86679043D01*
X168898633Y-86729436D01*
X168948111Y-86771570D01*
X169011353Y-86806494D01*
X169059868Y-86825646D01*
X169086769Y-86834011D01*
X169113063Y-86839483D01*
X169143386Y-86842605D01*
X169182375Y-86843919D01*
X169217220Y-86844054D01*
X169312509Y-86838658D01*
X169395428Y-86822896D01*
X169466719Y-86796526D01*
X169527123Y-86759304D01*
X169558037Y-86732074D01*
X169591112Y-86689377D01*
X169613526Y-86640149D01*
X169622890Y-86589855D01*
X169623024Y-86583481D01*
X169618008Y-86546456D01*
X169604879Y-86505101D01*
X169586512Y-86467123D01*
X169571842Y-86446400D01*
X169546882Y-86421648D01*
X169517442Y-86400147D01*
X169481505Y-86381104D01*
X169437056Y-86363728D01*
X169382080Y-86347225D01*
X169314560Y-86330805D01*
X169235903Y-86314349D01*
X169098365Y-86284471D01*
X168977033Y-86252475D01*
X168871677Y-86218290D01*
X168782066Y-86181850D01*
X168763226Y-86172931D01*
X168679346Y-86125195D01*
X168610623Y-86071113D01*
X168556784Y-86010358D01*
X168517553Y-85942601D01*
X168492656Y-85867515D01*
X168488009Y-85843917D01*
X168481376Y-85755433D01*
X168491246Y-85666356D01*
X168517633Y-85576588D01*
X168539610Y-85526027D01*
X168586332Y-85448389D01*
X168646911Y-85378835D01*
X168720379Y-85318060D01*
X168805768Y-85266758D01*
X168902111Y-85225624D01*
X168996329Y-85198119D01*
X169025733Y-85191746D01*
X169054153Y-85187050D01*
X169084926Y-85183786D01*
X169121388Y-85181709D01*
X169166875Y-85180576D01*
X169224723Y-85180142D01*
X169242065Y-85180113D01*
X169302313Y-85180262D01*
G37*
G36*
X166213321Y-85180202D02*
G01*
X166260350Y-85180964D01*
X166297331Y-85182550D01*
X166327520Y-85185207D01*
X166354173Y-85189184D01*
X166380547Y-85194729D01*
X166396280Y-85198580D01*
X166472449Y-85222581D01*
X166550618Y-85255568D01*
X166623351Y-85294213D01*
X166655016Y-85314385D01*
X166713826Y-85361251D01*
X166772583Y-85420475D01*
X166828008Y-85488170D01*
X166876824Y-85560448D01*
X166904795Y-85610674D01*
X166912323Y-85627623D01*
X166923155Y-85654578D01*
X166935926Y-85687828D01*
X166949272Y-85723663D01*
X166961826Y-85758373D01*
X166972224Y-85788247D01*
X166979102Y-85809576D01*
X166981159Y-85818225D01*
X166973265Y-85819179D01*
X166951131Y-85820027D01*
X166917081Y-85820728D01*
X166873439Y-85821239D01*
X166822529Y-85821522D01*
X166792614Y-85821564D01*
X166604070Y-85821564D01*
X166575861Y-85773944D01*
X166531504Y-85706769D01*
X166481058Y-85643533D01*
X166427227Y-85587017D01*
X166372714Y-85540004D01*
X166320223Y-85505273D01*
X166309096Y-85499499D01*
X166241859Y-85475359D01*
X166172048Y-85466558D01*
X166101576Y-85472491D01*
X166032355Y-85492554D01*
X165966298Y-85526141D01*
X165905318Y-85572648D01*
X165851327Y-85631468D01*
X165839034Y-85648185D01*
X165788687Y-85733626D01*
X165749793Y-85828752D01*
X165722398Y-85931240D01*
X165706547Y-86038765D01*
X165702287Y-86149004D01*
X165709662Y-86259632D01*
X165728718Y-86368326D01*
X165759501Y-86472762D01*
X165802057Y-86570615D01*
X165820261Y-86603772D01*
X165847465Y-86643661D01*
X165882547Y-86685360D01*
X165921599Y-86724945D01*
X165960711Y-86758489D01*
X165995974Y-86782068D01*
X165999827Y-86784075D01*
X166081331Y-86816656D01*
X166163163Y-86833140D01*
X166244397Y-86833436D01*
X166324106Y-86817454D01*
X166328183Y-86816179D01*
X166395253Y-86786260D01*
X166456916Y-86741445D01*
X166512234Y-86682787D01*
X166560269Y-86611339D01*
X166600082Y-86528155D01*
X166611156Y-86498594D01*
X166614052Y-86493845D01*
X166620340Y-86490257D01*
X166632090Y-86487668D01*
X166651372Y-86485919D01*
X166680254Y-86484849D01*
X166720806Y-86484300D01*
X166775098Y-86484111D01*
X166798701Y-86484101D01*
X166981159Y-86484101D01*
X166981159Y-86507042D01*
X166977628Y-86536977D01*
X166967977Y-86577196D01*
X166953618Y-86623232D01*
X166935961Y-86670617D01*
X166916418Y-86714884D01*
X166913836Y-86720129D01*
X166858201Y-86814651D01*
X166791723Y-86896878D01*
X166714279Y-86966887D01*
X166625747Y-87024755D01*
X166526002Y-87070558D01*
X166414924Y-87104376D01*
X166292387Y-87126284D01*
X166261843Y-87129720D01*
X166189904Y-87135504D01*
X166128752Y-87136929D01*
X166073192Y-87133990D01*
X166035503Y-87129428D01*
X165927382Y-87105483D01*
X165825916Y-87066504D01*
X165731480Y-87012784D01*
X165644449Y-86944615D01*
X165565199Y-86862289D01*
X165494103Y-86766100D01*
X165432929Y-86659117D01*
X165412031Y-86612474D01*
X165390068Y-86554809D01*
X165368762Y-86491425D01*
X165349838Y-86427629D01*
X165335016Y-86368725D01*
X165329028Y-86339171D01*
X165319737Y-86272770D01*
X165313384Y-86197208D01*
X165310172Y-86118372D01*
X165310307Y-86042147D01*
X165313991Y-85974422D01*
X165315781Y-85956969D01*
X165337274Y-85830700D01*
X165371053Y-85713335D01*
X165416644Y-85605619D01*
X165473573Y-85508298D01*
X165541367Y-85422118D01*
X165619553Y-85347823D01*
X165707656Y-85286159D01*
X165759607Y-85258172D01*
X165812623Y-85233457D01*
X165859862Y-85214446D01*
X165904904Y-85200428D01*
X165951331Y-85190691D01*
X166002724Y-85184524D01*
X166062663Y-85181215D01*
X166134729Y-85180053D01*
X166152988Y-85180015D01*
X166213321Y-85180202D01*
G37*
G36*
X162520580Y-88797145D02*
G01*
X162545918Y-88722490D01*
X162569433Y-88653170D01*
X162590552Y-88590879D01*
X162608701Y-88537306D01*
X162623308Y-88494145D01*
X162633798Y-88463088D01*
X162639599Y-88445825D01*
X162639942Y-88444795D01*
X162652987Y-88405457D01*
X162797565Y-88405457D01*
X162810254Y-88444795D01*
X162815303Y-88460539D01*
X162824829Y-88490324D01*
X162838274Y-88532412D01*
X162855086Y-88585063D01*
X162874707Y-88646538D01*
X162896583Y-88715098D01*
X162920159Y-88789004D01*
X162944152Y-88864235D01*
X162968478Y-88940472D01*
X162991350Y-89012063D01*
X163012260Y-89077428D01*
X163030702Y-89134982D01*
X163046167Y-89183144D01*
X163058148Y-89220331D01*
X163066137Y-89244960D01*
X163069627Y-89255449D01*
X163069663Y-89255546D01*
X163068510Y-89261032D01*
X163058298Y-89264464D01*
X163036550Y-89266239D01*
X163000791Y-89266754D01*
X162999854Y-89266755D01*
X162925743Y-89266755D01*
X162915491Y-89231557D01*
X162908153Y-89206631D01*
X162897984Y-89172423D01*
X162886938Y-89135507D01*
X162884693Y-89128036D01*
X162864147Y-89059712D01*
X162569912Y-89059712D01*
X162538186Y-89163233D01*
X162506461Y-89266755D01*
X162361090Y-89266755D01*
X162469466Y-88947661D01*
X162615070Y-88947661D01*
X162624042Y-88949053D01*
X162645498Y-88950234D01*
X162675704Y-88951167D01*
X162710926Y-88951814D01*
X162747431Y-88952139D01*
X162781485Y-88952105D01*
X162809355Y-88951674D01*
X162827307Y-88950810D01*
X162832023Y-88949814D01*
X162829686Y-88937792D01*
X162823246Y-88913901D01*
X162813558Y-88880806D01*
X162801478Y-88841172D01*
X162787861Y-88797665D01*
X162773564Y-88752950D01*
X162759442Y-88709692D01*
X162746351Y-88670556D01*
X162735146Y-88638208D01*
X162726683Y-88615313D01*
X162721818Y-88604535D01*
X162721069Y-88604218D01*
X162713467Y-88625009D01*
X162702919Y-88656159D01*
X162690281Y-88694897D01*
X162676407Y-88738454D01*
X162662153Y-88784058D01*
X162648373Y-88828940D01*
X162635922Y-88870329D01*
X162625656Y-88905455D01*
X162618429Y-88931548D01*
X162615097Y-88945839D01*
X162615070Y-88947661D01*
X162469466Y-88947661D01*
X162493993Y-88875444D01*
X162520580Y-88797145D01*
G37*
G36*
X168397331Y-85539854D02*
G01*
X167906640Y-85541991D01*
X167415949Y-85544127D01*
X167413726Y-85736676D01*
X167411502Y-85929226D01*
X168281387Y-85929226D01*
X168281387Y-86268776D01*
X167420089Y-86268776D01*
X167420089Y-86765679D01*
X168438740Y-86765679D01*
X168438740Y-87088665D01*
X167055694Y-87088665D01*
X167055694Y-85200436D01*
X168397331Y-85200436D01*
X168397331Y-85539854D01*
G37*
G36*
X164284542Y-88410340D02*
G01*
X164328303Y-88418863D01*
X164364068Y-88432638D01*
X164391228Y-88449616D01*
X164419019Y-88476817D01*
X164443697Y-88512134D01*
X164462165Y-88550045D01*
X164471325Y-88585027D01*
X164471801Y-88593280D01*
X164471801Y-88620781D01*
X164348860Y-88620781D01*
X164339696Y-88593013D01*
X164319931Y-88558012D01*
X164287470Y-88532996D01*
X164243071Y-88518293D01*
X164187494Y-88514229D01*
X164160414Y-88515828D01*
X164103937Y-88526154D01*
X164061373Y-88545251D01*
X164032800Y-88573054D01*
X164018295Y-88609503D01*
X164016338Y-88631962D01*
X164019642Y-88657116D01*
X164031976Y-88678491D01*
X164043507Y-88691046D01*
X164054594Y-88701427D01*
X164066165Y-88709709D01*
X164080666Y-88716577D01*
X164100542Y-88722717D01*
X164128237Y-88728814D01*
X164166197Y-88735554D01*
X164216867Y-88743622D01*
X164248195Y-88748440D01*
X164316598Y-88762003D01*
X164370638Y-88779930D01*
X164412134Y-88803040D01*
X164442904Y-88832152D01*
X164447584Y-88838286D01*
X164468097Y-88872403D01*
X164480863Y-88909364D01*
X164486815Y-88953377D01*
X164486887Y-89008648D01*
X164486644Y-89014162D01*
X164480588Y-89072059D01*
X164467334Y-89118934D01*
X164445113Y-89159415D01*
X164419148Y-89190888D01*
X164376796Y-89224765D01*
X164322846Y-89250483D01*
X164260512Y-89267296D01*
X164193010Y-89274458D01*
X164123552Y-89271222D01*
X164093783Y-89266428D01*
X164043610Y-89250418D01*
X163994700Y-89224169D01*
X163954057Y-89191574D01*
X163948458Y-89185664D01*
X163924534Y-89152291D01*
X163903993Y-89111198D01*
X163889523Y-89068835D01*
X163883808Y-89031651D01*
X163883800Y-89030415D01*
X163883800Y-89001740D01*
X164016307Y-89001740D01*
X164016307Y-89023970D01*
X164022872Y-89056759D01*
X164040127Y-89091442D01*
X164064412Y-89121640D01*
X164079462Y-89134042D01*
X164110289Y-89147839D01*
X164150715Y-89156407D01*
X164194424Y-89159115D01*
X164235101Y-89155329D01*
X164251062Y-89151231D01*
X164293804Y-89129103D01*
X164326450Y-89096049D01*
X164347555Y-89055228D01*
X164355672Y-89009794D01*
X164349358Y-88962906D01*
X164344061Y-88948131D01*
X164331183Y-88927296D01*
X164310402Y-88910185D01*
X164279680Y-88895909D01*
X164236977Y-88883579D01*
X164180254Y-88872307D01*
X164163852Y-88869583D01*
X164101463Y-88858843D01*
X164052805Y-88848641D01*
X164015107Y-88838085D01*
X163985600Y-88826284D01*
X163961512Y-88812349D01*
X163944132Y-88798937D01*
X163912436Y-88764415D01*
X163893091Y-88724312D01*
X163885033Y-88675659D01*
X163885511Y-88635355D01*
X163896000Y-88571535D01*
X163918873Y-88518380D01*
X163954766Y-88474886D01*
X164004312Y-88440044D01*
X164010633Y-88436691D01*
X164033744Y-88425333D01*
X164053796Y-88417624D01*
X164075168Y-88412707D01*
X164102237Y-88409725D01*
X164139381Y-88407822D01*
X164162183Y-88407037D01*
X164230074Y-88406567D01*
X164284542Y-88410340D01*
G37*
G36*
X157989294Y-88407508D02*
G01*
X158061945Y-88409097D01*
X158120256Y-88411145D01*
X158166452Y-88414052D01*
X158202757Y-88418221D01*
X158231394Y-88424052D01*
X158254589Y-88431947D01*
X158274564Y-88442309D01*
X158293543Y-88455538D01*
X158304703Y-88464461D01*
X158329888Y-88488952D01*
X158350114Y-88517821D01*
X158365831Y-88552945D01*
X158377490Y-88596197D01*
X158385538Y-88649454D01*
X158390427Y-88714591D01*
X158392605Y-88793482D01*
X158392821Y-88831965D01*
X158392411Y-88886872D01*
X158391223Y-88939939D01*
X158389397Y-88987489D01*
X158387074Y-89025847D01*
X158384398Y-89051338D01*
X158384383Y-89051430D01*
X158368757Y-89114887D01*
X158344148Y-89166565D01*
X158311243Y-89205142D01*
X158299978Y-89213878D01*
X158279528Y-89227949D01*
X158261669Y-89238997D01*
X158244070Y-89247419D01*
X158224398Y-89253608D01*
X158200319Y-89257961D01*
X158169502Y-89260872D01*
X158129614Y-89262737D01*
X158078321Y-89263951D01*
X158013293Y-89264909D01*
X157997576Y-89265116D01*
X157780181Y-89267974D01*
X157780181Y-89161106D01*
X157912688Y-89161106D01*
X158038984Y-89157505D01*
X158091877Y-89155590D01*
X158131021Y-89153086D01*
X158159229Y-89149661D01*
X158179312Y-89144983D01*
X158192922Y-89139347D01*
X158211989Y-89126914D01*
X158226914Y-89110689D01*
X158238245Y-89088594D01*
X158246531Y-89058552D01*
X158252319Y-89018485D01*
X158256158Y-88966317D01*
X158258596Y-88899969D01*
X158258855Y-88889515D01*
X158259667Y-88797694D01*
X158257456Y-88720177D01*
X158252267Y-88657428D01*
X158244143Y-88609914D01*
X158233128Y-88578100D01*
X158228842Y-88571091D01*
X158213435Y-88553148D01*
X158195312Y-88539994D01*
X158171769Y-88530936D01*
X158140103Y-88525283D01*
X158097610Y-88522342D01*
X158041588Y-88521421D01*
X158034843Y-88521414D01*
X157912688Y-88521401D01*
X157912688Y-89161106D01*
X157780181Y-89161106D01*
X157780181Y-88403628D01*
X157989294Y-88407508D01*
G37*
G36*
X161792669Y-88782275D02*
G01*
X161964514Y-88784513D01*
X162136359Y-88786752D01*
X162136359Y-88405457D01*
X162268867Y-88405457D01*
X162268867Y-89266755D01*
X162136359Y-89266755D01*
X162136359Y-88894078D01*
X161788528Y-88894078D01*
X161788528Y-89266755D01*
X161656020Y-89266755D01*
X161656020Y-88405457D01*
X161788217Y-88405457D01*
X161792669Y-88782275D01*
G37*
G36*
X165150901Y-87088665D02*
G01*
X164753379Y-87088665D01*
X164753379Y-85208717D01*
X165150901Y-85208717D01*
X165150901Y-87088665D01*
G37*
G36*
X160116072Y-83877587D02*
G01*
X160140529Y-83804968D01*
X160452930Y-82877416D01*
X160644889Y-82875193D01*
X160836848Y-82872969D01*
X160849709Y-82903750D01*
X160854257Y-82915379D01*
X160864265Y-82941508D01*
X160879355Y-82981137D01*
X160899150Y-83033264D01*
X160923269Y-83096889D01*
X160951335Y-83171012D01*
X160982970Y-83254632D01*
X161017794Y-83346749D01*
X161055429Y-83446363D01*
X161095497Y-83552473D01*
X161137619Y-83664079D01*
X161181416Y-83780180D01*
X161206157Y-83845789D01*
X161250512Y-83963392D01*
X161293267Y-84076688D01*
X161334057Y-84184710D01*
X161372515Y-84286494D01*
X161408277Y-84381074D01*
X161440977Y-84467482D01*
X161470248Y-84544755D01*
X161495725Y-84611925D01*
X161517042Y-84668027D01*
X161533833Y-84712096D01*
X161545733Y-84743165D01*
X161552376Y-84760268D01*
X161553681Y-84763417D01*
X161546911Y-84765195D01*
X161525790Y-84766782D01*
X161492529Y-84768105D01*
X161449341Y-84769091D01*
X161398437Y-84769667D01*
X161360378Y-84769787D01*
X161163139Y-84769787D01*
X161114246Y-84626927D01*
X161096465Y-84575128D01*
X161078525Y-84523139D01*
X161061918Y-84475262D01*
X161048134Y-84435797D01*
X161041057Y-84415744D01*
X161016762Y-84347420D01*
X160674146Y-84347420D01*
X160589547Y-84347460D01*
X160520002Y-84347621D01*
X160464004Y-84347967D01*
X160420043Y-84348559D01*
X160386611Y-84349461D01*
X160362199Y-84350733D01*
X160345299Y-84352440D01*
X160334402Y-84354642D01*
X160327999Y-84357404D01*
X160324582Y-84360786D01*
X160323923Y-84361913D01*
X160318908Y-84374782D01*
X160310306Y-84400280D01*
X160299175Y-84435136D01*
X160286576Y-84476079D01*
X160281684Y-84492350D01*
X160266618Y-84542652D01*
X160250633Y-84595790D01*
X160235560Y-84645694D01*
X160223228Y-84686294D01*
X160222390Y-84689040D01*
X160197728Y-84769787D01*
X159816365Y-84769787D01*
X159822247Y-84751153D01*
X159825605Y-84741031D01*
X159833918Y-84716204D01*
X159846851Y-84677666D01*
X159864071Y-84626410D01*
X159885243Y-84563427D01*
X159910033Y-84489710D01*
X159938109Y-84406252D01*
X159969135Y-84314046D01*
X160002779Y-84214084D01*
X160038705Y-84107358D01*
X160047106Y-84082405D01*
X160421850Y-84082405D01*
X160894103Y-84082405D01*
X160894103Y-84035481D01*
X160893288Y-84021373D01*
X160890541Y-84003703D01*
X160885412Y-83980980D01*
X160877450Y-83951713D01*
X160866205Y-83914411D01*
X160851226Y-83867582D01*
X160832062Y-83809735D01*
X160808262Y-83739381D01*
X160779375Y-83655027D01*
X160777066Y-83648311D01*
X160752302Y-83576463D01*
X160729038Y-83509242D01*
X160707858Y-83448315D01*
X160689344Y-83395346D01*
X160674081Y-83352004D01*
X160662652Y-83319953D01*
X160655641Y-83300861D01*
X160653759Y-83296244D01*
X160648698Y-83298113D01*
X160640169Y-83315277D01*
X160628527Y-83346915D01*
X160618145Y-83379061D01*
X160584055Y-83489061D01*
X160554534Y-83584494D01*
X160529225Y-83666607D01*
X160507771Y-83736647D01*
X160489815Y-83795859D01*
X160475000Y-83845492D01*
X160462967Y-83886790D01*
X160453361Y-83921002D01*
X160445824Y-83949374D01*
X160439998Y-83973153D01*
X160435526Y-83993585D01*
X160432051Y-84011916D01*
X160429215Y-84029395D01*
X160426670Y-84047208D01*
X160421850Y-84082405D01*
X160047106Y-84082405D01*
X160076581Y-83994862D01*
X160116072Y-83877587D01*
G37*
G36*
X163593940Y-88521401D02*
G01*
X163370334Y-88521401D01*
X163370334Y-89266755D01*
X163237827Y-89266755D01*
X163237827Y-88521401D01*
X163022502Y-88521401D01*
X163022502Y-88405457D01*
X163593940Y-88405457D01*
X163593940Y-88521401D01*
G37*
G36*
X154973321Y-88844462D02*
G01*
X154996211Y-88777106D01*
X155018272Y-88712297D01*
X155038889Y-88651857D01*
X155057444Y-88597608D01*
X155073320Y-88551374D01*
X155077228Y-88540035D01*
X155123658Y-88405457D01*
X155267063Y-88405457D01*
X155404384Y-88836106D01*
X155541706Y-89266755D01*
X155396051Y-89266755D01*
X155375505Y-89198431D01*
X155364524Y-89161781D01*
X155354008Y-89126460D01*
X155345915Y-89099042D01*
X155344707Y-89094909D01*
X155334455Y-89059712D01*
X155040593Y-89059712D01*
X154976365Y-89262614D01*
X154904129Y-89265007D01*
X154871873Y-89265775D01*
X154847045Y-89265797D01*
X154833393Y-89265093D01*
X154831893Y-89264569D01*
X154834461Y-89256302D01*
X154841756Y-89234180D01*
X154853161Y-89200025D01*
X154868057Y-89155660D01*
X154885828Y-89102906D01*
X154905858Y-89043587D01*
X154927528Y-88979525D01*
X154938941Y-88945838D01*
X155080539Y-88945838D01*
X155088232Y-88948149D01*
X155109420Y-88950069D01*
X155141035Y-88951423D01*
X155180010Y-88952033D01*
X155188006Y-88952050D01*
X155232744Y-88951783D01*
X155263399Y-88950789D01*
X155282444Y-88948778D01*
X155292353Y-88945459D01*
X155295600Y-88940543D01*
X155295668Y-88939421D01*
X155293435Y-88928776D01*
X155287304Y-88905225D01*
X155278128Y-88871729D01*
X155266761Y-88831251D01*
X155254056Y-88786750D01*
X155240866Y-88741189D01*
X155228044Y-88697529D01*
X155216443Y-88658731D01*
X155206917Y-88627758D01*
X155200318Y-88607569D01*
X155199098Y-88604218D01*
X155195685Y-88609034D01*
X155188058Y-88626960D01*
X155177133Y-88655357D01*
X155163827Y-88691586D01*
X155149056Y-88733008D01*
X155133734Y-88776983D01*
X155118779Y-88820873D01*
X155105105Y-88862038D01*
X155093629Y-88897840D01*
X155085267Y-88925639D01*
X155080935Y-88942796D01*
X155080539Y-88945838D01*
X154938941Y-88945838D01*
X154950221Y-88912543D01*
X154973321Y-88844462D01*
G37*
G36*
X160233637Y-85202554D02*
G01*
X160330727Y-85203274D01*
X160412785Y-85203969D01*
X160481342Y-85204702D01*
X160537929Y-85205540D01*
X160584078Y-85206545D01*
X160621319Y-85207784D01*
X160651185Y-85209321D01*
X160675205Y-85211219D01*
X160694911Y-85213545D01*
X160711834Y-85216363D01*
X160727506Y-85219736D01*
X160743457Y-85223730D01*
X160745032Y-85224142D01*
X160804036Y-85242974D01*
X160868463Y-85269201D01*
X160932696Y-85300145D01*
X160991116Y-85333126D01*
X161032677Y-85361270D01*
X161117510Y-85435821D01*
X161191681Y-85522338D01*
X161254761Y-85619760D01*
X161306315Y-85727026D01*
X161345914Y-85843075D01*
X161373124Y-85966846D01*
X161387515Y-86097277D01*
X161388655Y-86233308D01*
X161388548Y-86235870D01*
X161377810Y-86364287D01*
X161356738Y-86480592D01*
X161324872Y-86585974D01*
X161281746Y-86681622D01*
X161226898Y-86768725D01*
X161159865Y-86848473D01*
X161143519Y-86865067D01*
X161105234Y-86901767D01*
X161072929Y-86929535D01*
X161041767Y-86951983D01*
X161006914Y-86972724D01*
X160981061Y-86986450D01*
X160941046Y-87006598D01*
X160903838Y-87023921D01*
X160867838Y-87038633D01*
X160831447Y-87050944D01*
X160793067Y-87061065D01*
X160751099Y-87069210D01*
X160703944Y-87075588D01*
X160650003Y-87080411D01*
X160587677Y-87083891D01*
X160515367Y-87086240D01*
X160431475Y-87087669D01*
X160334401Y-87088390D01*
X160222547Y-87088613D01*
X160208792Y-87088616D01*
X159792636Y-87088665D01*
X159792636Y-86800634D01*
X160190158Y-86800634D01*
X160399271Y-86796518D01*
X160470596Y-86794861D01*
X160527538Y-86792907D01*
X160572278Y-86790504D01*
X160606995Y-86787499D01*
X160633870Y-86783737D01*
X160655082Y-86779065D01*
X160657623Y-86778359D01*
X160733946Y-86749562D01*
X160799802Y-86709386D01*
X160855674Y-86657238D01*
X160902042Y-86592523D01*
X160939388Y-86514648D01*
X160968193Y-86423021D01*
X160976948Y-86384720D01*
X160984230Y-86336651D01*
X160989050Y-86277503D01*
X160991328Y-86212591D01*
X160990984Y-86147225D01*
X160987938Y-86086721D01*
X160982193Y-86036888D01*
X160958332Y-85928783D01*
X160924600Y-85832238D01*
X160881402Y-85747771D01*
X160829141Y-85675900D01*
X160768220Y-85617143D01*
X160699044Y-85572017D01*
X160622017Y-85541043D01*
X160589343Y-85532783D01*
X160566871Y-85529815D01*
X160530886Y-85527266D01*
X160484435Y-85525266D01*
X160430566Y-85523942D01*
X160372326Y-85523425D01*
X160367807Y-85523422D01*
X160190158Y-85523422D01*
X160190158Y-86800634D01*
X159792636Y-86800634D01*
X159792636Y-85199390D01*
X160233637Y-85202554D01*
G37*
G36*
X166765281Y-88409726D02*
G01*
X166801153Y-88410402D01*
X166827055Y-88412060D01*
X166846287Y-88415138D01*
X166862144Y-88420072D01*
X166877924Y-88427296D01*
X166887476Y-88432252D01*
X166930873Y-88462986D01*
X166965290Y-88503078D01*
X166988262Y-88548812D01*
X166997326Y-88596470D01*
X166997359Y-88598007D01*
X166997722Y-88620781D01*
X166931469Y-88620781D01*
X166898613Y-88620576D01*
X166878941Y-88619235D01*
X166869071Y-88615668D01*
X166865622Y-88608788D01*
X166865215Y-88599440D01*
X166857826Y-88575719D01*
X166838332Y-88552069D01*
X166810742Y-88532391D01*
X166785886Y-88522228D01*
X166738970Y-88514402D01*
X166689005Y-88514745D01*
X166640867Y-88522531D01*
X166599434Y-88537036D01*
X166573452Y-88553815D01*
X166556536Y-88572856D01*
X166547656Y-88595527D01*
X166544368Y-88617995D01*
X166543911Y-88649090D01*
X166548217Y-88673492D01*
X166550281Y-88678325D01*
X166569437Y-88697975D01*
X166603651Y-88714799D01*
X166651577Y-88728274D01*
X166699581Y-88736381D01*
X166759288Y-88744767D01*
X166805937Y-88752966D01*
X166842997Y-88761839D01*
X166873940Y-88772248D01*
X166902236Y-88785053D01*
X166908173Y-88788130D01*
X166952244Y-88818527D01*
X166984015Y-88857292D01*
X167004058Y-88905680D01*
X167012947Y-88964950D01*
X167012617Y-89017643D01*
X167001752Y-89086227D01*
X166977839Y-89144871D01*
X166941141Y-89193195D01*
X166891927Y-89230818D01*
X166849309Y-89250910D01*
X166809564Y-89261790D01*
X166760860Y-89269088D01*
X166708949Y-89272496D01*
X166659586Y-89271705D01*
X166618524Y-89266407D01*
X166608482Y-89263831D01*
X166569424Y-89251153D01*
X166540943Y-89238961D01*
X166517409Y-89224323D01*
X166493192Y-89204302D01*
X166491678Y-89202941D01*
X166462312Y-89169646D01*
X166437083Y-89128516D01*
X166418750Y-89085137D01*
X166410069Y-89045093D01*
X166409728Y-89036937D01*
X166409721Y-89001740D01*
X166471676Y-89001740D01*
X166503284Y-89002005D01*
X166522090Y-89003660D01*
X166531854Y-89007990D01*
X166536337Y-89016284D01*
X166538222Y-89024515D01*
X166554024Y-89071463D01*
X166579702Y-89110653D01*
X166612612Y-89138156D01*
X166615996Y-89140006D01*
X166660244Y-89155296D01*
X166709778Y-89159737D01*
X166759663Y-89153870D01*
X166804963Y-89138238D01*
X166838445Y-89115602D01*
X166854933Y-89092141D01*
X166868450Y-89058717D01*
X166877099Y-89021894D01*
X166878979Y-88988237D01*
X166877862Y-88979318D01*
X166870060Y-88950892D01*
X166857172Y-88928406D01*
X166837081Y-88910647D01*
X166807665Y-88896398D01*
X166766807Y-88884447D01*
X166712386Y-88873577D01*
X166685632Y-88869147D01*
X166622374Y-88858286D01*
X166572969Y-88847723D01*
X166534745Y-88836603D01*
X166505031Y-88824072D01*
X166481157Y-88809275D01*
X166469778Y-88800063D01*
X166437284Y-88762659D01*
X166417706Y-88717835D01*
X166410079Y-88663227D01*
X166409903Y-88653313D01*
X166416530Y-88587198D01*
X166436823Y-88530354D01*
X166470686Y-88482940D01*
X166518027Y-88445114D01*
X166540377Y-88432870D01*
X166559164Y-88424002D01*
X166575760Y-88417729D01*
X166593556Y-88413604D01*
X166615938Y-88411177D01*
X166646296Y-88410001D01*
X166688018Y-88409625D01*
X166716144Y-88409598D01*
X166765281Y-88409726D01*
G37*
G36*
X165473888Y-84446800D02*
G01*
X166318622Y-84446800D01*
X166318622Y-84769787D01*
X165101211Y-84769787D01*
X165101211Y-82873276D01*
X165473888Y-82873276D01*
X165473888Y-84446800D01*
G37*
G36*
X168382838Y-88407018D02*
G01*
X168447600Y-88408088D01*
X168498132Y-88409204D01*
X168536769Y-88410574D01*
X168565843Y-88412408D01*
X168587688Y-88414916D01*
X168604638Y-88418307D01*
X168619025Y-88422789D01*
X168633184Y-88428573D01*
X168635742Y-88429703D01*
X168683724Y-88459160D01*
X168721528Y-88498665D01*
X168748674Y-88545499D01*
X168764685Y-88596940D01*
X168769082Y-88650269D01*
X168761386Y-88702766D01*
X168741121Y-88751711D01*
X168707806Y-88794382D01*
X168700977Y-88800671D01*
X168672379Y-88825780D01*
X168709799Y-88857060D01*
X168742432Y-88889625D01*
X168763600Y-88924916D01*
X168774744Y-88966743D01*
X168777304Y-89018918D01*
X168776770Y-89034072D01*
X168773887Y-89073653D01*
X168768729Y-89103006D01*
X168759779Y-89128449D01*
X168748903Y-89150172D01*
X168729615Y-89179382D01*
X168706374Y-89206096D01*
X168692047Y-89218578D01*
X168671103Y-89232596D01*
X168649860Y-89243641D01*
X168626051Y-89252057D01*
X168597411Y-89258188D01*
X168561677Y-89262378D01*
X168516584Y-89264971D01*
X168459865Y-89266313D01*
X168389257Y-89266746D01*
X168375124Y-89266755D01*
X168173725Y-89266755D01*
X168173725Y-89021064D01*
X168306232Y-89021064D01*
X168306618Y-89065425D01*
X168307683Y-89103877D01*
X168309285Y-89133397D01*
X168311284Y-89150962D01*
X168312444Y-89154380D01*
X168322561Y-89156466D01*
X168346054Y-89157834D01*
X168379749Y-89158396D01*
X168420469Y-89158066D01*
X168434599Y-89157754D01*
X168483120Y-89156179D01*
X168518306Y-89154033D01*
X168543383Y-89150877D01*
X168561579Y-89146276D01*
X168576121Y-89139791D01*
X168578918Y-89138204D01*
X168610197Y-89110998D01*
X168632499Y-89073623D01*
X168643318Y-89031158D01*
X168643455Y-89007334D01*
X168632746Y-88963374D01*
X168609232Y-88929697D01*
X168578940Y-88908584D01*
X168564367Y-88902655D01*
X168545802Y-88898535D01*
X168520201Y-88895931D01*
X168484522Y-88894549D01*
X168435723Y-88894096D01*
X168428387Y-88894091D01*
X168306232Y-88894078D01*
X168306232Y-89021064D01*
X168173725Y-89021064D01*
X168173725Y-88648387D01*
X168306232Y-88648387D01*
X168306618Y-88692750D01*
X168307683Y-88731206D01*
X168309285Y-88760732D01*
X168311284Y-88778303D01*
X168312444Y-88781724D01*
X168322626Y-88783873D01*
X168346048Y-88785229D01*
X168379400Y-88785697D01*
X168419373Y-88785182D01*
X168426458Y-88784993D01*
X168473452Y-88783251D01*
X168507306Y-88780820D01*
X168531438Y-88777201D01*
X168549272Y-88771895D01*
X168563078Y-88765082D01*
X168587448Y-88746374D01*
X168609114Y-88722767D01*
X168611282Y-88719714D01*
X168622389Y-88700325D01*
X168627581Y-88680454D01*
X168628200Y-88653466D01*
X168627491Y-88639559D01*
X168624186Y-88607681D01*
X168617675Y-88586162D01*
X168605830Y-88568833D01*
X168601508Y-88564141D01*
X168582239Y-88547734D01*
X168558783Y-88535899D01*
X168528341Y-88528007D01*
X168488116Y-88523431D01*
X168435309Y-88521543D01*
X168410863Y-88521401D01*
X168306232Y-88521401D01*
X168306232Y-88648387D01*
X168173725Y-88648387D01*
X168173725Y-88403804D01*
X168382838Y-88407018D01*
G37*
G36*
X165094321Y-88405457D02*
G01*
X165149335Y-88405923D01*
X165202406Y-88407219D01*
X165249906Y-88409195D01*
X165288211Y-88411697D01*
X165313693Y-88414574D01*
X165314242Y-88414668D01*
X165373869Y-88432636D01*
X165423665Y-88463731D01*
X165463086Y-88507366D01*
X165491589Y-88562953D01*
X165507587Y-88623481D01*
X165512930Y-88694557D01*
X165504720Y-88761135D01*
X165483805Y-88821313D01*
X165451034Y-88873188D01*
X165407258Y-88914856D01*
X165366966Y-88938611D01*
X165349670Y-88945573D01*
X165330291Y-88950715D01*
X165305656Y-88954441D01*
X165272591Y-88957155D01*
X165227924Y-88959260D01*
X165196451Y-88960331D01*
X165063943Y-88964472D01*
X165061686Y-89115613D01*
X165059429Y-89266755D01*
X164927295Y-89266755D01*
X164927295Y-88680888D01*
X165059803Y-88680888D01*
X165060075Y-88730892D01*
X165060832Y-88775128D01*
X165061989Y-88810961D01*
X165063456Y-88835759D01*
X165065147Y-88846889D01*
X165065324Y-88847148D01*
X165076891Y-88850403D01*
X165100753Y-88852181D01*
X165132715Y-88852563D01*
X165168583Y-88851634D01*
X165204161Y-88849475D01*
X165235255Y-88846169D01*
X165250839Y-88843494D01*
X165292437Y-88827960D01*
X165329126Y-88802067D01*
X165356457Y-88769495D01*
X165366696Y-88747724D01*
X165372810Y-88712212D01*
X165372191Y-88669326D01*
X165365440Y-88626544D01*
X165354329Y-88593703D01*
X165340629Y-88569004D01*
X165324922Y-88550943D01*
X165304419Y-88538423D01*
X165276329Y-88530352D01*
X165237859Y-88525633D01*
X165186219Y-88523172D01*
X165173676Y-88522845D01*
X165059803Y-88520149D01*
X165059803Y-88680888D01*
X164927295Y-88680888D01*
X164927295Y-88405457D01*
X165094321Y-88405457D01*
G37*
G36*
X155763585Y-88782275D02*
G01*
X156111416Y-88782275D01*
X156115868Y-88405457D01*
X156248065Y-88405457D01*
X156248065Y-89266755D01*
X156115874Y-89266755D01*
X156111416Y-88898219D01*
X155763585Y-88898219D01*
X155759127Y-89266755D01*
X155626937Y-89266755D01*
X155626937Y-88405457D01*
X155759133Y-88405457D01*
X155763585Y-88782275D01*
G37*
G36*
X162923122Y-85515141D02*
G01*
X161904472Y-85515141D01*
X161904472Y-85920944D01*
X162798896Y-85920944D01*
X162798896Y-86260494D01*
X161912753Y-86260494D01*
X161912753Y-86765679D01*
X162947967Y-86765679D01*
X162947967Y-87088665D01*
X161523513Y-87088665D01*
X161523513Y-85200436D01*
X162923122Y-85200436D01*
X162923122Y-85515141D01*
G37*
G36*
X163556405Y-83948877D02*
G01*
X163593816Y-83837712D01*
X163630762Y-83727944D01*
X163666685Y-83621229D01*
X163701028Y-83519225D01*
X163733233Y-83423588D01*
X163762741Y-83335974D01*
X163788996Y-83258041D01*
X163811439Y-83191444D01*
X163829512Y-83137841D01*
X163838441Y-83111375D01*
X163918807Y-82873276D01*
X164304547Y-82873276D01*
X164312621Y-82896050D01*
X164316572Y-82906705D01*
X164325987Y-82931838D01*
X164340483Y-82970430D01*
X164359676Y-83021462D01*
X164383183Y-83083914D01*
X164410618Y-83156769D01*
X164441599Y-83239007D01*
X164475742Y-83329610D01*
X164512663Y-83427558D01*
X164551978Y-83531832D01*
X164593304Y-83641415D01*
X164636256Y-83755286D01*
X164645626Y-83780123D01*
X164689248Y-83895765D01*
X164731575Y-84007998D01*
X164772200Y-84115738D01*
X164810713Y-84217900D01*
X164846705Y-84313401D01*
X164879769Y-84401155D01*
X164909496Y-84480078D01*
X164935478Y-84549087D01*
X164957306Y-84607097D01*
X164974571Y-84653024D01*
X164986865Y-84685783D01*
X164993780Y-84704291D01*
X164994322Y-84705753D01*
X165018088Y-84770086D01*
X164822233Y-84767866D01*
X164626379Y-84765646D01*
X164554614Y-84558603D01*
X164482848Y-84351561D01*
X163788567Y-84351561D01*
X163726125Y-84558603D01*
X163663684Y-84765646D01*
X163280100Y-84770090D01*
X163511476Y-84082405D01*
X163875518Y-84082405D01*
X164364139Y-84082405D01*
X164364139Y-84042997D01*
X164362434Y-84027687D01*
X164357127Y-84003266D01*
X164347929Y-83968775D01*
X164334551Y-83923255D01*
X164316705Y-83865748D01*
X164294102Y-83795296D01*
X164266453Y-83710940D01*
X164241442Y-83635602D01*
X164118745Y-83267616D01*
X163997132Y-83629459D01*
X163967247Y-83718725D01*
X163942422Y-83793744D01*
X163922241Y-83855903D01*
X163906291Y-83906588D01*
X163894158Y-83947186D01*
X163885428Y-83979082D01*
X163879688Y-84003663D01*
X163876523Y-84022315D01*
X163875519Y-84036426D01*
X163875518Y-84036853D01*
X163875518Y-84082405D01*
X163511476Y-84082405D01*
X163519088Y-84059782D01*
X163556405Y-83948877D01*
G37*
G36*
X168008091Y-89266755D02*
G01*
X167875583Y-89266755D01*
X167875583Y-88405457D01*
X168008091Y-88405457D01*
X168008091Y-89266755D01*
G37*
G36*
X170580725Y-88521401D02*
G01*
X170599992Y-88561205D01*
X170617030Y-88595115D01*
X170630505Y-88620571D01*
X170639082Y-88635018D01*
X170641258Y-88637345D01*
X170646454Y-88630256D01*
X170657276Y-88610696D01*
X170672392Y-88581229D01*
X170690471Y-88544415D01*
X170701463Y-88521401D01*
X170756302Y-88405457D01*
X170823872Y-88405457D01*
X170823872Y-88819542D01*
X170765900Y-88819542D01*
X170765172Y-88672542D01*
X170764445Y-88525542D01*
X170715115Y-88626993D01*
X170695210Y-88667607D01*
X170680704Y-88695621D01*
X170669839Y-88713373D01*
X170660857Y-88723200D01*
X170652001Y-88727440D01*
X170641513Y-88728430D01*
X170638820Y-88728444D01*
X170627530Y-88727839D01*
X170618390Y-88724427D01*
X170609589Y-88715805D01*
X170599318Y-88699576D01*
X170585767Y-88673338D01*
X170567125Y-88634693D01*
X170565426Y-88631133D01*
X170518998Y-88533823D01*
X170518223Y-88676683D01*
X170517448Y-88819542D01*
X170451195Y-88819542D01*
X170451195Y-88405457D01*
X170525559Y-88405457D01*
X170580725Y-88521401D01*
G37*
G36*
X166306423Y-83769162D02*
G01*
X166309499Y-83704486D01*
X166314524Y-83647868D01*
X166321490Y-83603389D01*
X166321704Y-83602401D01*
X166356265Y-83476363D01*
X166402768Y-83359133D01*
X166460557Y-83251804D01*
X166528976Y-83155468D01*
X166607367Y-83071217D01*
X166674966Y-83014629D01*
X166772455Y-82952196D01*
X166877727Y-82904263D01*
X166990279Y-82870990D01*
X167109608Y-82852536D01*
X167200624Y-82848513D01*
X167321997Y-82856080D01*
X167436510Y-82878624D01*
X167543668Y-82915831D01*
X167642975Y-82967385D01*
X167733935Y-83032971D01*
X167816055Y-83112276D01*
X167888837Y-83204983D01*
X167951787Y-83310779D01*
X167962877Y-83332910D01*
X168010795Y-83446196D01*
X168044730Y-83561491D01*
X168065206Y-83681421D01*
X168072744Y-83808610D01*
X168071686Y-83879503D01*
X168063547Y-83991542D01*
X168047529Y-84092798D01*
X168022645Y-84187554D01*
X167987905Y-84280088D01*
X167970081Y-84319439D01*
X167911451Y-84424894D01*
X167841508Y-84518534D01*
X167760868Y-84599866D01*
X167670146Y-84668398D01*
X167569957Y-84723635D01*
X167460917Y-84765086D01*
X167391103Y-84783220D01*
X167352305Y-84789427D01*
X167301882Y-84794302D01*
X167244729Y-84797678D01*
X167185744Y-84799388D01*
X167129824Y-84799264D01*
X167081864Y-84797141D01*
X167057154Y-84794593D01*
X166944993Y-84771488D01*
X166837464Y-84734923D01*
X166737364Y-84686074D01*
X166647489Y-84626117D01*
X166637468Y-84618187D01*
X166552801Y-84539328D01*
X166479456Y-84448537D01*
X166417629Y-84346154D01*
X166367516Y-84232516D01*
X166329313Y-84107963D01*
X166320627Y-84070486D01*
X166313811Y-84026772D01*
X166308992Y-83970699D01*
X166306160Y-83906352D01*
X166305619Y-83862876D01*
X166676061Y-83862876D01*
X166679888Y-83936281D01*
X166687662Y-84003944D01*
X166699257Y-84060680D01*
X166699354Y-84061034D01*
X166732581Y-84157909D01*
X166775783Y-84243451D01*
X166828021Y-84317062D01*
X166888360Y-84378144D01*
X166955862Y-84426098D01*
X167029592Y-84460326D01*
X167108612Y-84480230D01*
X167191986Y-84485212D01*
X167278778Y-84474672D01*
X167327268Y-84462154D01*
X167397541Y-84434019D01*
X167461275Y-84393926D01*
X167521721Y-84339758D01*
X167532033Y-84328858D01*
X167588724Y-84255841D01*
X167634358Y-84172558D01*
X167668823Y-84081174D01*
X167692008Y-83983855D01*
X167703800Y-83882766D01*
X167704088Y-83780074D01*
X167692760Y-83677943D01*
X167669704Y-83578540D01*
X167634808Y-83484031D01*
X167587960Y-83396581D01*
X167580777Y-83385529D01*
X167524786Y-83315266D01*
X167459505Y-83258150D01*
X167386178Y-83214859D01*
X167306048Y-83186072D01*
X167220358Y-83172468D01*
X167188202Y-83171417D01*
X167102508Y-83178838D01*
X167023425Y-83201316D01*
X166950151Y-83239169D01*
X166881883Y-83292720D01*
X166879882Y-83294593D01*
X166819304Y-83360402D01*
X166769896Y-83434040D01*
X166730617Y-83517507D01*
X166700425Y-83612802D01*
X166689534Y-83660038D01*
X166680757Y-83719571D01*
X166676308Y-83788911D01*
X166676061Y-83862876D01*
X166305619Y-83862876D01*
X166305307Y-83837811D01*
X166306423Y-83769162D01*
G37*
G36*
X163196418Y-84769787D02*
G01*
X162836164Y-84769781D01*
X162426802Y-84139943D01*
X162366735Y-84047593D01*
X162309175Y-83959228D01*
X162254769Y-83875834D01*
X162204164Y-83798398D01*
X162158007Y-83727905D01*
X162116946Y-83665342D01*
X162081627Y-83611693D01*
X162052697Y-83567944D01*
X162030804Y-83535082D01*
X162016593Y-83514093D01*
X162010714Y-83505961D01*
X162010646Y-83505907D01*
X162009566Y-83513298D01*
X162008539Y-83535997D01*
X162007579Y-83572747D01*
X162006698Y-83622292D01*
X162005911Y-83683377D01*
X162005232Y-83754745D01*
X162004672Y-83835140D01*
X162004248Y-83923307D01*
X162003971Y-84017989D01*
X162003855Y-84117930D01*
X162003852Y-84135747D01*
X162003852Y-84769787D01*
X161622893Y-84769787D01*
X161622893Y-82873276D01*
X162016275Y-82873700D01*
X162402992Y-83484264D01*
X162461012Y-83575830D01*
X162516678Y-83663608D01*
X162569329Y-83746559D01*
X162618302Y-83823644D01*
X162662935Y-83893822D01*
X162702567Y-83956053D01*
X162736535Y-84009298D01*
X162764176Y-84052517D01*
X162784830Y-84084670D01*
X162797833Y-84104717D01*
X162802321Y-84111391D01*
X162804681Y-84113259D01*
X162806732Y-84111544D01*
X162808496Y-84105208D01*
X162809994Y-84093208D01*
X162811250Y-84074506D01*
X162812284Y-84048060D01*
X162813118Y-84012831D01*
X162813775Y-83967777D01*
X162814277Y-83911860D01*
X162814645Y-83844038D01*
X162814901Y-83763271D01*
X162815068Y-83668519D01*
X162815166Y-83558741D01*
X162815196Y-83500615D01*
X162815460Y-82873276D01*
X163196418Y-82873276D01*
X163196418Y-84769787D01*
G37*
G36*
X165628888Y-88708361D02*
G01*
X165633611Y-88652324D01*
X165640236Y-88607214D01*
X165649293Y-88570226D01*
X165661311Y-88538552D01*
X165675959Y-88510819D01*
X165692931Y-88485686D01*
X165711680Y-88466951D01*
X165737505Y-88449998D01*
X165758782Y-88438669D01*
X165815862Y-88409598D01*
X165945087Y-88409598D01*
X166006320Y-88410250D01*
X166054092Y-88412624D01*
X166091468Y-88417346D01*
X166121513Y-88425042D01*
X166147294Y-88436340D01*
X166171875Y-88451864D01*
X166179555Y-88457500D01*
X166207067Y-88482285D01*
X166229404Y-88512237D01*
X166246926Y-88548966D01*
X166259995Y-88594085D01*
X166268972Y-88649206D01*
X166274218Y-88715939D01*
X166276092Y-88795898D01*
X166275111Y-88884246D01*
X166273255Y-88949379D01*
X166270926Y-89000392D01*
X166267918Y-89039722D01*
X166264025Y-89069811D01*
X166259040Y-89093098D01*
X166256816Y-89100669D01*
X166232116Y-89158549D01*
X166198435Y-89203125D01*
X166154428Y-89235788D01*
X166107544Y-89255337D01*
X166073381Y-89262700D01*
X166027955Y-89268023D01*
X165976460Y-89271141D01*
X165924088Y-89271890D01*
X165876035Y-89270109D01*
X165837493Y-89265631D01*
X165830001Y-89264083D01*
X165766072Y-89242841D01*
X165715517Y-89211995D01*
X165678071Y-89171339D01*
X165656509Y-89129337D01*
X165644078Y-89084864D01*
X165634455Y-89026817D01*
X165627884Y-88957985D01*
X165624613Y-88881157D01*
X165624887Y-88799124D01*
X165625109Y-88791950D01*
X165764452Y-88791950D01*
X165765162Y-88867576D01*
X165766303Y-88933034D01*
X165767867Y-88984213D01*
X165770297Y-89023400D01*
X165774039Y-89052879D01*
X165779534Y-89074935D01*
X165787227Y-89091855D01*
X165797562Y-89105922D01*
X165810982Y-89119422D01*
X165814722Y-89122841D01*
X165837397Y-89139379D01*
X165864193Y-89150019D01*
X165898762Y-89155596D01*
X165944762Y-89156944D01*
X165962672Y-89156614D01*
X166002719Y-89154887D01*
X166030849Y-89151632D01*
X166051695Y-89145953D01*
X166069890Y-89136950D01*
X166072605Y-89135302D01*
X166095662Y-89117858D01*
X166112384Y-89096328D01*
X166124291Y-89067351D01*
X166132897Y-89027572D01*
X166137842Y-88990880D01*
X166140800Y-88953559D01*
X166142466Y-88907077D01*
X166142932Y-88854804D01*
X166142290Y-88800112D01*
X166140631Y-88746372D01*
X166138048Y-88696956D01*
X166134631Y-88655235D01*
X166130475Y-88624579D01*
X166127529Y-88612500D01*
X166105283Y-88571695D01*
X166070636Y-88541468D01*
X166033805Y-88525347D01*
X165978413Y-88514652D01*
X165923247Y-88514379D01*
X165872235Y-88523958D01*
X165829304Y-88542823D01*
X165809692Y-88557760D01*
X165795868Y-88573008D01*
X165784968Y-88591051D01*
X165776711Y-88613854D01*
X165770813Y-88643380D01*
X165766992Y-88681596D01*
X165764966Y-88730464D01*
X165764452Y-88791950D01*
X165625109Y-88791950D01*
X165625538Y-88778134D01*
X165628888Y-88708361D01*
G37*
G36*
X156935446Y-88521401D02*
G01*
X156546206Y-88521401D01*
X156546206Y-88786416D01*
X156827784Y-88786416D01*
X156827784Y-88894078D01*
X156546206Y-88894078D01*
X156546206Y-89159092D01*
X156935446Y-89159092D01*
X156935446Y-89266755D01*
X156413699Y-89266755D01*
X156413699Y-88405457D01*
X156935446Y-88405457D01*
X156935446Y-88521401D01*
G37*
G36*
X157149888Y-88764334D02*
G01*
X157175541Y-88688905D01*
X157199189Y-88619608D01*
X157220327Y-88557914D01*
X157238449Y-88505292D01*
X157253049Y-88463213D01*
X157263623Y-88433146D01*
X157269664Y-88416562D01*
X157270832Y-88413777D01*
X157280949Y-88409970D01*
X157303414Y-88407078D01*
X157334020Y-88405571D01*
X157345565Y-88405457D01*
X157415157Y-88405457D01*
X157476992Y-88598007D01*
X157492700Y-88646972D01*
X157510967Y-88704010D01*
X157531112Y-88766977D01*
X157552448Y-88833730D01*
X157574293Y-88902123D01*
X157595963Y-88970012D01*
X157616772Y-89035255D01*
X157636037Y-89095705D01*
X157653075Y-89149221D01*
X157667200Y-89193656D01*
X157677729Y-89226867D01*
X157683977Y-89246711D01*
X157684416Y-89248121D01*
X157686511Y-89257010D01*
X157684080Y-89262497D01*
X157674165Y-89265399D01*
X157653807Y-89266536D01*
X157620047Y-89266727D01*
X157617175Y-89266726D01*
X157544152Y-89266697D01*
X157514323Y-89165275D01*
X157484493Y-89063853D01*
X157188738Y-89063853D01*
X157123402Y-89266755D01*
X156979782Y-89266755D01*
X157090490Y-88939691D01*
X157233588Y-88939691D01*
X157236028Y-88944842D01*
X157244975Y-88948373D01*
X157262872Y-88950563D01*
X157292160Y-88951695D01*
X157335282Y-88952047D01*
X157341250Y-88952050D01*
X157381300Y-88951691D01*
X157414595Y-88950710D01*
X157438060Y-88949248D01*
X157448619Y-88947447D01*
X157448912Y-88947080D01*
X157446667Y-88937794D01*
X157440488Y-88915588D01*
X157431209Y-88883271D01*
X157419663Y-88843654D01*
X157406686Y-88799547D01*
X157393110Y-88753762D01*
X157379771Y-88709107D01*
X157367502Y-88668394D01*
X157357137Y-88634433D01*
X157349511Y-88610034D01*
X157345457Y-88598008D01*
X157345093Y-88597258D01*
X157341818Y-88603658D01*
X157334511Y-88623150D01*
X157324061Y-88653007D01*
X157311355Y-88690505D01*
X157297280Y-88732918D01*
X157282724Y-88777522D01*
X157268573Y-88821591D01*
X157255716Y-88862399D01*
X157245041Y-88897222D01*
X157237433Y-88923335D01*
X157233781Y-88938011D01*
X157233588Y-88939691D01*
X157090490Y-88939691D01*
X157122736Y-88844426D01*
X157149888Y-88764334D01*
G37*
G36*
X170409786Y-88463429D02*
G01*
X170302124Y-88463429D01*
X170302124Y-88819542D01*
X170235870Y-88819542D01*
X170235870Y-88463429D01*
X170136490Y-88463429D01*
X170136490Y-88405457D01*
X170409786Y-88405457D01*
X170409786Y-88463429D01*
G37*
G36*
X163231509Y-85202354D02*
G01*
X163423952Y-85204577D01*
X163631607Y-85879536D01*
X163663047Y-85981710D01*
X163693133Y-86079449D01*
X163721503Y-86171580D01*
X163747796Y-86256929D01*
X163771648Y-86334321D01*
X163792699Y-86402584D01*
X163810587Y-86460542D01*
X163824948Y-86507022D01*
X163835422Y-86540850D01*
X163841646Y-86560852D01*
X163843286Y-86566013D01*
X163846215Y-86560023D01*
X163853540Y-86539282D01*
X163864911Y-86504909D01*
X163879980Y-86458021D01*
X163898396Y-86399738D01*
X163919810Y-86331176D01*
X163943872Y-86253456D01*
X163970232Y-86167693D01*
X163998542Y-86075008D01*
X164028452Y-85976518D01*
X164053649Y-85893125D01*
X164259989Y-85208717D01*
X164637435Y-85208717D01*
X164637435Y-85252801D01*
X164636643Y-85262136D01*
X164634088Y-85275901D01*
X164629506Y-85294916D01*
X164622630Y-85320000D01*
X164613194Y-85351972D01*
X164600934Y-85391653D01*
X164585583Y-85439862D01*
X164566875Y-85497419D01*
X164544546Y-85565143D01*
X164518329Y-85643854D01*
X164487958Y-85734372D01*
X164453168Y-85837516D01*
X164413693Y-85954106D01*
X164369268Y-86084961D01*
X164335150Y-86185289D01*
X164295392Y-86302083D01*
X164257082Y-86414520D01*
X164220562Y-86521603D01*
X164186173Y-86622334D01*
X164154257Y-86715717D01*
X164125155Y-86800753D01*
X164099211Y-86876445D01*
X164076764Y-86941796D01*
X164058157Y-86995809D01*
X164043732Y-87037485D01*
X164033829Y-87065828D01*
X164028792Y-87079840D01*
X164028238Y-87081180D01*
X164018778Y-87083640D01*
X163995723Y-87085602D01*
X163962036Y-87087067D01*
X163920679Y-87088038D01*
X163874611Y-87088520D01*
X163826797Y-87088514D01*
X163780195Y-87088024D01*
X163737770Y-87087053D01*
X163702481Y-87085604D01*
X163677291Y-87083680D01*
X163665162Y-87081284D01*
X163664594Y-87080803D01*
X163661276Y-87072100D01*
X163652853Y-87048752D01*
X163639673Y-87011753D01*
X163622087Y-86962096D01*
X163600443Y-86900775D01*
X163575092Y-86828784D01*
X163546383Y-86747117D01*
X163514665Y-86656768D01*
X163480288Y-86558731D01*
X163443602Y-86453999D01*
X163404956Y-86343566D01*
X163364700Y-86228427D01*
X163349400Y-86184640D01*
X163300917Y-86045780D01*
X163257654Y-85921673D01*
X163219324Y-85811452D01*
X163185640Y-85714246D01*
X163156314Y-85629190D01*
X163131058Y-85555415D01*
X163109584Y-85492053D01*
X163091606Y-85438236D01*
X163076834Y-85393096D01*
X163064982Y-85355765D01*
X163055762Y-85325376D01*
X163048887Y-85301059D01*
X163044068Y-85281949D01*
X163041018Y-85267176D01*
X163039449Y-85255872D01*
X163039066Y-85248235D01*
X163039066Y-85200130D01*
X163231509Y-85202354D01*
G37*
G36*
X163791207Y-88506908D02*
G01*
X163788544Y-88560773D01*
X163783756Y-88600766D01*
X163775816Y-88629538D01*
X163763694Y-88649744D01*
X163746362Y-88664037D01*
X163726598Y-88673586D01*
X163702840Y-88682852D01*
X163689881Y-88685561D01*
X163683008Y-88680967D01*
X163677508Y-88668320D01*
X163676493Y-88665636D01*
X163672040Y-88643001D01*
X163679399Y-88630876D01*
X163688385Y-88629063D01*
X163705831Y-88621513D01*
X163719191Y-88601626D01*
X163726030Y-88573546D01*
X163726447Y-88564228D01*
X163725568Y-88542403D01*
X163720697Y-88532472D01*
X163708484Y-88529778D01*
X163701602Y-88529683D01*
X163676757Y-88529683D01*
X163676757Y-88405457D01*
X163794404Y-88405457D01*
X163791207Y-88506908D01*
G37*
G36*
X160173594Y-88521401D02*
G01*
X159783934Y-88521401D01*
X159786214Y-88651838D01*
X159788495Y-88782275D01*
X159931355Y-88784541D01*
X160074214Y-88786807D01*
X160074214Y-88893687D01*
X159931355Y-88895953D01*
X159788495Y-88898219D01*
X159784037Y-89266755D01*
X159651847Y-89266755D01*
X159651847Y-88405457D01*
X160173594Y-88405457D01*
X160173594Y-88521401D01*
G37*
G36*
X158843222Y-88813794D02*
G01*
X158845639Y-88742773D01*
X158850626Y-88676174D01*
X158857965Y-88617768D01*
X158867438Y-88571324D01*
X158869482Y-88564093D01*
X158892186Y-88515469D01*
X158927986Y-88472324D01*
X158973506Y-88438389D01*
X158991571Y-88429170D01*
X159009001Y-88421832D01*
X159025817Y-88416590D01*
X159045221Y-88413096D01*
X159070415Y-88411001D01*
X159104602Y-88409957D01*
X159150984Y-88409616D01*
X159171508Y-88409598D01*
X159223108Y-88409769D01*
X159261351Y-88410515D01*
X159289440Y-88412185D01*
X159310579Y-88415128D01*
X159327972Y-88419694D01*
X159344824Y-88426232D01*
X159351566Y-88429222D01*
X159394207Y-88455128D01*
X159431742Y-88490208D01*
X159459172Y-88529537D01*
X159464164Y-88540166D01*
X159474805Y-88572220D01*
X159482942Y-88612397D01*
X159488759Y-88662549D01*
X159492439Y-88724525D01*
X159494164Y-88800177D01*
X159494351Y-88845066D01*
X159492980Y-88934851D01*
X159488596Y-89009870D01*
X159480540Y-89071750D01*
X159468154Y-89122121D01*
X159450780Y-89162611D01*
X159427761Y-89194848D01*
X159398438Y-89220461D01*
X159362154Y-89241078D01*
X159328860Y-89254644D01*
X159300700Y-89261386D01*
X159260661Y-89266635D01*
X159213378Y-89270193D01*
X159163485Y-89271862D01*
X159115617Y-89271445D01*
X159074407Y-89268744D01*
X159056513Y-89266259D01*
X159012440Y-89253973D01*
X158968774Y-89234265D01*
X158931350Y-89210159D01*
X158910592Y-89190659D01*
X158890015Y-89159966D01*
X158873799Y-89120991D01*
X158861359Y-89071559D01*
X158852110Y-89009496D01*
X158846966Y-88954018D01*
X158843625Y-88886150D01*
X158981691Y-88886150D01*
X158982549Y-88950464D01*
X158985563Y-89001963D01*
X158991185Y-89042498D01*
X158999867Y-89073919D01*
X159012062Y-89098076D01*
X159028223Y-89116821D01*
X159048801Y-89132003D01*
X159064015Y-89140459D01*
X159087179Y-89150404D01*
X159112012Y-89156164D01*
X159144105Y-89158706D01*
X159171508Y-89159092D01*
X159211499Y-89158103D01*
X159240648Y-89154484D01*
X159264593Y-89147265D01*
X159279486Y-89140459D01*
X159307099Y-89122586D01*
X159327229Y-89098344D01*
X159337142Y-89080416D01*
X159343770Y-89066649D01*
X159348808Y-89053705D01*
X159352473Y-89039141D01*
X159354984Y-89020514D01*
X159356559Y-88995382D01*
X159357415Y-88961301D01*
X159357772Y-88915831D01*
X159357846Y-88856527D01*
X159357846Y-88848528D01*
X159357640Y-88778378D01*
X159356845Y-88722667D01*
X159355198Y-88679277D01*
X159352437Y-88646088D01*
X159348298Y-88620979D01*
X159342518Y-88601831D01*
X159334833Y-88586523D01*
X159324982Y-88572936D01*
X159323403Y-88571037D01*
X159300449Y-88547482D01*
X159275958Y-88531793D01*
X159245913Y-88522559D01*
X159206295Y-88518369D01*
X159171508Y-88517680D01*
X159115846Y-88520248D01*
X159073487Y-88528693D01*
X159041849Y-88544193D01*
X159018354Y-88567923D01*
X159003335Y-88594390D01*
X158997307Y-88608999D01*
X158992721Y-88624602D01*
X158989322Y-88643803D01*
X158986856Y-88669206D01*
X158985068Y-88703417D01*
X158983704Y-88749041D01*
X158982535Y-88807171D01*
X158981691Y-88886150D01*
X158843625Y-88886150D01*
X158843591Y-88885466D01*
X158843222Y-88813794D01*
G37*
G36*
X169202345Y-82863260D02*
G01*
X169304859Y-82883394D01*
X169403078Y-82917855D01*
X169499170Y-82967380D01*
X169583156Y-83023613D01*
X169651375Y-83081569D01*
X169712771Y-83148559D01*
X169765496Y-83221719D01*
X169807701Y-83298186D01*
X169837538Y-83375097D01*
X169851972Y-83439966D01*
X169857163Y-83477840D01*
X169534816Y-83477840D01*
X169494224Y-83413657D01*
X169445574Y-83346339D01*
X169390784Y-83287311D01*
X169332822Y-83239459D01*
X169285296Y-83210726D01*
X169228791Y-83186194D01*
X169174032Y-83171196D01*
X169115163Y-83164580D01*
X169052139Y-83164916D01*
X168967324Y-83175162D01*
X168890853Y-83198440D01*
X168819653Y-83235781D01*
X168798879Y-83249867D01*
X168731868Y-83307570D01*
X168674258Y-83377211D01*
X168626369Y-83456876D01*
X168588523Y-83544651D01*
X168561040Y-83638619D01*
X168544241Y-83736868D01*
X168538447Y-83837481D01*
X168543979Y-83938545D01*
X168561158Y-84038145D01*
X168590304Y-84134366D01*
X168631739Y-84225294D01*
X168634549Y-84230407D01*
X168662408Y-84272661D01*
X168699363Y-84317485D01*
X168741653Y-84361159D01*
X168785517Y-84399963D01*
X168827196Y-84430180D01*
X168848684Y-84442207D01*
X168935997Y-84475812D01*
X169024706Y-84493715D01*
X169113247Y-84495941D01*
X169200053Y-84482515D01*
X169283559Y-84453462D01*
X169320890Y-84434602D01*
X169365350Y-84404987D01*
X169413597Y-84364893D01*
X169461462Y-84318366D01*
X169504773Y-84269456D01*
X169538681Y-84223263D01*
X169556649Y-84194123D01*
X169567045Y-84172003D01*
X169571912Y-84150434D01*
X169573293Y-84122948D01*
X169573334Y-84113531D01*
X169573334Y-84057560D01*
X169126121Y-84057560D01*
X169126121Y-83767700D01*
X169904602Y-83767700D01*
X169904602Y-84728378D01*
X169606460Y-84728378D01*
X169606460Y-84641420D01*
X169605999Y-84605723D01*
X169604751Y-84577128D01*
X169602921Y-84559055D01*
X169601256Y-84554462D01*
X169593337Y-84559784D01*
X169576443Y-84574049D01*
X169553529Y-84594711D01*
X169540524Y-84606845D01*
X169455318Y-84676560D01*
X169363818Y-84730982D01*
X169266248Y-84770046D01*
X169162836Y-84793684D01*
X169053806Y-84801831D01*
X168939384Y-84794419D01*
X168914938Y-84790919D01*
X168798790Y-84765127D01*
X168691398Y-84725336D01*
X168592343Y-84671335D01*
X168501205Y-84602914D01*
X168456609Y-84561373D01*
X168378615Y-84471799D01*
X168312571Y-84371008D01*
X168258760Y-84259540D01*
X168217463Y-84137934D01*
X168201732Y-84074123D01*
X168194503Y-84028728D01*
X168189346Y-83971198D01*
X168186268Y-83905726D01*
X168185279Y-83836507D01*
X168186387Y-83767736D01*
X168189601Y-83703606D01*
X168194928Y-83648313D01*
X168200795Y-83612901D01*
X168235527Y-83485013D01*
X168282277Y-83368150D01*
X168341445Y-83261531D01*
X168413435Y-83164374D01*
X168454679Y-83118770D01*
X168543120Y-83038420D01*
X168639381Y-82972649D01*
X168743296Y-82921525D01*
X168854695Y-82885118D01*
X168973410Y-82863496D01*
X169093368Y-82856712D01*
X169202345Y-82863260D01*
G37*
%TO.C,FB204*%
X152371521Y-96798866D02*
X153170765Y-96798866D01*
X152371521Y-95678866D02*
X153170765Y-95678866D01*
%TO.C,U501*%
X170522437Y-103278743D02*
X170522437Y-101328743D01*
X175642437Y-103278743D02*
X175642437Y-101328743D01*
X175642437Y-103278743D02*
X175642437Y-105228743D01*
X170522437Y-103278743D02*
X170522437Y-106728743D01*
%TO.C,FB203*%
X152171520Y-101615863D02*
X152970764Y-101615863D01*
X152171520Y-102735863D02*
X152970764Y-102735863D01*
%TO.C,U201*%
X148571141Y-87135863D02*
X147771141Y-87135863D01*
X148571141Y-84015863D02*
X149371141Y-84015863D01*
X148571141Y-87135863D02*
X149371141Y-87135863D01*
X148571141Y-84015863D02*
X146771141Y-84015863D01*
%TO.C,C405*%
X174411722Y-85365863D02*
X174130562Y-85365863D01*
X174411722Y-86385863D02*
X174130562Y-86385863D01*
D11*
%TO.C,U205*%
X148569142Y-97649864D02*
X150069142Y-97649864D01*
X147069142Y-100899864D02*
X150069142Y-100899864D01*
D10*
%TO.C,J102*%
X125951141Y-102399677D02*
X125951141Y-87039677D01*
X125951141Y-102399677D02*
X123351141Y-102399677D01*
X120751141Y-99799677D02*
X120751141Y-87039677D01*
X123351141Y-99799677D02*
X120751141Y-99799677D01*
X120751141Y-102399677D02*
X120751141Y-101069677D01*
X123351141Y-102399677D02*
X123351141Y-99799677D01*
X122081141Y-102399677D02*
X120751141Y-102399677D01*
X125951141Y-87039677D02*
X120751141Y-87039677D01*
%TO.C,C504*%
X168521091Y-99803456D02*
X168802251Y-99803456D01*
X168521091Y-100823456D02*
X168802251Y-100823456D01*
%TO.C,TP204*%
X155471140Y-98325864D02*
G75*
G03*
X155471140Y-98325864I-700000J0D01*
G01*
%TO.C,U202*%
X147054512Y-94685864D02*
X150054512Y-94685864D01*
X148554512Y-91465864D02*
X150054512Y-91465864D01*
%TO.C,TP301*%
X170021143Y-97625862D02*
G75*
G03*
X170021143Y-97625862I-700000J0D01*
G01*
%TO.C,C502*%
X168881142Y-102138027D02*
X168881142Y-102353699D01*
X168161142Y-102138027D02*
X168161142Y-102353699D01*
%TO.C,C301*%
X158034142Y-96223865D02*
X158034142Y-92313865D01*
X158034142Y-92313865D02*
X156164142Y-92313865D01*
X156164142Y-92313865D02*
X156164142Y-96223865D01*
%TO.C,C213*%
X129516144Y-91674029D02*
X129516144Y-91889701D01*
X130236144Y-91674029D02*
X130236144Y-91889701D01*
%TO.C,C202*%
X151061141Y-86316443D02*
X151061141Y-86035283D01*
X152081141Y-86316443D02*
X152081141Y-86035283D01*
%TO.C,R202*%
X144200503Y-91625863D02*
X144507785Y-91625863D01*
X144200503Y-90865863D02*
X144507785Y-90865863D01*
%TO.C,C211*%
X152081141Y-104816444D02*
X152081141Y-104535284D01*
X151061141Y-104816444D02*
X151061141Y-104535284D01*
%TO.C,C404*%
X171161141Y-82940863D02*
X171161141Y-84810863D01*
X175071141Y-82940863D02*
X171161141Y-82940863D01*
X171161141Y-84810863D02*
X175071141Y-84810863D01*
%TO.C,D201*%
X135829143Y-86378865D02*
X133829143Y-86378865D01*
X135829143Y-86378865D02*
X135829143Y-90228865D01*
X133829143Y-86378865D02*
X133829143Y-90228865D01*
%TO.C,U401*%
X180171142Y-88085862D02*
X178221142Y-88085862D01*
X180171142Y-82965862D02*
X176721142Y-82965862D01*
X180171142Y-82965862D02*
X182121142Y-82965862D01*
X180171142Y-88085862D02*
X182121142Y-88085862D01*
%TO.C,C220*%
X149247022Y-95453864D02*
X148724518Y-95453864D01*
X149247022Y-96923864D02*
X148724518Y-96923864D01*
D11*
%TO.C,U402*%
X171057439Y-91511142D02*
X171707439Y-91511142D01*
X181707439Y-91511142D02*
X181707439Y-97261142D01*
X181707439Y-91511142D02*
X181132439Y-91511142D01*
X181707439Y-97261142D02*
X181057439Y-97261142D01*
X171057439Y-91511142D02*
X171057439Y-97261142D01*
X171057439Y-97261142D02*
X171707439Y-97261142D01*
X181132439Y-91511142D02*
X181132439Y-89911142D01*
D10*
%TO.C,L203*%
X134243141Y-100290863D02*
X135268141Y-100290863D01*
X134243141Y-105060863D02*
X134243141Y-104035863D01*
X138463141Y-100290863D02*
X138463141Y-101315863D01*
X134243141Y-105060863D02*
X135268141Y-105060863D01*
X138463141Y-100290863D02*
X137438141Y-100290863D01*
X134243141Y-100290863D02*
X134243141Y-101315863D01*
X138463141Y-105060863D02*
X137438141Y-105060863D01*
X138463141Y-105060863D02*
X138463141Y-104035863D01*
%TO.C,TP201*%
X145171144Y-88275862D02*
G75*
G03*
X145171144Y-88275862I-700000J0D01*
G01*
%TO.C,U204*%
X132313143Y-95268865D02*
X135313143Y-95268865D01*
X133813143Y-92048865D02*
X135313143Y-92048865D01*
%TO.C,L202*%
X137270141Y-95231863D02*
X137270141Y-96256863D01*
X137270141Y-99451863D02*
X138295141Y-99451863D01*
X137270141Y-99451863D02*
X137270141Y-98426863D01*
X142040141Y-95231863D02*
X142040141Y-96256863D01*
X142040141Y-99451863D02*
X141015141Y-99451863D01*
X142040141Y-95231863D02*
X141015141Y-95231863D01*
X142040141Y-99451863D02*
X142040141Y-98426863D01*
X137270141Y-95231863D02*
X138295141Y-95231863D01*
%TO.C,TP203*%
X144271142Y-102775865D02*
G75*
G03*
X144271142Y-102775865I-700000J0D01*
G01*
%TO.C,R207*%
X129113142Y-95664224D02*
X129113142Y-95971506D01*
X128353142Y-95664224D02*
X128353142Y-95971506D01*
%TO.C,R204*%
X130094641Y-88719505D02*
X130094641Y-88412223D01*
X129334641Y-88719505D02*
X129334641Y-88412223D01*
%TO.C,C215*%
X144461978Y-96854861D02*
X144246306Y-96854861D01*
X144461978Y-97574861D02*
X144246306Y-97574861D01*
%TO.C,C208*%
X149323764Y-90762862D02*
X148801260Y-90762862D01*
X149323764Y-89292862D02*
X148801260Y-89292862D01*
%TO.C,C209*%
X133278141Y-87809611D02*
X133278141Y-88332115D01*
X131808141Y-87809611D02*
X131808141Y-88332115D01*
%TO.C,C218*%
X129516144Y-95925701D02*
X129516144Y-95710029D01*
X130236144Y-95925701D02*
X130236144Y-95710029D01*
%TO.C,C409*%
X183681142Y-99016443D02*
X183681142Y-98735283D01*
X182661142Y-99016443D02*
X182661142Y-98735283D01*
%TO.C,FB202*%
X152371518Y-90587862D02*
X153170762Y-90587862D01*
X152371518Y-89467862D02*
X153170762Y-89467862D01*
%TO.C,C216*%
X152525304Y-98406865D02*
X152740976Y-98406865D01*
X152525304Y-99126865D02*
X152740976Y-99126865D01*
%TO.C,TP202*%
X155471140Y-92175865D02*
G75*
G03*
X155471140Y-92175865I-700000J0D01*
G01*
%TO.C,U502*%
X163071142Y-99890863D02*
X160871142Y-99890863D01*
X163071142Y-106660863D02*
X166671142Y-106660863D01*
X163071142Y-106660863D02*
X160871142Y-106660863D01*
X163071142Y-99890863D02*
X165271142Y-99890863D01*
%TO.C,C204*%
X152510678Y-92207866D02*
X152726350Y-92207866D01*
X152510678Y-92927866D02*
X152726350Y-92927866D01*
%TO.C,R203*%
X130195998Y-89836865D02*
X130503280Y-89836865D01*
X130195998Y-90596865D02*
X130503280Y-90596865D01*
%TO.C,C210*%
X144461980Y-90462864D02*
X144246308Y-90462864D01*
X144461980Y-89742864D02*
X144246308Y-89742864D01*
%TO.C,C406*%
X179513304Y-89285864D02*
X179728976Y-89285864D01*
X179513304Y-88565864D02*
X179728976Y-88565864D01*
%TO.C,C507*%
X157361063Y-106730363D02*
X157642223Y-106730363D01*
X157361063Y-105710363D02*
X157642223Y-105710363D01*
%TO.C,R502*%
X169917141Y-102092222D02*
X169917141Y-102399504D01*
X169157141Y-102092222D02*
X169157141Y-102399504D01*
%TO.C,C219*%
X140644140Y-101652613D02*
X140644140Y-102175117D01*
X139174140Y-101652613D02*
X139174140Y-102175117D01*
%TO.C,U403*%
X180171142Y-100715863D02*
X182121142Y-100715863D01*
X180171142Y-105835863D02*
X182121142Y-105835863D01*
X180171142Y-105835863D02*
X178221142Y-105835863D01*
X180171142Y-100715863D02*
X176721142Y-100715863D01*
%TO.C,C303*%
X170056144Y-95037116D02*
X170056144Y-94514612D01*
X168586144Y-95037116D02*
X168586144Y-94514612D01*
%TO.C,C410*%
X179890272Y-99465865D02*
X179674600Y-99465865D01*
X179890272Y-100185865D02*
X179674600Y-100185865D01*
%TO.C,FB201*%
X152171520Y-84235865D02*
X152970764Y-84235865D01*
X152171520Y-83115865D02*
X152970764Y-83115865D01*
%TO.C,C408*%
X185930559Y-84085863D02*
X186211719Y-84085863D01*
X185930559Y-83065863D02*
X186211719Y-83065863D01*
%TO.C,C206*%
X145267141Y-92723865D02*
X141357141Y-92723865D01*
X141357141Y-94593865D02*
X145267141Y-94593865D01*
X145267141Y-94593865D02*
X145267141Y-92723865D01*
%TO.C,C203*%
X138570890Y-92923861D02*
X139093394Y-92923861D01*
X138570890Y-94393861D02*
X139093394Y-94393861D01*
%TO.C,C207*%
X146081142Y-104016443D02*
X146081142Y-103735283D01*
X145061142Y-104016443D02*
X145061142Y-103735283D01*
%TO.C,C217*%
X134348140Y-98492116D02*
X134348140Y-97969612D01*
X135818140Y-98492116D02*
X135818140Y-97969612D01*
%TO.C,R403*%
X185888899Y-104432864D02*
X185414383Y-104432864D01*
X185888899Y-103387864D02*
X185414383Y-103387864D01*
%TO.C,R205*%
X152786781Y-99402863D02*
X152479499Y-99402863D01*
X152786781Y-100162863D02*
X152479499Y-100162863D01*
%TO.C,R206*%
X144509782Y-96451864D02*
X144202500Y-96451864D01*
X144509782Y-95691864D02*
X144202500Y-95691864D01*
%TO.C,D202*%
X133670142Y-97681866D02*
X131670142Y-97681866D01*
X131670142Y-97681866D02*
X131670142Y-101531866D01*
X133670142Y-97681866D02*
X133670142Y-101531866D01*
%TO.C,R208*%
X129496144Y-93632224D02*
X129496144Y-93939506D01*
X130256144Y-93632224D02*
X130256144Y-93939506D01*
%TO.C,U301*%
X160721143Y-92125862D02*
X160721143Y-93025862D01*
X163921143Y-97425862D02*
X166021143Y-97425862D01*
X160821143Y-97425862D02*
X162921143Y-97425862D01*
X162921143Y-92125862D02*
X160721143Y-92125862D01*
X163921143Y-92125862D02*
X166021143Y-92125862D01*
%TO.C,C501*%
X168161142Y-104385699D02*
X168161142Y-104170027D01*
X168881142Y-104385699D02*
X168881142Y-104170027D01*
%TO.C,U203*%
X148571141Y-102515863D02*
X146771141Y-102515863D01*
X148571141Y-105635863D02*
X149371141Y-105635863D01*
X148571141Y-105635863D02*
X147771141Y-105635863D01*
X148571141Y-102515863D02*
X149371141Y-102515863D01*
%TO.C,R201*%
X152772152Y-93963863D02*
X152464870Y-93963863D01*
X152772152Y-93203863D02*
X152464870Y-93203863D01*
%TO.C,C214*%
X153061141Y-104816443D02*
X153061141Y-104535283D01*
X154081141Y-104816443D02*
X154081141Y-104535283D01*
%TO.C,C403*%
X184561142Y-86510863D02*
X188471142Y-86510863D01*
X184561142Y-84640863D02*
X184561142Y-86510863D01*
X188471142Y-84640863D02*
X184561142Y-84640863D01*
%TO.C,R501*%
X169157139Y-104431504D02*
X169157139Y-104124222D01*
X169917139Y-104431504D02*
X169917139Y-104124222D01*
%TO.C,L201*%
X137270141Y-92085864D02*
X137270141Y-91060864D01*
X137270141Y-87865864D02*
X137270141Y-88890864D01*
X137270141Y-92085864D02*
X138295141Y-92085864D01*
X142040141Y-92085864D02*
X142040141Y-91060864D01*
X137270141Y-87865864D02*
X138295141Y-87865864D01*
X142040141Y-87865864D02*
X141015141Y-87865864D01*
X142040141Y-87865864D02*
X142040141Y-88890864D01*
X142040141Y-92085864D02*
X141015141Y-92085864D01*
%TO.C,C212*%
X130497641Y-88458028D02*
X130497641Y-88673700D01*
X131217641Y-88458028D02*
X131217641Y-88673700D01*
%TO.C,C201*%
X145061142Y-85716443D02*
X145061142Y-85435283D01*
X146081142Y-85716443D02*
X146081142Y-85435283D01*
%TO.C,C505*%
X168511062Y-105710363D02*
X168792222Y-105710363D01*
X168511062Y-106730363D02*
X168792222Y-106730363D01*
%TD*%
M02*
